<?xml version="1.0" encoding="utf-8" standalone="no"?>
<!DOCTYPE svg PUBLIC "-//W3C//DTD SVG 1.1//EN"
  "http://www.w3.org/Graphics/SVG/1.1/DTD/svg11.dtd">
<svg xmlns:xlink="http://www.w3.org/1999/xlink" width="568.754687pt" height="309.32125pt" viewBox="0 0 568.754687 309.32125" xmlns="http://www.w3.org/2000/svg" version="1.1">
 <metadata>
  <rdf:RDF xmlns:dc="http://purl.org/dc/elements/1.1/" xmlns:cc="http://creativecommons.org/ns#" xmlns:rdf="http://www.w3.org/1999/02/22-rdf-syntax-ns#">
   <cc:Work>
    <dc:type rdf:resource="http://purl.org/dc/dcmitype/StillImage"/>
    <dc:date>2025-11-13T12:53:28.287633</dc:date>
    <dc:format>image/svg+xml</dc:format>
    <dc:creator>
     <cc:Agent>
      <dc:title>Matplotlib v3.9.4, https://matplotlib.org/</dc:title>
     </cc:Agent>
    </dc:creator>
   </cc:Work>
  </rdf:RDF>
 </metadata>
 <defs>
  <style type="text/css">*{stroke-linejoin: round; stroke-linecap: butt}</style>
 </defs>
 <g id="figure_1">
  <g id="patch_1">
   <path d="M 0 309.32125 
L 568.754687 309.32125 
L 568.754687 0 
L 0 0 
z
" style="fill: #ffffff"/>
  </g>
  <g id="axes_1">
   <g id="patch_2">
    <path d="M 35.304688 285.443125 
L 561.554687 285.443125 
L 561.554687 22.318125 
L 35.304688 22.318125 
z
" style="fill: #ffffff"/>
   </g>
   <g id="matplotlib.axis_1">
    <g id="xtick_1">
     <g id="line2d_1">
      <path d="M 104.660315 285.443125 
L 104.660315 22.318125 
" clip-path="url(#pc9a96b71b4)" style="fill: none; stroke: #b0b0b0; stroke-width: 0.8; stroke-linecap: square"/>
     </g>
     <g id="line2d_2">
      <defs>
       <path id="m27477b3291" d="M 0 0 
L 0 3.5 
" style="stroke: #000000; stroke-width: 0.8"/>
      </defs>
      <g>
       <use xlink:href="#m27477b3291" x="104.660315" y="285.443125" style="stroke: #000000; stroke-width: 0.8"/>
      </g>
     </g>
     <g id="text_1">
      <!-- −40 -->
      <g transform="translate(94.107971 300.041562) scale(0.1 -0.1)">
       <defs>
        <path id="DejaVuSans-2212" d="M 678 2272 
L 4684 2272 
L 4684 1741 
L 678 1741 
L 678 2272 
z
" transform="scale(0.015625)"/>
        <path id="DejaVuSans-34" d="M 2419 4116 
L 825 1625 
L 2419 1625 
L 2419 4116 
z
M 2253 4666 
L 3047 4666 
L 3047 1625 
L 3713 1625 
L 3713 1100 
L 3047 1100 
L 3047 0 
L 2419 0 
L 2419 1100 
L 313 1100 
L 313 1709 
L 2253 4666 
z
" transform="scale(0.015625)"/>
        <path id="DejaVuSans-30" d="M 2034 4250 
Q 1547 4250 1301 3770 
Q 1056 3291 1056 2328 
Q 1056 1369 1301 889 
Q 1547 409 2034 409 
Q 2525 409 2770 889 
Q 3016 1369 3016 2328 
Q 3016 3291 2770 3770 
Q 2525 4250 2034 4250 
z
M 2034 4750 
Q 2819 4750 3233 4129 
Q 3647 3509 3647 2328 
Q 3647 1150 3233 529 
Q 2819 -91 2034 -91 
Q 1250 -91 836 529 
Q 422 1150 422 2328 
Q 422 3509 836 4129 
Q 1250 4750 2034 4750 
z
" transform="scale(0.015625)"/>
       </defs>
       <use xlink:href="#DejaVuSans-2212"/>
       <use xlink:href="#DejaVuSans-34" x="83.789062"/>
       <use xlink:href="#DejaVuSans-30" x="147.412109"/>
      </g>
     </g>
    </g>
    <g id="xtick_2">
     <g id="line2d_3">
      <path d="M 203.952768 285.443125 
L 203.952768 22.318125 
" clip-path="url(#pc9a96b71b4)" style="fill: none; stroke: #b0b0b0; stroke-width: 0.8; stroke-linecap: square"/>
     </g>
     <g id="line2d_4">
      <g>
       <use xlink:href="#m27477b3291" x="203.952768" y="285.443125" style="stroke: #000000; stroke-width: 0.8"/>
      </g>
     </g>
     <g id="text_2">
      <!-- −20 -->
      <g transform="translate(193.400424 300.041562) scale(0.1 -0.1)">
       <defs>
        <path id="DejaVuSans-32" d="M 1228 531 
L 3431 531 
L 3431 0 
L 469 0 
L 469 531 
Q 828 903 1448 1529 
Q 2069 2156 2228 2338 
Q 2531 2678 2651 2914 
Q 2772 3150 2772 3378 
Q 2772 3750 2511 3984 
Q 2250 4219 1831 4219 
Q 1534 4219 1204 4116 
Q 875 4013 500 3803 
L 500 4441 
Q 881 4594 1212 4672 
Q 1544 4750 1819 4750 
Q 2544 4750 2975 4387 
Q 3406 4025 3406 3419 
Q 3406 3131 3298 2873 
Q 3191 2616 2906 2266 
Q 2828 2175 2409 1742 
Q 1991 1309 1228 531 
z
" transform="scale(0.015625)"/>
       </defs>
       <use xlink:href="#DejaVuSans-2212"/>
       <use xlink:href="#DejaVuSans-32" x="83.789062"/>
       <use xlink:href="#DejaVuSans-30" x="147.412109"/>
      </g>
     </g>
    </g>
    <g id="xtick_3">
     <g id="line2d_5">
      <path d="M 303.24522 285.443125 
L 303.24522 22.318125 
" clip-path="url(#pc9a96b71b4)" style="fill: none; stroke: #b0b0b0; stroke-width: 0.8; stroke-linecap: square"/>
     </g>
     <g id="line2d_6">
      <g>
       <use xlink:href="#m27477b3291" x="303.24522" y="285.443125" style="stroke: #000000; stroke-width: 0.8"/>
      </g>
     </g>
     <g id="text_3">
      <!-- 0 -->
      <g transform="translate(300.06397 300.041562) scale(0.1 -0.1)">
       <use xlink:href="#DejaVuSans-30"/>
      </g>
     </g>
    </g>
    <g id="xtick_4">
     <g id="line2d_7">
      <path d="M 402.537673 285.443125 
L 402.537673 22.318125 
" clip-path="url(#pc9a96b71b4)" style="fill: none; stroke: #b0b0b0; stroke-width: 0.8; stroke-linecap: square"/>
     </g>
     <g id="line2d_8">
      <g>
       <use xlink:href="#m27477b3291" x="402.537673" y="285.443125" style="stroke: #000000; stroke-width: 0.8"/>
      </g>
     </g>
     <g id="text_4">
      <!-- 20 -->
      <g transform="translate(396.175173 300.041562) scale(0.1 -0.1)">
       <use xlink:href="#DejaVuSans-32"/>
       <use xlink:href="#DejaVuSans-30" x="63.623047"/>
      </g>
     </g>
    </g>
    <g id="xtick_5">
     <g id="line2d_9">
      <path d="M 501.830126 285.443125 
L 501.830126 22.318125 
" clip-path="url(#pc9a96b71b4)" style="fill: none; stroke: #b0b0b0; stroke-width: 0.8; stroke-linecap: square"/>
     </g>
     <g id="line2d_10">
      <g>
       <use xlink:href="#m27477b3291" x="501.830126" y="285.443125" style="stroke: #000000; stroke-width: 0.8"/>
      </g>
     </g>
     <g id="text_5">
      <!-- 40 -->
      <g transform="translate(495.467626 300.041562) scale(0.1 -0.1)">
       <use xlink:href="#DejaVuSans-34"/>
       <use xlink:href="#DejaVuSans-30" x="63.623047"/>
      </g>
     </g>
    </g>
   </g>
   <g id="matplotlib.axis_2">
    <g id="ytick_1">
     <g id="line2d_11">
      <path d="M 35.304688 252.520794 
L 561.554687 252.520794 
" clip-path="url(#pc9a96b71b4)" style="fill: none; stroke: #b0b0b0; stroke-width: 0.8; stroke-linecap: square"/>
     </g>
     <g id="line2d_12">
      <defs>
       <path id="mc31a801d74" d="M 0 0 
L -3.5 0 
" style="stroke: #000000; stroke-width: 0.8"/>
      </defs>
      <g>
       <use xlink:href="#mc31a801d74" x="35.304688" y="252.520794" style="stroke: #000000; stroke-width: 0.8"/>
      </g>
     </g>
     <g id="text_6">
      <!-- −20 -->
      <g transform="translate(7.2 256.320012) scale(0.1 -0.1)">
       <use xlink:href="#DejaVuSans-2212"/>
       <use xlink:href="#DejaVuSans-32" x="83.789062"/>
       <use xlink:href="#DejaVuSans-30" x="147.412109"/>
      </g>
     </g>
    </g>
    <g id="ytick_2">
     <g id="line2d_13">
      <path d="M 35.304688 202.874567 
L 561.554687 202.874567 
" clip-path="url(#pc9a96b71b4)" style="fill: none; stroke: #b0b0b0; stroke-width: 0.8; stroke-linecap: square"/>
     </g>
     <g id="line2d_14">
      <g>
       <use xlink:href="#mc31a801d74" x="35.304688" y="202.874567" style="stroke: #000000; stroke-width: 0.8"/>
      </g>
     </g>
     <g id="text_7">
      <!-- −10 -->
      <g transform="translate(7.2 206.673786) scale(0.1 -0.1)">
       <defs>
        <path id="DejaVuSans-31" d="M 794 531 
L 1825 531 
L 1825 4091 
L 703 3866 
L 703 4441 
L 1819 4666 
L 2450 4666 
L 2450 531 
L 3481 531 
L 3481 0 
L 794 0 
L 794 531 
z
" transform="scale(0.015625)"/>
       </defs>
       <use xlink:href="#DejaVuSans-2212"/>
       <use xlink:href="#DejaVuSans-31" x="83.789062"/>
       <use xlink:href="#DejaVuSans-30" x="147.412109"/>
      </g>
     </g>
    </g>
    <g id="ytick_3">
     <g id="line2d_15">
      <path d="M 35.304688 153.228341 
L 561.554687 153.228341 
" clip-path="url(#pc9a96b71b4)" style="fill: none; stroke: #b0b0b0; stroke-width: 0.8; stroke-linecap: square"/>
     </g>
     <g id="line2d_16">
      <g>
       <use xlink:href="#mc31a801d74" x="35.304688" y="153.228341" style="stroke: #000000; stroke-width: 0.8"/>
      </g>
     </g>
     <g id="text_8">
      <!-- 0 -->
      <g transform="translate(21.942187 157.02756) scale(0.1 -0.1)">
       <use xlink:href="#DejaVuSans-30"/>
      </g>
     </g>
    </g>
    <g id="ytick_4">
     <g id="line2d_17">
      <path d="M 35.304688 103.582114 
L 561.554687 103.582114 
" clip-path="url(#pc9a96b71b4)" style="fill: none; stroke: #b0b0b0; stroke-width: 0.8; stroke-linecap: square"/>
     </g>
     <g id="line2d_18">
      <g>
       <use xlink:href="#mc31a801d74" x="35.304688" y="103.582114" style="stroke: #000000; stroke-width: 0.8"/>
      </g>
     </g>
     <g id="text_9">
      <!-- 10 -->
      <g transform="translate(15.579687 107.381333) scale(0.1 -0.1)">
       <use xlink:href="#DejaVuSans-31"/>
       <use xlink:href="#DejaVuSans-30" x="63.623047"/>
      </g>
     </g>
    </g>
    <g id="ytick_5">
     <g id="line2d_19">
      <path d="M 35.304688 53.935888 
L 561.554687 53.935888 
" clip-path="url(#pc9a96b71b4)" style="fill: none; stroke: #b0b0b0; stroke-width: 0.8; stroke-linecap: square"/>
     </g>
     <g id="line2d_20">
      <g>
       <use xlink:href="#mc31a801d74" x="35.304688" y="53.935888" style="stroke: #000000; stroke-width: 0.8"/>
      </g>
     </g>
     <g id="text_10">
      <!-- 20 -->
      <g transform="translate(15.579687 57.735107) scale(0.1 -0.1)">
       <use xlink:href="#DejaVuSans-32"/>
       <use xlink:href="#DejaVuSans-30" x="63.623047"/>
      </g>
     </g>
    </g>
   </g>
   <g id="line2d_21">
    <path d="M 84.950914 230.832276 
L 84.950914 106.71671 
" clip-path="url(#pc9a96b71b4)" style="fill: none; stroke: #0000ff; stroke-width: 3; stroke-linecap: square"/>
   </g>
   <g id="line2d_22">
    <path d="M 84.950914 106.71671 
L 109.774027 76.928974 
" clip-path="url(#pc9a96b71b4)" style="fill: none; stroke: #0000ff; stroke-width: 3; stroke-linecap: square"/>
   </g>
   <g id="line2d_23">
    <path d="M 109.774027 76.928974 
L 477.156103 71.964351 
" clip-path="url(#pc9a96b71b4)" style="fill: none; stroke: #0000ff; stroke-width: 3; stroke-linecap: square"/>
   </g>
   <g id="line2d_24">
    <path d="M 477.156103 71.964351 
L 511.908461 96.787465 
" clip-path="url(#pc9a96b71b4)" style="fill: none; stroke: #0000ff; stroke-width: 3; stroke-linecap: square"/>
   </g>
   <g id="line2d_25">
    <path d="M 569.754687 170.778671 
L 521.799857 167.353326 
" clip-path="url(#pc9a96b71b4)" style="fill: none; stroke: #bf00bf; stroke-width: 1.5; stroke-linecap: square"/>
   </g>
   <g id="line2d_26">
    <path d="M 544.791313 193.88193 
L 498.8084 140.824722 
" clip-path="url(#pc9a96b71b4)" style="fill: none; stroke: #bf00bf; stroke-width: 1.5; stroke-linecap: square"/>
   </g>
   <g id="line2d_27">
    <path d="M 544.791313 193.88193 
L 505.175265 191.052212 
" clip-path="url(#pc9a96b71b4)" style="fill: none; stroke: #bf00bf; stroke-width: 1.5; stroke-linecap: square"/>
   </g>
   <g id="line2d_28">
    <path d="M 498.8084 140.824722 
L 459.192352 137.995004 
" clip-path="url(#pc9a96b71b4)" style="fill: none; stroke: #bf00bf; stroke-width: 1.5; stroke-linecap: square"/>
   </g>
   <g id="line2d_29">
    <path d="M 511.908461 96.787465 
L 501.979216 235.796899 
" clip-path="url(#pc9a96b71b4)" style="fill: none; stroke: #0000ff; stroke-width: 3; stroke-linecap: square"/>
   </g>
   <g id="line2d_30">
    <path d="M 501.979216 235.796899 
L 84.950914 230.832276 
" clip-path="url(#pc9a96b71b4)" style="fill: none; stroke: #0000ff; stroke-width: 3; stroke-linecap: square"/>
   </g>
   <g id="line2d_31">
    <path d="M 264.308159 79.101729 
L 254.378914 218.111163 
L 501.979216 235.796899 
L 511.908461 96.787465 
L 264.308159 79.101729 
" clip-path="url(#pc9a96b71b4)" style="fill: none; stroke-dasharray: 1.85,0.8; stroke-dashoffset: 0; stroke: #008000; stroke-width: 0.5"/>
   </g>
   <g id="line2d_32">
    <defs>
     <path id="m6fdc0982dc" d="M -2 2 
L 2 -2 
M -2 -2 
L 2 2 
" style="stroke: #ff0000"/>
    </defs>
    <g clip-path="url(#pc9a96b71b4)">
     <use xlink:href="#m6fdc0982dc" x="271.723551" y="86.777113" style="fill: #ff0000; stroke: #ff0000"/>
     <use xlink:href="#m6fdc0982dc" x="289.550773" y="88.050486" style="fill: #ff0000; stroke: #ff0000"/>
     <use xlink:href="#m6fdc0982dc" x="307.377995" y="89.323859" style="fill: #ff0000; stroke: #ff0000"/>
     <use xlink:href="#m6fdc0982dc" x="325.205217" y="90.597232" style="fill: #ff0000; stroke: #ff0000"/>
     <use xlink:href="#m6fdc0982dc" x="343.032438" y="91.870605" style="fill: #ff0000; stroke: #ff0000"/>
     <use xlink:href="#m6fdc0982dc" x="360.85966" y="93.143978" style="fill: #ff0000; stroke: #ff0000"/>
     <use xlink:href="#m6fdc0982dc" x="378.686882" y="94.417351" style="fill: #ff0000; stroke: #ff0000"/>
     <use xlink:href="#m6fdc0982dc" x="396.514104" y="95.690724" style="fill: #ff0000; stroke: #ff0000"/>
     <use xlink:href="#m6fdc0982dc" x="414.341325" y="96.964097" style="fill: #ff0000; stroke: #ff0000"/>
     <use xlink:href="#m6fdc0982dc" x="432.168547" y="98.23747" style="fill: #ff0000; stroke: #ff0000"/>
     <use xlink:href="#m6fdc0982dc" x="449.995769" y="99.510843" style="fill: #ff0000; stroke: #ff0000"/>
     <use xlink:href="#m6fdc0982dc" x="467.822991" y="100.784216" style="fill: #ff0000; stroke: #ff0000"/>
     <use xlink:href="#m6fdc0982dc" x="485.650212" y="102.057589" style="fill: #ff0000; stroke: #ff0000"/>
     <use xlink:href="#m6fdc0982dc" x="503.477434" y="103.330962" style="fill: #ff0000; stroke: #ff0000"/>
     <use xlink:href="#m6fdc0982dc" x="270.450178" y="104.604335" style="fill: #ff0000; stroke: #ff0000"/>
     <use xlink:href="#m6fdc0982dc" x="288.2774" y="105.877708" style="fill: #ff0000; stroke: #ff0000"/>
     <use xlink:href="#m6fdc0982dc" x="306.104622" y="107.151081" style="fill: #ff0000; stroke: #ff0000"/>
     <use xlink:href="#m6fdc0982dc" x="323.931844" y="108.424454" style="fill: #ff0000; stroke: #ff0000"/>
     <use xlink:href="#m6fdc0982dc" x="341.759065" y="109.697827" style="fill: #ff0000; stroke: #ff0000"/>
     <use xlink:href="#m6fdc0982dc" x="359.586287" y="110.9712" style="fill: #ff0000; stroke: #ff0000"/>
     <use xlink:href="#m6fdc0982dc" x="377.413509" y="112.244573" style="fill: #ff0000; stroke: #ff0000"/>
     <use xlink:href="#m6fdc0982dc" x="395.240731" y="113.517946" style="fill: #ff0000; stroke: #ff0000"/>
     <use xlink:href="#m6fdc0982dc" x="413.067952" y="114.791319" style="fill: #ff0000; stroke: #ff0000"/>
     <use xlink:href="#m6fdc0982dc" x="430.895174" y="116.064692" style="fill: #ff0000; stroke: #ff0000"/>
     <use xlink:href="#m6fdc0982dc" x="448.722396" y="117.338065" style="fill: #ff0000; stroke: #ff0000"/>
     <use xlink:href="#m6fdc0982dc" x="466.549618" y="118.611438" style="fill: #ff0000; stroke: #ff0000"/>
     <use xlink:href="#m6fdc0982dc" x="484.376839" y="119.884811" style="fill: #ff0000; stroke: #ff0000"/>
     <use xlink:href="#m6fdc0982dc" x="502.204061" y="121.158184" style="fill: #ff0000; stroke: #ff0000"/>
     <use xlink:href="#m6fdc0982dc" x="269.176805" y="122.431557" style="fill: #ff0000; stroke: #ff0000"/>
     <use xlink:href="#m6fdc0982dc" x="287.004027" y="123.70493" style="fill: #ff0000; stroke: #ff0000"/>
     <use xlink:href="#m6fdc0982dc" x="304.831249" y="124.978303" style="fill: #ff0000; stroke: #ff0000"/>
     <use xlink:href="#m6fdc0982dc" x="322.658471" y="126.251676" style="fill: #ff0000; stroke: #ff0000"/>
     <use xlink:href="#m6fdc0982dc" x="340.485692" y="127.525049" style="fill: #ff0000; stroke: #ff0000"/>
     <use xlink:href="#m6fdc0982dc" x="358.312914" y="128.798422" style="fill: #ff0000; stroke: #ff0000"/>
     <use xlink:href="#m6fdc0982dc" x="376.140136" y="130.071795" style="fill: #ff0000; stroke: #ff0000"/>
     <use xlink:href="#m6fdc0982dc" x="393.967358" y="131.345168" style="fill: #ff0000; stroke: #ff0000"/>
     <use xlink:href="#m6fdc0982dc" x="411.794579" y="132.61854" style="fill: #ff0000; stroke: #ff0000"/>
     <use xlink:href="#m6fdc0982dc" x="429.621801" y="133.891913" style="fill: #ff0000; stroke: #ff0000"/>
     <use xlink:href="#m6fdc0982dc" x="447.449023" y="135.165286" style="fill: #ff0000; stroke: #ff0000"/>
     <use xlink:href="#m6fdc0982dc" x="465.276245" y="136.438659" style="fill: #ff0000; stroke: #ff0000"/>
     <use xlink:href="#m6fdc0982dc" x="483.103466" y="137.712032" style="fill: #ff0000; stroke: #ff0000"/>
     <use xlink:href="#m6fdc0982dc" x="500.930688" y="138.985405" style="fill: #ff0000; stroke: #ff0000"/>
     <use xlink:href="#m6fdc0982dc" x="267.903432" y="140.258778" style="fill: #ff0000; stroke: #ff0000"/>
     <use xlink:href="#m6fdc0982dc" x="285.730654" y="141.532151" style="fill: #ff0000; stroke: #ff0000"/>
     <use xlink:href="#m6fdc0982dc" x="303.557876" y="142.805524" style="fill: #ff0000; stroke: #ff0000"/>
     <use xlink:href="#m6fdc0982dc" x="321.385098" y="144.078897" style="fill: #ff0000; stroke: #ff0000"/>
     <use xlink:href="#m6fdc0982dc" x="339.212319" y="145.35227" style="fill: #ff0000; stroke: #ff0000"/>
     <use xlink:href="#m6fdc0982dc" x="357.039541" y="146.625643" style="fill: #ff0000; stroke: #ff0000"/>
     <use xlink:href="#m6fdc0982dc" x="374.866763" y="147.899016" style="fill: #ff0000; stroke: #ff0000"/>
     <use xlink:href="#m6fdc0982dc" x="392.693985" y="149.172389" style="fill: #ff0000; stroke: #ff0000"/>
     <use xlink:href="#m6fdc0982dc" x="410.521206" y="150.445762" style="fill: #ff0000; stroke: #ff0000"/>
     <use xlink:href="#m6fdc0982dc" x="428.348428" y="151.719135" style="fill: #ff0000; stroke: #ff0000"/>
     <use xlink:href="#m6fdc0982dc" x="446.17565" y="152.992508" style="fill: #ff0000; stroke: #ff0000"/>
     <use xlink:href="#m6fdc0982dc" x="464.002872" y="154.265881" style="fill: #ff0000; stroke: #ff0000"/>
     <use xlink:href="#m6fdc0982dc" x="481.830094" y="155.539254" style="fill: #ff0000; stroke: #ff0000"/>
     <use xlink:href="#m6fdc0982dc" x="499.657315" y="156.812627" style="fill: #ff0000; stroke: #ff0000"/>
     <use xlink:href="#m6fdc0982dc" x="266.630059" y="158.086" style="fill: #ff0000; stroke: #ff0000"/>
     <use xlink:href="#m6fdc0982dc" x="284.457281" y="159.359373" style="fill: #ff0000; stroke: #ff0000"/>
     <use xlink:href="#m6fdc0982dc" x="302.284503" y="160.632746" style="fill: #ff0000; stroke: #ff0000"/>
     <use xlink:href="#m6fdc0982dc" x="320.111725" y="161.906119" style="fill: #ff0000; stroke: #ff0000"/>
     <use xlink:href="#m6fdc0982dc" x="337.938946" y="163.179492" style="fill: #ff0000; stroke: #ff0000"/>
     <use xlink:href="#m6fdc0982dc" x="355.766168" y="164.452865" style="fill: #ff0000; stroke: #ff0000"/>
     <use xlink:href="#m6fdc0982dc" x="373.59339" y="165.726238" style="fill: #ff0000; stroke: #ff0000"/>
     <use xlink:href="#m6fdc0982dc" x="391.420612" y="166.999611" style="fill: #ff0000; stroke: #ff0000"/>
     <use xlink:href="#m6fdc0982dc" x="409.247833" y="168.272984" style="fill: #ff0000; stroke: #ff0000"/>
     <use xlink:href="#m6fdc0982dc" x="427.075055" y="169.546357" style="fill: #ff0000; stroke: #ff0000"/>
     <use xlink:href="#m6fdc0982dc" x="444.902277" y="170.81973" style="fill: #ff0000; stroke: #ff0000"/>
     <use xlink:href="#m6fdc0982dc" x="462.729499" y="172.093103" style="fill: #ff0000; stroke: #ff0000"/>
     <use xlink:href="#m6fdc0982dc" x="480.556721" y="173.366476" style="fill: #ff0000; stroke: #ff0000"/>
     <use xlink:href="#m6fdc0982dc" x="498.383942" y="174.639849" style="fill: #ff0000; stroke: #ff0000"/>
     <use xlink:href="#m6fdc0982dc" x="265.356686" y="175.913222" style="fill: #ff0000; stroke: #ff0000"/>
     <use xlink:href="#m6fdc0982dc" x="283.183908" y="177.186595" style="fill: #ff0000; stroke: #ff0000"/>
     <use xlink:href="#m6fdc0982dc" x="301.01113" y="178.459968" style="fill: #ff0000; stroke: #ff0000"/>
     <use xlink:href="#m6fdc0982dc" x="318.838352" y="179.733341" style="fill: #ff0000; stroke: #ff0000"/>
     <use xlink:href="#m6fdc0982dc" x="336.665573" y="181.006714" style="fill: #ff0000; stroke: #ff0000"/>
     <use xlink:href="#m6fdc0982dc" x="354.492795" y="182.280087" style="fill: #ff0000; stroke: #ff0000"/>
     <use xlink:href="#m6fdc0982dc" x="372.320017" y="183.55346" style="fill: #ff0000; stroke: #ff0000"/>
     <use xlink:href="#m6fdc0982dc" x="390.147239" y="184.826833" style="fill: #ff0000; stroke: #ff0000"/>
     <use xlink:href="#m6fdc0982dc" x="407.97446" y="186.100206" style="fill: #ff0000; stroke: #ff0000"/>
     <use xlink:href="#m6fdc0982dc" x="425.801682" y="187.373579" style="fill: #ff0000; stroke: #ff0000"/>
     <use xlink:href="#m6fdc0982dc" x="443.628904" y="188.646952" style="fill: #ff0000; stroke: #ff0000"/>
     <use xlink:href="#m6fdc0982dc" x="461.456126" y="189.920325" style="fill: #ff0000; stroke: #ff0000"/>
     <use xlink:href="#m6fdc0982dc" x="479.283348" y="191.193698" style="fill: #ff0000; stroke: #ff0000"/>
     <use xlink:href="#m6fdc0982dc" x="497.110569" y="192.467071" style="fill: #ff0000; stroke: #ff0000"/>
     <use xlink:href="#m6fdc0982dc" x="264.083313" y="193.740444" style="fill: #ff0000; stroke: #ff0000"/>
     <use xlink:href="#m6fdc0982dc" x="281.910535" y="195.013817" style="fill: #ff0000; stroke: #ff0000"/>
     <use xlink:href="#m6fdc0982dc" x="299.737757" y="196.28719" style="fill: #ff0000; stroke: #ff0000"/>
     <use xlink:href="#m6fdc0982dc" x="317.564979" y="197.560563" style="fill: #ff0000; stroke: #ff0000"/>
     <use xlink:href="#m6fdc0982dc" x="335.3922" y="198.833936" style="fill: #ff0000; stroke: #ff0000"/>
     <use xlink:href="#m6fdc0982dc" x="353.219422" y="200.107309" style="fill: #ff0000; stroke: #ff0000"/>
     <use xlink:href="#m6fdc0982dc" x="371.046644" y="201.380682" style="fill: #ff0000; stroke: #ff0000"/>
     <use xlink:href="#m6fdc0982dc" x="388.873866" y="202.654055" style="fill: #ff0000; stroke: #ff0000"/>
     <use xlink:href="#m6fdc0982dc" x="406.701088" y="203.927428" style="fill: #ff0000; stroke: #ff0000"/>
     <use xlink:href="#m6fdc0982dc" x="424.528309" y="205.200801" style="fill: #ff0000; stroke: #ff0000"/>
     <use xlink:href="#m6fdc0982dc" x="442.355531" y="206.474174" style="fill: #ff0000; stroke: #ff0000"/>
     <use xlink:href="#m6fdc0982dc" x="460.182753" y="207.747546" style="fill: #ff0000; stroke: #ff0000"/>
     <use xlink:href="#m6fdc0982dc" x="478.009975" y="209.020919" style="fill: #ff0000; stroke: #ff0000"/>
     <use xlink:href="#m6fdc0982dc" x="495.837196" y="210.294292" style="fill: #ff0000; stroke: #ff0000"/>
     <use xlink:href="#m6fdc0982dc" x="262.80994" y="211.567665" style="fill: #ff0000; stroke: #ff0000"/>
     <use xlink:href="#m6fdc0982dc" x="280.637162" y="212.841038" style="fill: #ff0000; stroke: #ff0000"/>
     <use xlink:href="#m6fdc0982dc" x="298.464384" y="214.114411" style="fill: #ff0000; stroke: #ff0000"/>
     <use xlink:href="#m6fdc0982dc" x="316.291606" y="215.387784" style="fill: #ff0000; stroke: #ff0000"/>
     <use xlink:href="#m6fdc0982dc" x="334.118827" y="216.661157" style="fill: #ff0000; stroke: #ff0000"/>
     <use xlink:href="#m6fdc0982dc" x="351.946049" y="217.93453" style="fill: #ff0000; stroke: #ff0000"/>
     <use xlink:href="#m6fdc0982dc" x="369.773271" y="219.207903" style="fill: #ff0000; stroke: #ff0000"/>
     <use xlink:href="#m6fdc0982dc" x="387.600493" y="220.481276" style="fill: #ff0000; stroke: #ff0000"/>
     <use xlink:href="#m6fdc0982dc" x="405.427715" y="221.754649" style="fill: #ff0000; stroke: #ff0000"/>
     <use xlink:href="#m6fdc0982dc" x="423.254936" y="223.028022" style="fill: #ff0000; stroke: #ff0000"/>
     <use xlink:href="#m6fdc0982dc" x="441.082158" y="224.301395" style="fill: #ff0000; stroke: #ff0000"/>
     <use xlink:href="#m6fdc0982dc" x="458.90938" y="225.574768" style="fill: #ff0000; stroke: #ff0000"/>
     <use xlink:href="#m6fdc0982dc" x="476.736602" y="226.848141" style="fill: #ff0000; stroke: #ff0000"/>
     <use xlink:href="#m6fdc0982dc" x="494.563823" y="228.121514" style="fill: #ff0000; stroke: #ff0000"/>
    </g>
   </g>
   <g id="patch_3">
    <path d="M 35.304688 285.443125 
L 35.304688 22.318125 
" style="fill: none; stroke: #000000; stroke-width: 0.8; stroke-linejoin: miter; stroke-linecap: square"/>
   </g>
   <g id="patch_4">
    <path d="M 561.554687 285.443125 
L 561.554687 22.318125 
" style="fill: none; stroke: #000000; stroke-width: 0.8; stroke-linejoin: miter; stroke-linecap: square"/>
   </g>
   <g id="patch_5">
    <path d="M 35.304688 285.443125 
L 561.554687 285.443125 
" style="fill: none; stroke: #000000; stroke-width: 0.8; stroke-linejoin: miter; stroke-linecap: square"/>
   </g>
   <g id="patch_6">
    <path d="M 35.304688 22.318125 
L 561.554687 22.318125 
" style="fill: none; stroke: #000000; stroke-width: 0.8; stroke-linejoin: miter; stroke-linecap: square"/>
   </g>
   <g id="text_11">
    <!-- TCP Box and Test Grid Points for Edges 5/6 -->
    <g transform="translate(171.057187 16.318125) scale(0.12 -0.12)">
     <defs>
      <path id="DejaVuSans-54" d="M -19 4666 
L 3928 4666 
L 3928 4134 
L 2272 4134 
L 2272 0 
L 1638 0 
L 1638 4134 
L -19 4134 
L -19 4666 
z
" transform="scale(0.015625)"/>
      <path id="DejaVuSans-43" d="M 4122 4306 
L 4122 3641 
Q 3803 3938 3442 4084 
Q 3081 4231 2675 4231 
Q 1875 4231 1450 3742 
Q 1025 3253 1025 2328 
Q 1025 1406 1450 917 
Q 1875 428 2675 428 
Q 3081 428 3442 575 
Q 3803 722 4122 1019 
L 4122 359 
Q 3791 134 3420 21 
Q 3050 -91 2638 -91 
Q 1578 -91 968 557 
Q 359 1206 359 2328 
Q 359 3453 968 4101 
Q 1578 4750 2638 4750 
Q 3056 4750 3426 4639 
Q 3797 4528 4122 4306 
z
" transform="scale(0.015625)"/>
      <path id="DejaVuSans-50" d="M 1259 4147 
L 1259 2394 
L 2053 2394 
Q 2494 2394 2734 2622 
Q 2975 2850 2975 3272 
Q 2975 3691 2734 3919 
Q 2494 4147 2053 4147 
L 1259 4147 
z
M 628 4666 
L 2053 4666 
Q 2838 4666 3239 4311 
Q 3641 3956 3641 3272 
Q 3641 2581 3239 2228 
Q 2838 1875 2053 1875 
L 1259 1875 
L 1259 0 
L 628 0 
L 628 4666 
z
" transform="scale(0.015625)"/>
      <path id="DejaVuSans-20" transform="scale(0.015625)"/>
      <path id="DejaVuSans-42" d="M 1259 2228 
L 1259 519 
L 2272 519 
Q 2781 519 3026 730 
Q 3272 941 3272 1375 
Q 3272 1813 3026 2020 
Q 2781 2228 2272 2228 
L 1259 2228 
z
M 1259 4147 
L 1259 2741 
L 2194 2741 
Q 2656 2741 2882 2914 
Q 3109 3088 3109 3444 
Q 3109 3797 2882 3972 
Q 2656 4147 2194 4147 
L 1259 4147 
z
M 628 4666 
L 2241 4666 
Q 2963 4666 3353 4366 
Q 3744 4066 3744 3513 
Q 3744 3084 3544 2831 
Q 3344 2578 2956 2516 
Q 3422 2416 3680 2098 
Q 3938 1781 3938 1306 
Q 3938 681 3513 340 
Q 3088 0 2303 0 
L 628 0 
L 628 4666 
z
" transform="scale(0.015625)"/>
      <path id="DejaVuSans-6f" d="M 1959 3097 
Q 1497 3097 1228 2736 
Q 959 2375 959 1747 
Q 959 1119 1226 758 
Q 1494 397 1959 397 
Q 2419 397 2687 759 
Q 2956 1122 2956 1747 
Q 2956 2369 2687 2733 
Q 2419 3097 1959 3097 
z
M 1959 3584 
Q 2709 3584 3137 3096 
Q 3566 2609 3566 1747 
Q 3566 888 3137 398 
Q 2709 -91 1959 -91 
Q 1206 -91 779 398 
Q 353 888 353 1747 
Q 353 2609 779 3096 
Q 1206 3584 1959 3584 
z
" transform="scale(0.015625)"/>
      <path id="DejaVuSans-78" d="M 3513 3500 
L 2247 1797 
L 3578 0 
L 2900 0 
L 1881 1375 
L 863 0 
L 184 0 
L 1544 1831 
L 300 3500 
L 978 3500 
L 1906 2253 
L 2834 3500 
L 3513 3500 
z
" transform="scale(0.015625)"/>
      <path id="DejaVuSans-61" d="M 2194 1759 
Q 1497 1759 1228 1600 
Q 959 1441 959 1056 
Q 959 750 1161 570 
Q 1363 391 1709 391 
Q 2188 391 2477 730 
Q 2766 1069 2766 1631 
L 2766 1759 
L 2194 1759 
z
M 3341 1997 
L 3341 0 
L 2766 0 
L 2766 531 
Q 2569 213 2275 61 
Q 1981 -91 1556 -91 
Q 1019 -91 701 211 
Q 384 513 384 1019 
Q 384 1609 779 1909 
Q 1175 2209 1959 2209 
L 2766 2209 
L 2766 2266 
Q 2766 2663 2505 2880 
Q 2244 3097 1772 3097 
Q 1472 3097 1187 3025 
Q 903 2953 641 2809 
L 641 3341 
Q 956 3463 1253 3523 
Q 1550 3584 1831 3584 
Q 2591 3584 2966 3190 
Q 3341 2797 3341 1997 
z
" transform="scale(0.015625)"/>
      <path id="DejaVuSans-6e" d="M 3513 2113 
L 3513 0 
L 2938 0 
L 2938 2094 
Q 2938 2591 2744 2837 
Q 2550 3084 2163 3084 
Q 1697 3084 1428 2787 
Q 1159 2491 1159 1978 
L 1159 0 
L 581 0 
L 581 3500 
L 1159 3500 
L 1159 2956 
Q 1366 3272 1645 3428 
Q 1925 3584 2291 3584 
Q 2894 3584 3203 3211 
Q 3513 2838 3513 2113 
z
" transform="scale(0.015625)"/>
      <path id="DejaVuSans-64" d="M 2906 2969 
L 2906 4863 
L 3481 4863 
L 3481 0 
L 2906 0 
L 2906 525 
Q 2725 213 2448 61 
Q 2172 -91 1784 -91 
Q 1150 -91 751 415 
Q 353 922 353 1747 
Q 353 2572 751 3078 
Q 1150 3584 1784 3584 
Q 2172 3584 2448 3432 
Q 2725 3281 2906 2969 
z
M 947 1747 
Q 947 1113 1208 752 
Q 1469 391 1925 391 
Q 2381 391 2643 752 
Q 2906 1113 2906 1747 
Q 2906 2381 2643 2742 
Q 2381 3103 1925 3103 
Q 1469 3103 1208 2742 
Q 947 2381 947 1747 
z
" transform="scale(0.015625)"/>
      <path id="DejaVuSans-65" d="M 3597 1894 
L 3597 1613 
L 953 1613 
Q 991 1019 1311 708 
Q 1631 397 2203 397 
Q 2534 397 2845 478 
Q 3156 559 3463 722 
L 3463 178 
Q 3153 47 2828 -22 
Q 2503 -91 2169 -91 
Q 1331 -91 842 396 
Q 353 884 353 1716 
Q 353 2575 817 3079 
Q 1281 3584 2069 3584 
Q 2775 3584 3186 3129 
Q 3597 2675 3597 1894 
z
M 3022 2063 
Q 3016 2534 2758 2815 
Q 2500 3097 2075 3097 
Q 1594 3097 1305 2825 
Q 1016 2553 972 2059 
L 3022 2063 
z
" transform="scale(0.015625)"/>
      <path id="DejaVuSans-73" d="M 2834 3397 
L 2834 2853 
Q 2591 2978 2328 3040 
Q 2066 3103 1784 3103 
Q 1356 3103 1142 2972 
Q 928 2841 928 2578 
Q 928 2378 1081 2264 
Q 1234 2150 1697 2047 
L 1894 2003 
Q 2506 1872 2764 1633 
Q 3022 1394 3022 966 
Q 3022 478 2636 193 
Q 2250 -91 1575 -91 
Q 1294 -91 989 -36 
Q 684 19 347 128 
L 347 722 
Q 666 556 975 473 
Q 1284 391 1588 391 
Q 1994 391 2212 530 
Q 2431 669 2431 922 
Q 2431 1156 2273 1281 
Q 2116 1406 1581 1522 
L 1381 1569 
Q 847 1681 609 1914 
Q 372 2147 372 2553 
Q 372 3047 722 3315 
Q 1072 3584 1716 3584 
Q 2034 3584 2315 3537 
Q 2597 3491 2834 3397 
z
" transform="scale(0.015625)"/>
      <path id="DejaVuSans-74" d="M 1172 4494 
L 1172 3500 
L 2356 3500 
L 2356 3053 
L 1172 3053 
L 1172 1153 
Q 1172 725 1289 603 
Q 1406 481 1766 481 
L 2356 481 
L 2356 0 
L 1766 0 
Q 1100 0 847 248 
Q 594 497 594 1153 
L 594 3053 
L 172 3053 
L 172 3500 
L 594 3500 
L 594 4494 
L 1172 4494 
z
" transform="scale(0.015625)"/>
      <path id="DejaVuSans-47" d="M 3809 666 
L 3809 1919 
L 2778 1919 
L 2778 2438 
L 4434 2438 
L 4434 434 
Q 4069 175 3628 42 
Q 3188 -91 2688 -91 
Q 1594 -91 976 548 
Q 359 1188 359 2328 
Q 359 3472 976 4111 
Q 1594 4750 2688 4750 
Q 3144 4750 3555 4637 
Q 3966 4525 4313 4306 
L 4313 3634 
Q 3963 3931 3569 4081 
Q 3175 4231 2741 4231 
Q 1884 4231 1454 3753 
Q 1025 3275 1025 2328 
Q 1025 1384 1454 906 
Q 1884 428 2741 428 
Q 3075 428 3337 486 
Q 3600 544 3809 666 
z
" transform="scale(0.015625)"/>
      <path id="DejaVuSans-72" d="M 2631 2963 
Q 2534 3019 2420 3045 
Q 2306 3072 2169 3072 
Q 1681 3072 1420 2755 
Q 1159 2438 1159 1844 
L 1159 0 
L 581 0 
L 581 3500 
L 1159 3500 
L 1159 2956 
Q 1341 3275 1631 3429 
Q 1922 3584 2338 3584 
Q 2397 3584 2469 3576 
Q 2541 3569 2628 3553 
L 2631 2963 
z
" transform="scale(0.015625)"/>
      <path id="DejaVuSans-69" d="M 603 3500 
L 1178 3500 
L 1178 0 
L 603 0 
L 603 3500 
z
M 603 4863 
L 1178 4863 
L 1178 4134 
L 603 4134 
L 603 4863 
z
" transform="scale(0.015625)"/>
      <path id="DejaVuSans-66" d="M 2375 4863 
L 2375 4384 
L 1825 4384 
Q 1516 4384 1395 4259 
Q 1275 4134 1275 3809 
L 1275 3500 
L 2222 3500 
L 2222 3053 
L 1275 3053 
L 1275 0 
L 697 0 
L 697 3053 
L 147 3053 
L 147 3500 
L 697 3500 
L 697 3744 
Q 697 4328 969 4595 
Q 1241 4863 1831 4863 
L 2375 4863 
z
" transform="scale(0.015625)"/>
      <path id="DejaVuSans-45" d="M 628 4666 
L 3578 4666 
L 3578 4134 
L 1259 4134 
L 1259 2753 
L 3481 2753 
L 3481 2222 
L 1259 2222 
L 1259 531 
L 3634 531 
L 3634 0 
L 628 0 
L 628 4666 
z
" transform="scale(0.015625)"/>
      <path id="DejaVuSans-67" d="M 2906 1791 
Q 2906 2416 2648 2759 
Q 2391 3103 1925 3103 
Q 1463 3103 1205 2759 
Q 947 2416 947 1791 
Q 947 1169 1205 825 
Q 1463 481 1925 481 
Q 2391 481 2648 825 
Q 2906 1169 2906 1791 
z
M 3481 434 
Q 3481 -459 3084 -895 
Q 2688 -1331 1869 -1331 
Q 1566 -1331 1297 -1286 
Q 1028 -1241 775 -1147 
L 775 -588 
Q 1028 -725 1275 -790 
Q 1522 -856 1778 -856 
Q 2344 -856 2625 -561 
Q 2906 -266 2906 331 
L 2906 616 
Q 2728 306 2450 153 
Q 2172 0 1784 0 
Q 1141 0 747 490 
Q 353 981 353 1791 
Q 353 2603 747 3093 
Q 1141 3584 1784 3584 
Q 2172 3584 2450 3431 
Q 2728 3278 2906 2969 
L 2906 3500 
L 3481 3500 
L 3481 434 
z
" transform="scale(0.015625)"/>
      <path id="DejaVuSans-35" d="M 691 4666 
L 3169 4666 
L 3169 4134 
L 1269 4134 
L 1269 2991 
Q 1406 3038 1543 3061 
Q 1681 3084 1819 3084 
Q 2600 3084 3056 2656 
Q 3513 2228 3513 1497 
Q 3513 744 3044 326 
Q 2575 -91 1722 -91 
Q 1428 -91 1123 -41 
Q 819 9 494 109 
L 494 744 
Q 775 591 1075 516 
Q 1375 441 1709 441 
Q 2250 441 2565 725 
Q 2881 1009 2881 1497 
Q 2881 1984 2565 2268 
Q 2250 2553 1709 2553 
Q 1456 2553 1204 2497 
Q 953 2441 691 2322 
L 691 4666 
z
" transform="scale(0.015625)"/>
      <path id="DejaVuSans-2f" d="M 1625 4666 
L 2156 4666 
L 531 -594 
L 0 -594 
L 1625 4666 
z
" transform="scale(0.015625)"/>
      <path id="DejaVuSans-36" d="M 2113 2584 
Q 1688 2584 1439 2293 
Q 1191 2003 1191 1497 
Q 1191 994 1439 701 
Q 1688 409 2113 409 
Q 2538 409 2786 701 
Q 3034 994 3034 1497 
Q 3034 2003 2786 2293 
Q 2538 2584 2113 2584 
z
M 3366 4563 
L 3366 3988 
Q 3128 4100 2886 4159 
Q 2644 4219 2406 4219 
Q 1781 4219 1451 3797 
Q 1122 3375 1075 2522 
Q 1259 2794 1537 2939 
Q 1816 3084 2150 3084 
Q 2853 3084 3261 2657 
Q 3669 2231 3669 1497 
Q 3669 778 3244 343 
Q 2819 -91 2113 -91 
Q 1303 -91 875 529 
Q 447 1150 447 2328 
Q 447 3434 972 4092 
Q 1497 4750 2381 4750 
Q 2619 4750 2861 4703 
Q 3103 4656 3366 4563 
z
" transform="scale(0.015625)"/>
     </defs>
     <use xlink:href="#DejaVuSans-54"/>
     <use xlink:href="#DejaVuSans-43" x="55.208984"/>
     <use xlink:href="#DejaVuSans-50" x="125.033203"/>
     <use xlink:href="#DejaVuSans-20" x="185.335938"/>
     <use xlink:href="#DejaVuSans-42" x="217.123047"/>
     <use xlink:href="#DejaVuSans-6f" x="285.726562"/>
     <use xlink:href="#DejaVuSans-78" x="343.783203"/>
     <use xlink:href="#DejaVuSans-20" x="402.962891"/>
     <use xlink:href="#DejaVuSans-61" x="434.75"/>
     <use xlink:href="#DejaVuSans-6e" x="496.029297"/>
     <use xlink:href="#DejaVuSans-64" x="559.408203"/>
     <use xlink:href="#DejaVuSans-20" x="622.884766"/>
     <use xlink:href="#DejaVuSans-54" x="654.671875"/>
     <use xlink:href="#DejaVuSans-65" x="698.755859"/>
     <use xlink:href="#DejaVuSans-73" x="760.279297"/>
     <use xlink:href="#DejaVuSans-74" x="812.378906"/>
     <use xlink:href="#DejaVuSans-20" x="851.587891"/>
     <use xlink:href="#DejaVuSans-47" x="883.375"/>
     <use xlink:href="#DejaVuSans-72" x="960.865234"/>
     <use xlink:href="#DejaVuSans-69" x="1001.978516"/>
     <use xlink:href="#DejaVuSans-64" x="1029.761719"/>
     <use xlink:href="#DejaVuSans-20" x="1093.238281"/>
     <use xlink:href="#DejaVuSans-50" x="1125.025391"/>
     <use xlink:href="#DejaVuSans-6f" x="1181.703125"/>
     <use xlink:href="#DejaVuSans-69" x="1242.884766"/>
     <use xlink:href="#DejaVuSans-6e" x="1270.667969"/>
     <use xlink:href="#DejaVuSans-74" x="1334.046875"/>
     <use xlink:href="#DejaVuSans-73" x="1373.255859"/>
     <use xlink:href="#DejaVuSans-20" x="1425.355469"/>
     <use xlink:href="#DejaVuSans-66" x="1457.142578"/>
     <use xlink:href="#DejaVuSans-6f" x="1492.347656"/>
     <use xlink:href="#DejaVuSans-72" x="1553.529297"/>
     <use xlink:href="#DejaVuSans-20" x="1594.642578"/>
     <use xlink:href="#DejaVuSans-45" x="1626.429688"/>
     <use xlink:href="#DejaVuSans-64" x="1689.613281"/>
     <use xlink:href="#DejaVuSans-67" x="1753.089844"/>
     <use xlink:href="#DejaVuSans-65" x="1816.566406"/>
     <use xlink:href="#DejaVuSans-73" x="1878.089844"/>
     <use xlink:href="#DejaVuSans-20" x="1930.189453"/>
     <use xlink:href="#DejaVuSans-35" x="1961.976562"/>
     <use xlink:href="#DejaVuSans-2f" x="2025.599609"/>
     <use xlink:href="#DejaVuSans-36" x="2059.291016"/>
    </g>
   </g>
   <g id="legend_1">
    <g id="patch_7">
     <path d="M 42.304688 184.736875 
L 160.251563 184.736875 
Q 162.251563 184.736875 162.251563 182.736875 
L 162.251563 125.024375 
Q 162.251563 123.024375 160.251563 123.024375 
L 42.304688 123.024375 
Q 40.304688 123.024375 40.304688 125.024375 
L 40.304688 182.736875 
Q 40.304688 184.736875 42.304688 184.736875 
z
" style="fill: #ffffff; opacity: 0.8; stroke: #cccccc; stroke-linejoin: miter"/>
    </g>
    <g id="line2d_33">
     <path d="M 44.304688 131.122812 
L 54.304688 131.122812 
L 64.304688 131.122812 
" style="fill: none; stroke: #0000ff; stroke-width: 3; stroke-linecap: square"/>
    </g>
    <g id="text_12">
     <!-- Edges of Plane2 -->
     <g transform="translate(72.304688 134.622812) scale(0.1 -0.1)">
      <defs>
       <path id="DejaVuSans-6c" d="M 603 4863 
L 1178 4863 
L 1178 0 
L 603 0 
L 603 4863 
z
" transform="scale(0.015625)"/>
      </defs>
      <use xlink:href="#DejaVuSans-45"/>
      <use xlink:href="#DejaVuSans-64" x="63.183594"/>
      <use xlink:href="#DejaVuSans-67" x="126.660156"/>
      <use xlink:href="#DejaVuSans-65" x="190.136719"/>
      <use xlink:href="#DejaVuSans-73" x="251.660156"/>
      <use xlink:href="#DejaVuSans-20" x="303.759766"/>
      <use xlink:href="#DejaVuSans-6f" x="335.546875"/>
      <use xlink:href="#DejaVuSans-66" x="396.728516"/>
      <use xlink:href="#DejaVuSans-20" x="431.933594"/>
      <use xlink:href="#DejaVuSans-50" x="463.720703"/>
      <use xlink:href="#DejaVuSans-6c" x="524.023438"/>
      <use xlink:href="#DejaVuSans-61" x="551.806641"/>
      <use xlink:href="#DejaVuSans-6e" x="613.085938"/>
      <use xlink:href="#DejaVuSans-65" x="676.464844"/>
      <use xlink:href="#DejaVuSans-32" x="737.988281"/>
     </g>
    </g>
    <g id="line2d_34">
     <path d="M 44.304688 145.800937 
L 54.304688 145.800937 
L 64.304688 145.800937 
" style="fill: none; stroke: #bf00bf; stroke-width: 1.5; stroke-linecap: square"/>
    </g>
    <g id="text_13">
     <!-- Gripper Direction -->
     <g transform="translate(72.304688 149.300937) scale(0.1 -0.1)">
      <defs>
       <path id="DejaVuSans-70" d="M 1159 525 
L 1159 -1331 
L 581 -1331 
L 581 3500 
L 1159 3500 
L 1159 2969 
Q 1341 3281 1617 3432 
Q 1894 3584 2278 3584 
Q 2916 3584 3314 3078 
Q 3713 2572 3713 1747 
Q 3713 922 3314 415 
Q 2916 -91 2278 -91 
Q 1894 -91 1617 61 
Q 1341 213 1159 525 
z
M 3116 1747 
Q 3116 2381 2855 2742 
Q 2594 3103 2138 3103 
Q 1681 3103 1420 2742 
Q 1159 2381 1159 1747 
Q 1159 1113 1420 752 
Q 1681 391 2138 391 
Q 2594 391 2855 752 
Q 3116 1113 3116 1747 
z
" transform="scale(0.015625)"/>
       <path id="DejaVuSans-44" d="M 1259 4147 
L 1259 519 
L 2022 519 
Q 2988 519 3436 956 
Q 3884 1394 3884 2338 
Q 3884 3275 3436 3711 
Q 2988 4147 2022 4147 
L 1259 4147 
z
M 628 4666 
L 1925 4666 
Q 3281 4666 3915 4102 
Q 4550 3538 4550 2338 
Q 4550 1131 3912 565 
Q 3275 0 1925 0 
L 628 0 
L 628 4666 
z
" transform="scale(0.015625)"/>
       <path id="DejaVuSans-63" d="M 3122 3366 
L 3122 2828 
Q 2878 2963 2633 3030 
Q 2388 3097 2138 3097 
Q 1578 3097 1268 2742 
Q 959 2388 959 1747 
Q 959 1106 1268 751 
Q 1578 397 2138 397 
Q 2388 397 2633 464 
Q 2878 531 3122 666 
L 3122 134 
Q 2881 22 2623 -34 
Q 2366 -91 2075 -91 
Q 1284 -91 818 406 
Q 353 903 353 1747 
Q 353 2603 823 3093 
Q 1294 3584 2113 3584 
Q 2378 3584 2631 3529 
Q 2884 3475 3122 3366 
z
" transform="scale(0.015625)"/>
      </defs>
      <use xlink:href="#DejaVuSans-47"/>
      <use xlink:href="#DejaVuSans-72" x="77.490234"/>
      <use xlink:href="#DejaVuSans-69" x="118.603516"/>
      <use xlink:href="#DejaVuSans-70" x="146.386719"/>
      <use xlink:href="#DejaVuSans-70" x="209.863281"/>
      <use xlink:href="#DejaVuSans-65" x="273.339844"/>
      <use xlink:href="#DejaVuSans-72" x="334.863281"/>
      <use xlink:href="#DejaVuSans-20" x="375.976562"/>
      <use xlink:href="#DejaVuSans-44" x="407.763672"/>
      <use xlink:href="#DejaVuSans-69" x="484.765625"/>
      <use xlink:href="#DejaVuSans-72" x="512.548828"/>
      <use xlink:href="#DejaVuSans-65" x="551.412109"/>
      <use xlink:href="#DejaVuSans-63" x="612.935547"/>
      <use xlink:href="#DejaVuSans-74" x="667.916016"/>
      <use xlink:href="#DejaVuSans-69" x="707.125"/>
      <use xlink:href="#DejaVuSans-6f" x="734.908203"/>
      <use xlink:href="#DejaVuSans-6e" x="796.089844"/>
     </g>
    </g>
    <g id="line2d_35">
     <path d="M 44.304688 160.479062 
L 54.304688 160.479062 
L 64.304688 160.479062 
" style="fill: none; stroke-dasharray: 1.85,0.8; stroke-dashoffset: 0; stroke: #008000; stroke-width: 0.5"/>
    </g>
    <g id="text_14">
     <!-- TCP Box -->
     <g transform="translate(72.304688 163.979062) scale(0.1 -0.1)">
      <use xlink:href="#DejaVuSans-54"/>
      <use xlink:href="#DejaVuSans-43" x="55.208984"/>
      <use xlink:href="#DejaVuSans-50" x="125.033203"/>
      <use xlink:href="#DejaVuSans-20" x="185.335938"/>
      <use xlink:href="#DejaVuSans-42" x="217.123047"/>
      <use xlink:href="#DejaVuSans-6f" x="285.726562"/>
      <use xlink:href="#DejaVuSans-78" x="343.783203"/>
     </g>
    </g>
    <g id="line2d_36">
     <g>
      <use xlink:href="#m6fdc0982dc" x="54.304688" y="175.157187" style="fill: #ff0000; stroke: #ff0000"/>
     </g>
    </g>
    <g id="text_15">
     <!-- Test Grid Points -->
     <g transform="translate(72.304688 178.657187) scale(0.1 -0.1)">
      <use xlink:href="#DejaVuSans-54"/>
      <use xlink:href="#DejaVuSans-65" x="44.083984"/>
      <use xlink:href="#DejaVuSans-73" x="105.607422"/>
      <use xlink:href="#DejaVuSans-74" x="157.707031"/>
      <use xlink:href="#DejaVuSans-20" x="196.916016"/>
      <use xlink:href="#DejaVuSans-47" x="228.703125"/>
      <use xlink:href="#DejaVuSans-72" x="306.193359"/>
      <use xlink:href="#DejaVuSans-69" x="347.306641"/>
      <use xlink:href="#DejaVuSans-64" x="375.089844"/>
      <use xlink:href="#DejaVuSans-20" x="438.566406"/>
      <use xlink:href="#DejaVuSans-50" x="470.353516"/>
      <use xlink:href="#DejaVuSans-6f" x="527.03125"/>
      <use xlink:href="#DejaVuSans-69" x="588.212891"/>
      <use xlink:href="#DejaVuSans-6e" x="615.996094"/>
      <use xlink:href="#DejaVuSans-74" x="679.375"/>
      <use xlink:href="#DejaVuSans-73" x="718.583984"/>
     </g>
    </g>
   </g>
  </g>
 </g>
 <defs>
  <clipPath id="pc9a96b71b4">
   <rect x="35.304688" y="22.318125" width="526.25" height="263.125"/>
  </clipPath>
 </defs>
</svg>
