<?xml version="1.0" encoding="utf-8" standalone="no"?>
<!DOCTYPE svg PUBLIC "-//W3C//DTD SVG 1.1//EN"
  "http://www.w3.org/Graphics/SVG/1.1/DTD/svg11.dtd">
<svg xmlns:xlink="http://www.w3.org/1999/xlink" width="568.754687pt" height="365.943085pt" viewBox="0 0 568.754687 365.943085" xmlns="http://www.w3.org/2000/svg" version="1.1">
 <metadata>
  <rdf:RDF xmlns:dc="http://purl.org/dc/elements/1.1/" xmlns:cc="http://creativecommons.org/ns#" xmlns:rdf="http://www.w3.org/1999/02/22-rdf-syntax-ns#">
   <cc:Work>
    <dc:type rdf:resource="http://purl.org/dc/dcmitype/StillImage"/>
    <dc:date>2025-11-14T08:08:03.986009</dc:date>
    <dc:format>image/svg+xml</dc:format>
    <dc:creator>
     <cc:Agent>
      <dc:title>Matplotlib v3.9.4, https://matplotlib.org/</dc:title>
     </cc:Agent>
    </dc:creator>
   </cc:Work>
  </rdf:RDF>
 </metadata>
 <defs>
  <style type="text/css">*{stroke-linejoin: round; stroke-linecap: butt}</style>
 </defs>
 <g id="figure_1">
  <g id="patch_1">
   <path d="M 0 365.943085 
L 568.754687 365.943085 
L 568.754687 0 
L 0 0 
z
" style="fill: #ffffff"/>
  </g>
  <g id="axes_1">
   <g id="patch_2">
    <path d="M 35.304688 342.06496 
L 561.554687 342.06496 
L 561.554687 22.318125 
L 35.304688 22.318125 
z
" style="fill: #ffffff"/>
   </g>
   <g id="matplotlib.axis_1">
    <g id="xtick_1">
     <g id="line2d_1">
      <path d="M 51.027876 342.06496 
L 51.027876 22.318125 
" clip-path="url(#p570c18978f)" style="fill: none; stroke: #b0b0b0; stroke-width: 0.8; stroke-linecap: square"/>
     </g>
     <g id="line2d_2">
      <defs>
       <path id="mf4a795752e" d="M 0 0 
L 0 3.5 
" style="stroke: #000000; stroke-width: 0.8"/>
      </defs>
      <g>
       <use xlink:href="#mf4a795752e" x="51.027876" y="342.06496" style="stroke: #000000; stroke-width: 0.8"/>
      </g>
     </g>
     <g id="text_1">
      <!-- −40 -->
      <g transform="translate(40.475532 356.663398) scale(0.1 -0.1)">
       <defs>
        <path id="DejaVuSans-2212" d="M 678 2272 
L 4684 2272 
L 4684 1741 
L 678 1741 
L 678 2272 
z
" transform="scale(0.015625)"/>
        <path id="DejaVuSans-34" d="M 2419 4116 
L 825 1625 
L 2419 1625 
L 2419 4116 
z
M 2253 4666 
L 3047 4666 
L 3047 1625 
L 3713 1625 
L 3713 1100 
L 3047 1100 
L 3047 0 
L 2419 0 
L 2419 1100 
L 313 1100 
L 313 1709 
L 2253 4666 
z
" transform="scale(0.015625)"/>
        <path id="DejaVuSans-30" d="M 2034 4250 
Q 1547 4250 1301 3770 
Q 1056 3291 1056 2328 
Q 1056 1369 1301 889 
Q 1547 409 2034 409 
Q 2525 409 2770 889 
Q 3016 1369 3016 2328 
Q 3016 3291 2770 3770 
Q 2525 4250 2034 4250 
z
M 2034 4750 
Q 2819 4750 3233 4129 
Q 3647 3509 3647 2328 
Q 3647 1150 3233 529 
Q 2819 -91 2034 -91 
Q 1250 -91 836 529 
Q 422 1150 422 2328 
Q 422 3509 836 4129 
Q 1250 4750 2034 4750 
z
" transform="scale(0.015625)"/>
       </defs>
       <use xlink:href="#DejaVuSans-2212"/>
       <use xlink:href="#DejaVuSans-34" x="83.789062"/>
       <use xlink:href="#DejaVuSans-30" x="147.412109"/>
      </g>
     </g>
    </g>
    <g id="xtick_2">
     <g id="line2d_3">
      <path d="M 117.6418 342.06496 
L 117.6418 22.318125 
" clip-path="url(#p570c18978f)" style="fill: none; stroke: #b0b0b0; stroke-width: 0.8; stroke-linecap: square"/>
     </g>
     <g id="line2d_4">
      <g>
       <use xlink:href="#mf4a795752e" x="117.6418" y="342.06496" style="stroke: #000000; stroke-width: 0.8"/>
      </g>
     </g>
     <g id="text_2">
      <!-- −30 -->
      <g transform="translate(107.089456 356.663398) scale(0.1 -0.1)">
       <defs>
        <path id="DejaVuSans-33" d="M 2597 2516 
Q 3050 2419 3304 2112 
Q 3559 1806 3559 1356 
Q 3559 666 3084 287 
Q 2609 -91 1734 -91 
Q 1441 -91 1130 -33 
Q 819 25 488 141 
L 488 750 
Q 750 597 1062 519 
Q 1375 441 1716 441 
Q 2309 441 2620 675 
Q 2931 909 2931 1356 
Q 2931 1769 2642 2001 
Q 2353 2234 1838 2234 
L 1294 2234 
L 1294 2753 
L 1863 2753 
Q 2328 2753 2575 2939 
Q 2822 3125 2822 3475 
Q 2822 3834 2567 4026 
Q 2313 4219 1838 4219 
Q 1578 4219 1281 4162 
Q 984 4106 628 3988 
L 628 4550 
Q 988 4650 1302 4700 
Q 1616 4750 1894 4750 
Q 2613 4750 3031 4423 
Q 3450 4097 3450 3541 
Q 3450 3153 3228 2886 
Q 3006 2619 2597 2516 
z
" transform="scale(0.015625)"/>
       </defs>
       <use xlink:href="#DejaVuSans-2212"/>
       <use xlink:href="#DejaVuSans-33" x="83.789062"/>
       <use xlink:href="#DejaVuSans-30" x="147.412109"/>
      </g>
     </g>
    </g>
    <g id="xtick_3">
     <g id="line2d_5">
      <path d="M 184.255724 342.06496 
L 184.255724 22.318125 
" clip-path="url(#p570c18978f)" style="fill: none; stroke: #b0b0b0; stroke-width: 0.8; stroke-linecap: square"/>
     </g>
     <g id="line2d_6">
      <g>
       <use xlink:href="#mf4a795752e" x="184.255724" y="342.06496" style="stroke: #000000; stroke-width: 0.8"/>
      </g>
     </g>
     <g id="text_3">
      <!-- −20 -->
      <g transform="translate(173.70338 356.663398) scale(0.1 -0.1)">
       <defs>
        <path id="DejaVuSans-32" d="M 1228 531 
L 3431 531 
L 3431 0 
L 469 0 
L 469 531 
Q 828 903 1448 1529 
Q 2069 2156 2228 2338 
Q 2531 2678 2651 2914 
Q 2772 3150 2772 3378 
Q 2772 3750 2511 3984 
Q 2250 4219 1831 4219 
Q 1534 4219 1204 4116 
Q 875 4013 500 3803 
L 500 4441 
Q 881 4594 1212 4672 
Q 1544 4750 1819 4750 
Q 2544 4750 2975 4387 
Q 3406 4025 3406 3419 
Q 3406 3131 3298 2873 
Q 3191 2616 2906 2266 
Q 2828 2175 2409 1742 
Q 1991 1309 1228 531 
z
" transform="scale(0.015625)"/>
       </defs>
       <use xlink:href="#DejaVuSans-2212"/>
       <use xlink:href="#DejaVuSans-32" x="83.789062"/>
       <use xlink:href="#DejaVuSans-30" x="147.412109"/>
      </g>
     </g>
    </g>
    <g id="xtick_4">
     <g id="line2d_7">
      <path d="M 250.869648 342.06496 
L 250.869648 22.318125 
" clip-path="url(#p570c18978f)" style="fill: none; stroke: #b0b0b0; stroke-width: 0.8; stroke-linecap: square"/>
     </g>
     <g id="line2d_8">
      <g>
       <use xlink:href="#mf4a795752e" x="250.869648" y="342.06496" style="stroke: #000000; stroke-width: 0.8"/>
      </g>
     </g>
     <g id="text_4">
      <!-- −10 -->
      <g transform="translate(240.317304 356.663398) scale(0.1 -0.1)">
       <defs>
        <path id="DejaVuSans-31" d="M 794 531 
L 1825 531 
L 1825 4091 
L 703 3866 
L 703 4441 
L 1819 4666 
L 2450 4666 
L 2450 531 
L 3481 531 
L 3481 0 
L 794 0 
L 794 531 
z
" transform="scale(0.015625)"/>
       </defs>
       <use xlink:href="#DejaVuSans-2212"/>
       <use xlink:href="#DejaVuSans-31" x="83.789062"/>
       <use xlink:href="#DejaVuSans-30" x="147.412109"/>
      </g>
     </g>
    </g>
    <g id="xtick_5">
     <g id="line2d_9">
      <path d="M 317.483572 342.06496 
L 317.483572 22.318125 
" clip-path="url(#p570c18978f)" style="fill: none; stroke: #b0b0b0; stroke-width: 0.8; stroke-linecap: square"/>
     </g>
     <g id="line2d_10">
      <g>
       <use xlink:href="#mf4a795752e" x="317.483572" y="342.06496" style="stroke: #000000; stroke-width: 0.8"/>
      </g>
     </g>
     <g id="text_5">
      <!-- 0 -->
      <g transform="translate(314.302322 356.663398) scale(0.1 -0.1)">
       <use xlink:href="#DejaVuSans-30"/>
      </g>
     </g>
    </g>
    <g id="xtick_6">
     <g id="line2d_11">
      <path d="M 384.097496 342.06496 
L 384.097496 22.318125 
" clip-path="url(#p570c18978f)" style="fill: none; stroke: #b0b0b0; stroke-width: 0.8; stroke-linecap: square"/>
     </g>
     <g id="line2d_12">
      <g>
       <use xlink:href="#mf4a795752e" x="384.097496" y="342.06496" style="stroke: #000000; stroke-width: 0.8"/>
      </g>
     </g>
     <g id="text_6">
      <!-- 10 -->
      <g transform="translate(377.734996 356.663398) scale(0.1 -0.1)">
       <use xlink:href="#DejaVuSans-31"/>
       <use xlink:href="#DejaVuSans-30" x="63.623047"/>
      </g>
     </g>
    </g>
    <g id="xtick_7">
     <g id="line2d_13">
      <path d="M 450.71142 342.06496 
L 450.71142 22.318125 
" clip-path="url(#p570c18978f)" style="fill: none; stroke: #b0b0b0; stroke-width: 0.8; stroke-linecap: square"/>
     </g>
     <g id="line2d_14">
      <g>
       <use xlink:href="#mf4a795752e" x="450.71142" y="342.06496" style="stroke: #000000; stroke-width: 0.8"/>
      </g>
     </g>
     <g id="text_7">
      <!-- 20 -->
      <g transform="translate(444.34892 356.663398) scale(0.1 -0.1)">
       <use xlink:href="#DejaVuSans-32"/>
       <use xlink:href="#DejaVuSans-30" x="63.623047"/>
      </g>
     </g>
    </g>
    <g id="xtick_8">
     <g id="line2d_15">
      <path d="M 517.325344 342.06496 
L 517.325344 22.318125 
" clip-path="url(#p570c18978f)" style="fill: none; stroke: #b0b0b0; stroke-width: 0.8; stroke-linecap: square"/>
     </g>
     <g id="line2d_16">
      <g>
       <use xlink:href="#mf4a795752e" x="517.325344" y="342.06496" style="stroke: #000000; stroke-width: 0.8"/>
      </g>
     </g>
     <g id="text_8">
      <!-- 30 -->
      <g transform="translate(510.962844 356.663398) scale(0.1 -0.1)">
       <use xlink:href="#DejaVuSans-33"/>
       <use xlink:href="#DejaVuSans-30" x="63.623047"/>
      </g>
     </g>
    </g>
   </g>
   <g id="matplotlib.axis_2">
    <g id="ytick_1">
     <g id="line2d_17">
      <path d="M 35.304688 317.428482 
L 561.554687 317.428482 
" clip-path="url(#p570c18978f)" style="fill: none; stroke: #b0b0b0; stroke-width: 0.8; stroke-linecap: square"/>
     </g>
     <g id="line2d_18">
      <defs>
       <path id="me6cde83a1f" d="M 0 0 
L -3.5 0 
" style="stroke: #000000; stroke-width: 0.8"/>
      </defs>
      <g>
       <use xlink:href="#me6cde83a1f" x="35.304688" y="317.428482" style="stroke: #000000; stroke-width: 0.8"/>
      </g>
     </g>
     <g id="text_9">
      <!-- −20 -->
      <g transform="translate(7.2 321.227701) scale(0.1 -0.1)">
       <use xlink:href="#DejaVuSans-2212"/>
       <use xlink:href="#DejaVuSans-32" x="83.789062"/>
       <use xlink:href="#DejaVuSans-30" x="147.412109"/>
      </g>
     </g>
    </g>
    <g id="ytick_2">
     <g id="line2d_19">
      <path d="M 35.304688 250.814558 
L 561.554687 250.814558 
" clip-path="url(#p570c18978f)" style="fill: none; stroke: #b0b0b0; stroke-width: 0.8; stroke-linecap: square"/>
     </g>
     <g id="line2d_20">
      <g>
       <use xlink:href="#me6cde83a1f" x="35.304688" y="250.814558" style="stroke: #000000; stroke-width: 0.8"/>
      </g>
     </g>
     <g id="text_10">
      <!-- −10 -->
      <g transform="translate(7.2 254.613777) scale(0.1 -0.1)">
       <use xlink:href="#DejaVuSans-2212"/>
       <use xlink:href="#DejaVuSans-31" x="83.789062"/>
       <use xlink:href="#DejaVuSans-30" x="147.412109"/>
      </g>
     </g>
    </g>
    <g id="ytick_3">
     <g id="line2d_21">
      <path d="M 35.304688 184.200634 
L 561.554687 184.200634 
" clip-path="url(#p570c18978f)" style="fill: none; stroke: #b0b0b0; stroke-width: 0.8; stroke-linecap: square"/>
     </g>
     <g id="line2d_22">
      <g>
       <use xlink:href="#me6cde83a1f" x="35.304688" y="184.200634" style="stroke: #000000; stroke-width: 0.8"/>
      </g>
     </g>
     <g id="text_11">
      <!-- 0 -->
      <g transform="translate(21.942187 187.999853) scale(0.1 -0.1)">
       <use xlink:href="#DejaVuSans-30"/>
      </g>
     </g>
    </g>
    <g id="ytick_4">
     <g id="line2d_23">
      <path d="M 35.304688 117.58671 
L 561.554687 117.58671 
" clip-path="url(#p570c18978f)" style="fill: none; stroke: #b0b0b0; stroke-width: 0.8; stroke-linecap: square"/>
     </g>
     <g id="line2d_24">
      <g>
       <use xlink:href="#me6cde83a1f" x="35.304688" y="117.58671" style="stroke: #000000; stroke-width: 0.8"/>
      </g>
     </g>
     <g id="text_12">
      <!-- 10 -->
      <g transform="translate(15.579687 121.385929) scale(0.1 -0.1)">
       <use xlink:href="#DejaVuSans-31"/>
       <use xlink:href="#DejaVuSans-30" x="63.623047"/>
      </g>
     </g>
    </g>
    <g id="ytick_5">
     <g id="line2d_25">
      <path d="M 35.304688 50.972786 
L 561.554687 50.972786 
" clip-path="url(#p570c18978f)" style="fill: none; stroke: #b0b0b0; stroke-width: 0.8; stroke-linecap: square"/>
     </g>
     <g id="line2d_26">
      <g>
       <use xlink:href="#me6cde83a1f" x="35.304688" y="50.972786" style="stroke: #000000; stroke-width: 0.8"/>
      </g>
     </g>
     <g id="text_13">
      <!-- 20 -->
      <g transform="translate(15.579687 54.772004) scale(0.1 -0.1)">
       <use xlink:href="#DejaVuSans-32"/>
       <use xlink:href="#DejaVuSans-30" x="63.623047"/>
      </g>
     </g>
    </g>
   </g>
   <g id="line2d_27">
    <path d="M 101.918612 95.593441 
L 441.649624 88.932049 
" clip-path="url(#p570c18978f)" style="fill: none; stroke: #0000ff; stroke-width: 3; stroke-linecap: square"/>
   </g>
   <g id="line2d_28">
    <path d="M 441.649624 88.932049 
L 454.972409 102.254834 
" clip-path="url(#p570c18978f)" style="fill: none; stroke: #0000ff; stroke-width: 3; stroke-linecap: square"/>
   </g>
   <g id="line2d_29">
    <path d="M 454.972409 102.254834 
L 454.972409 228.82129 
" clip-path="url(#p570c18978f)" style="fill: none; stroke: #0000ff; stroke-width: 3; stroke-linecap: square"/>
   </g>
   <g id="line2d_30">
    <path d="M 454.972409 228.82129 
L 488.279371 235.482682 
" clip-path="url(#p570c18978f)" style="fill: none; stroke: #0000ff; stroke-width: 3; stroke-linecap: square"/>
   </g>
   <g id="line2d_31">
    <path d="M 488.279371 235.482682 
L 494.940763 268.789644 
" clip-path="url(#p570c18978f)" style="fill: none; stroke: #0000ff; stroke-width: 3; stroke-linecap: square"/>
   </g>
   <g id="line2d_32">
    <path d="M 494.940763 268.789644 
L 108.580004 275.451036 
" clip-path="url(#p570c18978f)" style="fill: none; stroke: #0000ff; stroke-width: 3; stroke-linecap: square"/>
   </g>
   <g id="line2d_33">
    <path d="M -1 189.457398 
L 85.278823 186.261887 
" clip-path="url(#p570c18978f)" style="fill: none; stroke: #bf00bf; stroke-width: 1.5; stroke-linecap: square"/>
   </g>
   <g id="line2d_34">
    <path d="M 50.761936 154.210491 
L 119.79571 218.313282 
" clip-path="url(#p570c18978f)" style="fill: none; stroke: #bf00bf; stroke-width: 1.5; stroke-linecap: square"/>
   </g>
   <g id="line2d_35">
    <path d="M 50.761936 154.210491 
L 104.016562 152.238098 
" clip-path="url(#p570c18978f)" style="fill: none; stroke: #bf00bf; stroke-width: 1.5; stroke-linecap: square"/>
   </g>
   <g id="line2d_36">
    <path d="M 119.79571 218.313282 
L 173.050336 216.340888 
" clip-path="url(#p570c18978f)" style="fill: none; stroke: #bf00bf; stroke-width: 1.5; stroke-linecap: square"/>
   </g>
   <g id="line2d_37">
    <path d="M 108.580004 275.451036 
L 101.918612 95.593441 
" clip-path="url(#p570c18978f)" style="fill: none; stroke: #0000ff; stroke-width: 3; stroke-linecap: square"/>
   </g>
   <g id="line2d_38">
    <path d="M 441.421416 263.123577 
L 434.760024 83.265982 
L 101.918612 95.593441 
L 108.580004 275.451036 
L 441.421416 263.123577 
" clip-path="url(#p570c18978f)" style="fill: none; stroke-dasharray: 1.85,0.8; stroke-dashoffset: 0; stroke: #008000; stroke-width: 0.5"/>
   </g>
   <g id="line2d_39">
    <defs>
     <path id="m673e191172" d="M -2 2 
L 2 -2 
M -2 -2 
L 2 2 
" style="stroke: #ff0000"/>
    </defs>
    <g clip-path="url(#p570c18978f)">
     <use xlink:href="#m673e191172" x="430.546315" y="257.465294" style="fill: #ff0000; stroke: #ff0000"/>
     <use xlink:href="#m673e191172" x="406.581733" y="258.352871" style="fill: #ff0000; stroke: #ff0000"/>
     <use xlink:href="#m673e191172" x="382.617151" y="259.240448" style="fill: #ff0000; stroke: #ff0000"/>
     <use xlink:href="#m673e191172" x="358.65257" y="260.128025" style="fill: #ff0000; stroke: #ff0000"/>
     <use xlink:href="#m673e191172" x="334.687988" y="261.015602" style="fill: #ff0000; stroke: #ff0000"/>
     <use xlink:href="#m673e191172" x="310.723406" y="261.903179" style="fill: #ff0000; stroke: #ff0000"/>
     <use xlink:href="#m673e191172" x="286.758825" y="262.790756" style="fill: #ff0000; stroke: #ff0000"/>
     <use xlink:href="#m673e191172" x="262.794243" y="263.678333" style="fill: #ff0000; stroke: #ff0000"/>
     <use xlink:href="#m673e191172" x="238.829661" y="264.565911" style="fill: #ff0000; stroke: #ff0000"/>
     <use xlink:href="#m673e191172" x="214.86508" y="265.453488" style="fill: #ff0000; stroke: #ff0000"/>
     <use xlink:href="#m673e191172" x="190.900498" y="266.341065" style="fill: #ff0000; stroke: #ff0000"/>
     <use xlink:href="#m673e191172" x="166.935916" y="267.228642" style="fill: #ff0000; stroke: #ff0000"/>
     <use xlink:href="#m673e191172" x="142.971334" y="268.116219" style="fill: #ff0000; stroke: #ff0000"/>
     <use xlink:href="#m673e191172" x="119.006753" y="269.003796" style="fill: #ff0000; stroke: #ff0000"/>
     <use xlink:href="#m673e191172" x="429.658738" y="233.500712" style="fill: #ff0000; stroke: #ff0000"/>
     <use xlink:href="#m673e191172" x="405.694156" y="234.388289" style="fill: #ff0000; stroke: #ff0000"/>
     <use xlink:href="#m673e191172" x="381.729574" y="235.275866" style="fill: #ff0000; stroke: #ff0000"/>
     <use xlink:href="#m673e191172" x="357.764992" y="236.163443" style="fill: #ff0000; stroke: #ff0000"/>
     <use xlink:href="#m673e191172" x="333.800411" y="237.051021" style="fill: #ff0000; stroke: #ff0000"/>
     <use xlink:href="#m673e191172" x="309.835829" y="237.938598" style="fill: #ff0000; stroke: #ff0000"/>
     <use xlink:href="#m673e191172" x="285.871247" y="238.826175" style="fill: #ff0000; stroke: #ff0000"/>
     <use xlink:href="#m673e191172" x="261.906666" y="239.713752" style="fill: #ff0000; stroke: #ff0000"/>
     <use xlink:href="#m673e191172" x="237.942084" y="240.601329" style="fill: #ff0000; stroke: #ff0000"/>
     <use xlink:href="#m673e191172" x="213.977502" y="241.488906" style="fill: #ff0000; stroke: #ff0000"/>
     <use xlink:href="#m673e191172" x="190.012921" y="242.376483" style="fill: #ff0000; stroke: #ff0000"/>
     <use xlink:href="#m673e191172" x="166.048339" y="243.26406" style="fill: #ff0000; stroke: #ff0000"/>
     <use xlink:href="#m673e191172" x="142.083757" y="244.151637" style="fill: #ff0000; stroke: #ff0000"/>
     <use xlink:href="#m673e191172" x="118.119176" y="245.039214" style="fill: #ff0000; stroke: #ff0000"/>
     <use xlink:href="#m673e191172" x="428.77116" y="209.53613" style="fill: #ff0000; stroke: #ff0000"/>
     <use xlink:href="#m673e191172" x="404.806579" y="210.423708" style="fill: #ff0000; stroke: #ff0000"/>
     <use xlink:href="#m673e191172" x="380.841997" y="211.311285" style="fill: #ff0000; stroke: #ff0000"/>
     <use xlink:href="#m673e191172" x="356.877415" y="212.198862" style="fill: #ff0000; stroke: #ff0000"/>
     <use xlink:href="#m673e191172" x="332.912834" y="213.086439" style="fill: #ff0000; stroke: #ff0000"/>
     <use xlink:href="#m673e191172" x="308.948252" y="213.974016" style="fill: #ff0000; stroke: #ff0000"/>
     <use xlink:href="#m673e191172" x="284.98367" y="214.861593" style="fill: #ff0000; stroke: #ff0000"/>
     <use xlink:href="#m673e191172" x="261.019089" y="215.74917" style="fill: #ff0000; stroke: #ff0000"/>
     <use xlink:href="#m673e191172" x="237.054507" y="216.636747" style="fill: #ff0000; stroke: #ff0000"/>
     <use xlink:href="#m673e191172" x="213.089925" y="217.524324" style="fill: #ff0000; stroke: #ff0000"/>
     <use xlink:href="#m673e191172" x="189.125344" y="218.411901" style="fill: #ff0000; stroke: #ff0000"/>
     <use xlink:href="#m673e191172" x="165.160762" y="219.299479" style="fill: #ff0000; stroke: #ff0000"/>
     <use xlink:href="#m673e191172" x="141.19618" y="220.187056" style="fill: #ff0000; stroke: #ff0000"/>
     <use xlink:href="#m673e191172" x="117.231599" y="221.074633" style="fill: #ff0000; stroke: #ff0000"/>
     <use xlink:href="#m673e191172" x="427.883583" y="185.571549" style="fill: #ff0000; stroke: #ff0000"/>
     <use xlink:href="#m673e191172" x="403.919002" y="186.459126" style="fill: #ff0000; stroke: #ff0000"/>
     <use xlink:href="#m673e191172" x="379.95442" y="187.346703" style="fill: #ff0000; stroke: #ff0000"/>
     <use xlink:href="#m673e191172" x="355.989838" y="188.23428" style="fill: #ff0000; stroke: #ff0000"/>
     <use xlink:href="#m673e191172" x="332.025257" y="189.121857" style="fill: #ff0000; stroke: #ff0000"/>
     <use xlink:href="#m673e191172" x="308.060675" y="190.009434" style="fill: #ff0000; stroke: #ff0000"/>
     <use xlink:href="#m673e191172" x="284.096093" y="190.897011" style="fill: #ff0000; stroke: #ff0000"/>
     <use xlink:href="#m673e191172" x="260.131512" y="191.784588" style="fill: #ff0000; stroke: #ff0000"/>
     <use xlink:href="#m673e191172" x="236.16693" y="192.672166" style="fill: #ff0000; stroke: #ff0000"/>
     <use xlink:href="#m673e191172" x="212.202348" y="193.559743" style="fill: #ff0000; stroke: #ff0000"/>
     <use xlink:href="#m673e191172" x="188.237767" y="194.44732" style="fill: #ff0000; stroke: #ff0000"/>
     <use xlink:href="#m673e191172" x="164.273185" y="195.334897" style="fill: #ff0000; stroke: #ff0000"/>
     <use xlink:href="#m673e191172" x="140.308603" y="196.222474" style="fill: #ff0000; stroke: #ff0000"/>
     <use xlink:href="#m673e191172" x="116.344021" y="197.110051" style="fill: #ff0000; stroke: #ff0000"/>
     <use xlink:href="#m673e191172" x="426.996006" y="161.606967" style="fill: #ff0000; stroke: #ff0000"/>
     <use xlink:href="#m673e191172" x="403.031425" y="162.494544" style="fill: #ff0000; stroke: #ff0000"/>
     <use xlink:href="#m673e191172" x="379.066843" y="163.382121" style="fill: #ff0000; stroke: #ff0000"/>
     <use xlink:href="#m673e191172" x="355.102261" y="164.269698" style="fill: #ff0000; stroke: #ff0000"/>
     <use xlink:href="#m673e191172" x="331.137679" y="165.157275" style="fill: #ff0000; stroke: #ff0000"/>
     <use xlink:href="#m673e191172" x="307.173098" y="166.044853" style="fill: #ff0000; stroke: #ff0000"/>
     <use xlink:href="#m673e191172" x="283.208516" y="166.93243" style="fill: #ff0000; stroke: #ff0000"/>
     <use xlink:href="#m673e191172" x="259.243934" y="167.820007" style="fill: #ff0000; stroke: #ff0000"/>
     <use xlink:href="#m673e191172" x="235.279353" y="168.707584" style="fill: #ff0000; stroke: #ff0000"/>
     <use xlink:href="#m673e191172" x="211.314771" y="169.595161" style="fill: #ff0000; stroke: #ff0000"/>
     <use xlink:href="#m673e191172" x="187.350189" y="170.482738" style="fill: #ff0000; stroke: #ff0000"/>
     <use xlink:href="#m673e191172" x="163.385608" y="171.370315" style="fill: #ff0000; stroke: #ff0000"/>
     <use xlink:href="#m673e191172" x="139.421026" y="172.257892" style="fill: #ff0000; stroke: #ff0000"/>
     <use xlink:href="#m673e191172" x="115.456444" y="173.145469" style="fill: #ff0000; stroke: #ff0000"/>
     <use xlink:href="#m673e191172" x="426.108429" y="137.642385" style="fill: #ff0000; stroke: #ff0000"/>
     <use xlink:href="#m673e191172" x="402.143847" y="138.529963" style="fill: #ff0000; stroke: #ff0000"/>
     <use xlink:href="#m673e191172" x="378.179266" y="139.41754" style="fill: #ff0000; stroke: #ff0000"/>
     <use xlink:href="#m673e191172" x="354.214684" y="140.305117" style="fill: #ff0000; stroke: #ff0000"/>
     <use xlink:href="#m673e191172" x="330.250102" y="141.192694" style="fill: #ff0000; stroke: #ff0000"/>
     <use xlink:href="#m673e191172" x="306.285521" y="142.080271" style="fill: #ff0000; stroke: #ff0000"/>
     <use xlink:href="#m673e191172" x="282.320939" y="142.967848" style="fill: #ff0000; stroke: #ff0000"/>
     <use xlink:href="#m673e191172" x="258.356357" y="143.855425" style="fill: #ff0000; stroke: #ff0000"/>
     <use xlink:href="#m673e191172" x="234.391776" y="144.743002" style="fill: #ff0000; stroke: #ff0000"/>
     <use xlink:href="#m673e191172" x="210.427194" y="145.630579" style="fill: #ff0000; stroke: #ff0000"/>
     <use xlink:href="#m673e191172" x="186.462612" y="146.518156" style="fill: #ff0000; stroke: #ff0000"/>
     <use xlink:href="#m673e191172" x="162.498031" y="147.405733" style="fill: #ff0000; stroke: #ff0000"/>
     <use xlink:href="#m673e191172" x="138.533449" y="148.293311" style="fill: #ff0000; stroke: #ff0000"/>
     <use xlink:href="#m673e191172" x="114.568867" y="149.180888" style="fill: #ff0000; stroke: #ff0000"/>
     <use xlink:href="#m673e191172" x="425.220852" y="113.677804" style="fill: #ff0000; stroke: #ff0000"/>
     <use xlink:href="#m673e191172" x="401.25627" y="114.565381" style="fill: #ff0000; stroke: #ff0000"/>
     <use xlink:href="#m673e191172" x="377.291689" y="115.452958" style="fill: #ff0000; stroke: #ff0000"/>
     <use xlink:href="#m673e191172" x="353.327107" y="116.340535" style="fill: #ff0000; stroke: #ff0000"/>
     <use xlink:href="#m673e191172" x="329.362525" y="117.228112" style="fill: #ff0000; stroke: #ff0000"/>
     <use xlink:href="#m673e191172" x="305.397944" y="118.115689" style="fill: #ff0000; stroke: #ff0000"/>
     <use xlink:href="#m673e191172" x="281.433362" y="119.003266" style="fill: #ff0000; stroke: #ff0000"/>
     <use xlink:href="#m673e191172" x="257.46878" y="119.890843" style="fill: #ff0000; stroke: #ff0000"/>
     <use xlink:href="#m673e191172" x="233.504199" y="120.778421" style="fill: #ff0000; stroke: #ff0000"/>
     <use xlink:href="#m673e191172" x="209.539617" y="121.665998" style="fill: #ff0000; stroke: #ff0000"/>
     <use xlink:href="#m673e191172" x="185.575035" y="122.553575" style="fill: #ff0000; stroke: #ff0000"/>
     <use xlink:href="#m673e191172" x="161.610454" y="123.441152" style="fill: #ff0000; stroke: #ff0000"/>
     <use xlink:href="#m673e191172" x="137.645872" y="124.328729" style="fill: #ff0000; stroke: #ff0000"/>
     <use xlink:href="#m673e191172" x="113.68129" y="125.216306" style="fill: #ff0000; stroke: #ff0000"/>
     <use xlink:href="#m673e191172" x="424.333275" y="89.713222" style="fill: #ff0000; stroke: #ff0000"/>
     <use xlink:href="#m673e191172" x="400.368693" y="90.600799" style="fill: #ff0000; stroke: #ff0000"/>
     <use xlink:href="#m673e191172" x="376.404112" y="91.488376" style="fill: #ff0000; stroke: #ff0000"/>
     <use xlink:href="#m673e191172" x="352.43953" y="92.375953" style="fill: #ff0000; stroke: #ff0000"/>
     <use xlink:href="#m673e191172" x="328.474948" y="93.26353" style="fill: #ff0000; stroke: #ff0000"/>
     <use xlink:href="#m673e191172" x="304.510367" y="94.151108" style="fill: #ff0000; stroke: #ff0000"/>
     <use xlink:href="#m673e191172" x="280.545785" y="95.038685" style="fill: #ff0000; stroke: #ff0000"/>
     <use xlink:href="#m673e191172" x="256.581203" y="95.926262" style="fill: #ff0000; stroke: #ff0000"/>
     <use xlink:href="#m673e191172" x="232.616621" y="96.813839" style="fill: #ff0000; stroke: #ff0000"/>
     <use xlink:href="#m673e191172" x="208.65204" y="97.701416" style="fill: #ff0000; stroke: #ff0000"/>
     <use xlink:href="#m673e191172" x="184.687458" y="98.588993" style="fill: #ff0000; stroke: #ff0000"/>
     <use xlink:href="#m673e191172" x="160.722876" y="99.47657" style="fill: #ff0000; stroke: #ff0000"/>
     <use xlink:href="#m673e191172" x="136.758295" y="100.364147" style="fill: #ff0000; stroke: #ff0000"/>
     <use xlink:href="#m673e191172" x="112.793713" y="101.251724" style="fill: #ff0000; stroke: #ff0000"/>
    </g>
   </g>
   <g id="patch_3">
    <path d="M 35.304688 342.06496 
L 35.304688 22.318125 
" style="fill: none; stroke: #000000; stroke-width: 0.8; stroke-linejoin: miter; stroke-linecap: square"/>
   </g>
   <g id="patch_4">
    <path d="M 561.554687 342.06496 
L 561.554687 22.318125 
" style="fill: none; stroke: #000000; stroke-width: 0.8; stroke-linejoin: miter; stroke-linecap: square"/>
   </g>
   <g id="patch_5">
    <path d="M 35.304688 342.06496 
L 561.554687 342.06496 
" style="fill: none; stroke: #000000; stroke-width: 0.8; stroke-linejoin: miter; stroke-linecap: square"/>
   </g>
   <g id="patch_6">
    <path d="M 35.304688 22.318125 
L 561.554687 22.318125 
" style="fill: none; stroke: #000000; stroke-width: 0.8; stroke-linejoin: miter; stroke-linecap: square"/>
   </g>
   <g id="text_14">
    <!-- TCP Box and Test Grid Points for Edges 7/7 -->
    <g transform="translate(171.057187 16.318125) scale(0.12 -0.12)">
     <defs>
      <path id="DejaVuSans-54" d="M -19 4666 
L 3928 4666 
L 3928 4134 
L 2272 4134 
L 2272 0 
L 1638 0 
L 1638 4134 
L -19 4134 
L -19 4666 
z
" transform="scale(0.015625)"/>
      <path id="DejaVuSans-43" d="M 4122 4306 
L 4122 3641 
Q 3803 3938 3442 4084 
Q 3081 4231 2675 4231 
Q 1875 4231 1450 3742 
Q 1025 3253 1025 2328 
Q 1025 1406 1450 917 
Q 1875 428 2675 428 
Q 3081 428 3442 575 
Q 3803 722 4122 1019 
L 4122 359 
Q 3791 134 3420 21 
Q 3050 -91 2638 -91 
Q 1578 -91 968 557 
Q 359 1206 359 2328 
Q 359 3453 968 4101 
Q 1578 4750 2638 4750 
Q 3056 4750 3426 4639 
Q 3797 4528 4122 4306 
z
" transform="scale(0.015625)"/>
      <path id="DejaVuSans-50" d="M 1259 4147 
L 1259 2394 
L 2053 2394 
Q 2494 2394 2734 2622 
Q 2975 2850 2975 3272 
Q 2975 3691 2734 3919 
Q 2494 4147 2053 4147 
L 1259 4147 
z
M 628 4666 
L 2053 4666 
Q 2838 4666 3239 4311 
Q 3641 3956 3641 3272 
Q 3641 2581 3239 2228 
Q 2838 1875 2053 1875 
L 1259 1875 
L 1259 0 
L 628 0 
L 628 4666 
z
" transform="scale(0.015625)"/>
      <path id="DejaVuSans-20" transform="scale(0.015625)"/>
      <path id="DejaVuSans-42" d="M 1259 2228 
L 1259 519 
L 2272 519 
Q 2781 519 3026 730 
Q 3272 941 3272 1375 
Q 3272 1813 3026 2020 
Q 2781 2228 2272 2228 
L 1259 2228 
z
M 1259 4147 
L 1259 2741 
L 2194 2741 
Q 2656 2741 2882 2914 
Q 3109 3088 3109 3444 
Q 3109 3797 2882 3972 
Q 2656 4147 2194 4147 
L 1259 4147 
z
M 628 4666 
L 2241 4666 
Q 2963 4666 3353 4366 
Q 3744 4066 3744 3513 
Q 3744 3084 3544 2831 
Q 3344 2578 2956 2516 
Q 3422 2416 3680 2098 
Q 3938 1781 3938 1306 
Q 3938 681 3513 340 
Q 3088 0 2303 0 
L 628 0 
L 628 4666 
z
" transform="scale(0.015625)"/>
      <path id="DejaVuSans-6f" d="M 1959 3097 
Q 1497 3097 1228 2736 
Q 959 2375 959 1747 
Q 959 1119 1226 758 
Q 1494 397 1959 397 
Q 2419 397 2687 759 
Q 2956 1122 2956 1747 
Q 2956 2369 2687 2733 
Q 2419 3097 1959 3097 
z
M 1959 3584 
Q 2709 3584 3137 3096 
Q 3566 2609 3566 1747 
Q 3566 888 3137 398 
Q 2709 -91 1959 -91 
Q 1206 -91 779 398 
Q 353 888 353 1747 
Q 353 2609 779 3096 
Q 1206 3584 1959 3584 
z
" transform="scale(0.015625)"/>
      <path id="DejaVuSans-78" d="M 3513 3500 
L 2247 1797 
L 3578 0 
L 2900 0 
L 1881 1375 
L 863 0 
L 184 0 
L 1544 1831 
L 300 3500 
L 978 3500 
L 1906 2253 
L 2834 3500 
L 3513 3500 
z
" transform="scale(0.015625)"/>
      <path id="DejaVuSans-61" d="M 2194 1759 
Q 1497 1759 1228 1600 
Q 959 1441 959 1056 
Q 959 750 1161 570 
Q 1363 391 1709 391 
Q 2188 391 2477 730 
Q 2766 1069 2766 1631 
L 2766 1759 
L 2194 1759 
z
M 3341 1997 
L 3341 0 
L 2766 0 
L 2766 531 
Q 2569 213 2275 61 
Q 1981 -91 1556 -91 
Q 1019 -91 701 211 
Q 384 513 384 1019 
Q 384 1609 779 1909 
Q 1175 2209 1959 2209 
L 2766 2209 
L 2766 2266 
Q 2766 2663 2505 2880 
Q 2244 3097 1772 3097 
Q 1472 3097 1187 3025 
Q 903 2953 641 2809 
L 641 3341 
Q 956 3463 1253 3523 
Q 1550 3584 1831 3584 
Q 2591 3584 2966 3190 
Q 3341 2797 3341 1997 
z
" transform="scale(0.015625)"/>
      <path id="DejaVuSans-6e" d="M 3513 2113 
L 3513 0 
L 2938 0 
L 2938 2094 
Q 2938 2591 2744 2837 
Q 2550 3084 2163 3084 
Q 1697 3084 1428 2787 
Q 1159 2491 1159 1978 
L 1159 0 
L 581 0 
L 581 3500 
L 1159 3500 
L 1159 2956 
Q 1366 3272 1645 3428 
Q 1925 3584 2291 3584 
Q 2894 3584 3203 3211 
Q 3513 2838 3513 2113 
z
" transform="scale(0.015625)"/>
      <path id="DejaVuSans-64" d="M 2906 2969 
L 2906 4863 
L 3481 4863 
L 3481 0 
L 2906 0 
L 2906 525 
Q 2725 213 2448 61 
Q 2172 -91 1784 -91 
Q 1150 -91 751 415 
Q 353 922 353 1747 
Q 353 2572 751 3078 
Q 1150 3584 1784 3584 
Q 2172 3584 2448 3432 
Q 2725 3281 2906 2969 
z
M 947 1747 
Q 947 1113 1208 752 
Q 1469 391 1925 391 
Q 2381 391 2643 752 
Q 2906 1113 2906 1747 
Q 2906 2381 2643 2742 
Q 2381 3103 1925 3103 
Q 1469 3103 1208 2742 
Q 947 2381 947 1747 
z
" transform="scale(0.015625)"/>
      <path id="DejaVuSans-65" d="M 3597 1894 
L 3597 1613 
L 953 1613 
Q 991 1019 1311 708 
Q 1631 397 2203 397 
Q 2534 397 2845 478 
Q 3156 559 3463 722 
L 3463 178 
Q 3153 47 2828 -22 
Q 2503 -91 2169 -91 
Q 1331 -91 842 396 
Q 353 884 353 1716 
Q 353 2575 817 3079 
Q 1281 3584 2069 3584 
Q 2775 3584 3186 3129 
Q 3597 2675 3597 1894 
z
M 3022 2063 
Q 3016 2534 2758 2815 
Q 2500 3097 2075 3097 
Q 1594 3097 1305 2825 
Q 1016 2553 972 2059 
L 3022 2063 
z
" transform="scale(0.015625)"/>
      <path id="DejaVuSans-73" d="M 2834 3397 
L 2834 2853 
Q 2591 2978 2328 3040 
Q 2066 3103 1784 3103 
Q 1356 3103 1142 2972 
Q 928 2841 928 2578 
Q 928 2378 1081 2264 
Q 1234 2150 1697 2047 
L 1894 2003 
Q 2506 1872 2764 1633 
Q 3022 1394 3022 966 
Q 3022 478 2636 193 
Q 2250 -91 1575 -91 
Q 1294 -91 989 -36 
Q 684 19 347 128 
L 347 722 
Q 666 556 975 473 
Q 1284 391 1588 391 
Q 1994 391 2212 530 
Q 2431 669 2431 922 
Q 2431 1156 2273 1281 
Q 2116 1406 1581 1522 
L 1381 1569 
Q 847 1681 609 1914 
Q 372 2147 372 2553 
Q 372 3047 722 3315 
Q 1072 3584 1716 3584 
Q 2034 3584 2315 3537 
Q 2597 3491 2834 3397 
z
" transform="scale(0.015625)"/>
      <path id="DejaVuSans-74" d="M 1172 4494 
L 1172 3500 
L 2356 3500 
L 2356 3053 
L 1172 3053 
L 1172 1153 
Q 1172 725 1289 603 
Q 1406 481 1766 481 
L 2356 481 
L 2356 0 
L 1766 0 
Q 1100 0 847 248 
Q 594 497 594 1153 
L 594 3053 
L 172 3053 
L 172 3500 
L 594 3500 
L 594 4494 
L 1172 4494 
z
" transform="scale(0.015625)"/>
      <path id="DejaVuSans-47" d="M 3809 666 
L 3809 1919 
L 2778 1919 
L 2778 2438 
L 4434 2438 
L 4434 434 
Q 4069 175 3628 42 
Q 3188 -91 2688 -91 
Q 1594 -91 976 548 
Q 359 1188 359 2328 
Q 359 3472 976 4111 
Q 1594 4750 2688 4750 
Q 3144 4750 3555 4637 
Q 3966 4525 4313 4306 
L 4313 3634 
Q 3963 3931 3569 4081 
Q 3175 4231 2741 4231 
Q 1884 4231 1454 3753 
Q 1025 3275 1025 2328 
Q 1025 1384 1454 906 
Q 1884 428 2741 428 
Q 3075 428 3337 486 
Q 3600 544 3809 666 
z
" transform="scale(0.015625)"/>
      <path id="DejaVuSans-72" d="M 2631 2963 
Q 2534 3019 2420 3045 
Q 2306 3072 2169 3072 
Q 1681 3072 1420 2755 
Q 1159 2438 1159 1844 
L 1159 0 
L 581 0 
L 581 3500 
L 1159 3500 
L 1159 2956 
Q 1341 3275 1631 3429 
Q 1922 3584 2338 3584 
Q 2397 3584 2469 3576 
Q 2541 3569 2628 3553 
L 2631 2963 
z
" transform="scale(0.015625)"/>
      <path id="DejaVuSans-69" d="M 603 3500 
L 1178 3500 
L 1178 0 
L 603 0 
L 603 3500 
z
M 603 4863 
L 1178 4863 
L 1178 4134 
L 603 4134 
L 603 4863 
z
" transform="scale(0.015625)"/>
      <path id="DejaVuSans-66" d="M 2375 4863 
L 2375 4384 
L 1825 4384 
Q 1516 4384 1395 4259 
Q 1275 4134 1275 3809 
L 1275 3500 
L 2222 3500 
L 2222 3053 
L 1275 3053 
L 1275 0 
L 697 0 
L 697 3053 
L 147 3053 
L 147 3500 
L 697 3500 
L 697 3744 
Q 697 4328 969 4595 
Q 1241 4863 1831 4863 
L 2375 4863 
z
" transform="scale(0.015625)"/>
      <path id="DejaVuSans-45" d="M 628 4666 
L 3578 4666 
L 3578 4134 
L 1259 4134 
L 1259 2753 
L 3481 2753 
L 3481 2222 
L 1259 2222 
L 1259 531 
L 3634 531 
L 3634 0 
L 628 0 
L 628 4666 
z
" transform="scale(0.015625)"/>
      <path id="DejaVuSans-67" d="M 2906 1791 
Q 2906 2416 2648 2759 
Q 2391 3103 1925 3103 
Q 1463 3103 1205 2759 
Q 947 2416 947 1791 
Q 947 1169 1205 825 
Q 1463 481 1925 481 
Q 2391 481 2648 825 
Q 2906 1169 2906 1791 
z
M 3481 434 
Q 3481 -459 3084 -895 
Q 2688 -1331 1869 -1331 
Q 1566 -1331 1297 -1286 
Q 1028 -1241 775 -1147 
L 775 -588 
Q 1028 -725 1275 -790 
Q 1522 -856 1778 -856 
Q 2344 -856 2625 -561 
Q 2906 -266 2906 331 
L 2906 616 
Q 2728 306 2450 153 
Q 2172 0 1784 0 
Q 1141 0 747 490 
Q 353 981 353 1791 
Q 353 2603 747 3093 
Q 1141 3584 1784 3584 
Q 2172 3584 2450 3431 
Q 2728 3278 2906 2969 
L 2906 3500 
L 3481 3500 
L 3481 434 
z
" transform="scale(0.015625)"/>
      <path id="DejaVuSans-37" d="M 525 4666 
L 3525 4666 
L 3525 4397 
L 1831 0 
L 1172 0 
L 2766 4134 
L 525 4134 
L 525 4666 
z
" transform="scale(0.015625)"/>
      <path id="DejaVuSans-2f" d="M 1625 4666 
L 2156 4666 
L 531 -594 
L 0 -594 
L 1625 4666 
z
" transform="scale(0.015625)"/>
     </defs>
     <use xlink:href="#DejaVuSans-54"/>
     <use xlink:href="#DejaVuSans-43" x="55.208984"/>
     <use xlink:href="#DejaVuSans-50" x="125.033203"/>
     <use xlink:href="#DejaVuSans-20" x="185.335938"/>
     <use xlink:href="#DejaVuSans-42" x="217.123047"/>
     <use xlink:href="#DejaVuSans-6f" x="285.726562"/>
     <use xlink:href="#DejaVuSans-78" x="343.783203"/>
     <use xlink:href="#DejaVuSans-20" x="402.962891"/>
     <use xlink:href="#DejaVuSans-61" x="434.75"/>
     <use xlink:href="#DejaVuSans-6e" x="496.029297"/>
     <use xlink:href="#DejaVuSans-64" x="559.408203"/>
     <use xlink:href="#DejaVuSans-20" x="622.884766"/>
     <use xlink:href="#DejaVuSans-54" x="654.671875"/>
     <use xlink:href="#DejaVuSans-65" x="698.755859"/>
     <use xlink:href="#DejaVuSans-73" x="760.279297"/>
     <use xlink:href="#DejaVuSans-74" x="812.378906"/>
     <use xlink:href="#DejaVuSans-20" x="851.587891"/>
     <use xlink:href="#DejaVuSans-47" x="883.375"/>
     <use xlink:href="#DejaVuSans-72" x="960.865234"/>
     <use xlink:href="#DejaVuSans-69" x="1001.978516"/>
     <use xlink:href="#DejaVuSans-64" x="1029.761719"/>
     <use xlink:href="#DejaVuSans-20" x="1093.238281"/>
     <use xlink:href="#DejaVuSans-50" x="1125.025391"/>
     <use xlink:href="#DejaVuSans-6f" x="1181.703125"/>
     <use xlink:href="#DejaVuSans-69" x="1242.884766"/>
     <use xlink:href="#DejaVuSans-6e" x="1270.667969"/>
     <use xlink:href="#DejaVuSans-74" x="1334.046875"/>
     <use xlink:href="#DejaVuSans-73" x="1373.255859"/>
     <use xlink:href="#DejaVuSans-20" x="1425.355469"/>
     <use xlink:href="#DejaVuSans-66" x="1457.142578"/>
     <use xlink:href="#DejaVuSans-6f" x="1492.347656"/>
     <use xlink:href="#DejaVuSans-72" x="1553.529297"/>
     <use xlink:href="#DejaVuSans-20" x="1594.642578"/>
     <use xlink:href="#DejaVuSans-45" x="1626.429688"/>
     <use xlink:href="#DejaVuSans-64" x="1689.613281"/>
     <use xlink:href="#DejaVuSans-67" x="1753.089844"/>
     <use xlink:href="#DejaVuSans-65" x="1816.566406"/>
     <use xlink:href="#DejaVuSans-73" x="1878.089844"/>
     <use xlink:href="#DejaVuSans-20" x="1930.189453"/>
     <use xlink:href="#DejaVuSans-37" x="1961.976562"/>
     <use xlink:href="#DejaVuSans-2f" x="2025.599609"/>
     <use xlink:href="#DejaVuSans-37" x="2059.291016"/>
    </g>
   </g>
   <g id="legend_1">
    <g id="patch_7">
     <path d="M 42.304688 89.030625 
L 160.251563 89.030625 
Q 162.251563 89.030625 162.251563 87.030625 
L 162.251563 29.318125 
Q 162.251563 27.318125 160.251563 27.318125 
L 42.304688 27.318125 
Q 40.304688 27.318125 40.304688 29.318125 
L 40.304688 87.030625 
Q 40.304688 89.030625 42.304688 89.030625 
z
" style="fill: #ffffff; opacity: 0.8; stroke: #cccccc; stroke-linejoin: miter"/>
    </g>
    <g id="line2d_40">
     <path d="M 44.304688 35.416562 
L 54.304688 35.416562 
L 64.304688 35.416562 
" style="fill: none; stroke: #0000ff; stroke-width: 3; stroke-linecap: square"/>
    </g>
    <g id="text_15">
     <!-- Edges of Plane2 -->
     <g transform="translate(72.304688 38.916562) scale(0.1 -0.1)">
      <defs>
       <path id="DejaVuSans-6c" d="M 603 4863 
L 1178 4863 
L 1178 0 
L 603 0 
L 603 4863 
z
" transform="scale(0.015625)"/>
      </defs>
      <use xlink:href="#DejaVuSans-45"/>
      <use xlink:href="#DejaVuSans-64" x="63.183594"/>
      <use xlink:href="#DejaVuSans-67" x="126.660156"/>
      <use xlink:href="#DejaVuSans-65" x="190.136719"/>
      <use xlink:href="#DejaVuSans-73" x="251.660156"/>
      <use xlink:href="#DejaVuSans-20" x="303.759766"/>
      <use xlink:href="#DejaVuSans-6f" x="335.546875"/>
      <use xlink:href="#DejaVuSans-66" x="396.728516"/>
      <use xlink:href="#DejaVuSans-20" x="431.933594"/>
      <use xlink:href="#DejaVuSans-50" x="463.720703"/>
      <use xlink:href="#DejaVuSans-6c" x="524.023438"/>
      <use xlink:href="#DejaVuSans-61" x="551.806641"/>
      <use xlink:href="#DejaVuSans-6e" x="613.085938"/>
      <use xlink:href="#DejaVuSans-65" x="676.464844"/>
      <use xlink:href="#DejaVuSans-32" x="737.988281"/>
     </g>
    </g>
    <g id="line2d_41">
     <path d="M 44.304688 50.094688 
L 54.304688 50.094688 
L 64.304688 50.094688 
" style="fill: none; stroke: #bf00bf; stroke-width: 1.5; stroke-linecap: square"/>
    </g>
    <g id="text_16">
     <!-- Gripper Direction -->
     <g transform="translate(72.304688 53.594688) scale(0.1 -0.1)">
      <defs>
       <path id="DejaVuSans-70" d="M 1159 525 
L 1159 -1331 
L 581 -1331 
L 581 3500 
L 1159 3500 
L 1159 2969 
Q 1341 3281 1617 3432 
Q 1894 3584 2278 3584 
Q 2916 3584 3314 3078 
Q 3713 2572 3713 1747 
Q 3713 922 3314 415 
Q 2916 -91 2278 -91 
Q 1894 -91 1617 61 
Q 1341 213 1159 525 
z
M 3116 1747 
Q 3116 2381 2855 2742 
Q 2594 3103 2138 3103 
Q 1681 3103 1420 2742 
Q 1159 2381 1159 1747 
Q 1159 1113 1420 752 
Q 1681 391 2138 391 
Q 2594 391 2855 752 
Q 3116 1113 3116 1747 
z
" transform="scale(0.015625)"/>
       <path id="DejaVuSans-44" d="M 1259 4147 
L 1259 519 
L 2022 519 
Q 2988 519 3436 956 
Q 3884 1394 3884 2338 
Q 3884 3275 3436 3711 
Q 2988 4147 2022 4147 
L 1259 4147 
z
M 628 4666 
L 1925 4666 
Q 3281 4666 3915 4102 
Q 4550 3538 4550 2338 
Q 4550 1131 3912 565 
Q 3275 0 1925 0 
L 628 0 
L 628 4666 
z
" transform="scale(0.015625)"/>
       <path id="DejaVuSans-63" d="M 3122 3366 
L 3122 2828 
Q 2878 2963 2633 3030 
Q 2388 3097 2138 3097 
Q 1578 3097 1268 2742 
Q 959 2388 959 1747 
Q 959 1106 1268 751 
Q 1578 397 2138 397 
Q 2388 397 2633 464 
Q 2878 531 3122 666 
L 3122 134 
Q 2881 22 2623 -34 
Q 2366 -91 2075 -91 
Q 1284 -91 818 406 
Q 353 903 353 1747 
Q 353 2603 823 3093 
Q 1294 3584 2113 3584 
Q 2378 3584 2631 3529 
Q 2884 3475 3122 3366 
z
" transform="scale(0.015625)"/>
      </defs>
      <use xlink:href="#DejaVuSans-47"/>
      <use xlink:href="#DejaVuSans-72" x="77.490234"/>
      <use xlink:href="#DejaVuSans-69" x="118.603516"/>
      <use xlink:href="#DejaVuSans-70" x="146.386719"/>
      <use xlink:href="#DejaVuSans-70" x="209.863281"/>
      <use xlink:href="#DejaVuSans-65" x="273.339844"/>
      <use xlink:href="#DejaVuSans-72" x="334.863281"/>
      <use xlink:href="#DejaVuSans-20" x="375.976562"/>
      <use xlink:href="#DejaVuSans-44" x="407.763672"/>
      <use xlink:href="#DejaVuSans-69" x="484.765625"/>
      <use xlink:href="#DejaVuSans-72" x="512.548828"/>
      <use xlink:href="#DejaVuSans-65" x="551.412109"/>
      <use xlink:href="#DejaVuSans-63" x="612.935547"/>
      <use xlink:href="#DejaVuSans-74" x="667.916016"/>
      <use xlink:href="#DejaVuSans-69" x="707.125"/>
      <use xlink:href="#DejaVuSans-6f" x="734.908203"/>
      <use xlink:href="#DejaVuSans-6e" x="796.089844"/>
     </g>
    </g>
    <g id="line2d_42">
     <path d="M 44.304688 64.772812 
L 54.304688 64.772812 
L 64.304688 64.772812 
" style="fill: none; stroke-dasharray: 1.85,0.8; stroke-dashoffset: 0; stroke: #008000; stroke-width: 0.5"/>
    </g>
    <g id="text_17">
     <!-- TCP Box -->
     <g transform="translate(72.304688 68.272812) scale(0.1 -0.1)">
      <use xlink:href="#DejaVuSans-54"/>
      <use xlink:href="#DejaVuSans-43" x="55.208984"/>
      <use xlink:href="#DejaVuSans-50" x="125.033203"/>
      <use xlink:href="#DejaVuSans-20" x="185.335938"/>
      <use xlink:href="#DejaVuSans-42" x="217.123047"/>
      <use xlink:href="#DejaVuSans-6f" x="285.726562"/>
      <use xlink:href="#DejaVuSans-78" x="343.783203"/>
     </g>
    </g>
    <g id="line2d_43">
     <g>
      <use xlink:href="#m673e191172" x="54.304688" y="79.450938" style="fill: #ff0000; stroke: #ff0000"/>
     </g>
    </g>
    <g id="text_18">
     <!-- Test Grid Points -->
     <g transform="translate(72.304688 82.950938) scale(0.1 -0.1)">
      <use xlink:href="#DejaVuSans-54"/>
      <use xlink:href="#DejaVuSans-65" x="44.083984"/>
      <use xlink:href="#DejaVuSans-73" x="105.607422"/>
      <use xlink:href="#DejaVuSans-74" x="157.707031"/>
      <use xlink:href="#DejaVuSans-20" x="196.916016"/>
      <use xlink:href="#DejaVuSans-47" x="228.703125"/>
      <use xlink:href="#DejaVuSans-72" x="306.193359"/>
      <use xlink:href="#DejaVuSans-69" x="347.306641"/>
      <use xlink:href="#DejaVuSans-64" x="375.089844"/>
      <use xlink:href="#DejaVuSans-20" x="438.566406"/>
      <use xlink:href="#DejaVuSans-50" x="470.353516"/>
      <use xlink:href="#DejaVuSans-6f" x="527.03125"/>
      <use xlink:href="#DejaVuSans-69" x="588.212891"/>
      <use xlink:href="#DejaVuSans-6e" x="615.996094"/>
      <use xlink:href="#DejaVuSans-74" x="679.375"/>
      <use xlink:href="#DejaVuSans-73" x="718.583984"/>
     </g>
    </g>
   </g>
  </g>
 </g>
 <defs>
  <clipPath id="p570c18978f">
   <rect x="35.304688" y="22.318125" width="526.25" height="319.746835"/>
  </clipPath>
 </defs>
</svg>
