<?xml version="1.0" encoding="utf-8" standalone="no"?>
<!DOCTYPE svg PUBLIC "-//W3C//DTD SVG 1.1//EN"
  "http://www.w3.org/Graphics/SVG/1.1/DTD/svg11.dtd">
<svg xmlns:xlink="http://www.w3.org/1999/xlink" width="568.754687pt" height="263.954871pt" viewBox="0 0 568.754687 263.954871" xmlns="http://www.w3.org/2000/svg" version="1.1">
 <metadata>
  <rdf:RDF xmlns:dc="http://purl.org/dc/elements/1.1/" xmlns:cc="http://creativecommons.org/ns#" xmlns:rdf="http://www.w3.org/1999/02/22-rdf-syntax-ns#">
   <cc:Work>
    <dc:type rdf:resource="http://purl.org/dc/dcmitype/StillImage"/>
    <dc:date>2025-11-13T12:46:24.612275</dc:date>
    <dc:format>image/svg+xml</dc:format>
    <dc:creator>
     <cc:Agent>
      <dc:title>Matplotlib v3.9.4, https://matplotlib.org/</dc:title>
     </cc:Agent>
    </dc:creator>
   </cc:Work>
  </rdf:RDF>
 </metadata>
 <defs>
  <style type="text/css">*{stroke-linejoin: round; stroke-linecap: butt}</style>
 </defs>
 <g id="figure_1">
  <g id="patch_1">
   <path d="M 0 263.954871 
L 568.754687 263.954871 
L 568.754687 0 
L 0 0 
z
" style="fill: #ffffff"/>
  </g>
  <g id="axes_1">
   <g id="patch_2">
    <path d="M 35.304688 240.076746 
L 561.554687 240.076746 
L 561.554687 22.318125 
L 35.304688 22.318125 
z
" style="fill: #ffffff"/>
   </g>
   <g id="matplotlib.axis_1">
    <g id="xtick_1">
     <g id="line2d_1">
      <path d="M 88.07126 240.076746 
L 88.07126 22.318125 
" clip-path="url(#p66d108e180)" style="fill: none; stroke: #b0b0b0; stroke-width: 0.8; stroke-linecap: square"/>
     </g>
     <g id="line2d_2">
      <defs>
       <path id="m0cbb9d0948" d="M 0 0 
L 0 3.5 
" style="stroke: #000000; stroke-width: 0.8"/>
      </defs>
      <g>
       <use xlink:href="#m0cbb9d0948" x="88.07126" y="240.076746" style="stroke: #000000; stroke-width: 0.8"/>
      </g>
     </g>
     <g id="text_1">
      <!-- −40 -->
      <g transform="translate(77.518916 254.675183) scale(0.1 -0.1)">
       <defs>
        <path id="DejaVuSans-2212" d="M 678 2272 
L 4684 2272 
L 4684 1741 
L 678 1741 
L 678 2272 
z
" transform="scale(0.015625)"/>
        <path id="DejaVuSans-34" d="M 2419 4116 
L 825 1625 
L 2419 1625 
L 2419 4116 
z
M 2253 4666 
L 3047 4666 
L 3047 1625 
L 3713 1625 
L 3713 1100 
L 3047 1100 
L 3047 0 
L 2419 0 
L 2419 1100 
L 313 1100 
L 313 1709 
L 2253 4666 
z
" transform="scale(0.015625)"/>
        <path id="DejaVuSans-30" d="M 2034 4250 
Q 1547 4250 1301 3770 
Q 1056 3291 1056 2328 
Q 1056 1369 1301 889 
Q 1547 409 2034 409 
Q 2525 409 2770 889 
Q 3016 1369 3016 2328 
Q 3016 3291 2770 3770 
Q 2525 4250 2034 4250 
z
M 2034 4750 
Q 2819 4750 3233 4129 
Q 3647 3509 3647 2328 
Q 3647 1150 3233 529 
Q 2819 -91 2034 -91 
Q 1250 -91 836 529 
Q 422 1150 422 2328 
Q 422 3509 836 4129 
Q 1250 4750 2034 4750 
z
" transform="scale(0.015625)"/>
       </defs>
       <use xlink:href="#DejaVuSans-2212"/>
       <use xlink:href="#DejaVuSans-34" x="83.789062"/>
       <use xlink:href="#DejaVuSans-30" x="147.412109"/>
      </g>
     </g>
    </g>
    <g id="xtick_2">
     <g id="line2d_3">
      <path d="M 178.804019 240.076746 
L 178.804019 22.318125 
" clip-path="url(#p66d108e180)" style="fill: none; stroke: #b0b0b0; stroke-width: 0.8; stroke-linecap: square"/>
     </g>
     <g id="line2d_4">
      <g>
       <use xlink:href="#m0cbb9d0948" x="178.804019" y="240.076746" style="stroke: #000000; stroke-width: 0.8"/>
      </g>
     </g>
     <g id="text_2">
      <!-- −20 -->
      <g transform="translate(168.251675 254.675183) scale(0.1 -0.1)">
       <defs>
        <path id="DejaVuSans-32" d="M 1228 531 
L 3431 531 
L 3431 0 
L 469 0 
L 469 531 
Q 828 903 1448 1529 
Q 2069 2156 2228 2338 
Q 2531 2678 2651 2914 
Q 2772 3150 2772 3378 
Q 2772 3750 2511 3984 
Q 2250 4219 1831 4219 
Q 1534 4219 1204 4116 
Q 875 4013 500 3803 
L 500 4441 
Q 881 4594 1212 4672 
Q 1544 4750 1819 4750 
Q 2544 4750 2975 4387 
Q 3406 4025 3406 3419 
Q 3406 3131 3298 2873 
Q 3191 2616 2906 2266 
Q 2828 2175 2409 1742 
Q 1991 1309 1228 531 
z
" transform="scale(0.015625)"/>
       </defs>
       <use xlink:href="#DejaVuSans-2212"/>
       <use xlink:href="#DejaVuSans-32" x="83.789062"/>
       <use xlink:href="#DejaVuSans-30" x="147.412109"/>
      </g>
     </g>
    </g>
    <g id="xtick_3">
     <g id="line2d_5">
      <path d="M 269.536777 240.076746 
L 269.536777 22.318125 
" clip-path="url(#p66d108e180)" style="fill: none; stroke: #b0b0b0; stroke-width: 0.8; stroke-linecap: square"/>
     </g>
     <g id="line2d_6">
      <g>
       <use xlink:href="#m0cbb9d0948" x="269.536777" y="240.076746" style="stroke: #000000; stroke-width: 0.8"/>
      </g>
     </g>
     <g id="text_3">
      <!-- 0 -->
      <g transform="translate(266.355527 254.675183) scale(0.1 -0.1)">
       <use xlink:href="#DejaVuSans-30"/>
      </g>
     </g>
    </g>
    <g id="xtick_4">
     <g id="line2d_7">
      <path d="M 360.269536 240.076746 
L 360.269536 22.318125 
" clip-path="url(#p66d108e180)" style="fill: none; stroke: #b0b0b0; stroke-width: 0.8; stroke-linecap: square"/>
     </g>
     <g id="line2d_8">
      <g>
       <use xlink:href="#m0cbb9d0948" x="360.269536" y="240.076746" style="stroke: #000000; stroke-width: 0.8"/>
      </g>
     </g>
     <g id="text_4">
      <!-- 20 -->
      <g transform="translate(353.907036 254.675183) scale(0.1 -0.1)">
       <use xlink:href="#DejaVuSans-32"/>
       <use xlink:href="#DejaVuSans-30" x="63.623047"/>
      </g>
     </g>
    </g>
    <g id="xtick_5">
     <g id="line2d_9">
      <path d="M 451.002295 240.076746 
L 451.002295 22.318125 
" clip-path="url(#p66d108e180)" style="fill: none; stroke: #b0b0b0; stroke-width: 0.8; stroke-linecap: square"/>
     </g>
     <g id="line2d_10">
      <g>
       <use xlink:href="#m0cbb9d0948" x="451.002295" y="240.076746" style="stroke: #000000; stroke-width: 0.8"/>
      </g>
     </g>
     <g id="text_5">
      <!-- 40 -->
      <g transform="translate(444.639795 254.675183) scale(0.1 -0.1)">
       <use xlink:href="#DejaVuSans-34"/>
       <use xlink:href="#DejaVuSans-30" x="63.623047"/>
      </g>
     </g>
    </g>
    <g id="xtick_6">
     <g id="line2d_11">
      <path d="M 541.735053 240.076746 
L 541.735053 22.318125 
" clip-path="url(#p66d108e180)" style="fill: none; stroke: #b0b0b0; stroke-width: 0.8; stroke-linecap: square"/>
     </g>
     <g id="line2d_12">
      <g>
       <use xlink:href="#m0cbb9d0948" x="541.735053" y="240.076746" style="stroke: #000000; stroke-width: 0.8"/>
      </g>
     </g>
     <g id="text_6">
      <!-- 60 -->
      <g transform="translate(535.372553 254.675183) scale(0.1 -0.1)">
       <defs>
        <path id="DejaVuSans-36" d="M 2113 2584 
Q 1688 2584 1439 2293 
Q 1191 2003 1191 1497 
Q 1191 994 1439 701 
Q 1688 409 2113 409 
Q 2538 409 2786 701 
Q 3034 994 3034 1497 
Q 3034 2003 2786 2293 
Q 2538 2584 2113 2584 
z
M 3366 4563 
L 3366 3988 
Q 3128 4100 2886 4159 
Q 2644 4219 2406 4219 
Q 1781 4219 1451 3797 
Q 1122 3375 1075 2522 
Q 1259 2794 1537 2939 
Q 1816 3084 2150 3084 
Q 2853 3084 3261 2657 
Q 3669 2231 3669 1497 
Q 3669 778 3244 343 
Q 2819 -91 2113 -91 
Q 1303 -91 875 529 
Q 447 1150 447 2328 
Q 447 3434 972 4092 
Q 1497 4750 2381 4750 
Q 2619 4750 2861 4703 
Q 3103 4656 3366 4563 
z
" transform="scale(0.015625)"/>
       </defs>
       <use xlink:href="#DejaVuSans-36"/>
       <use xlink:href="#DejaVuSans-30" x="63.623047"/>
      </g>
     </g>
    </g>
   </g>
   <g id="matplotlib.axis_2">
    <g id="ytick_1">
     <g id="line2d_13">
      <path d="M 35.304688 219.722965 
L 561.554687 219.722965 
" clip-path="url(#p66d108e180)" style="fill: none; stroke: #b0b0b0; stroke-width: 0.8; stroke-linecap: square"/>
     </g>
     <g id="line2d_14">
      <defs>
       <path id="md2e28f3eea" d="M 0 0 
L -3.5 0 
" style="stroke: #000000; stroke-width: 0.8"/>
      </defs>
      <g>
       <use xlink:href="#md2e28f3eea" x="35.304688" y="219.722965" style="stroke: #000000; stroke-width: 0.8"/>
      </g>
     </g>
     <g id="text_7">
      <!-- −20 -->
      <g transform="translate(7.2 223.522184) scale(0.1 -0.1)">
       <use xlink:href="#DejaVuSans-2212"/>
       <use xlink:href="#DejaVuSans-32" x="83.789062"/>
       <use xlink:href="#DejaVuSans-30" x="147.412109"/>
      </g>
     </g>
    </g>
    <g id="ytick_2">
     <g id="line2d_15">
      <path d="M 35.304688 174.356586 
L 561.554687 174.356586 
" clip-path="url(#p66d108e180)" style="fill: none; stroke: #b0b0b0; stroke-width: 0.8; stroke-linecap: square"/>
     </g>
     <g id="line2d_16">
      <g>
       <use xlink:href="#md2e28f3eea" x="35.304688" y="174.356586" style="stroke: #000000; stroke-width: 0.8"/>
      </g>
     </g>
     <g id="text_8">
      <!-- −10 -->
      <g transform="translate(7.2 178.155805) scale(0.1 -0.1)">
       <defs>
        <path id="DejaVuSans-31" d="M 794 531 
L 1825 531 
L 1825 4091 
L 703 3866 
L 703 4441 
L 1819 4666 
L 2450 4666 
L 2450 531 
L 3481 531 
L 3481 0 
L 794 0 
L 794 531 
z
" transform="scale(0.015625)"/>
       </defs>
       <use xlink:href="#DejaVuSans-2212"/>
       <use xlink:href="#DejaVuSans-31" x="83.789062"/>
       <use xlink:href="#DejaVuSans-30" x="147.412109"/>
      </g>
     </g>
    </g>
    <g id="ytick_3">
     <g id="line2d_17">
      <path d="M 35.304688 128.990207 
L 561.554687 128.990207 
" clip-path="url(#p66d108e180)" style="fill: none; stroke: #b0b0b0; stroke-width: 0.8; stroke-linecap: square"/>
     </g>
     <g id="line2d_18">
      <g>
       <use xlink:href="#md2e28f3eea" x="35.304688" y="128.990207" style="stroke: #000000; stroke-width: 0.8"/>
      </g>
     </g>
     <g id="text_9">
      <!-- 0 -->
      <g transform="translate(21.942187 132.789425) scale(0.1 -0.1)">
       <use xlink:href="#DejaVuSans-30"/>
      </g>
     </g>
    </g>
    <g id="ytick_4">
     <g id="line2d_19">
      <path d="M 35.304688 83.623827 
L 561.554687 83.623827 
" clip-path="url(#p66d108e180)" style="fill: none; stroke: #b0b0b0; stroke-width: 0.8; stroke-linecap: square"/>
     </g>
     <g id="line2d_20">
      <g>
       <use xlink:href="#md2e28f3eea" x="35.304688" y="83.623827" style="stroke: #000000; stroke-width: 0.8"/>
      </g>
     </g>
     <g id="text_10">
      <!-- 10 -->
      <g transform="translate(15.579687 87.423046) scale(0.1 -0.1)">
       <use xlink:href="#DejaVuSans-31"/>
       <use xlink:href="#DejaVuSans-30" x="63.623047"/>
      </g>
     </g>
    </g>
    <g id="ytick_5">
     <g id="line2d_21">
      <path d="M 35.304688 38.257448 
L 561.554687 38.257448 
" clip-path="url(#p66d108e180)" style="fill: none; stroke: #b0b0b0; stroke-width: 0.8; stroke-linecap: square"/>
     </g>
     <g id="line2d_22">
      <g>
       <use xlink:href="#md2e28f3eea" x="35.304688" y="38.257448" style="stroke: #000000; stroke-width: 0.8"/>
      </g>
     </g>
     <g id="text_11">
      <!-- 20 -->
      <g transform="translate(15.579687 42.056667) scale(0.1 -0.1)">
       <use xlink:href="#DejaVuSans-32"/>
       <use xlink:href="#DejaVuSans-30" x="63.623047"/>
      </g>
     </g>
    </g>
   </g>
   <g id="line2d_23">
    <path d="M 80.671067 190.173728 
L 85.207705 67.684504 
" clip-path="url(#p66d108e180)" style="fill: none; stroke: #0000ff; stroke-width: 3; stroke-linecap: square"/>
   </g>
   <g id="line2d_24">
    <path d="M 85.207705 67.684504 
L 452.675377 67.684504 
" clip-path="url(#p66d108e180)" style="fill: none; stroke: #0000ff; stroke-width: 3; stroke-linecap: square"/>
   </g>
   <g id="line2d_25">
    <path d="M 538.611435 117.880525 
L 470.778585 123.307153 
" clip-path="url(#p66d108e180)" style="fill: none; stroke: #bf00bf; stroke-width: 1.5; stroke-linecap: square"/>
   </g>
   <g id="line2d_26">
    <path d="M 495.198411 144.109227 
L 446.358759 102.505079 
" clip-path="url(#p66d108e180)" style="fill: none; stroke: #bf00bf; stroke-width: 1.5; stroke-linecap: square"/>
   </g>
   <g id="line2d_27">
    <path d="M 495.198411 144.109227 
L 459.020891 147.003428 
" clip-path="url(#p66d108e180)" style="fill: none; stroke: #bf00bf; stroke-width: 1.5; stroke-linecap: square"/>
   </g>
   <g id="line2d_28">
    <path d="M 446.358759 102.505079 
L 410.181239 105.39928 
" clip-path="url(#p66d108e180)" style="fill: none; stroke: #bf00bf; stroke-width: 1.5; stroke-linecap: square"/>
   </g>
   <g id="line2d_29">
    <path d="M 452.675377 67.684504 
L 461.748653 181.100453 
" clip-path="url(#p66d108e180)" style="fill: none; stroke: #0000ff; stroke-width: 3; stroke-linecap: square"/>
   </g>
   <g id="line2d_30">
    <path d="M 461.748653 181.100453 
L 470.821929 72.221142 
" clip-path="url(#p66d108e180)" style="fill: none; stroke: #0000ff; stroke-width: 3; stroke-linecap: square"/>
   </g>
   <g id="line2d_31">
    <path d="M 470.821929 72.221142 
L 516.188308 76.75778 
" clip-path="url(#p66d108e180)" style="fill: none; stroke: #0000ff; stroke-width: 3; stroke-linecap: square"/>
   </g>
   <g id="line2d_32">
    <path d="M 516.188308 76.75778 
L 511.65167 194.710366 
" clip-path="url(#p66d108e180)" style="fill: none; stroke: #0000ff; stroke-width: 3; stroke-linecap: square"/>
   </g>
   <g id="line2d_33">
    <path d="M 511.65167 194.710366 
L 80.671067 190.173728 
" clip-path="url(#p66d108e180)" style="fill: none; stroke: #0000ff; stroke-width: 3; stroke-linecap: square"/>
   </g>
   <g id="line2d_34">
    <path d="M 226.565877 85.773264 
L 235.639153 199.189213 
L 461.748653 181.100453 
L 452.675377 67.684504 
L 226.565877 85.773264 
" clip-path="url(#p66d108e180)" style="fill: none; stroke-dasharray: 1.85,0.8; stroke-dashoffset: 0; stroke: #008000; stroke-width: 0.5"/>
   </g>
   <g id="line2d_35">
    <defs>
     <path id="m877298ec1d" d="M -2 2 
L 2 -2 
M -2 -2 
L 2 2 
" style="stroke: #ff0000"/>
    </defs>
    <g clip-path="url(#p66d108e180)">
     <use xlink:href="#m877298ec1d" x="234.430847" y="93.062746" style="fill: #ff0000; stroke: #ff0000"/>
     <use xlink:href="#m877298ec1d" x="250.710731" y="91.760355" style="fill: #ff0000; stroke: #ff0000"/>
     <use xlink:href="#m877298ec1d" x="266.990615" y="90.457965" style="fill: #ff0000; stroke: #ff0000"/>
     <use xlink:href="#m877298ec1d" x="283.270499" y="89.155574" style="fill: #ff0000; stroke: #ff0000"/>
     <use xlink:href="#m877298ec1d" x="299.550383" y="87.853183" style="fill: #ff0000; stroke: #ff0000"/>
     <use xlink:href="#m877298ec1d" x="315.830267" y="86.550793" style="fill: #ff0000; stroke: #ff0000"/>
     <use xlink:href="#m877298ec1d" x="332.110151" y="85.248402" style="fill: #ff0000; stroke: #ff0000"/>
     <use xlink:href="#m877298ec1d" x="348.390035" y="83.946011" style="fill: #ff0000; stroke: #ff0000"/>
     <use xlink:href="#m877298ec1d" x="364.669919" y="82.64362" style="fill: #ff0000; stroke: #ff0000"/>
     <use xlink:href="#m877298ec1d" x="380.949803" y="81.34123" style="fill: #ff0000; stroke: #ff0000"/>
     <use xlink:href="#m877298ec1d" x="397.229687" y="80.038839" style="fill: #ff0000; stroke: #ff0000"/>
     <use xlink:href="#m877298ec1d" x="413.509571" y="78.736448" style="fill: #ff0000; stroke: #ff0000"/>
     <use xlink:href="#m877298ec1d" x="429.789455" y="77.434057" style="fill: #ff0000; stroke: #ff0000"/>
     <use xlink:href="#m877298ec1d" x="446.069339" y="76.131667" style="fill: #ff0000; stroke: #ff0000"/>
     <use xlink:href="#m877298ec1d" x="235.733238" y="109.34263" style="fill: #ff0000; stroke: #ff0000"/>
     <use xlink:href="#m877298ec1d" x="252.013122" y="108.040239" style="fill: #ff0000; stroke: #ff0000"/>
     <use xlink:href="#m877298ec1d" x="268.293006" y="106.737849" style="fill: #ff0000; stroke: #ff0000"/>
     <use xlink:href="#m877298ec1d" x="284.57289" y="105.435458" style="fill: #ff0000; stroke: #ff0000"/>
     <use xlink:href="#m877298ec1d" x="300.852774" y="104.133067" style="fill: #ff0000; stroke: #ff0000"/>
     <use xlink:href="#m877298ec1d" x="317.132658" y="102.830677" style="fill: #ff0000; stroke: #ff0000"/>
     <use xlink:href="#m877298ec1d" x="333.412542" y="101.528286" style="fill: #ff0000; stroke: #ff0000"/>
     <use xlink:href="#m877298ec1d" x="349.692426" y="100.225895" style="fill: #ff0000; stroke: #ff0000"/>
     <use xlink:href="#m877298ec1d" x="365.97231" y="98.923504" style="fill: #ff0000; stroke: #ff0000"/>
     <use xlink:href="#m877298ec1d" x="382.252194" y="97.621114" style="fill: #ff0000; stroke: #ff0000"/>
     <use xlink:href="#m877298ec1d" x="398.532078" y="96.318723" style="fill: #ff0000; stroke: #ff0000"/>
     <use xlink:href="#m877298ec1d" x="414.811962" y="95.016332" style="fill: #ff0000; stroke: #ff0000"/>
     <use xlink:href="#m877298ec1d" x="431.091846" y="93.713941" style="fill: #ff0000; stroke: #ff0000"/>
     <use xlink:href="#m877298ec1d" x="447.37173" y="92.411551" style="fill: #ff0000; stroke: #ff0000"/>
     <use xlink:href="#m877298ec1d" x="237.035628" y="125.622514" style="fill: #ff0000; stroke: #ff0000"/>
     <use xlink:href="#m877298ec1d" x="253.315512" y="124.320123" style="fill: #ff0000; stroke: #ff0000"/>
     <use xlink:href="#m877298ec1d" x="269.595396" y="123.017733" style="fill: #ff0000; stroke: #ff0000"/>
     <use xlink:href="#m877298ec1d" x="285.87528" y="121.715342" style="fill: #ff0000; stroke: #ff0000"/>
     <use xlink:href="#m877298ec1d" x="302.155164" y="120.412951" style="fill: #ff0000; stroke: #ff0000"/>
     <use xlink:href="#m877298ec1d" x="318.435048" y="119.110561" style="fill: #ff0000; stroke: #ff0000"/>
     <use xlink:href="#m877298ec1d" x="334.714932" y="117.80817" style="fill: #ff0000; stroke: #ff0000"/>
     <use xlink:href="#m877298ec1d" x="350.994816" y="116.505779" style="fill: #ff0000; stroke: #ff0000"/>
     <use xlink:href="#m877298ec1d" x="367.2747" y="115.203388" style="fill: #ff0000; stroke: #ff0000"/>
     <use xlink:href="#m877298ec1d" x="383.554584" y="113.900998" style="fill: #ff0000; stroke: #ff0000"/>
     <use xlink:href="#m877298ec1d" x="399.834468" y="112.598607" style="fill: #ff0000; stroke: #ff0000"/>
     <use xlink:href="#m877298ec1d" x="416.114352" y="111.296216" style="fill: #ff0000; stroke: #ff0000"/>
     <use xlink:href="#m877298ec1d" x="432.394236" y="109.993825" style="fill: #ff0000; stroke: #ff0000"/>
     <use xlink:href="#m877298ec1d" x="448.67412" y="108.691435" style="fill: #ff0000; stroke: #ff0000"/>
     <use xlink:href="#m877298ec1d" x="238.338019" y="141.902398" style="fill: #ff0000; stroke: #ff0000"/>
     <use xlink:href="#m877298ec1d" x="254.617903" y="140.600007" style="fill: #ff0000; stroke: #ff0000"/>
     <use xlink:href="#m877298ec1d" x="270.897787" y="139.297617" style="fill: #ff0000; stroke: #ff0000"/>
     <use xlink:href="#m877298ec1d" x="287.177671" y="137.995226" style="fill: #ff0000; stroke: #ff0000"/>
     <use xlink:href="#m877298ec1d" x="303.457555" y="136.692835" style="fill: #ff0000; stroke: #ff0000"/>
     <use xlink:href="#m877298ec1d" x="319.737439" y="135.390445" style="fill: #ff0000; stroke: #ff0000"/>
     <use xlink:href="#m877298ec1d" x="336.017323" y="134.088054" style="fill: #ff0000; stroke: #ff0000"/>
     <use xlink:href="#m877298ec1d" x="352.297207" y="132.785663" style="fill: #ff0000; stroke: #ff0000"/>
     <use xlink:href="#m877298ec1d" x="368.577091" y="131.483272" style="fill: #ff0000; stroke: #ff0000"/>
     <use xlink:href="#m877298ec1d" x="384.856975" y="130.180882" style="fill: #ff0000; stroke: #ff0000"/>
     <use xlink:href="#m877298ec1d" x="401.136859" y="128.878491" style="fill: #ff0000; stroke: #ff0000"/>
     <use xlink:href="#m877298ec1d" x="417.416743" y="127.5761" style="fill: #ff0000; stroke: #ff0000"/>
     <use xlink:href="#m877298ec1d" x="433.696627" y="126.273709" style="fill: #ff0000; stroke: #ff0000"/>
     <use xlink:href="#m877298ec1d" x="449.976511" y="124.971319" style="fill: #ff0000; stroke: #ff0000"/>
     <use xlink:href="#m877298ec1d" x="239.64041" y="158.182282" style="fill: #ff0000; stroke: #ff0000"/>
     <use xlink:href="#m877298ec1d" x="255.920294" y="156.879891" style="fill: #ff0000; stroke: #ff0000"/>
     <use xlink:href="#m877298ec1d" x="272.200178" y="155.577501" style="fill: #ff0000; stroke: #ff0000"/>
     <use xlink:href="#m877298ec1d" x="288.480062" y="154.27511" style="fill: #ff0000; stroke: #ff0000"/>
     <use xlink:href="#m877298ec1d" x="304.759946" y="152.972719" style="fill: #ff0000; stroke: #ff0000"/>
     <use xlink:href="#m877298ec1d" x="321.03983" y="151.670329" style="fill: #ff0000; stroke: #ff0000"/>
     <use xlink:href="#m877298ec1d" x="337.319714" y="150.367938" style="fill: #ff0000; stroke: #ff0000"/>
     <use xlink:href="#m877298ec1d" x="353.599598" y="149.065547" style="fill: #ff0000; stroke: #ff0000"/>
     <use xlink:href="#m877298ec1d" x="369.879482" y="147.763156" style="fill: #ff0000; stroke: #ff0000"/>
     <use xlink:href="#m877298ec1d" x="386.159366" y="146.460766" style="fill: #ff0000; stroke: #ff0000"/>
     <use xlink:href="#m877298ec1d" x="402.43925" y="145.158375" style="fill: #ff0000; stroke: #ff0000"/>
     <use xlink:href="#m877298ec1d" x="418.719134" y="143.855984" style="fill: #ff0000; stroke: #ff0000"/>
     <use xlink:href="#m877298ec1d" x="434.999018" y="142.553593" style="fill: #ff0000; stroke: #ff0000"/>
     <use xlink:href="#m877298ec1d" x="451.278902" y="141.251203" style="fill: #ff0000; stroke: #ff0000"/>
     <use xlink:href="#m877298ec1d" x="240.9428" y="174.462166" style="fill: #ff0000; stroke: #ff0000"/>
     <use xlink:href="#m877298ec1d" x="257.222684" y="173.159775" style="fill: #ff0000; stroke: #ff0000"/>
     <use xlink:href="#m877298ec1d" x="273.502568" y="171.857385" style="fill: #ff0000; stroke: #ff0000"/>
     <use xlink:href="#m877298ec1d" x="289.782452" y="170.554994" style="fill: #ff0000; stroke: #ff0000"/>
     <use xlink:href="#m877298ec1d" x="306.062336" y="169.252603" style="fill: #ff0000; stroke: #ff0000"/>
     <use xlink:href="#m877298ec1d" x="322.34222" y="167.950213" style="fill: #ff0000; stroke: #ff0000"/>
     <use xlink:href="#m877298ec1d" x="338.622104" y="166.647822" style="fill: #ff0000; stroke: #ff0000"/>
     <use xlink:href="#m877298ec1d" x="354.901988" y="165.345431" style="fill: #ff0000; stroke: #ff0000"/>
     <use xlink:href="#m877298ec1d" x="371.181872" y="164.04304" style="fill: #ff0000; stroke: #ff0000"/>
     <use xlink:href="#m877298ec1d" x="387.461756" y="162.74065" style="fill: #ff0000; stroke: #ff0000"/>
     <use xlink:href="#m877298ec1d" x="403.74164" y="161.438259" style="fill: #ff0000; stroke: #ff0000"/>
     <use xlink:href="#m877298ec1d" x="420.021525" y="160.135868" style="fill: #ff0000; stroke: #ff0000"/>
     <use xlink:href="#m877298ec1d" x="436.301409" y="158.833478" style="fill: #ff0000; stroke: #ff0000"/>
     <use xlink:href="#m877298ec1d" x="452.581293" y="157.531087" style="fill: #ff0000; stroke: #ff0000"/>
     <use xlink:href="#m877298ec1d" x="242.245191" y="190.74205" style="fill: #ff0000; stroke: #ff0000"/>
     <use xlink:href="#m877298ec1d" x="258.525075" y="189.439659" style="fill: #ff0000; stroke: #ff0000"/>
     <use xlink:href="#m877298ec1d" x="274.804959" y="188.137269" style="fill: #ff0000; stroke: #ff0000"/>
     <use xlink:href="#m877298ec1d" x="291.084843" y="186.834878" style="fill: #ff0000; stroke: #ff0000"/>
     <use xlink:href="#m877298ec1d" x="307.364727" y="185.532487" style="fill: #ff0000; stroke: #ff0000"/>
     <use xlink:href="#m877298ec1d" x="323.644611" y="184.230097" style="fill: #ff0000; stroke: #ff0000"/>
     <use xlink:href="#m877298ec1d" x="339.924495" y="182.927706" style="fill: #ff0000; stroke: #ff0000"/>
     <use xlink:href="#m877298ec1d" x="356.204379" y="181.625315" style="fill: #ff0000; stroke: #ff0000"/>
     <use xlink:href="#m877298ec1d" x="372.484263" y="180.322924" style="fill: #ff0000; stroke: #ff0000"/>
     <use xlink:href="#m877298ec1d" x="388.764147" y="179.020534" style="fill: #ff0000; stroke: #ff0000"/>
     <use xlink:href="#m877298ec1d" x="405.044031" y="177.718143" style="fill: #ff0000; stroke: #ff0000"/>
     <use xlink:href="#m877298ec1d" x="421.323915" y="176.415752" style="fill: #ff0000; stroke: #ff0000"/>
     <use xlink:href="#m877298ec1d" x="437.603799" y="175.113362" style="fill: #ff0000; stroke: #ff0000"/>
     <use xlink:href="#m877298ec1d" x="453.883683" y="173.810971" style="fill: #ff0000; stroke: #ff0000"/>
    </g>
   </g>
   <g id="patch_3">
    <path d="M 35.304688 240.076746 
L 35.304688 22.318125 
" style="fill: none; stroke: #000000; stroke-width: 0.8; stroke-linejoin: miter; stroke-linecap: square"/>
   </g>
   <g id="patch_4">
    <path d="M 561.554687 240.076746 
L 561.554687 22.318125 
" style="fill: none; stroke: #000000; stroke-width: 0.8; stroke-linejoin: miter; stroke-linecap: square"/>
   </g>
   <g id="patch_5">
    <path d="M 35.304688 240.076746 
L 561.554687 240.076746 
" style="fill: none; stroke: #000000; stroke-width: 0.8; stroke-linejoin: miter; stroke-linecap: square"/>
   </g>
   <g id="patch_6">
    <path d="M 35.304688 22.318125 
L 561.554687 22.318125 
" style="fill: none; stroke: #000000; stroke-width: 0.8; stroke-linejoin: miter; stroke-linecap: square"/>
   </g>
   <g id="text_12">
    <!-- TCP Box and Test Grid Points for Edges 3/7 -->
    <g transform="translate(171.057187 16.318125) scale(0.12 -0.12)">
     <defs>
      <path id="DejaVuSans-54" d="M -19 4666 
L 3928 4666 
L 3928 4134 
L 2272 4134 
L 2272 0 
L 1638 0 
L 1638 4134 
L -19 4134 
L -19 4666 
z
" transform="scale(0.015625)"/>
      <path id="DejaVuSans-43" d="M 4122 4306 
L 4122 3641 
Q 3803 3938 3442 4084 
Q 3081 4231 2675 4231 
Q 1875 4231 1450 3742 
Q 1025 3253 1025 2328 
Q 1025 1406 1450 917 
Q 1875 428 2675 428 
Q 3081 428 3442 575 
Q 3803 722 4122 1019 
L 4122 359 
Q 3791 134 3420 21 
Q 3050 -91 2638 -91 
Q 1578 -91 968 557 
Q 359 1206 359 2328 
Q 359 3453 968 4101 
Q 1578 4750 2638 4750 
Q 3056 4750 3426 4639 
Q 3797 4528 4122 4306 
z
" transform="scale(0.015625)"/>
      <path id="DejaVuSans-50" d="M 1259 4147 
L 1259 2394 
L 2053 2394 
Q 2494 2394 2734 2622 
Q 2975 2850 2975 3272 
Q 2975 3691 2734 3919 
Q 2494 4147 2053 4147 
L 1259 4147 
z
M 628 4666 
L 2053 4666 
Q 2838 4666 3239 4311 
Q 3641 3956 3641 3272 
Q 3641 2581 3239 2228 
Q 2838 1875 2053 1875 
L 1259 1875 
L 1259 0 
L 628 0 
L 628 4666 
z
" transform="scale(0.015625)"/>
      <path id="DejaVuSans-20" transform="scale(0.015625)"/>
      <path id="DejaVuSans-42" d="M 1259 2228 
L 1259 519 
L 2272 519 
Q 2781 519 3026 730 
Q 3272 941 3272 1375 
Q 3272 1813 3026 2020 
Q 2781 2228 2272 2228 
L 1259 2228 
z
M 1259 4147 
L 1259 2741 
L 2194 2741 
Q 2656 2741 2882 2914 
Q 3109 3088 3109 3444 
Q 3109 3797 2882 3972 
Q 2656 4147 2194 4147 
L 1259 4147 
z
M 628 4666 
L 2241 4666 
Q 2963 4666 3353 4366 
Q 3744 4066 3744 3513 
Q 3744 3084 3544 2831 
Q 3344 2578 2956 2516 
Q 3422 2416 3680 2098 
Q 3938 1781 3938 1306 
Q 3938 681 3513 340 
Q 3088 0 2303 0 
L 628 0 
L 628 4666 
z
" transform="scale(0.015625)"/>
      <path id="DejaVuSans-6f" d="M 1959 3097 
Q 1497 3097 1228 2736 
Q 959 2375 959 1747 
Q 959 1119 1226 758 
Q 1494 397 1959 397 
Q 2419 397 2687 759 
Q 2956 1122 2956 1747 
Q 2956 2369 2687 2733 
Q 2419 3097 1959 3097 
z
M 1959 3584 
Q 2709 3584 3137 3096 
Q 3566 2609 3566 1747 
Q 3566 888 3137 398 
Q 2709 -91 1959 -91 
Q 1206 -91 779 398 
Q 353 888 353 1747 
Q 353 2609 779 3096 
Q 1206 3584 1959 3584 
z
" transform="scale(0.015625)"/>
      <path id="DejaVuSans-78" d="M 3513 3500 
L 2247 1797 
L 3578 0 
L 2900 0 
L 1881 1375 
L 863 0 
L 184 0 
L 1544 1831 
L 300 3500 
L 978 3500 
L 1906 2253 
L 2834 3500 
L 3513 3500 
z
" transform="scale(0.015625)"/>
      <path id="DejaVuSans-61" d="M 2194 1759 
Q 1497 1759 1228 1600 
Q 959 1441 959 1056 
Q 959 750 1161 570 
Q 1363 391 1709 391 
Q 2188 391 2477 730 
Q 2766 1069 2766 1631 
L 2766 1759 
L 2194 1759 
z
M 3341 1997 
L 3341 0 
L 2766 0 
L 2766 531 
Q 2569 213 2275 61 
Q 1981 -91 1556 -91 
Q 1019 -91 701 211 
Q 384 513 384 1019 
Q 384 1609 779 1909 
Q 1175 2209 1959 2209 
L 2766 2209 
L 2766 2266 
Q 2766 2663 2505 2880 
Q 2244 3097 1772 3097 
Q 1472 3097 1187 3025 
Q 903 2953 641 2809 
L 641 3341 
Q 956 3463 1253 3523 
Q 1550 3584 1831 3584 
Q 2591 3584 2966 3190 
Q 3341 2797 3341 1997 
z
" transform="scale(0.015625)"/>
      <path id="DejaVuSans-6e" d="M 3513 2113 
L 3513 0 
L 2938 0 
L 2938 2094 
Q 2938 2591 2744 2837 
Q 2550 3084 2163 3084 
Q 1697 3084 1428 2787 
Q 1159 2491 1159 1978 
L 1159 0 
L 581 0 
L 581 3500 
L 1159 3500 
L 1159 2956 
Q 1366 3272 1645 3428 
Q 1925 3584 2291 3584 
Q 2894 3584 3203 3211 
Q 3513 2838 3513 2113 
z
" transform="scale(0.015625)"/>
      <path id="DejaVuSans-64" d="M 2906 2969 
L 2906 4863 
L 3481 4863 
L 3481 0 
L 2906 0 
L 2906 525 
Q 2725 213 2448 61 
Q 2172 -91 1784 -91 
Q 1150 -91 751 415 
Q 353 922 353 1747 
Q 353 2572 751 3078 
Q 1150 3584 1784 3584 
Q 2172 3584 2448 3432 
Q 2725 3281 2906 2969 
z
M 947 1747 
Q 947 1113 1208 752 
Q 1469 391 1925 391 
Q 2381 391 2643 752 
Q 2906 1113 2906 1747 
Q 2906 2381 2643 2742 
Q 2381 3103 1925 3103 
Q 1469 3103 1208 2742 
Q 947 2381 947 1747 
z
" transform="scale(0.015625)"/>
      <path id="DejaVuSans-65" d="M 3597 1894 
L 3597 1613 
L 953 1613 
Q 991 1019 1311 708 
Q 1631 397 2203 397 
Q 2534 397 2845 478 
Q 3156 559 3463 722 
L 3463 178 
Q 3153 47 2828 -22 
Q 2503 -91 2169 -91 
Q 1331 -91 842 396 
Q 353 884 353 1716 
Q 353 2575 817 3079 
Q 1281 3584 2069 3584 
Q 2775 3584 3186 3129 
Q 3597 2675 3597 1894 
z
M 3022 2063 
Q 3016 2534 2758 2815 
Q 2500 3097 2075 3097 
Q 1594 3097 1305 2825 
Q 1016 2553 972 2059 
L 3022 2063 
z
" transform="scale(0.015625)"/>
      <path id="DejaVuSans-73" d="M 2834 3397 
L 2834 2853 
Q 2591 2978 2328 3040 
Q 2066 3103 1784 3103 
Q 1356 3103 1142 2972 
Q 928 2841 928 2578 
Q 928 2378 1081 2264 
Q 1234 2150 1697 2047 
L 1894 2003 
Q 2506 1872 2764 1633 
Q 3022 1394 3022 966 
Q 3022 478 2636 193 
Q 2250 -91 1575 -91 
Q 1294 -91 989 -36 
Q 684 19 347 128 
L 347 722 
Q 666 556 975 473 
Q 1284 391 1588 391 
Q 1994 391 2212 530 
Q 2431 669 2431 922 
Q 2431 1156 2273 1281 
Q 2116 1406 1581 1522 
L 1381 1569 
Q 847 1681 609 1914 
Q 372 2147 372 2553 
Q 372 3047 722 3315 
Q 1072 3584 1716 3584 
Q 2034 3584 2315 3537 
Q 2597 3491 2834 3397 
z
" transform="scale(0.015625)"/>
      <path id="DejaVuSans-74" d="M 1172 4494 
L 1172 3500 
L 2356 3500 
L 2356 3053 
L 1172 3053 
L 1172 1153 
Q 1172 725 1289 603 
Q 1406 481 1766 481 
L 2356 481 
L 2356 0 
L 1766 0 
Q 1100 0 847 248 
Q 594 497 594 1153 
L 594 3053 
L 172 3053 
L 172 3500 
L 594 3500 
L 594 4494 
L 1172 4494 
z
" transform="scale(0.015625)"/>
      <path id="DejaVuSans-47" d="M 3809 666 
L 3809 1919 
L 2778 1919 
L 2778 2438 
L 4434 2438 
L 4434 434 
Q 4069 175 3628 42 
Q 3188 -91 2688 -91 
Q 1594 -91 976 548 
Q 359 1188 359 2328 
Q 359 3472 976 4111 
Q 1594 4750 2688 4750 
Q 3144 4750 3555 4637 
Q 3966 4525 4313 4306 
L 4313 3634 
Q 3963 3931 3569 4081 
Q 3175 4231 2741 4231 
Q 1884 4231 1454 3753 
Q 1025 3275 1025 2328 
Q 1025 1384 1454 906 
Q 1884 428 2741 428 
Q 3075 428 3337 486 
Q 3600 544 3809 666 
z
" transform="scale(0.015625)"/>
      <path id="DejaVuSans-72" d="M 2631 2963 
Q 2534 3019 2420 3045 
Q 2306 3072 2169 3072 
Q 1681 3072 1420 2755 
Q 1159 2438 1159 1844 
L 1159 0 
L 581 0 
L 581 3500 
L 1159 3500 
L 1159 2956 
Q 1341 3275 1631 3429 
Q 1922 3584 2338 3584 
Q 2397 3584 2469 3576 
Q 2541 3569 2628 3553 
L 2631 2963 
z
" transform="scale(0.015625)"/>
      <path id="DejaVuSans-69" d="M 603 3500 
L 1178 3500 
L 1178 0 
L 603 0 
L 603 3500 
z
M 603 4863 
L 1178 4863 
L 1178 4134 
L 603 4134 
L 603 4863 
z
" transform="scale(0.015625)"/>
      <path id="DejaVuSans-66" d="M 2375 4863 
L 2375 4384 
L 1825 4384 
Q 1516 4384 1395 4259 
Q 1275 4134 1275 3809 
L 1275 3500 
L 2222 3500 
L 2222 3053 
L 1275 3053 
L 1275 0 
L 697 0 
L 697 3053 
L 147 3053 
L 147 3500 
L 697 3500 
L 697 3744 
Q 697 4328 969 4595 
Q 1241 4863 1831 4863 
L 2375 4863 
z
" transform="scale(0.015625)"/>
      <path id="DejaVuSans-45" d="M 628 4666 
L 3578 4666 
L 3578 4134 
L 1259 4134 
L 1259 2753 
L 3481 2753 
L 3481 2222 
L 1259 2222 
L 1259 531 
L 3634 531 
L 3634 0 
L 628 0 
L 628 4666 
z
" transform="scale(0.015625)"/>
      <path id="DejaVuSans-67" d="M 2906 1791 
Q 2906 2416 2648 2759 
Q 2391 3103 1925 3103 
Q 1463 3103 1205 2759 
Q 947 2416 947 1791 
Q 947 1169 1205 825 
Q 1463 481 1925 481 
Q 2391 481 2648 825 
Q 2906 1169 2906 1791 
z
M 3481 434 
Q 3481 -459 3084 -895 
Q 2688 -1331 1869 -1331 
Q 1566 -1331 1297 -1286 
Q 1028 -1241 775 -1147 
L 775 -588 
Q 1028 -725 1275 -790 
Q 1522 -856 1778 -856 
Q 2344 -856 2625 -561 
Q 2906 -266 2906 331 
L 2906 616 
Q 2728 306 2450 153 
Q 2172 0 1784 0 
Q 1141 0 747 490 
Q 353 981 353 1791 
Q 353 2603 747 3093 
Q 1141 3584 1784 3584 
Q 2172 3584 2450 3431 
Q 2728 3278 2906 2969 
L 2906 3500 
L 3481 3500 
L 3481 434 
z
" transform="scale(0.015625)"/>
      <path id="DejaVuSans-33" d="M 2597 2516 
Q 3050 2419 3304 2112 
Q 3559 1806 3559 1356 
Q 3559 666 3084 287 
Q 2609 -91 1734 -91 
Q 1441 -91 1130 -33 
Q 819 25 488 141 
L 488 750 
Q 750 597 1062 519 
Q 1375 441 1716 441 
Q 2309 441 2620 675 
Q 2931 909 2931 1356 
Q 2931 1769 2642 2001 
Q 2353 2234 1838 2234 
L 1294 2234 
L 1294 2753 
L 1863 2753 
Q 2328 2753 2575 2939 
Q 2822 3125 2822 3475 
Q 2822 3834 2567 4026 
Q 2313 4219 1838 4219 
Q 1578 4219 1281 4162 
Q 984 4106 628 3988 
L 628 4550 
Q 988 4650 1302 4700 
Q 1616 4750 1894 4750 
Q 2613 4750 3031 4423 
Q 3450 4097 3450 3541 
Q 3450 3153 3228 2886 
Q 3006 2619 2597 2516 
z
" transform="scale(0.015625)"/>
      <path id="DejaVuSans-2f" d="M 1625 4666 
L 2156 4666 
L 531 -594 
L 0 -594 
L 1625 4666 
z
" transform="scale(0.015625)"/>
      <path id="DejaVuSans-37" d="M 525 4666 
L 3525 4666 
L 3525 4397 
L 1831 0 
L 1172 0 
L 2766 4134 
L 525 4134 
L 525 4666 
z
" transform="scale(0.015625)"/>
     </defs>
     <use xlink:href="#DejaVuSans-54"/>
     <use xlink:href="#DejaVuSans-43" x="55.208984"/>
     <use xlink:href="#DejaVuSans-50" x="125.033203"/>
     <use xlink:href="#DejaVuSans-20" x="185.335938"/>
     <use xlink:href="#DejaVuSans-42" x="217.123047"/>
     <use xlink:href="#DejaVuSans-6f" x="285.726562"/>
     <use xlink:href="#DejaVuSans-78" x="343.783203"/>
     <use xlink:href="#DejaVuSans-20" x="402.962891"/>
     <use xlink:href="#DejaVuSans-61" x="434.75"/>
     <use xlink:href="#DejaVuSans-6e" x="496.029297"/>
     <use xlink:href="#DejaVuSans-64" x="559.408203"/>
     <use xlink:href="#DejaVuSans-20" x="622.884766"/>
     <use xlink:href="#DejaVuSans-54" x="654.671875"/>
     <use xlink:href="#DejaVuSans-65" x="698.755859"/>
     <use xlink:href="#DejaVuSans-73" x="760.279297"/>
     <use xlink:href="#DejaVuSans-74" x="812.378906"/>
     <use xlink:href="#DejaVuSans-20" x="851.587891"/>
     <use xlink:href="#DejaVuSans-47" x="883.375"/>
     <use xlink:href="#DejaVuSans-72" x="960.865234"/>
     <use xlink:href="#DejaVuSans-69" x="1001.978516"/>
     <use xlink:href="#DejaVuSans-64" x="1029.761719"/>
     <use xlink:href="#DejaVuSans-20" x="1093.238281"/>
     <use xlink:href="#DejaVuSans-50" x="1125.025391"/>
     <use xlink:href="#DejaVuSans-6f" x="1181.703125"/>
     <use xlink:href="#DejaVuSans-69" x="1242.884766"/>
     <use xlink:href="#DejaVuSans-6e" x="1270.667969"/>
     <use xlink:href="#DejaVuSans-74" x="1334.046875"/>
     <use xlink:href="#DejaVuSans-73" x="1373.255859"/>
     <use xlink:href="#DejaVuSans-20" x="1425.355469"/>
     <use xlink:href="#DejaVuSans-66" x="1457.142578"/>
     <use xlink:href="#DejaVuSans-6f" x="1492.347656"/>
     <use xlink:href="#DejaVuSans-72" x="1553.529297"/>
     <use xlink:href="#DejaVuSans-20" x="1594.642578"/>
     <use xlink:href="#DejaVuSans-45" x="1626.429688"/>
     <use xlink:href="#DejaVuSans-64" x="1689.613281"/>
     <use xlink:href="#DejaVuSans-67" x="1753.089844"/>
     <use xlink:href="#DejaVuSans-65" x="1816.566406"/>
     <use xlink:href="#DejaVuSans-73" x="1878.089844"/>
     <use xlink:href="#DejaVuSans-20" x="1930.189453"/>
     <use xlink:href="#DejaVuSans-33" x="1961.976562"/>
     <use xlink:href="#DejaVuSans-2f" x="2025.599609"/>
     <use xlink:href="#DejaVuSans-37" x="2059.291016"/>
    </g>
   </g>
   <g id="legend_1">
    <g id="patch_7">
     <path d="M 42.304688 162.053685 
L 160.251563 162.053685 
Q 162.251563 162.053685 162.251563 160.053685 
L 162.251563 102.341185 
Q 162.251563 100.341185 160.251563 100.341185 
L 42.304688 100.341185 
Q 40.304688 100.341185 40.304688 102.341185 
L 40.304688 160.053685 
Q 40.304688 162.053685 42.304688 162.053685 
z
" style="fill: #ffffff; opacity: 0.8; stroke: #cccccc; stroke-linejoin: miter"/>
    </g>
    <g id="line2d_36">
     <path d="M 44.304688 108.439623 
L 54.304688 108.439623 
L 64.304688 108.439623 
" style="fill: none; stroke: #0000ff; stroke-width: 3; stroke-linecap: square"/>
    </g>
    <g id="text_13">
     <!-- Edges of Plane2 -->
     <g transform="translate(72.304688 111.939623) scale(0.1 -0.1)">
      <defs>
       <path id="DejaVuSans-6c" d="M 603 4863 
L 1178 4863 
L 1178 0 
L 603 0 
L 603 4863 
z
" transform="scale(0.015625)"/>
      </defs>
      <use xlink:href="#DejaVuSans-45"/>
      <use xlink:href="#DejaVuSans-64" x="63.183594"/>
      <use xlink:href="#DejaVuSans-67" x="126.660156"/>
      <use xlink:href="#DejaVuSans-65" x="190.136719"/>
      <use xlink:href="#DejaVuSans-73" x="251.660156"/>
      <use xlink:href="#DejaVuSans-20" x="303.759766"/>
      <use xlink:href="#DejaVuSans-6f" x="335.546875"/>
      <use xlink:href="#DejaVuSans-66" x="396.728516"/>
      <use xlink:href="#DejaVuSans-20" x="431.933594"/>
      <use xlink:href="#DejaVuSans-50" x="463.720703"/>
      <use xlink:href="#DejaVuSans-6c" x="524.023438"/>
      <use xlink:href="#DejaVuSans-61" x="551.806641"/>
      <use xlink:href="#DejaVuSans-6e" x="613.085938"/>
      <use xlink:href="#DejaVuSans-65" x="676.464844"/>
      <use xlink:href="#DejaVuSans-32" x="737.988281"/>
     </g>
    </g>
    <g id="line2d_37">
     <path d="M 44.304688 123.117748 
L 54.304688 123.117748 
L 64.304688 123.117748 
" style="fill: none; stroke: #bf00bf; stroke-width: 1.5; stroke-linecap: square"/>
    </g>
    <g id="text_14">
     <!-- Gripper Direction -->
     <g transform="translate(72.304688 126.617748) scale(0.1 -0.1)">
      <defs>
       <path id="DejaVuSans-70" d="M 1159 525 
L 1159 -1331 
L 581 -1331 
L 581 3500 
L 1159 3500 
L 1159 2969 
Q 1341 3281 1617 3432 
Q 1894 3584 2278 3584 
Q 2916 3584 3314 3078 
Q 3713 2572 3713 1747 
Q 3713 922 3314 415 
Q 2916 -91 2278 -91 
Q 1894 -91 1617 61 
Q 1341 213 1159 525 
z
M 3116 1747 
Q 3116 2381 2855 2742 
Q 2594 3103 2138 3103 
Q 1681 3103 1420 2742 
Q 1159 2381 1159 1747 
Q 1159 1113 1420 752 
Q 1681 391 2138 391 
Q 2594 391 2855 752 
Q 3116 1113 3116 1747 
z
" transform="scale(0.015625)"/>
       <path id="DejaVuSans-44" d="M 1259 4147 
L 1259 519 
L 2022 519 
Q 2988 519 3436 956 
Q 3884 1394 3884 2338 
Q 3884 3275 3436 3711 
Q 2988 4147 2022 4147 
L 1259 4147 
z
M 628 4666 
L 1925 4666 
Q 3281 4666 3915 4102 
Q 4550 3538 4550 2338 
Q 4550 1131 3912 565 
Q 3275 0 1925 0 
L 628 0 
L 628 4666 
z
" transform="scale(0.015625)"/>
       <path id="DejaVuSans-63" d="M 3122 3366 
L 3122 2828 
Q 2878 2963 2633 3030 
Q 2388 3097 2138 3097 
Q 1578 3097 1268 2742 
Q 959 2388 959 1747 
Q 959 1106 1268 751 
Q 1578 397 2138 397 
Q 2388 397 2633 464 
Q 2878 531 3122 666 
L 3122 134 
Q 2881 22 2623 -34 
Q 2366 -91 2075 -91 
Q 1284 -91 818 406 
Q 353 903 353 1747 
Q 353 2603 823 3093 
Q 1294 3584 2113 3584 
Q 2378 3584 2631 3529 
Q 2884 3475 3122 3366 
z
" transform="scale(0.015625)"/>
      </defs>
      <use xlink:href="#DejaVuSans-47"/>
      <use xlink:href="#DejaVuSans-72" x="77.490234"/>
      <use xlink:href="#DejaVuSans-69" x="118.603516"/>
      <use xlink:href="#DejaVuSans-70" x="146.386719"/>
      <use xlink:href="#DejaVuSans-70" x="209.863281"/>
      <use xlink:href="#DejaVuSans-65" x="273.339844"/>
      <use xlink:href="#DejaVuSans-72" x="334.863281"/>
      <use xlink:href="#DejaVuSans-20" x="375.976562"/>
      <use xlink:href="#DejaVuSans-44" x="407.763672"/>
      <use xlink:href="#DejaVuSans-69" x="484.765625"/>
      <use xlink:href="#DejaVuSans-72" x="512.548828"/>
      <use xlink:href="#DejaVuSans-65" x="551.412109"/>
      <use xlink:href="#DejaVuSans-63" x="612.935547"/>
      <use xlink:href="#DejaVuSans-74" x="667.916016"/>
      <use xlink:href="#DejaVuSans-69" x="707.125"/>
      <use xlink:href="#DejaVuSans-6f" x="734.908203"/>
      <use xlink:href="#DejaVuSans-6e" x="796.089844"/>
     </g>
    </g>
    <g id="line2d_38">
     <path d="M 44.304688 137.795873 
L 54.304688 137.795873 
L 64.304688 137.795873 
" style="fill: none; stroke-dasharray: 1.85,0.8; stroke-dashoffset: 0; stroke: #008000; stroke-width: 0.5"/>
    </g>
    <g id="text_15">
     <!-- TCP Box -->
     <g transform="translate(72.304688 141.295873) scale(0.1 -0.1)">
      <use xlink:href="#DejaVuSans-54"/>
      <use xlink:href="#DejaVuSans-43" x="55.208984"/>
      <use xlink:href="#DejaVuSans-50" x="125.033203"/>
      <use xlink:href="#DejaVuSans-20" x="185.335938"/>
      <use xlink:href="#DejaVuSans-42" x="217.123047"/>
      <use xlink:href="#DejaVuSans-6f" x="285.726562"/>
      <use xlink:href="#DejaVuSans-78" x="343.783203"/>
     </g>
    </g>
    <g id="line2d_39">
     <g>
      <use xlink:href="#m877298ec1d" x="54.304688" y="152.473998" style="fill: #ff0000; stroke: #ff0000"/>
     </g>
    </g>
    <g id="text_16">
     <!-- Test Grid Points -->
     <g transform="translate(72.304688 155.973998) scale(0.1 -0.1)">
      <use xlink:href="#DejaVuSans-54"/>
      <use xlink:href="#DejaVuSans-65" x="44.083984"/>
      <use xlink:href="#DejaVuSans-73" x="105.607422"/>
      <use xlink:href="#DejaVuSans-74" x="157.707031"/>
      <use xlink:href="#DejaVuSans-20" x="196.916016"/>
      <use xlink:href="#DejaVuSans-47" x="228.703125"/>
      <use xlink:href="#DejaVuSans-72" x="306.193359"/>
      <use xlink:href="#DejaVuSans-69" x="347.306641"/>
      <use xlink:href="#DejaVuSans-64" x="375.089844"/>
      <use xlink:href="#DejaVuSans-20" x="438.566406"/>
      <use xlink:href="#DejaVuSans-50" x="470.353516"/>
      <use xlink:href="#DejaVuSans-6f" x="527.03125"/>
      <use xlink:href="#DejaVuSans-69" x="588.212891"/>
      <use xlink:href="#DejaVuSans-6e" x="615.996094"/>
      <use xlink:href="#DejaVuSans-74" x="679.375"/>
      <use xlink:href="#DejaVuSans-73" x="718.583984"/>
     </g>
    </g>
   </g>
  </g>
 </g>
 <defs>
  <clipPath id="p66d108e180">
   <rect x="35.304688" y="22.318125" width="526.25" height="217.758621"/>
  </clipPath>
 </defs>
</svg>
