<?xml version="1.0" encoding="utf-8" standalone="no"?>
<!DOCTYPE svg PUBLIC "-//W3C//DTD SVG 1.1//EN"
  "http://www.w3.org/Graphics/SVG/1.1/DTD/svg11.dtd">
<svg xmlns:xlink="http://www.w3.org/1999/xlink" width="568.754687pt" height="483.171696pt" viewBox="0 0 568.754687 483.171696" xmlns="http://www.w3.org/2000/svg" version="1.1">
 <metadata>
  <rdf:RDF xmlns:dc="http://purl.org/dc/elements/1.1/" xmlns:cc="http://creativecommons.org/ns#" xmlns:rdf="http://www.w3.org/1999/02/22-rdf-syntax-ns#">
   <cc:Work>
    <dc:type rdf:resource="http://purl.org/dc/dcmitype/StillImage"/>
    <dc:date>2025-11-14T04:47:47.348338</dc:date>
    <dc:format>image/svg+xml</dc:format>
    <dc:creator>
     <cc:Agent>
      <dc:title>Matplotlib v3.9.4, https://matplotlib.org/</dc:title>
     </cc:Agent>
    </dc:creator>
   </cc:Work>
  </rdf:RDF>
 </metadata>
 <defs>
  <style type="text/css">*{stroke-linejoin: round; stroke-linecap: butt}</style>
 </defs>
 <g id="figure_1">
  <g id="patch_1">
   <path d="M 0 483.171696 
L 568.754687 483.171696 
L 568.754687 0 
L 0 0 
z
" style="fill: #ffffff"/>
  </g>
  <g id="axes_1">
   <g id="patch_2">
    <path d="M 35.304688 459.293571 
L 561.554687 459.293571 
L 561.554687 22.318125 
L 35.304688 22.318125 
z
" style="fill: #ffffff"/>
   </g>
   <g id="matplotlib.axis_1">
    <g id="xtick_1">
     <g id="line2d_1">
      <path d="M 64.209527 459.293571 
L 64.209527 22.318125 
" clip-path="url(#pd2ec9e3917)" style="fill: none; stroke: #b0b0b0; stroke-width: 0.8; stroke-linecap: square"/>
     </g>
     <g id="line2d_2">
      <defs>
       <path id="m0d35eae032" d="M 0 0 
L 0 3.5 
" style="stroke: #000000; stroke-width: 0.8"/>
      </defs>
      <g>
       <use xlink:href="#m0d35eae032" x="64.209527" y="459.293571" style="stroke: #000000; stroke-width: 0.8"/>
      </g>
     </g>
     <g id="text_1">
      <!-- −100 -->
      <g transform="translate(50.475933 473.892009) scale(0.1 -0.1)">
       <defs>
        <path id="DejaVuSans-2212" d="M 678 2272 
L 4684 2272 
L 4684 1741 
L 678 1741 
L 678 2272 
z
" transform="scale(0.015625)"/>
        <path id="DejaVuSans-31" d="M 794 531 
L 1825 531 
L 1825 4091 
L 703 3866 
L 703 4441 
L 1819 4666 
L 2450 4666 
L 2450 531 
L 3481 531 
L 3481 0 
L 794 0 
L 794 531 
z
" transform="scale(0.015625)"/>
        <path id="DejaVuSans-30" d="M 2034 4250 
Q 1547 4250 1301 3770 
Q 1056 3291 1056 2328 
Q 1056 1369 1301 889 
Q 1547 409 2034 409 
Q 2525 409 2770 889 
Q 3016 1369 3016 2328 
Q 3016 3291 2770 3770 
Q 2525 4250 2034 4250 
z
M 2034 4750 
Q 2819 4750 3233 4129 
Q 3647 3509 3647 2328 
Q 3647 1150 3233 529 
Q 2819 -91 2034 -91 
Q 1250 -91 836 529 
Q 422 1150 422 2328 
Q 422 3509 836 4129 
Q 1250 4750 2034 4750 
z
" transform="scale(0.015625)"/>
       </defs>
       <use xlink:href="#DejaVuSans-2212"/>
       <use xlink:href="#DejaVuSans-31" x="83.789062"/>
       <use xlink:href="#DejaVuSans-30" x="147.412109"/>
       <use xlink:href="#DejaVuSans-30" x="211.035156"/>
      </g>
     </g>
    </g>
    <g id="xtick_2">
     <g id="line2d_3">
      <path d="M 122.942786 459.293571 
L 122.942786 22.318125 
" clip-path="url(#pd2ec9e3917)" style="fill: none; stroke: #b0b0b0; stroke-width: 0.8; stroke-linecap: square"/>
     </g>
     <g id="line2d_4">
      <g>
       <use xlink:href="#m0d35eae032" x="122.942786" y="459.293571" style="stroke: #000000; stroke-width: 0.8"/>
      </g>
     </g>
     <g id="text_2">
      <!-- −75 -->
      <g transform="translate(112.390442 473.892009) scale(0.1 -0.1)">
       <defs>
        <path id="DejaVuSans-37" d="M 525 4666 
L 3525 4666 
L 3525 4397 
L 1831 0 
L 1172 0 
L 2766 4134 
L 525 4134 
L 525 4666 
z
" transform="scale(0.015625)"/>
        <path id="DejaVuSans-35" d="M 691 4666 
L 3169 4666 
L 3169 4134 
L 1269 4134 
L 1269 2991 
Q 1406 3038 1543 3061 
Q 1681 3084 1819 3084 
Q 2600 3084 3056 2656 
Q 3513 2228 3513 1497 
Q 3513 744 3044 326 
Q 2575 -91 1722 -91 
Q 1428 -91 1123 -41 
Q 819 9 494 109 
L 494 744 
Q 775 591 1075 516 
Q 1375 441 1709 441 
Q 2250 441 2565 725 
Q 2881 1009 2881 1497 
Q 2881 1984 2565 2268 
Q 2250 2553 1709 2553 
Q 1456 2553 1204 2497 
Q 953 2441 691 2322 
L 691 4666 
z
" transform="scale(0.015625)"/>
       </defs>
       <use xlink:href="#DejaVuSans-2212"/>
       <use xlink:href="#DejaVuSans-37" x="83.789062"/>
       <use xlink:href="#DejaVuSans-35" x="147.412109"/>
      </g>
     </g>
    </g>
    <g id="xtick_3">
     <g id="line2d_5">
      <path d="M 181.676045 459.293571 
L 181.676045 22.318125 
" clip-path="url(#pd2ec9e3917)" style="fill: none; stroke: #b0b0b0; stroke-width: 0.8; stroke-linecap: square"/>
     </g>
     <g id="line2d_6">
      <g>
       <use xlink:href="#m0d35eae032" x="181.676045" y="459.293571" style="stroke: #000000; stroke-width: 0.8"/>
      </g>
     </g>
     <g id="text_3">
      <!-- −50 -->
      <g transform="translate(171.123701 473.892009) scale(0.1 -0.1)">
       <use xlink:href="#DejaVuSans-2212"/>
       <use xlink:href="#DejaVuSans-35" x="83.789062"/>
       <use xlink:href="#DejaVuSans-30" x="147.412109"/>
      </g>
     </g>
    </g>
    <g id="xtick_4">
     <g id="line2d_7">
      <path d="M 240.409304 459.293571 
L 240.409304 22.318125 
" clip-path="url(#pd2ec9e3917)" style="fill: none; stroke: #b0b0b0; stroke-width: 0.8; stroke-linecap: square"/>
     </g>
     <g id="line2d_8">
      <g>
       <use xlink:href="#m0d35eae032" x="240.409304" y="459.293571" style="stroke: #000000; stroke-width: 0.8"/>
      </g>
     </g>
     <g id="text_4">
      <!-- −25 -->
      <g transform="translate(229.85696 473.892009) scale(0.1 -0.1)">
       <defs>
        <path id="DejaVuSans-32" d="M 1228 531 
L 3431 531 
L 3431 0 
L 469 0 
L 469 531 
Q 828 903 1448 1529 
Q 2069 2156 2228 2338 
Q 2531 2678 2651 2914 
Q 2772 3150 2772 3378 
Q 2772 3750 2511 3984 
Q 2250 4219 1831 4219 
Q 1534 4219 1204 4116 
Q 875 4013 500 3803 
L 500 4441 
Q 881 4594 1212 4672 
Q 1544 4750 1819 4750 
Q 2544 4750 2975 4387 
Q 3406 4025 3406 3419 
Q 3406 3131 3298 2873 
Q 3191 2616 2906 2266 
Q 2828 2175 2409 1742 
Q 1991 1309 1228 531 
z
" transform="scale(0.015625)"/>
       </defs>
       <use xlink:href="#DejaVuSans-2212"/>
       <use xlink:href="#DejaVuSans-32" x="83.789062"/>
       <use xlink:href="#DejaVuSans-35" x="147.412109"/>
      </g>
     </g>
    </g>
    <g id="xtick_5">
     <g id="line2d_9">
      <path d="M 299.142563 459.293571 
L 299.142563 22.318125 
" clip-path="url(#pd2ec9e3917)" style="fill: none; stroke: #b0b0b0; stroke-width: 0.8; stroke-linecap: square"/>
     </g>
     <g id="line2d_10">
      <g>
       <use xlink:href="#m0d35eae032" x="299.142563" y="459.293571" style="stroke: #000000; stroke-width: 0.8"/>
      </g>
     </g>
     <g id="text_5">
      <!-- 0 -->
      <g transform="translate(295.961313 473.892009) scale(0.1 -0.1)">
       <use xlink:href="#DejaVuSans-30"/>
      </g>
     </g>
    </g>
    <g id="xtick_6">
     <g id="line2d_11">
      <path d="M 357.875822 459.293571 
L 357.875822 22.318125 
" clip-path="url(#pd2ec9e3917)" style="fill: none; stroke: #b0b0b0; stroke-width: 0.8; stroke-linecap: square"/>
     </g>
     <g id="line2d_12">
      <g>
       <use xlink:href="#m0d35eae032" x="357.875822" y="459.293571" style="stroke: #000000; stroke-width: 0.8"/>
      </g>
     </g>
     <g id="text_6">
      <!-- 25 -->
      <g transform="translate(351.513322 473.892009) scale(0.1 -0.1)">
       <use xlink:href="#DejaVuSans-32"/>
       <use xlink:href="#DejaVuSans-35" x="63.623047"/>
      </g>
     </g>
    </g>
    <g id="xtick_7">
     <g id="line2d_13">
      <path d="M 416.609081 459.293571 
L 416.609081 22.318125 
" clip-path="url(#pd2ec9e3917)" style="fill: none; stroke: #b0b0b0; stroke-width: 0.8; stroke-linecap: square"/>
     </g>
     <g id="line2d_14">
      <g>
       <use xlink:href="#m0d35eae032" x="416.609081" y="459.293571" style="stroke: #000000; stroke-width: 0.8"/>
      </g>
     </g>
     <g id="text_7">
      <!-- 50 -->
      <g transform="translate(410.246581 473.892009) scale(0.1 -0.1)">
       <use xlink:href="#DejaVuSans-35"/>
       <use xlink:href="#DejaVuSans-30" x="63.623047"/>
      </g>
     </g>
    </g>
    <g id="xtick_8">
     <g id="line2d_15">
      <path d="M 475.34234 459.293571 
L 475.34234 22.318125 
" clip-path="url(#pd2ec9e3917)" style="fill: none; stroke: #b0b0b0; stroke-width: 0.8; stroke-linecap: square"/>
     </g>
     <g id="line2d_16">
      <g>
       <use xlink:href="#m0d35eae032" x="475.34234" y="459.293571" style="stroke: #000000; stroke-width: 0.8"/>
      </g>
     </g>
     <g id="text_8">
      <!-- 75 -->
      <g transform="translate(468.97984 473.892009) scale(0.1 -0.1)">
       <use xlink:href="#DejaVuSans-37"/>
       <use xlink:href="#DejaVuSans-35" x="63.623047"/>
      </g>
     </g>
    </g>
    <g id="xtick_9">
     <g id="line2d_17">
      <path d="M 534.075599 459.293571 
L 534.075599 22.318125 
" clip-path="url(#pd2ec9e3917)" style="fill: none; stroke: #b0b0b0; stroke-width: 0.8; stroke-linecap: square"/>
     </g>
     <g id="line2d_18">
      <g>
       <use xlink:href="#m0d35eae032" x="534.075599" y="459.293571" style="stroke: #000000; stroke-width: 0.8"/>
      </g>
     </g>
     <g id="text_9">
      <!-- 100 -->
      <g transform="translate(524.531849 473.892009) scale(0.1 -0.1)">
       <use xlink:href="#DejaVuSans-31"/>
       <use xlink:href="#DejaVuSans-30" x="63.623047"/>
       <use xlink:href="#DejaVuSans-30" x="127.246094"/>
      </g>
     </g>
    </g>
   </g>
   <g id="matplotlib.axis_2">
    <g id="ytick_1">
     <g id="line2d_19">
      <path d="M 35.304688 408.345831 
L 561.554687 408.345831 
" clip-path="url(#pd2ec9e3917)" style="fill: none; stroke: #b0b0b0; stroke-width: 0.8; stroke-linecap: square"/>
     </g>
     <g id="line2d_20">
      <defs>
       <path id="m45a58757de" d="M 0 0 
L -3.5 0 
" style="stroke: #000000; stroke-width: 0.8"/>
      </defs>
      <g>
       <use xlink:href="#m45a58757de" x="35.304688" y="408.345831" style="stroke: #000000; stroke-width: 0.8"/>
      </g>
     </g>
     <g id="text_10">
      <!-- −75 -->
      <g transform="translate(7.2 412.14505) scale(0.1 -0.1)">
       <use xlink:href="#DejaVuSans-2212"/>
       <use xlink:href="#DejaVuSans-37" x="83.789062"/>
       <use xlink:href="#DejaVuSans-35" x="147.412109"/>
      </g>
     </g>
    </g>
    <g id="ytick_2">
     <g id="line2d_21">
      <path d="M 35.304688 349.612572 
L 561.554687 349.612572 
" clip-path="url(#pd2ec9e3917)" style="fill: none; stroke: #b0b0b0; stroke-width: 0.8; stroke-linecap: square"/>
     </g>
     <g id="line2d_22">
      <g>
       <use xlink:href="#m45a58757de" x="35.304688" y="349.612572" style="stroke: #000000; stroke-width: 0.8"/>
      </g>
     </g>
     <g id="text_11">
      <!-- −50 -->
      <g transform="translate(7.2 353.411791) scale(0.1 -0.1)">
       <use xlink:href="#DejaVuSans-2212"/>
       <use xlink:href="#DejaVuSans-35" x="83.789062"/>
       <use xlink:href="#DejaVuSans-30" x="147.412109"/>
      </g>
     </g>
    </g>
    <g id="ytick_3">
     <g id="line2d_23">
      <path d="M 35.304688 290.879313 
L 561.554687 290.879313 
" clip-path="url(#pd2ec9e3917)" style="fill: none; stroke: #b0b0b0; stroke-width: 0.8; stroke-linecap: square"/>
     </g>
     <g id="line2d_24">
      <g>
       <use xlink:href="#m45a58757de" x="35.304688" y="290.879313" style="stroke: #000000; stroke-width: 0.8"/>
      </g>
     </g>
     <g id="text_12">
      <!-- −25 -->
      <g transform="translate(7.2 294.678532) scale(0.1 -0.1)">
       <use xlink:href="#DejaVuSans-2212"/>
       <use xlink:href="#DejaVuSans-32" x="83.789062"/>
       <use xlink:href="#DejaVuSans-35" x="147.412109"/>
      </g>
     </g>
    </g>
    <g id="ytick_4">
     <g id="line2d_25">
      <path d="M 35.304688 232.146054 
L 561.554687 232.146054 
" clip-path="url(#pd2ec9e3917)" style="fill: none; stroke: #b0b0b0; stroke-width: 0.8; stroke-linecap: square"/>
     </g>
     <g id="line2d_26">
      <g>
       <use xlink:href="#m45a58757de" x="35.304688" y="232.146054" style="stroke: #000000; stroke-width: 0.8"/>
      </g>
     </g>
     <g id="text_13">
      <!-- 0 -->
      <g transform="translate(21.942187 235.945273) scale(0.1 -0.1)">
       <use xlink:href="#DejaVuSans-30"/>
      </g>
     </g>
    </g>
    <g id="ytick_5">
     <g id="line2d_27">
      <path d="M 35.304688 173.412795 
L 561.554687 173.412795 
" clip-path="url(#pd2ec9e3917)" style="fill: none; stroke: #b0b0b0; stroke-width: 0.8; stroke-linecap: square"/>
     </g>
     <g id="line2d_28">
      <g>
       <use xlink:href="#m45a58757de" x="35.304688" y="173.412795" style="stroke: #000000; stroke-width: 0.8"/>
      </g>
     </g>
     <g id="text_14">
      <!-- 25 -->
      <g transform="translate(15.579687 177.212014) scale(0.1 -0.1)">
       <use xlink:href="#DejaVuSans-32"/>
       <use xlink:href="#DejaVuSans-35" x="63.623047"/>
      </g>
     </g>
    </g>
    <g id="ytick_6">
     <g id="line2d_29">
      <path d="M 35.304688 114.679536 
L 561.554687 114.679536 
" clip-path="url(#pd2ec9e3917)" style="fill: none; stroke: #b0b0b0; stroke-width: 0.8; stroke-linecap: square"/>
     </g>
     <g id="line2d_30">
      <g>
       <use xlink:href="#m45a58757de" x="35.304688" y="114.679536" style="stroke: #000000; stroke-width: 0.8"/>
      </g>
     </g>
     <g id="text_15">
      <!-- 50 -->
      <g transform="translate(15.579687 118.478755) scale(0.1 -0.1)">
       <use xlink:href="#DejaVuSans-35"/>
       <use xlink:href="#DejaVuSans-30" x="63.623047"/>
      </g>
     </g>
    </g>
    <g id="ytick_7">
     <g id="line2d_31">
      <path d="M 35.304688 55.946277 
L 561.554687 55.946277 
" clip-path="url(#pd2ec9e3917)" style="fill: none; stroke: #b0b0b0; stroke-width: 0.8; stroke-linecap: square"/>
     </g>
     <g id="line2d_32">
      <g>
       <use xlink:href="#m45a58757de" x="35.304688" y="55.946277" style="stroke: #000000; stroke-width: 0.8"/>
      </g>
     </g>
     <g id="text_16">
      <!-- 75 -->
      <g transform="translate(15.579687 59.745496) scale(0.1 -0.1)">
       <use xlink:href="#DejaVuSans-37"/>
       <use xlink:href="#DejaVuSans-35" x="63.623047"/>
      </g>
     </g>
    </g>
   </g>
   <g id="line2d_33">
    <path d="M 533.362723 421.704286 
L 486.376116 435.800268 
" clip-path="url(#pd2ec9e3917)" style="fill: none; stroke: #0000ff; stroke-width: 3; stroke-linecap: square"/>
   </g>
   <g id="line2d_34">
    <path d="M 486.376116 435.800268 
L 324.272321 327.731071 
" clip-path="url(#pd2ec9e3917)" style="fill: none; stroke: #0000ff; stroke-width: 3; stroke-linecap: square"/>
   </g>
   <g id="line2d_35">
    <path d="M 324.272321 327.731071 
L 192.709821 344.176384 
" clip-path="url(#pd2ec9e3917)" style="fill: none; stroke: #0000ff; stroke-width: 3; stroke-linecap: square"/>
   </g>
   <g id="line2d_36">
    <path d="M 97.556521 315.783185 
L 121.054342 289.520914 
" clip-path="url(#pd2ec9e3917)" style="fill: none; stroke: #bf00bf; stroke-width: 1.5; stroke-linecap: square"/>
   </g>
   <g id="line2d_37">
    <path d="M 104.467645 290.442397 
L 137.641039 288.599431 
" clip-path="url(#pd2ec9e3917)" style="fill: none; stroke: #bf00bf; stroke-width: 1.5; stroke-linecap: square"/>
   </g>
   <g id="line2d_38">
    <path d="M 104.467645 290.442397 
L 116.999816 276.435853 
" clip-path="url(#pd2ec9e3917)" style="fill: none; stroke: #bf00bf; stroke-width: 1.5; stroke-linecap: square"/>
   </g>
   <g id="line2d_39">
    <path d="M 137.641039 288.599431 
L 150.173211 274.592886 
" clip-path="url(#pd2ec9e3917)" style="fill: none; stroke: #bf00bf; stroke-width: 1.5; stroke-linecap: square"/>
   </g>
   <g id="line2d_40">
    <path d="M 192.709821 344.176384 
L 58.797991 224.360536 
" clip-path="url(#pd2ec9e3917)" style="fill: none; stroke: #0000ff; stroke-width: 3; stroke-linecap: square"/>
   </g>
   <g id="line2d_41">
    <path d="M 58.797991 224.360536 
L 197.408482 128.037991 
" clip-path="url(#pd2ec9e3917)" style="fill: none; stroke: #0000ff; stroke-width: 3; stroke-linecap: square"/>
   </g>
   <g id="line2d_42">
    <path d="M 197.408482 128.037991 
L 324.272321 149.181964 
" clip-path="url(#pd2ec9e3917)" style="fill: none; stroke: #0000ff; stroke-width: 3; stroke-linecap: square"/>
   </g>
   <g id="line2d_43">
    <path d="M 324.272321 149.181964 
L 519.266741 45.811429 
" clip-path="url(#pd2ec9e3917)" style="fill: none; stroke: #0000ff; stroke-width: 3; stroke-linecap: square"/>
   </g>
   <g id="line2d_44">
    <path d="M 519.266741 45.811429 
L 538.061384 66.955402 
" clip-path="url(#pd2ec9e3917)" style="fill: none; stroke: #0000ff; stroke-width: 3; stroke-linecap: square"/>
   </g>
   <g id="line2d_45">
    <path d="M 538.061384 66.955402 
L 328.970982 217.312545 
" clip-path="url(#pd2ec9e3917)" style="fill: none; stroke: #0000ff; stroke-width: 3; stroke-linecap: square"/>
   </g>
   <g id="line2d_46">
    <path d="M 328.970982 217.312545 
L 321.922991 252.5525 
" clip-path="url(#pd2ec9e3917)" style="fill: none; stroke: #0000ff; stroke-width: 3; stroke-linecap: square"/>
   </g>
   <g id="line2d_47">
    <path d="M 321.922991 252.5525 
L 533.362723 421.704286 
" clip-path="url(#pd2ec9e3917)" style="fill: none; stroke: #0000ff; stroke-width: 3; stroke-linecap: square"/>
   </g>
   <g id="line2d_48">
    <path d="M 213.0746 321.415749 
L 79.162769 201.599901 
L 58.797991 224.360536 
L 192.709821 344.176384 
L 213.0746 321.415749 
" clip-path="url(#pd2ec9e3917)" style="fill: none; stroke-dasharray: 1.85,0.8; stroke-dashoffset: 0; stroke: #008000; stroke-width: 0.5"/>
   </g>
   <g id="line2d_49">
    <defs>
     <path id="m676b8ee614" d="M -2 2 
L 2 -2 
M -2 -2 
L 2 2 
" style="stroke: #ff0000"/>
    </defs>
    <g clip-path="url(#pd2ec9e3917)">
     <use xlink:href="#m676b8ee614" x="210.263129" y="322.998398" style="fill: #ff0000; stroke: #ff0000"/>
     <use xlink:href="#m676b8ee614" x="206.190173" y="327.550525" style="fill: #ff0000; stroke: #ff0000"/>
     <use xlink:href="#m676b8ee614" x="202.117217" y="332.102652" style="fill: #ff0000; stroke: #ff0000"/>
     <use xlink:href="#m676b8ee614" x="198.044262" y="336.654779" style="fill: #ff0000; stroke: #ff0000"/>
     <use xlink:href="#m676b8ee614" x="193.971306" y="341.206905" style="fill: #ff0000; stroke: #ff0000"/>
     <use xlink:href="#m676b8ee614" x="203.960184" y="317.358921" style="fill: #ff0000; stroke: #ff0000"/>
     <use xlink:href="#m676b8ee614" x="199.887228" y="321.911048" style="fill: #ff0000; stroke: #ff0000"/>
     <use xlink:href="#m676b8ee614" x="195.814272" y="326.463175" style="fill: #ff0000; stroke: #ff0000"/>
     <use xlink:href="#m676b8ee614" x="191.741317" y="331.015302" style="fill: #ff0000; stroke: #ff0000"/>
     <use xlink:href="#m676b8ee614" x="187.668361" y="335.567428" style="fill: #ff0000; stroke: #ff0000"/>
     <use xlink:href="#m676b8ee614" x="197.657239" y="311.719444" style="fill: #ff0000; stroke: #ff0000"/>
     <use xlink:href="#m676b8ee614" x="193.584283" y="316.271571" style="fill: #ff0000; stroke: #ff0000"/>
     <use xlink:href="#m676b8ee614" x="189.511327" y="320.823698" style="fill: #ff0000; stroke: #ff0000"/>
     <use xlink:href="#m676b8ee614" x="185.438372" y="325.375824" style="fill: #ff0000; stroke: #ff0000"/>
     <use xlink:href="#m676b8ee614" x="181.365416" y="329.927951" style="fill: #ff0000; stroke: #ff0000"/>
     <use xlink:href="#m676b8ee614" x="191.354294" y="306.079967" style="fill: #ff0000; stroke: #ff0000"/>
     <use xlink:href="#m676b8ee614" x="187.281338" y="310.632094" style="fill: #ff0000; stroke: #ff0000"/>
     <use xlink:href="#m676b8ee614" x="183.208382" y="315.18422" style="fill: #ff0000; stroke: #ff0000"/>
     <use xlink:href="#m676b8ee614" x="179.135427" y="319.736347" style="fill: #ff0000; stroke: #ff0000"/>
     <use xlink:href="#m676b8ee614" x="175.062471" y="324.288474" style="fill: #ff0000; stroke: #ff0000"/>
     <use xlink:href="#m676b8ee614" x="185.051349" y="300.44049" style="fill: #ff0000; stroke: #ff0000"/>
     <use xlink:href="#m676b8ee614" x="180.978393" y="304.992617" style="fill: #ff0000; stroke: #ff0000"/>
     <use xlink:href="#m676b8ee614" x="176.905438" y="309.544743" style="fill: #ff0000; stroke: #ff0000"/>
     <use xlink:href="#m676b8ee614" x="172.832482" y="314.09687" style="fill: #ff0000; stroke: #ff0000"/>
     <use xlink:href="#m676b8ee614" x="168.759526" y="318.648997" style="fill: #ff0000; stroke: #ff0000"/>
     <use xlink:href="#m676b8ee614" x="178.748404" y="294.801013" style="fill: #ff0000; stroke: #ff0000"/>
     <use xlink:href="#m676b8ee614" x="174.675448" y="299.353139" style="fill: #ff0000; stroke: #ff0000"/>
     <use xlink:href="#m676b8ee614" x="170.602493" y="303.905266" style="fill: #ff0000; stroke: #ff0000"/>
     <use xlink:href="#m676b8ee614" x="166.529537" y="308.457393" style="fill: #ff0000; stroke: #ff0000"/>
     <use xlink:href="#m676b8ee614" x="162.456581" y="313.00952" style="fill: #ff0000; stroke: #ff0000"/>
     <use xlink:href="#m676b8ee614" x="172.445459" y="289.161536" style="fill: #ff0000; stroke: #ff0000"/>
     <use xlink:href="#m676b8ee614" x="168.372503" y="293.713662" style="fill: #ff0000; stroke: #ff0000"/>
     <use xlink:href="#m676b8ee614" x="164.299548" y="298.265789" style="fill: #ff0000; stroke: #ff0000"/>
     <use xlink:href="#m676b8ee614" x="160.226592" y="302.817916" style="fill: #ff0000; stroke: #ff0000"/>
     <use xlink:href="#m676b8ee614" x="156.153636" y="307.370043" style="fill: #ff0000; stroke: #ff0000"/>
     <use xlink:href="#m676b8ee614" x="166.142514" y="283.522058" style="fill: #ff0000; stroke: #ff0000"/>
     <use xlink:href="#m676b8ee614" x="162.069558" y="288.074185" style="fill: #ff0000; stroke: #ff0000"/>
     <use xlink:href="#m676b8ee614" x="157.996603" y="292.626312" style="fill: #ff0000; stroke: #ff0000"/>
     <use xlink:href="#m676b8ee614" x="153.923647" y="297.178439" style="fill: #ff0000; stroke: #ff0000"/>
     <use xlink:href="#m676b8ee614" x="149.850691" y="301.730566" style="fill: #ff0000; stroke: #ff0000"/>
     <use xlink:href="#m676b8ee614" x="159.839569" y="277.882581" style="fill: #ff0000; stroke: #ff0000"/>
     <use xlink:href="#m676b8ee614" x="155.766613" y="282.434708" style="fill: #ff0000; stroke: #ff0000"/>
     <use xlink:href="#m676b8ee614" x="151.693658" y="286.986835" style="fill: #ff0000; stroke: #ff0000"/>
     <use xlink:href="#m676b8ee614" x="147.620702" y="291.538962" style="fill: #ff0000; stroke: #ff0000"/>
     <use xlink:href="#m676b8ee614" x="143.547746" y="296.091089" style="fill: #ff0000; stroke: #ff0000"/>
     <use xlink:href="#m676b8ee614" x="153.536624" y="272.243104" style="fill: #ff0000; stroke: #ff0000"/>
     <use xlink:href="#m676b8ee614" x="149.463668" y="276.795231" style="fill: #ff0000; stroke: #ff0000"/>
     <use xlink:href="#m676b8ee614" x="145.390713" y="281.347358" style="fill: #ff0000; stroke: #ff0000"/>
     <use xlink:href="#m676b8ee614" x="141.317757" y="285.899485" style="fill: #ff0000; stroke: #ff0000"/>
     <use xlink:href="#m676b8ee614" x="137.244801" y="290.451612" style="fill: #ff0000; stroke: #ff0000"/>
     <use xlink:href="#m676b8ee614" x="147.233679" y="266.603627" style="fill: #ff0000; stroke: #ff0000"/>
     <use xlink:href="#m676b8ee614" x="143.160724" y="271.155754" style="fill: #ff0000; stroke: #ff0000"/>
     <use xlink:href="#m676b8ee614" x="139.087768" y="275.707881" style="fill: #ff0000; stroke: #ff0000"/>
     <use xlink:href="#m676b8ee614" x="135.014812" y="280.260008" style="fill: #ff0000; stroke: #ff0000"/>
     <use xlink:href="#m676b8ee614" x="130.941857" y="284.812135" style="fill: #ff0000; stroke: #ff0000"/>
     <use xlink:href="#m676b8ee614" x="140.930734" y="260.96415" style="fill: #ff0000; stroke: #ff0000"/>
     <use xlink:href="#m676b8ee614" x="136.857779" y="265.516277" style="fill: #ff0000; stroke: #ff0000"/>
     <use xlink:href="#m676b8ee614" x="132.784823" y="270.068404" style="fill: #ff0000; stroke: #ff0000"/>
     <use xlink:href="#m676b8ee614" x="128.711867" y="274.620531" style="fill: #ff0000; stroke: #ff0000"/>
     <use xlink:href="#m676b8ee614" x="124.638912" y="279.172658" style="fill: #ff0000; stroke: #ff0000"/>
     <use xlink:href="#m676b8ee614" x="134.627789" y="255.324673" style="fill: #ff0000; stroke: #ff0000"/>
     <use xlink:href="#m676b8ee614" x="130.554834" y="259.8768" style="fill: #ff0000; stroke: #ff0000"/>
     <use xlink:href="#m676b8ee614" x="126.481878" y="264.428927" style="fill: #ff0000; stroke: #ff0000"/>
     <use xlink:href="#m676b8ee614" x="122.408922" y="268.981054" style="fill: #ff0000; stroke: #ff0000"/>
     <use xlink:href="#m676b8ee614" x="118.335967" y="273.533181" style="fill: #ff0000; stroke: #ff0000"/>
     <use xlink:href="#m676b8ee614" x="128.324844" y="249.685196" style="fill: #ff0000; stroke: #ff0000"/>
     <use xlink:href="#m676b8ee614" x="124.251889" y="254.237323" style="fill: #ff0000; stroke: #ff0000"/>
     <use xlink:href="#m676b8ee614" x="120.178933" y="258.78945" style="fill: #ff0000; stroke: #ff0000"/>
     <use xlink:href="#m676b8ee614" x="116.105977" y="263.341577" style="fill: #ff0000; stroke: #ff0000"/>
     <use xlink:href="#m676b8ee614" x="112.033022" y="267.893704" style="fill: #ff0000; stroke: #ff0000"/>
     <use xlink:href="#m676b8ee614" x="122.021899" y="244.045719" style="fill: #ff0000; stroke: #ff0000"/>
     <use xlink:href="#m676b8ee614" x="117.948944" y="248.597846" style="fill: #ff0000; stroke: #ff0000"/>
     <use xlink:href="#m676b8ee614" x="113.875988" y="253.149973" style="fill: #ff0000; stroke: #ff0000"/>
     <use xlink:href="#m676b8ee614" x="109.803032" y="257.7021" style="fill: #ff0000; stroke: #ff0000"/>
     <use xlink:href="#m676b8ee614" x="105.730077" y="262.254227" style="fill: #ff0000; stroke: #ff0000"/>
     <use xlink:href="#m676b8ee614" x="115.718954" y="238.406242" style="fill: #ff0000; stroke: #ff0000"/>
     <use xlink:href="#m676b8ee614" x="111.645999" y="242.958369" style="fill: #ff0000; stroke: #ff0000"/>
     <use xlink:href="#m676b8ee614" x="107.573043" y="247.510496" style="fill: #ff0000; stroke: #ff0000"/>
     <use xlink:href="#m676b8ee614" x="103.500087" y="252.062623" style="fill: #ff0000; stroke: #ff0000"/>
     <use xlink:href="#m676b8ee614" x="99.427132" y="256.61475" style="fill: #ff0000; stroke: #ff0000"/>
     <use xlink:href="#m676b8ee614" x="109.416009" y="232.766765" style="fill: #ff0000; stroke: #ff0000"/>
     <use xlink:href="#m676b8ee614" x="105.343054" y="237.318892" style="fill: #ff0000; stroke: #ff0000"/>
     <use xlink:href="#m676b8ee614" x="101.270098" y="241.871019" style="fill: #ff0000; stroke: #ff0000"/>
     <use xlink:href="#m676b8ee614" x="97.197143" y="246.423146" style="fill: #ff0000; stroke: #ff0000"/>
     <use xlink:href="#m676b8ee614" x="93.124187" y="250.975273" style="fill: #ff0000; stroke: #ff0000"/>
     <use xlink:href="#m676b8ee614" x="103.113065" y="227.127288" style="fill: #ff0000; stroke: #ff0000"/>
     <use xlink:href="#m676b8ee614" x="99.040109" y="231.679415" style="fill: #ff0000; stroke: #ff0000"/>
     <use xlink:href="#m676b8ee614" x="94.967153" y="236.231542" style="fill: #ff0000; stroke: #ff0000"/>
     <use xlink:href="#m676b8ee614" x="90.894198" y="240.783669" style="fill: #ff0000; stroke: #ff0000"/>
     <use xlink:href="#m676b8ee614" x="86.821242" y="245.335795" style="fill: #ff0000; stroke: #ff0000"/>
     <use xlink:href="#m676b8ee614" x="96.81012" y="221.487811" style="fill: #ff0000; stroke: #ff0000"/>
     <use xlink:href="#m676b8ee614" x="92.737164" y="226.039938" style="fill: #ff0000; stroke: #ff0000"/>
     <use xlink:href="#m676b8ee614" x="88.664208" y="230.592065" style="fill: #ff0000; stroke: #ff0000"/>
     <use xlink:href="#m676b8ee614" x="84.591253" y="235.144192" style="fill: #ff0000; stroke: #ff0000"/>
     <use xlink:href="#m676b8ee614" x="80.518297" y="239.696318" style="fill: #ff0000; stroke: #ff0000"/>
     <use xlink:href="#m676b8ee614" x="90.507175" y="215.848334" style="fill: #ff0000; stroke: #ff0000"/>
     <use xlink:href="#m676b8ee614" x="86.434219" y="220.400461" style="fill: #ff0000; stroke: #ff0000"/>
     <use xlink:href="#m676b8ee614" x="82.361263" y="224.952588" style="fill: #ff0000; stroke: #ff0000"/>
     <use xlink:href="#m676b8ee614" x="78.288308" y="229.504714" style="fill: #ff0000; stroke: #ff0000"/>
     <use xlink:href="#m676b8ee614" x="74.215352" y="234.056841" style="fill: #ff0000; stroke: #ff0000"/>
     <use xlink:href="#m676b8ee614" x="84.20423" y="210.208857" style="fill: #ff0000; stroke: #ff0000"/>
     <use xlink:href="#m676b8ee614" x="80.131274" y="214.760984" style="fill: #ff0000; stroke: #ff0000"/>
     <use xlink:href="#m676b8ee614" x="76.058318" y="219.31311" style="fill: #ff0000; stroke: #ff0000"/>
     <use xlink:href="#m676b8ee614" x="71.985363" y="223.865237" style="fill: #ff0000; stroke: #ff0000"/>
     <use xlink:href="#m676b8ee614" x="67.912407" y="228.417364" style="fill: #ff0000; stroke: #ff0000"/>
     <use xlink:href="#m676b8ee614" x="77.901285" y="204.56938" style="fill: #ff0000; stroke: #ff0000"/>
     <use xlink:href="#m676b8ee614" x="73.828329" y="209.121507" style="fill: #ff0000; stroke: #ff0000"/>
     <use xlink:href="#m676b8ee614" x="69.755373" y="213.673633" style="fill: #ff0000; stroke: #ff0000"/>
     <use xlink:href="#m676b8ee614" x="65.682418" y="218.22576" style="fill: #ff0000; stroke: #ff0000"/>
     <use xlink:href="#m676b8ee614" x="61.609462" y="222.777887" style="fill: #ff0000; stroke: #ff0000"/>
    </g>
   </g>
   <g id="patch_3">
    <path d="M 35.304688 459.293571 
L 35.304688 22.318125 
" style="fill: none; stroke: #000000; stroke-width: 0.8; stroke-linejoin: miter; stroke-linecap: square"/>
   </g>
   <g id="patch_4">
    <path d="M 561.554687 459.293571 
L 561.554687 22.318125 
" style="fill: none; stroke: #000000; stroke-width: 0.8; stroke-linejoin: miter; stroke-linecap: square"/>
   </g>
   <g id="patch_5">
    <path d="M 35.304688 459.293571 
L 561.554687 459.293571 
" style="fill: none; stroke: #000000; stroke-width: 0.8; stroke-linejoin: miter; stroke-linecap: square"/>
   </g>
   <g id="patch_6">
    <path d="M 35.304688 22.318125 
L 561.554687 22.318125 
" style="fill: none; stroke: #000000; stroke-width: 0.8; stroke-linejoin: miter; stroke-linecap: square"/>
   </g>
   <g id="text_17">
    <!-- TCP Box and Test Grid Points for Edges 4/11 -->
    <g transform="translate(167.239687 16.318125) scale(0.12 -0.12)">
     <defs>
      <path id="DejaVuSans-54" d="M -19 4666 
L 3928 4666 
L 3928 4134 
L 2272 4134 
L 2272 0 
L 1638 0 
L 1638 4134 
L -19 4134 
L -19 4666 
z
" transform="scale(0.015625)"/>
      <path id="DejaVuSans-43" d="M 4122 4306 
L 4122 3641 
Q 3803 3938 3442 4084 
Q 3081 4231 2675 4231 
Q 1875 4231 1450 3742 
Q 1025 3253 1025 2328 
Q 1025 1406 1450 917 
Q 1875 428 2675 428 
Q 3081 428 3442 575 
Q 3803 722 4122 1019 
L 4122 359 
Q 3791 134 3420 21 
Q 3050 -91 2638 -91 
Q 1578 -91 968 557 
Q 359 1206 359 2328 
Q 359 3453 968 4101 
Q 1578 4750 2638 4750 
Q 3056 4750 3426 4639 
Q 3797 4528 4122 4306 
z
" transform="scale(0.015625)"/>
      <path id="DejaVuSans-50" d="M 1259 4147 
L 1259 2394 
L 2053 2394 
Q 2494 2394 2734 2622 
Q 2975 2850 2975 3272 
Q 2975 3691 2734 3919 
Q 2494 4147 2053 4147 
L 1259 4147 
z
M 628 4666 
L 2053 4666 
Q 2838 4666 3239 4311 
Q 3641 3956 3641 3272 
Q 3641 2581 3239 2228 
Q 2838 1875 2053 1875 
L 1259 1875 
L 1259 0 
L 628 0 
L 628 4666 
z
" transform="scale(0.015625)"/>
      <path id="DejaVuSans-20" transform="scale(0.015625)"/>
      <path id="DejaVuSans-42" d="M 1259 2228 
L 1259 519 
L 2272 519 
Q 2781 519 3026 730 
Q 3272 941 3272 1375 
Q 3272 1813 3026 2020 
Q 2781 2228 2272 2228 
L 1259 2228 
z
M 1259 4147 
L 1259 2741 
L 2194 2741 
Q 2656 2741 2882 2914 
Q 3109 3088 3109 3444 
Q 3109 3797 2882 3972 
Q 2656 4147 2194 4147 
L 1259 4147 
z
M 628 4666 
L 2241 4666 
Q 2963 4666 3353 4366 
Q 3744 4066 3744 3513 
Q 3744 3084 3544 2831 
Q 3344 2578 2956 2516 
Q 3422 2416 3680 2098 
Q 3938 1781 3938 1306 
Q 3938 681 3513 340 
Q 3088 0 2303 0 
L 628 0 
L 628 4666 
z
" transform="scale(0.015625)"/>
      <path id="DejaVuSans-6f" d="M 1959 3097 
Q 1497 3097 1228 2736 
Q 959 2375 959 1747 
Q 959 1119 1226 758 
Q 1494 397 1959 397 
Q 2419 397 2687 759 
Q 2956 1122 2956 1747 
Q 2956 2369 2687 2733 
Q 2419 3097 1959 3097 
z
M 1959 3584 
Q 2709 3584 3137 3096 
Q 3566 2609 3566 1747 
Q 3566 888 3137 398 
Q 2709 -91 1959 -91 
Q 1206 -91 779 398 
Q 353 888 353 1747 
Q 353 2609 779 3096 
Q 1206 3584 1959 3584 
z
" transform="scale(0.015625)"/>
      <path id="DejaVuSans-78" d="M 3513 3500 
L 2247 1797 
L 3578 0 
L 2900 0 
L 1881 1375 
L 863 0 
L 184 0 
L 1544 1831 
L 300 3500 
L 978 3500 
L 1906 2253 
L 2834 3500 
L 3513 3500 
z
" transform="scale(0.015625)"/>
      <path id="DejaVuSans-61" d="M 2194 1759 
Q 1497 1759 1228 1600 
Q 959 1441 959 1056 
Q 959 750 1161 570 
Q 1363 391 1709 391 
Q 2188 391 2477 730 
Q 2766 1069 2766 1631 
L 2766 1759 
L 2194 1759 
z
M 3341 1997 
L 3341 0 
L 2766 0 
L 2766 531 
Q 2569 213 2275 61 
Q 1981 -91 1556 -91 
Q 1019 -91 701 211 
Q 384 513 384 1019 
Q 384 1609 779 1909 
Q 1175 2209 1959 2209 
L 2766 2209 
L 2766 2266 
Q 2766 2663 2505 2880 
Q 2244 3097 1772 3097 
Q 1472 3097 1187 3025 
Q 903 2953 641 2809 
L 641 3341 
Q 956 3463 1253 3523 
Q 1550 3584 1831 3584 
Q 2591 3584 2966 3190 
Q 3341 2797 3341 1997 
z
" transform="scale(0.015625)"/>
      <path id="DejaVuSans-6e" d="M 3513 2113 
L 3513 0 
L 2938 0 
L 2938 2094 
Q 2938 2591 2744 2837 
Q 2550 3084 2163 3084 
Q 1697 3084 1428 2787 
Q 1159 2491 1159 1978 
L 1159 0 
L 581 0 
L 581 3500 
L 1159 3500 
L 1159 2956 
Q 1366 3272 1645 3428 
Q 1925 3584 2291 3584 
Q 2894 3584 3203 3211 
Q 3513 2838 3513 2113 
z
" transform="scale(0.015625)"/>
      <path id="DejaVuSans-64" d="M 2906 2969 
L 2906 4863 
L 3481 4863 
L 3481 0 
L 2906 0 
L 2906 525 
Q 2725 213 2448 61 
Q 2172 -91 1784 -91 
Q 1150 -91 751 415 
Q 353 922 353 1747 
Q 353 2572 751 3078 
Q 1150 3584 1784 3584 
Q 2172 3584 2448 3432 
Q 2725 3281 2906 2969 
z
M 947 1747 
Q 947 1113 1208 752 
Q 1469 391 1925 391 
Q 2381 391 2643 752 
Q 2906 1113 2906 1747 
Q 2906 2381 2643 2742 
Q 2381 3103 1925 3103 
Q 1469 3103 1208 2742 
Q 947 2381 947 1747 
z
" transform="scale(0.015625)"/>
      <path id="DejaVuSans-65" d="M 3597 1894 
L 3597 1613 
L 953 1613 
Q 991 1019 1311 708 
Q 1631 397 2203 397 
Q 2534 397 2845 478 
Q 3156 559 3463 722 
L 3463 178 
Q 3153 47 2828 -22 
Q 2503 -91 2169 -91 
Q 1331 -91 842 396 
Q 353 884 353 1716 
Q 353 2575 817 3079 
Q 1281 3584 2069 3584 
Q 2775 3584 3186 3129 
Q 3597 2675 3597 1894 
z
M 3022 2063 
Q 3016 2534 2758 2815 
Q 2500 3097 2075 3097 
Q 1594 3097 1305 2825 
Q 1016 2553 972 2059 
L 3022 2063 
z
" transform="scale(0.015625)"/>
      <path id="DejaVuSans-73" d="M 2834 3397 
L 2834 2853 
Q 2591 2978 2328 3040 
Q 2066 3103 1784 3103 
Q 1356 3103 1142 2972 
Q 928 2841 928 2578 
Q 928 2378 1081 2264 
Q 1234 2150 1697 2047 
L 1894 2003 
Q 2506 1872 2764 1633 
Q 3022 1394 3022 966 
Q 3022 478 2636 193 
Q 2250 -91 1575 -91 
Q 1294 -91 989 -36 
Q 684 19 347 128 
L 347 722 
Q 666 556 975 473 
Q 1284 391 1588 391 
Q 1994 391 2212 530 
Q 2431 669 2431 922 
Q 2431 1156 2273 1281 
Q 2116 1406 1581 1522 
L 1381 1569 
Q 847 1681 609 1914 
Q 372 2147 372 2553 
Q 372 3047 722 3315 
Q 1072 3584 1716 3584 
Q 2034 3584 2315 3537 
Q 2597 3491 2834 3397 
z
" transform="scale(0.015625)"/>
      <path id="DejaVuSans-74" d="M 1172 4494 
L 1172 3500 
L 2356 3500 
L 2356 3053 
L 1172 3053 
L 1172 1153 
Q 1172 725 1289 603 
Q 1406 481 1766 481 
L 2356 481 
L 2356 0 
L 1766 0 
Q 1100 0 847 248 
Q 594 497 594 1153 
L 594 3053 
L 172 3053 
L 172 3500 
L 594 3500 
L 594 4494 
L 1172 4494 
z
" transform="scale(0.015625)"/>
      <path id="DejaVuSans-47" d="M 3809 666 
L 3809 1919 
L 2778 1919 
L 2778 2438 
L 4434 2438 
L 4434 434 
Q 4069 175 3628 42 
Q 3188 -91 2688 -91 
Q 1594 -91 976 548 
Q 359 1188 359 2328 
Q 359 3472 976 4111 
Q 1594 4750 2688 4750 
Q 3144 4750 3555 4637 
Q 3966 4525 4313 4306 
L 4313 3634 
Q 3963 3931 3569 4081 
Q 3175 4231 2741 4231 
Q 1884 4231 1454 3753 
Q 1025 3275 1025 2328 
Q 1025 1384 1454 906 
Q 1884 428 2741 428 
Q 3075 428 3337 486 
Q 3600 544 3809 666 
z
" transform="scale(0.015625)"/>
      <path id="DejaVuSans-72" d="M 2631 2963 
Q 2534 3019 2420 3045 
Q 2306 3072 2169 3072 
Q 1681 3072 1420 2755 
Q 1159 2438 1159 1844 
L 1159 0 
L 581 0 
L 581 3500 
L 1159 3500 
L 1159 2956 
Q 1341 3275 1631 3429 
Q 1922 3584 2338 3584 
Q 2397 3584 2469 3576 
Q 2541 3569 2628 3553 
L 2631 2963 
z
" transform="scale(0.015625)"/>
      <path id="DejaVuSans-69" d="M 603 3500 
L 1178 3500 
L 1178 0 
L 603 0 
L 603 3500 
z
M 603 4863 
L 1178 4863 
L 1178 4134 
L 603 4134 
L 603 4863 
z
" transform="scale(0.015625)"/>
      <path id="DejaVuSans-66" d="M 2375 4863 
L 2375 4384 
L 1825 4384 
Q 1516 4384 1395 4259 
Q 1275 4134 1275 3809 
L 1275 3500 
L 2222 3500 
L 2222 3053 
L 1275 3053 
L 1275 0 
L 697 0 
L 697 3053 
L 147 3053 
L 147 3500 
L 697 3500 
L 697 3744 
Q 697 4328 969 4595 
Q 1241 4863 1831 4863 
L 2375 4863 
z
" transform="scale(0.015625)"/>
      <path id="DejaVuSans-45" d="M 628 4666 
L 3578 4666 
L 3578 4134 
L 1259 4134 
L 1259 2753 
L 3481 2753 
L 3481 2222 
L 1259 2222 
L 1259 531 
L 3634 531 
L 3634 0 
L 628 0 
L 628 4666 
z
" transform="scale(0.015625)"/>
      <path id="DejaVuSans-67" d="M 2906 1791 
Q 2906 2416 2648 2759 
Q 2391 3103 1925 3103 
Q 1463 3103 1205 2759 
Q 947 2416 947 1791 
Q 947 1169 1205 825 
Q 1463 481 1925 481 
Q 2391 481 2648 825 
Q 2906 1169 2906 1791 
z
M 3481 434 
Q 3481 -459 3084 -895 
Q 2688 -1331 1869 -1331 
Q 1566 -1331 1297 -1286 
Q 1028 -1241 775 -1147 
L 775 -588 
Q 1028 -725 1275 -790 
Q 1522 -856 1778 -856 
Q 2344 -856 2625 -561 
Q 2906 -266 2906 331 
L 2906 616 
Q 2728 306 2450 153 
Q 2172 0 1784 0 
Q 1141 0 747 490 
Q 353 981 353 1791 
Q 353 2603 747 3093 
Q 1141 3584 1784 3584 
Q 2172 3584 2450 3431 
Q 2728 3278 2906 2969 
L 2906 3500 
L 3481 3500 
L 3481 434 
z
" transform="scale(0.015625)"/>
      <path id="DejaVuSans-34" d="M 2419 4116 
L 825 1625 
L 2419 1625 
L 2419 4116 
z
M 2253 4666 
L 3047 4666 
L 3047 1625 
L 3713 1625 
L 3713 1100 
L 3047 1100 
L 3047 0 
L 2419 0 
L 2419 1100 
L 313 1100 
L 313 1709 
L 2253 4666 
z
" transform="scale(0.015625)"/>
      <path id="DejaVuSans-2f" d="M 1625 4666 
L 2156 4666 
L 531 -594 
L 0 -594 
L 1625 4666 
z
" transform="scale(0.015625)"/>
     </defs>
     <use xlink:href="#DejaVuSans-54"/>
     <use xlink:href="#DejaVuSans-43" x="55.208984"/>
     <use xlink:href="#DejaVuSans-50" x="125.033203"/>
     <use xlink:href="#DejaVuSans-20" x="185.335938"/>
     <use xlink:href="#DejaVuSans-42" x="217.123047"/>
     <use xlink:href="#DejaVuSans-6f" x="285.726562"/>
     <use xlink:href="#DejaVuSans-78" x="343.783203"/>
     <use xlink:href="#DejaVuSans-20" x="402.962891"/>
     <use xlink:href="#DejaVuSans-61" x="434.75"/>
     <use xlink:href="#DejaVuSans-6e" x="496.029297"/>
     <use xlink:href="#DejaVuSans-64" x="559.408203"/>
     <use xlink:href="#DejaVuSans-20" x="622.884766"/>
     <use xlink:href="#DejaVuSans-54" x="654.671875"/>
     <use xlink:href="#DejaVuSans-65" x="698.755859"/>
     <use xlink:href="#DejaVuSans-73" x="760.279297"/>
     <use xlink:href="#DejaVuSans-74" x="812.378906"/>
     <use xlink:href="#DejaVuSans-20" x="851.587891"/>
     <use xlink:href="#DejaVuSans-47" x="883.375"/>
     <use xlink:href="#DejaVuSans-72" x="960.865234"/>
     <use xlink:href="#DejaVuSans-69" x="1001.978516"/>
     <use xlink:href="#DejaVuSans-64" x="1029.761719"/>
     <use xlink:href="#DejaVuSans-20" x="1093.238281"/>
     <use xlink:href="#DejaVuSans-50" x="1125.025391"/>
     <use xlink:href="#DejaVuSans-6f" x="1181.703125"/>
     <use xlink:href="#DejaVuSans-69" x="1242.884766"/>
     <use xlink:href="#DejaVuSans-6e" x="1270.667969"/>
     <use xlink:href="#DejaVuSans-74" x="1334.046875"/>
     <use xlink:href="#DejaVuSans-73" x="1373.255859"/>
     <use xlink:href="#DejaVuSans-20" x="1425.355469"/>
     <use xlink:href="#DejaVuSans-66" x="1457.142578"/>
     <use xlink:href="#DejaVuSans-6f" x="1492.347656"/>
     <use xlink:href="#DejaVuSans-72" x="1553.529297"/>
     <use xlink:href="#DejaVuSans-20" x="1594.642578"/>
     <use xlink:href="#DejaVuSans-45" x="1626.429688"/>
     <use xlink:href="#DejaVuSans-64" x="1689.613281"/>
     <use xlink:href="#DejaVuSans-67" x="1753.089844"/>
     <use xlink:href="#DejaVuSans-65" x="1816.566406"/>
     <use xlink:href="#DejaVuSans-73" x="1878.089844"/>
     <use xlink:href="#DejaVuSans-20" x="1930.189453"/>
     <use xlink:href="#DejaVuSans-34" x="1961.976562"/>
     <use xlink:href="#DejaVuSans-2f" x="2025.599609"/>
     <use xlink:href="#DejaVuSans-31" x="2059.291016"/>
     <use xlink:href="#DejaVuSans-31" x="2122.914062"/>
    </g>
   </g>
   <g id="legend_1">
    <g id="patch_7">
     <path d="M 42.304688 89.030625 
L 160.251563 89.030625 
Q 162.251563 89.030625 162.251563 87.030625 
L 162.251563 29.318125 
Q 162.251563 27.318125 160.251563 27.318125 
L 42.304688 27.318125 
Q 40.304688 27.318125 40.304688 29.318125 
L 40.304688 87.030625 
Q 40.304688 89.030625 42.304688 89.030625 
z
" style="fill: #ffffff; opacity: 0.8; stroke: #cccccc; stroke-linejoin: miter"/>
    </g>
    <g id="line2d_50">
     <path d="M 44.304688 35.416562 
L 54.304688 35.416562 
L 64.304688 35.416562 
" style="fill: none; stroke: #0000ff; stroke-width: 3; stroke-linecap: square"/>
    </g>
    <g id="text_18">
     <!-- Edges of Plane2 -->
     <g transform="translate(72.304688 38.916562) scale(0.1 -0.1)">
      <defs>
       <path id="DejaVuSans-6c" d="M 603 4863 
L 1178 4863 
L 1178 0 
L 603 0 
L 603 4863 
z
" transform="scale(0.015625)"/>
      </defs>
      <use xlink:href="#DejaVuSans-45"/>
      <use xlink:href="#DejaVuSans-64" x="63.183594"/>
      <use xlink:href="#DejaVuSans-67" x="126.660156"/>
      <use xlink:href="#DejaVuSans-65" x="190.136719"/>
      <use xlink:href="#DejaVuSans-73" x="251.660156"/>
      <use xlink:href="#DejaVuSans-20" x="303.759766"/>
      <use xlink:href="#DejaVuSans-6f" x="335.546875"/>
      <use xlink:href="#DejaVuSans-66" x="396.728516"/>
      <use xlink:href="#DejaVuSans-20" x="431.933594"/>
      <use xlink:href="#DejaVuSans-50" x="463.720703"/>
      <use xlink:href="#DejaVuSans-6c" x="524.023438"/>
      <use xlink:href="#DejaVuSans-61" x="551.806641"/>
      <use xlink:href="#DejaVuSans-6e" x="613.085938"/>
      <use xlink:href="#DejaVuSans-65" x="676.464844"/>
      <use xlink:href="#DejaVuSans-32" x="737.988281"/>
     </g>
    </g>
    <g id="line2d_51">
     <path d="M 44.304688 50.094687 
L 54.304688 50.094687 
L 64.304688 50.094687 
" style="fill: none; stroke: #bf00bf; stroke-width: 1.5; stroke-linecap: square"/>
    </g>
    <g id="text_19">
     <!-- Gripper Direction -->
     <g transform="translate(72.304688 53.594687) scale(0.1 -0.1)">
      <defs>
       <path id="DejaVuSans-70" d="M 1159 525 
L 1159 -1331 
L 581 -1331 
L 581 3500 
L 1159 3500 
L 1159 2969 
Q 1341 3281 1617 3432 
Q 1894 3584 2278 3584 
Q 2916 3584 3314 3078 
Q 3713 2572 3713 1747 
Q 3713 922 3314 415 
Q 2916 -91 2278 -91 
Q 1894 -91 1617 61 
Q 1341 213 1159 525 
z
M 3116 1747 
Q 3116 2381 2855 2742 
Q 2594 3103 2138 3103 
Q 1681 3103 1420 2742 
Q 1159 2381 1159 1747 
Q 1159 1113 1420 752 
Q 1681 391 2138 391 
Q 2594 391 2855 752 
Q 3116 1113 3116 1747 
z
" transform="scale(0.015625)"/>
       <path id="DejaVuSans-44" d="M 1259 4147 
L 1259 519 
L 2022 519 
Q 2988 519 3436 956 
Q 3884 1394 3884 2338 
Q 3884 3275 3436 3711 
Q 2988 4147 2022 4147 
L 1259 4147 
z
M 628 4666 
L 1925 4666 
Q 3281 4666 3915 4102 
Q 4550 3538 4550 2338 
Q 4550 1131 3912 565 
Q 3275 0 1925 0 
L 628 0 
L 628 4666 
z
" transform="scale(0.015625)"/>
       <path id="DejaVuSans-63" d="M 3122 3366 
L 3122 2828 
Q 2878 2963 2633 3030 
Q 2388 3097 2138 3097 
Q 1578 3097 1268 2742 
Q 959 2388 959 1747 
Q 959 1106 1268 751 
Q 1578 397 2138 397 
Q 2388 397 2633 464 
Q 2878 531 3122 666 
L 3122 134 
Q 2881 22 2623 -34 
Q 2366 -91 2075 -91 
Q 1284 -91 818 406 
Q 353 903 353 1747 
Q 353 2603 823 3093 
Q 1294 3584 2113 3584 
Q 2378 3584 2631 3529 
Q 2884 3475 3122 3366 
z
" transform="scale(0.015625)"/>
      </defs>
      <use xlink:href="#DejaVuSans-47"/>
      <use xlink:href="#DejaVuSans-72" x="77.490234"/>
      <use xlink:href="#DejaVuSans-69" x="118.603516"/>
      <use xlink:href="#DejaVuSans-70" x="146.386719"/>
      <use xlink:href="#DejaVuSans-70" x="209.863281"/>
      <use xlink:href="#DejaVuSans-65" x="273.339844"/>
      <use xlink:href="#DejaVuSans-72" x="334.863281"/>
      <use xlink:href="#DejaVuSans-20" x="375.976562"/>
      <use xlink:href="#DejaVuSans-44" x="407.763672"/>
      <use xlink:href="#DejaVuSans-69" x="484.765625"/>
      <use xlink:href="#DejaVuSans-72" x="512.548828"/>
      <use xlink:href="#DejaVuSans-65" x="551.412109"/>
      <use xlink:href="#DejaVuSans-63" x="612.935547"/>
      <use xlink:href="#DejaVuSans-74" x="667.916016"/>
      <use xlink:href="#DejaVuSans-69" x="707.125"/>
      <use xlink:href="#DejaVuSans-6f" x="734.908203"/>
      <use xlink:href="#DejaVuSans-6e" x="796.089844"/>
     </g>
    </g>
    <g id="line2d_52">
     <path d="M 44.304688 64.772812 
L 54.304688 64.772812 
L 64.304688 64.772812 
" style="fill: none; stroke-dasharray: 1.85,0.8; stroke-dashoffset: 0; stroke: #008000; stroke-width: 0.5"/>
    </g>
    <g id="text_20">
     <!-- TCP Box -->
     <g transform="translate(72.304688 68.272812) scale(0.1 -0.1)">
      <use xlink:href="#DejaVuSans-54"/>
      <use xlink:href="#DejaVuSans-43" x="55.208984"/>
      <use xlink:href="#DejaVuSans-50" x="125.033203"/>
      <use xlink:href="#DejaVuSans-20" x="185.335938"/>
      <use xlink:href="#DejaVuSans-42" x="217.123047"/>
      <use xlink:href="#DejaVuSans-6f" x="285.726562"/>
      <use xlink:href="#DejaVuSans-78" x="343.783203"/>
     </g>
    </g>
    <g id="line2d_53">
     <g>
      <use xlink:href="#m676b8ee614" x="54.304688" y="79.450937" style="fill: #ff0000; stroke: #ff0000"/>
     </g>
    </g>
    <g id="text_21">
     <!-- Test Grid Points -->
     <g transform="translate(72.304688 82.950937) scale(0.1 -0.1)">
      <use xlink:href="#DejaVuSans-54"/>
      <use xlink:href="#DejaVuSans-65" x="44.083984"/>
      <use xlink:href="#DejaVuSans-73" x="105.607422"/>
      <use xlink:href="#DejaVuSans-74" x="157.707031"/>
      <use xlink:href="#DejaVuSans-20" x="196.916016"/>
      <use xlink:href="#DejaVuSans-47" x="228.703125"/>
      <use xlink:href="#DejaVuSans-72" x="306.193359"/>
      <use xlink:href="#DejaVuSans-69" x="347.306641"/>
      <use xlink:href="#DejaVuSans-64" x="375.089844"/>
      <use xlink:href="#DejaVuSans-20" x="438.566406"/>
      <use xlink:href="#DejaVuSans-50" x="470.353516"/>
      <use xlink:href="#DejaVuSans-6f" x="527.03125"/>
      <use xlink:href="#DejaVuSans-69" x="588.212891"/>
      <use xlink:href="#DejaVuSans-6e" x="615.996094"/>
      <use xlink:href="#DejaVuSans-74" x="679.375"/>
      <use xlink:href="#DejaVuSans-73" x="718.583984"/>
     </g>
    </g>
   </g>
  </g>
 </g>
 <defs>
  <clipPath id="pd2ec9e3917">
   <rect x="35.304688" y="22.318125" width="526.25" height="436.975446"/>
  </clipPath>
 </defs>
</svg>
