<?xml version="1.0" encoding="utf-8" standalone="no"?>
<!DOCTYPE svg PUBLIC "-//W3C//DTD SVG 1.1//EN"
  "http://www.w3.org/Graphics/SVG/1.1/DTD/svg11.dtd">
<svg xmlns:xlink="http://www.w3.org/1999/xlink" width="568.754687pt" height="406.932137pt" viewBox="0 0 568.754687 406.932137" xmlns="http://www.w3.org/2000/svg" version="1.1">
 <metadata>
  <rdf:RDF xmlns:dc="http://purl.org/dc/elements/1.1/" xmlns:cc="http://creativecommons.org/ns#" xmlns:rdf="http://www.w3.org/1999/02/22-rdf-syntax-ns#">
   <cc:Work>
    <dc:type rdf:resource="http://purl.org/dc/dcmitype/StillImage"/>
    <dc:date>2025-11-14T08:14:53.305415</dc:date>
    <dc:format>image/svg+xml</dc:format>
    <dc:creator>
     <cc:Agent>
      <dc:title>Matplotlib v3.9.4, https://matplotlib.org/</dc:title>
     </cc:Agent>
    </dc:creator>
   </cc:Work>
  </rdf:RDF>
 </metadata>
 <defs>
  <style type="text/css">*{stroke-linejoin: round; stroke-linecap: butt}</style>
 </defs>
 <g id="figure_1">
  <g id="patch_1">
   <path d="M 0 406.932137 
L 568.754687 406.932137 
L 568.754687 0 
L 0 0 
z
" style="fill: #ffffff"/>
  </g>
  <g id="axes_1">
   <g id="patch_2">
    <path d="M 35.304688 383.054012 
L 561.554687 383.054012 
L 561.554687 22.318125 
L 35.304688 22.318125 
z
" style="fill: #ffffff"/>
   </g>
   <g id="matplotlib.axis_1">
    <g id="xtick_1">
     <g id="line2d_1">
      <path d="M 110.068944 383.054012 
L 110.068944 22.318125 
" clip-path="url(#p3e9cc15edd)" style="fill: none; stroke: #b0b0b0; stroke-width: 0.8; stroke-linecap: square"/>
     </g>
     <g id="line2d_2">
      <defs>
       <path id="mc15c36a77b" d="M 0 0 
L 0 3.5 
" style="stroke: #000000; stroke-width: 0.8"/>
      </defs>
      <g>
       <use xlink:href="#mc15c36a77b" x="110.068944" y="383.054012" style="stroke: #000000; stroke-width: 0.8"/>
      </g>
     </g>
     <g id="text_1">
      <!-- −40 -->
      <g transform="translate(99.5166 397.65245) scale(0.1 -0.1)">
       <defs>
        <path id="DejaVuSans-2212" d="M 678 2272 
L 4684 2272 
L 4684 1741 
L 678 1741 
L 678 2272 
z
" transform="scale(0.015625)"/>
        <path id="DejaVuSans-34" d="M 2419 4116 
L 825 1625 
L 2419 1625 
L 2419 4116 
z
M 2253 4666 
L 3047 4666 
L 3047 1625 
L 3713 1625 
L 3713 1100 
L 3047 1100 
L 3047 0 
L 2419 0 
L 2419 1100 
L 313 1100 
L 313 1709 
L 2253 4666 
z
" transform="scale(0.015625)"/>
        <path id="DejaVuSans-30" d="M 2034 4250 
Q 1547 4250 1301 3770 
Q 1056 3291 1056 2328 
Q 1056 1369 1301 889 
Q 1547 409 2034 409 
Q 2525 409 2770 889 
Q 3016 1369 3016 2328 
Q 3016 3291 2770 3770 
Q 2525 4250 2034 4250 
z
M 2034 4750 
Q 2819 4750 3233 4129 
Q 3647 3509 3647 2328 
Q 3647 1150 3233 529 
Q 2819 -91 2034 -91 
Q 1250 -91 836 529 
Q 422 1150 422 2328 
Q 422 3509 836 4129 
Q 1250 4750 2034 4750 
z
" transform="scale(0.015625)"/>
       </defs>
       <use xlink:href="#DejaVuSans-2212"/>
       <use xlink:href="#DejaVuSans-34" x="83.789062"/>
       <use xlink:href="#DejaVuSans-30" x="147.412109"/>
      </g>
     </g>
    </g>
    <g id="xtick_2">
     <g id="line2d_3">
      <path d="M 194.947976 383.054012 
L 194.947976 22.318125 
" clip-path="url(#p3e9cc15edd)" style="fill: none; stroke: #b0b0b0; stroke-width: 0.8; stroke-linecap: square"/>
     </g>
     <g id="line2d_4">
      <g>
       <use xlink:href="#mc15c36a77b" x="194.947976" y="383.054012" style="stroke: #000000; stroke-width: 0.8"/>
      </g>
     </g>
     <g id="text_2">
      <!-- −20 -->
      <g transform="translate(184.395633 397.65245) scale(0.1 -0.1)">
       <defs>
        <path id="DejaVuSans-32" d="M 1228 531 
L 3431 531 
L 3431 0 
L 469 0 
L 469 531 
Q 828 903 1448 1529 
Q 2069 2156 2228 2338 
Q 2531 2678 2651 2914 
Q 2772 3150 2772 3378 
Q 2772 3750 2511 3984 
Q 2250 4219 1831 4219 
Q 1534 4219 1204 4116 
Q 875 4013 500 3803 
L 500 4441 
Q 881 4594 1212 4672 
Q 1544 4750 1819 4750 
Q 2544 4750 2975 4387 
Q 3406 4025 3406 3419 
Q 3406 3131 3298 2873 
Q 3191 2616 2906 2266 
Q 2828 2175 2409 1742 
Q 1991 1309 1228 531 
z
" transform="scale(0.015625)"/>
       </defs>
       <use xlink:href="#DejaVuSans-2212"/>
       <use xlink:href="#DejaVuSans-32" x="83.789062"/>
       <use xlink:href="#DejaVuSans-30" x="147.412109"/>
      </g>
     </g>
    </g>
    <g id="xtick_3">
     <g id="line2d_5">
      <path d="M 279.827009 383.054012 
L 279.827009 22.318125 
" clip-path="url(#p3e9cc15edd)" style="fill: none; stroke: #b0b0b0; stroke-width: 0.8; stroke-linecap: square"/>
     </g>
     <g id="line2d_6">
      <g>
       <use xlink:href="#mc15c36a77b" x="279.827009" y="383.054012" style="stroke: #000000; stroke-width: 0.8"/>
      </g>
     </g>
     <g id="text_3">
      <!-- 0 -->
      <g transform="translate(276.645759 397.65245) scale(0.1 -0.1)">
       <use xlink:href="#DejaVuSans-30"/>
      </g>
     </g>
    </g>
    <g id="xtick_4">
     <g id="line2d_7">
      <path d="M 364.706041 383.054012 
L 364.706041 22.318125 
" clip-path="url(#p3e9cc15edd)" style="fill: none; stroke: #b0b0b0; stroke-width: 0.8; stroke-linecap: square"/>
     </g>
     <g id="line2d_8">
      <g>
       <use xlink:href="#mc15c36a77b" x="364.706041" y="383.054012" style="stroke: #000000; stroke-width: 0.8"/>
      </g>
     </g>
     <g id="text_4">
      <!-- 20 -->
      <g transform="translate(358.343541 397.65245) scale(0.1 -0.1)">
       <use xlink:href="#DejaVuSans-32"/>
       <use xlink:href="#DejaVuSans-30" x="63.623047"/>
      </g>
     </g>
    </g>
    <g id="xtick_5">
     <g id="line2d_9">
      <path d="M 449.585073 383.054012 
L 449.585073 22.318125 
" clip-path="url(#p3e9cc15edd)" style="fill: none; stroke: #b0b0b0; stroke-width: 0.8; stroke-linecap: square"/>
     </g>
     <g id="line2d_10">
      <g>
       <use xlink:href="#mc15c36a77b" x="449.585073" y="383.054012" style="stroke: #000000; stroke-width: 0.8"/>
      </g>
     </g>
     <g id="text_5">
      <!-- 40 -->
      <g transform="translate(443.222573 397.65245) scale(0.1 -0.1)">
       <use xlink:href="#DejaVuSans-34"/>
       <use xlink:href="#DejaVuSans-30" x="63.623047"/>
      </g>
     </g>
    </g>
    <g id="xtick_6">
     <g id="line2d_11">
      <path d="M 534.464105 383.054012 
L 534.464105 22.318125 
" clip-path="url(#p3e9cc15edd)" style="fill: none; stroke: #b0b0b0; stroke-width: 0.8; stroke-linecap: square"/>
     </g>
     <g id="line2d_12">
      <g>
       <use xlink:href="#mc15c36a77b" x="534.464105" y="383.054012" style="stroke: #000000; stroke-width: 0.8"/>
      </g>
     </g>
     <g id="text_6">
      <!-- 60 -->
      <g transform="translate(528.101605 397.65245) scale(0.1 -0.1)">
       <defs>
        <path id="DejaVuSans-36" d="M 2113 2584 
Q 1688 2584 1439 2293 
Q 1191 2003 1191 1497 
Q 1191 994 1439 701 
Q 1688 409 2113 409 
Q 2538 409 2786 701 
Q 3034 994 3034 1497 
Q 3034 2003 2786 2293 
Q 2538 2584 2113 2584 
z
M 3366 4563 
L 3366 3988 
Q 3128 4100 2886 4159 
Q 2644 4219 2406 4219 
Q 1781 4219 1451 3797 
Q 1122 3375 1075 2522 
Q 1259 2794 1537 2939 
Q 1816 3084 2150 3084 
Q 2853 3084 3261 2657 
Q 3669 2231 3669 1497 
Q 3669 778 3244 343 
Q 2819 -91 2113 -91 
Q 1303 -91 875 529 
Q 447 1150 447 2328 
Q 447 3434 972 4092 
Q 1497 4750 2381 4750 
Q 2619 4750 2861 4703 
Q 3103 4656 3366 4563 
z
" transform="scale(0.015625)"/>
       </defs>
       <use xlink:href="#DejaVuSans-36"/>
       <use xlink:href="#DejaVuSans-30" x="63.623047"/>
      </g>
     </g>
    </g>
   </g>
   <g id="matplotlib.axis_2">
    <g id="ytick_1">
     <g id="line2d_13">
      <path d="M 35.304688 380.704647 
L 561.554687 380.704647 
" clip-path="url(#p3e9cc15edd)" style="fill: none; stroke: #b0b0b0; stroke-width: 0.8; stroke-linecap: square"/>
     </g>
     <g id="line2d_14">
      <defs>
       <path id="maa154f26cc" d="M 0 0 
L -3.5 0 
" style="stroke: #000000; stroke-width: 0.8"/>
      </defs>
      <g>
       <use xlink:href="#maa154f26cc" x="35.304688" y="380.704647" style="stroke: #000000; stroke-width: 0.8"/>
      </g>
     </g>
     <g id="text_7">
      <!-- −40 -->
      <g transform="translate(7.2 384.503865) scale(0.1 -0.1)">
       <use xlink:href="#DejaVuSans-2212"/>
       <use xlink:href="#DejaVuSans-34" x="83.789062"/>
       <use xlink:href="#DejaVuSans-30" x="147.412109"/>
      </g>
     </g>
    </g>
    <g id="ytick_2">
     <g id="line2d_15">
      <path d="M 35.304688 338.26513 
L 561.554687 338.26513 
" clip-path="url(#p3e9cc15edd)" style="fill: none; stroke: #b0b0b0; stroke-width: 0.8; stroke-linecap: square"/>
     </g>
     <g id="line2d_16">
      <g>
       <use xlink:href="#maa154f26cc" x="35.304688" y="338.26513" style="stroke: #000000; stroke-width: 0.8"/>
      </g>
     </g>
     <g id="text_8">
      <!-- −30 -->
      <g transform="translate(7.2 342.064349) scale(0.1 -0.1)">
       <defs>
        <path id="DejaVuSans-33" d="M 2597 2516 
Q 3050 2419 3304 2112 
Q 3559 1806 3559 1356 
Q 3559 666 3084 287 
Q 2609 -91 1734 -91 
Q 1441 -91 1130 -33 
Q 819 25 488 141 
L 488 750 
Q 750 597 1062 519 
Q 1375 441 1716 441 
Q 2309 441 2620 675 
Q 2931 909 2931 1356 
Q 2931 1769 2642 2001 
Q 2353 2234 1838 2234 
L 1294 2234 
L 1294 2753 
L 1863 2753 
Q 2328 2753 2575 2939 
Q 2822 3125 2822 3475 
Q 2822 3834 2567 4026 
Q 2313 4219 1838 4219 
Q 1578 4219 1281 4162 
Q 984 4106 628 3988 
L 628 4550 
Q 988 4650 1302 4700 
Q 1616 4750 1894 4750 
Q 2613 4750 3031 4423 
Q 3450 4097 3450 3541 
Q 3450 3153 3228 2886 
Q 3006 2619 2597 2516 
z
" transform="scale(0.015625)"/>
       </defs>
       <use xlink:href="#DejaVuSans-2212"/>
       <use xlink:href="#DejaVuSans-33" x="83.789062"/>
       <use xlink:href="#DejaVuSans-30" x="147.412109"/>
      </g>
     </g>
    </g>
    <g id="ytick_3">
     <g id="line2d_17">
      <path d="M 35.304688 295.825614 
L 561.554687 295.825614 
" clip-path="url(#p3e9cc15edd)" style="fill: none; stroke: #b0b0b0; stroke-width: 0.8; stroke-linecap: square"/>
     </g>
     <g id="line2d_18">
      <g>
       <use xlink:href="#maa154f26cc" x="35.304688" y="295.825614" style="stroke: #000000; stroke-width: 0.8"/>
      </g>
     </g>
     <g id="text_9">
      <!-- −20 -->
      <g transform="translate(7.2 299.624833) scale(0.1 -0.1)">
       <use xlink:href="#DejaVuSans-2212"/>
       <use xlink:href="#DejaVuSans-32" x="83.789062"/>
       <use xlink:href="#DejaVuSans-30" x="147.412109"/>
      </g>
     </g>
    </g>
    <g id="ytick_4">
     <g id="line2d_19">
      <path d="M 35.304688 253.386098 
L 561.554687 253.386098 
" clip-path="url(#p3e9cc15edd)" style="fill: none; stroke: #b0b0b0; stroke-width: 0.8; stroke-linecap: square"/>
     </g>
     <g id="line2d_20">
      <g>
       <use xlink:href="#maa154f26cc" x="35.304688" y="253.386098" style="stroke: #000000; stroke-width: 0.8"/>
      </g>
     </g>
     <g id="text_10">
      <!-- −10 -->
      <g transform="translate(7.2 257.185317) scale(0.1 -0.1)">
       <defs>
        <path id="DejaVuSans-31" d="M 794 531 
L 1825 531 
L 1825 4091 
L 703 3866 
L 703 4441 
L 1819 4666 
L 2450 4666 
L 2450 531 
L 3481 531 
L 3481 0 
L 794 0 
L 794 531 
z
" transform="scale(0.015625)"/>
       </defs>
       <use xlink:href="#DejaVuSans-2212"/>
       <use xlink:href="#DejaVuSans-31" x="83.789062"/>
       <use xlink:href="#DejaVuSans-30" x="147.412109"/>
      </g>
     </g>
    </g>
    <g id="ytick_5">
     <g id="line2d_21">
      <path d="M 35.304688 210.946582 
L 561.554687 210.946582 
" clip-path="url(#p3e9cc15edd)" style="fill: none; stroke: #b0b0b0; stroke-width: 0.8; stroke-linecap: square"/>
     </g>
     <g id="line2d_22">
      <g>
       <use xlink:href="#maa154f26cc" x="35.304688" y="210.946582" style="stroke: #000000; stroke-width: 0.8"/>
      </g>
     </g>
     <g id="text_11">
      <!-- 0 -->
      <g transform="translate(21.942187 214.745801) scale(0.1 -0.1)">
       <use xlink:href="#DejaVuSans-30"/>
      </g>
     </g>
    </g>
    <g id="ytick_6">
     <g id="line2d_23">
      <path d="M 35.304688 168.507066 
L 561.554687 168.507066 
" clip-path="url(#p3e9cc15edd)" style="fill: none; stroke: #b0b0b0; stroke-width: 0.8; stroke-linecap: square"/>
     </g>
     <g id="line2d_24">
      <g>
       <use xlink:href="#maa154f26cc" x="35.304688" y="168.507066" style="stroke: #000000; stroke-width: 0.8"/>
      </g>
     </g>
     <g id="text_12">
      <!-- 10 -->
      <g transform="translate(15.579687 172.306285) scale(0.1 -0.1)">
       <use xlink:href="#DejaVuSans-31"/>
       <use xlink:href="#DejaVuSans-30" x="63.623047"/>
      </g>
     </g>
    </g>
    <g id="ytick_7">
     <g id="line2d_25">
      <path d="M 35.304688 126.06755 
L 561.554687 126.06755 
" clip-path="url(#p3e9cc15edd)" style="fill: none; stroke: #b0b0b0; stroke-width: 0.8; stroke-linecap: square"/>
     </g>
     <g id="line2d_26">
      <g>
       <use xlink:href="#maa154f26cc" x="35.304688" y="126.06755" style="stroke: #000000; stroke-width: 0.8"/>
      </g>
     </g>
     <g id="text_13">
      <!-- 20 -->
      <g transform="translate(15.579687 129.866769) scale(0.1 -0.1)">
       <use xlink:href="#DejaVuSans-32"/>
       <use xlink:href="#DejaVuSans-30" x="63.623047"/>
      </g>
     </g>
    </g>
    <g id="ytick_8">
     <g id="line2d_27">
      <path d="M 35.304688 83.628034 
L 561.554687 83.628034 
" clip-path="url(#p3e9cc15edd)" style="fill: none; stroke: #b0b0b0; stroke-width: 0.8; stroke-linecap: square"/>
     </g>
     <g id="line2d_28">
      <g>
       <use xlink:href="#maa154f26cc" x="35.304688" y="83.628034" style="stroke: #000000; stroke-width: 0.8"/>
      </g>
     </g>
     <g id="text_14">
      <!-- 30 -->
      <g transform="translate(15.579687 87.427252) scale(0.1 -0.1)">
       <use xlink:href="#DejaVuSans-33"/>
       <use xlink:href="#DejaVuSans-30" x="63.623047"/>
      </g>
     </g>
    </g>
    <g id="ytick_9">
     <g id="line2d_29">
      <path d="M 35.304688 41.188518 
L 561.554687 41.188518 
" clip-path="url(#p3e9cc15edd)" style="fill: none; stroke: #b0b0b0; stroke-width: 0.8; stroke-linecap: square"/>
     </g>
     <g id="line2d_30">
      <g>
       <use xlink:href="#maa154f26cc" x="35.304688" y="41.188518" style="stroke: #000000; stroke-width: 0.8"/>
      </g>
     </g>
     <g id="text_15">
      <!-- 40 -->
      <g transform="translate(15.579687 44.987736) scale(0.1 -0.1)">
       <use xlink:href="#DejaVuSans-34"/>
       <use xlink:href="#DejaVuSans-30" x="63.623047"/>
      </g>
     </g>
    </g>
   </g>
   <g id="line2d_31">
    <path d="M 86.232107 327.882641 
L 94.72001 281.199173 
" clip-path="url(#p3e9cc15edd)" style="fill: none; stroke: #0000ff; stroke-width: 3; stroke-linecap: square"/>
   </g>
   <g id="line2d_32">
    <path d="M 94.72001 281.199173 
L 255.990171 255.735464 
" clip-path="url(#p3e9cc15edd)" style="fill: none; stroke: #0000ff; stroke-width: 3; stroke-linecap: square"/>
   </g>
   <g id="line2d_33">
    <path d="M 255.990171 255.735464 
L 340.869204 285.443125 
" clip-path="url(#p3e9cc15edd)" style="fill: none; stroke: #0000ff; stroke-width: 3; stroke-linecap: square"/>
   </g>
   <g id="line2d_34">
    <path d="M 340.869204 285.443125 
L 353.601058 255.735464 
" clip-path="url(#p3e9cc15edd)" style="fill: none; stroke: #0000ff; stroke-width: 3; stroke-linecap: square"/>
   </g>
   <g id="line2d_35">
    <path d="M 353.601058 255.735464 
L 217.794607 192.07619 
" clip-path="url(#p3e9cc15edd)" style="fill: none; stroke: #0000ff; stroke-width: 3; stroke-linecap: square"/>
   </g>
   <g id="line2d_36">
    <path d="M 217.794607 192.07619 
L 81.988155 204.808044 
" clip-path="url(#p3e9cc15edd)" style="fill: none; stroke: #0000ff; stroke-width: 3; stroke-linecap: square"/>
   </g>
   <g id="line2d_37">
    <path d="M 81.988155 204.808044 
L 77.744204 119.929012 
" clip-path="url(#p3e9cc15edd)" style="fill: none; stroke: #0000ff; stroke-width: 3; stroke-linecap: square"/>
   </g>
   <g id="line2d_38">
    <path d="M 77.744204 119.929012 
L 158.379284 132.660867 
" clip-path="url(#p3e9cc15edd)" style="fill: none; stroke: #0000ff; stroke-width: 3; stroke-linecap: square"/>
   </g>
   <g id="line2d_39">
    <path d="M 158.379284 132.660867 
L 260.234123 64.757641 
" clip-path="url(#p3e9cc15edd)" style="fill: none; stroke: #0000ff; stroke-width: 3; stroke-linecap: square"/>
   </g>
   <g id="line2d_40">
    <path d="M 260.234123 64.757641 
L 302.673639 81.733448 
" clip-path="url(#p3e9cc15edd)" style="fill: none; stroke: #0000ff; stroke-width: 3; stroke-linecap: square"/>
   </g>
   <g id="line2d_41">
    <path d="M 302.673639 81.733448 
L 281.453881 162.368528 
" clip-path="url(#p3e9cc15edd)" style="fill: none; stroke: #0000ff; stroke-width: 3; stroke-linecap: square"/>
   </g>
   <g id="line2d_42">
    <path d="M 281.453881 162.368528 
L 451.211946 209.051996 
" clip-path="url(#p3e9cc15edd)" style="fill: none; stroke: #0000ff; stroke-width: 3; stroke-linecap: square"/>
   </g>
   <g id="line2d_43">
    <path d="M 451.211946 209.051996 
L 463.9438 132.660867 
" clip-path="url(#p3e9cc15edd)" style="fill: none; stroke: #0000ff; stroke-width: 3; stroke-linecap: square"/>
   </g>
   <g id="line2d_44">
    <path d="M 463.9438 132.660867 
L 519.115171 141.14877 
" clip-path="url(#p3e9cc15edd)" style="fill: none; stroke: #0000ff; stroke-width: 3; stroke-linecap: square"/>
   </g>
   <g id="line2d_45">
    <path d="M 569.754687 215.421874 
L 516.585737 201.637331 
" clip-path="url(#p3e9cc15edd)" style="fill: none; stroke: #bf00bf; stroke-width: 1.5; stroke-linecap: square"/>
   </g>
   <g id="line2d_46">
    <path d="M 531.80104 227.503347 
L 501.370433 175.771314 
" clip-path="url(#p3e9cc15edd)" style="fill: none; stroke: #bf00bf; stroke-width: 1.5; stroke-linecap: square"/>
   </g>
   <g id="line2d_47">
    <path d="M 531.80104 227.503347 
L 498.935984 218.982777 
" clip-path="url(#p3e9cc15edd)" style="fill: none; stroke: #bf00bf; stroke-width: 1.5; stroke-linecap: square"/>
   </g>
   <g id="line2d_48">
    <path d="M 501.370433 175.771314 
L 468.505377 167.250744 
" clip-path="url(#p3e9cc15edd)" style="fill: none; stroke: #bf00bf; stroke-width: 1.5; stroke-linecap: square"/>
   </g>
   <g id="line2d_49">
    <path d="M 519.115171 141.14877 
L 489.40751 255.735464 
" clip-path="url(#p3e9cc15edd)" style="fill: none; stroke: #0000ff; stroke-width: 3; stroke-linecap: square"/>
   </g>
   <g id="line2d_50">
    <path d="M 489.40751 255.735464 
L 438.480091 251.491512 
" clip-path="url(#p3e9cc15edd)" style="fill: none; stroke: #0000ff; stroke-width: 3; stroke-linecap: square"/>
   </g>
   <g id="line2d_51">
    <path d="M 438.480091 251.491512 
L 362.088962 340.614496 
" clip-path="url(#p3e9cc15edd)" style="fill: none; stroke: #0000ff; stroke-width: 3; stroke-linecap: square"/>
   </g>
   <g id="line2d_52">
    <path d="M 362.088962 340.614496 
L 171.111139 327.882641 
" clip-path="url(#p3e9cc15edd)" style="fill: none; stroke: #0000ff; stroke-width: 3; stroke-linecap: square"/>
   </g>
   <g id="line2d_53">
    <path d="M 171.111139 327.882641 
L 141.403478 289.687077 
" clip-path="url(#p3e9cc15edd)" style="fill: none; stroke: #0000ff; stroke-width: 3; stroke-linecap: square"/>
   </g>
   <g id="line2d_54">
    <path d="M 141.403478 289.687077 
L 128.671623 332.126593 
" clip-path="url(#p3e9cc15edd)" style="fill: none; stroke: #0000ff; stroke-width: 3; stroke-linecap: square"/>
   </g>
   <g id="line2d_55">
    <path d="M 128.671623 332.126593 
L 86.232107 327.882641 
" clip-path="url(#p3e9cc15edd)" style="fill: none; stroke: #0000ff; stroke-width: 3; stroke-linecap: square"/>
   </g>
   <g id="line2d_56">
    <path d="M 313.708572 87.895207 
L 284.00091 202.481901 
L 489.40751 255.735464 
L 519.115171 141.14877 
L 313.708572 87.895207 
" clip-path="url(#p3e9cc15edd)" style="fill: none; stroke-dasharray: 1.85,0.8; stroke-dashoffset: 0; stroke: #008000; stroke-width: 0.5"/>
   </g>
   <g id="line2d_57">
    <defs>
     <path id="mec87bf6496" d="M -2 2 
L 2 -2 
M -2 -2 
L 2 2 
" style="stroke: #ff0000"/>
    </defs>
    <g clip-path="url(#p3e9cc15edd)">
     <use xlink:href="#mec87bf6496" x="318.84765" y="95.130205" style="fill: #ff0000; stroke: #ff0000"/>
     <use xlink:href="#mec87bf6496" x="333.636925" y="98.964461" style="fill: #ff0000; stroke: #ff0000"/>
     <use xlink:href="#mec87bf6496" x="348.4262" y="102.798718" style="fill: #ff0000; stroke: #ff0000"/>
     <use xlink:href="#mec87bf6496" x="363.215475" y="106.632974" style="fill: #ff0000; stroke: #ff0000"/>
     <use xlink:href="#mec87bf6496" x="378.004751" y="110.467231" style="fill: #ff0000; stroke: #ff0000"/>
     <use xlink:href="#mec87bf6496" x="392.794026" y="114.301488" style="fill: #ff0000; stroke: #ff0000"/>
     <use xlink:href="#mec87bf6496" x="407.583301" y="118.135744" style="fill: #ff0000; stroke: #ff0000"/>
     <use xlink:href="#mec87bf6496" x="422.372576" y="121.970001" style="fill: #ff0000; stroke: #ff0000"/>
     <use xlink:href="#mec87bf6496" x="437.161851" y="125.804257" style="fill: #ff0000; stroke: #ff0000"/>
     <use xlink:href="#mec87bf6496" x="451.951127" y="129.638514" style="fill: #ff0000; stroke: #ff0000"/>
     <use xlink:href="#mec87bf6496" x="466.740402" y="133.47277" style="fill: #ff0000; stroke: #ff0000"/>
     <use xlink:href="#mec87bf6496" x="481.529677" y="137.307027" style="fill: #ff0000; stroke: #ff0000"/>
     <use xlink:href="#mec87bf6496" x="496.318952" y="141.141283" style="fill: #ff0000; stroke: #ff0000"/>
     <use xlink:href="#mec87bf6496" x="511.108227" y="144.97554" style="fill: #ff0000; stroke: #ff0000"/>
     <use xlink:href="#mec87bf6496" x="315.013393" y="109.91948" style="fill: #ff0000; stroke: #ff0000"/>
     <use xlink:href="#mec87bf6496" x="329.802669" y="113.753737" style="fill: #ff0000; stroke: #ff0000"/>
     <use xlink:href="#mec87bf6496" x="344.591944" y="117.587993" style="fill: #ff0000; stroke: #ff0000"/>
     <use xlink:href="#mec87bf6496" x="359.381219" y="121.42225" style="fill: #ff0000; stroke: #ff0000"/>
     <use xlink:href="#mec87bf6496" x="374.170494" y="125.256506" style="fill: #ff0000; stroke: #ff0000"/>
     <use xlink:href="#mec87bf6496" x="388.959769" y="129.090763" style="fill: #ff0000; stroke: #ff0000"/>
     <use xlink:href="#mec87bf6496" x="403.749045" y="132.925019" style="fill: #ff0000; stroke: #ff0000"/>
     <use xlink:href="#mec87bf6496" x="418.53832" y="136.759276" style="fill: #ff0000; stroke: #ff0000"/>
     <use xlink:href="#mec87bf6496" x="433.327595" y="140.593532" style="fill: #ff0000; stroke: #ff0000"/>
     <use xlink:href="#mec87bf6496" x="448.11687" y="144.427789" style="fill: #ff0000; stroke: #ff0000"/>
     <use xlink:href="#mec87bf6496" x="462.906145" y="148.262045" style="fill: #ff0000; stroke: #ff0000"/>
     <use xlink:href="#mec87bf6496" x="477.69542" y="152.096302" style="fill: #ff0000; stroke: #ff0000"/>
     <use xlink:href="#mec87bf6496" x="492.484696" y="155.930558" style="fill: #ff0000; stroke: #ff0000"/>
     <use xlink:href="#mec87bf6496" x="507.273971" y="159.764815" style="fill: #ff0000; stroke: #ff0000"/>
     <use xlink:href="#mec87bf6496" x="311.179137" y="124.708755" style="fill: #ff0000; stroke: #ff0000"/>
     <use xlink:href="#mec87bf6496" x="325.968412" y="128.543012" style="fill: #ff0000; stroke: #ff0000"/>
     <use xlink:href="#mec87bf6496" x="340.757687" y="132.377268" style="fill: #ff0000; stroke: #ff0000"/>
     <use xlink:href="#mec87bf6496" x="355.546962" y="136.211525" style="fill: #ff0000; stroke: #ff0000"/>
     <use xlink:href="#mec87bf6496" x="370.336238" y="140.045781" style="fill: #ff0000; stroke: #ff0000"/>
     <use xlink:href="#mec87bf6496" x="385.125513" y="143.880038" style="fill: #ff0000; stroke: #ff0000"/>
     <use xlink:href="#mec87bf6496" x="399.914788" y="147.714294" style="fill: #ff0000; stroke: #ff0000"/>
     <use xlink:href="#mec87bf6496" x="414.704063" y="151.548551" style="fill: #ff0000; stroke: #ff0000"/>
     <use xlink:href="#mec87bf6496" x="429.493338" y="155.382807" style="fill: #ff0000; stroke: #ff0000"/>
     <use xlink:href="#mec87bf6496" x="444.282614" y="159.217064" style="fill: #ff0000; stroke: #ff0000"/>
     <use xlink:href="#mec87bf6496" x="459.071889" y="163.051321" style="fill: #ff0000; stroke: #ff0000"/>
     <use xlink:href="#mec87bf6496" x="473.861164" y="166.885577" style="fill: #ff0000; stroke: #ff0000"/>
     <use xlink:href="#mec87bf6496" x="488.650439" y="170.719834" style="fill: #ff0000; stroke: #ff0000"/>
     <use xlink:href="#mec87bf6496" x="503.439714" y="174.55409" style="fill: #ff0000; stroke: #ff0000"/>
     <use xlink:href="#mec87bf6496" x="307.34488" y="139.49803" style="fill: #ff0000; stroke: #ff0000"/>
     <use xlink:href="#mec87bf6496" x="322.134156" y="143.332287" style="fill: #ff0000; stroke: #ff0000"/>
     <use xlink:href="#mec87bf6496" x="336.923431" y="147.166543" style="fill: #ff0000; stroke: #ff0000"/>
     <use xlink:href="#mec87bf6496" x="351.712706" y="151.0008" style="fill: #ff0000; stroke: #ff0000"/>
     <use xlink:href="#mec87bf6496" x="366.501981" y="154.835057" style="fill: #ff0000; stroke: #ff0000"/>
     <use xlink:href="#mec87bf6496" x="381.291256" y="158.669313" style="fill: #ff0000; stroke: #ff0000"/>
     <use xlink:href="#mec87bf6496" x="396.080531" y="162.50357" style="fill: #ff0000; stroke: #ff0000"/>
     <use xlink:href="#mec87bf6496" x="410.869807" y="166.337826" style="fill: #ff0000; stroke: #ff0000"/>
     <use xlink:href="#mec87bf6496" x="425.659082" y="170.172083" style="fill: #ff0000; stroke: #ff0000"/>
     <use xlink:href="#mec87bf6496" x="440.448357" y="174.006339" style="fill: #ff0000; stroke: #ff0000"/>
     <use xlink:href="#mec87bf6496" x="455.237632" y="177.840596" style="fill: #ff0000; stroke: #ff0000"/>
     <use xlink:href="#mec87bf6496" x="470.026907" y="181.674852" style="fill: #ff0000; stroke: #ff0000"/>
     <use xlink:href="#mec87bf6496" x="484.816183" y="185.509109" style="fill: #ff0000; stroke: #ff0000"/>
     <use xlink:href="#mec87bf6496" x="499.605458" y="189.343365" style="fill: #ff0000; stroke: #ff0000"/>
     <use xlink:href="#mec87bf6496" x="303.510624" y="154.287306" style="fill: #ff0000; stroke: #ff0000"/>
     <use xlink:href="#mec87bf6496" x="318.299899" y="158.121562" style="fill: #ff0000; stroke: #ff0000"/>
     <use xlink:href="#mec87bf6496" x="333.089174" y="161.955819" style="fill: #ff0000; stroke: #ff0000"/>
     <use xlink:href="#mec87bf6496" x="347.878449" y="165.790075" style="fill: #ff0000; stroke: #ff0000"/>
     <use xlink:href="#mec87bf6496" x="362.667725" y="169.624332" style="fill: #ff0000; stroke: #ff0000"/>
     <use xlink:href="#mec87bf6496" x="377.457" y="173.458588" style="fill: #ff0000; stroke: #ff0000"/>
     <use xlink:href="#mec87bf6496" x="392.246275" y="177.292845" style="fill: #ff0000; stroke: #ff0000"/>
     <use xlink:href="#mec87bf6496" x="407.03555" y="181.127101" style="fill: #ff0000; stroke: #ff0000"/>
     <use xlink:href="#mec87bf6496" x="421.824825" y="184.961358" style="fill: #ff0000; stroke: #ff0000"/>
     <use xlink:href="#mec87bf6496" x="436.614101" y="188.795614" style="fill: #ff0000; stroke: #ff0000"/>
     <use xlink:href="#mec87bf6496" x="451.403376" y="192.629871" style="fill: #ff0000; stroke: #ff0000"/>
     <use xlink:href="#mec87bf6496" x="466.192651" y="196.464127" style="fill: #ff0000; stroke: #ff0000"/>
     <use xlink:href="#mec87bf6496" x="480.981926" y="200.298384" style="fill: #ff0000; stroke: #ff0000"/>
     <use xlink:href="#mec87bf6496" x="495.771201" y="204.132641" style="fill: #ff0000; stroke: #ff0000"/>
     <use xlink:href="#mec87bf6496" x="299.676367" y="169.076581" style="fill: #ff0000; stroke: #ff0000"/>
     <use xlink:href="#mec87bf6496" x="314.465642" y="172.910837" style="fill: #ff0000; stroke: #ff0000"/>
     <use xlink:href="#mec87bf6496" x="329.254918" y="176.745094" style="fill: #ff0000; stroke: #ff0000"/>
     <use xlink:href="#mec87bf6496" x="344.044193" y="180.57935" style="fill: #ff0000; stroke: #ff0000"/>
     <use xlink:href="#mec87bf6496" x="358.833468" y="184.413607" style="fill: #ff0000; stroke: #ff0000"/>
     <use xlink:href="#mec87bf6496" x="373.622743" y="188.247863" style="fill: #ff0000; stroke: #ff0000"/>
     <use xlink:href="#mec87bf6496" x="388.412018" y="192.08212" style="fill: #ff0000; stroke: #ff0000"/>
     <use xlink:href="#mec87bf6496" x="403.201294" y="195.916377" style="fill: #ff0000; stroke: #ff0000"/>
     <use xlink:href="#mec87bf6496" x="417.990569" y="199.750633" style="fill: #ff0000; stroke: #ff0000"/>
     <use xlink:href="#mec87bf6496" x="432.779844" y="203.58489" style="fill: #ff0000; stroke: #ff0000"/>
     <use xlink:href="#mec87bf6496" x="447.569119" y="207.419146" style="fill: #ff0000; stroke: #ff0000"/>
     <use xlink:href="#mec87bf6496" x="462.358394" y="211.253403" style="fill: #ff0000; stroke: #ff0000"/>
     <use xlink:href="#mec87bf6496" x="477.14767" y="215.087659" style="fill: #ff0000; stroke: #ff0000"/>
     <use xlink:href="#mec87bf6496" x="491.936945" y="218.921916" style="fill: #ff0000; stroke: #ff0000"/>
     <use xlink:href="#mec87bf6496" x="295.842111" y="183.865856" style="fill: #ff0000; stroke: #ff0000"/>
     <use xlink:href="#mec87bf6496" x="310.631386" y="187.700113" style="fill: #ff0000; stroke: #ff0000"/>
     <use xlink:href="#mec87bf6496" x="325.420661" y="191.534369" style="fill: #ff0000; stroke: #ff0000"/>
     <use xlink:href="#mec87bf6496" x="340.209936" y="195.368626" style="fill: #ff0000; stroke: #ff0000"/>
     <use xlink:href="#mec87bf6496" x="354.999211" y="199.202882" style="fill: #ff0000; stroke: #ff0000"/>
     <use xlink:href="#mec87bf6496" x="369.788487" y="203.037139" style="fill: #ff0000; stroke: #ff0000"/>
     <use xlink:href="#mec87bf6496" x="384.577762" y="206.871395" style="fill: #ff0000; stroke: #ff0000"/>
     <use xlink:href="#mec87bf6496" x="399.367037" y="210.705652" style="fill: #ff0000; stroke: #ff0000"/>
     <use xlink:href="#mec87bf6496" x="414.156312" y="214.539908" style="fill: #ff0000; stroke: #ff0000"/>
     <use xlink:href="#mec87bf6496" x="428.945587" y="218.374165" style="fill: #ff0000; stroke: #ff0000"/>
     <use xlink:href="#mec87bf6496" x="443.734863" y="222.208421" style="fill: #ff0000; stroke: #ff0000"/>
     <use xlink:href="#mec87bf6496" x="458.524138" y="226.042678" style="fill: #ff0000; stroke: #ff0000"/>
     <use xlink:href="#mec87bf6496" x="473.313413" y="229.876934" style="fill: #ff0000; stroke: #ff0000"/>
     <use xlink:href="#mec87bf6496" x="488.102688" y="233.711191" style="fill: #ff0000; stroke: #ff0000"/>
     <use xlink:href="#mec87bf6496" x="292.007854" y="198.655131" style="fill: #ff0000; stroke: #ff0000"/>
     <use xlink:href="#mec87bf6496" x="306.797129" y="202.489388" style="fill: #ff0000; stroke: #ff0000"/>
     <use xlink:href="#mec87bf6496" x="321.586405" y="206.323644" style="fill: #ff0000; stroke: #ff0000"/>
     <use xlink:href="#mec87bf6496" x="336.37568" y="210.157901" style="fill: #ff0000; stroke: #ff0000"/>
     <use xlink:href="#mec87bf6496" x="351.164955" y="213.992157" style="fill: #ff0000; stroke: #ff0000"/>
     <use xlink:href="#mec87bf6496" x="365.95423" y="217.826414" style="fill: #ff0000; stroke: #ff0000"/>
     <use xlink:href="#mec87bf6496" x="380.743505" y="221.66067" style="fill: #ff0000; stroke: #ff0000"/>
     <use xlink:href="#mec87bf6496" x="395.532781" y="225.494927" style="fill: #ff0000; stroke: #ff0000"/>
     <use xlink:href="#mec87bf6496" x="410.322056" y="229.329183" style="fill: #ff0000; stroke: #ff0000"/>
     <use xlink:href="#mec87bf6496" x="425.111331" y="233.16344" style="fill: #ff0000; stroke: #ff0000"/>
     <use xlink:href="#mec87bf6496" x="439.900606" y="236.997696" style="fill: #ff0000; stroke: #ff0000"/>
     <use xlink:href="#mec87bf6496" x="454.689881" y="240.831953" style="fill: #ff0000; stroke: #ff0000"/>
     <use xlink:href="#mec87bf6496" x="469.479156" y="244.66621" style="fill: #ff0000; stroke: #ff0000"/>
     <use xlink:href="#mec87bf6496" x="484.268432" y="248.500466" style="fill: #ff0000; stroke: #ff0000"/>
    </g>
   </g>
   <g id="patch_3">
    <path d="M 35.304688 383.054012 
L 35.304688 22.318125 
" style="fill: none; stroke: #000000; stroke-width: 0.8; stroke-linejoin: miter; stroke-linecap: square"/>
   </g>
   <g id="patch_4">
    <path d="M 561.554687 383.054012 
L 561.554687 22.318125 
" style="fill: none; stroke: #000000; stroke-width: 0.8; stroke-linejoin: miter; stroke-linecap: square"/>
   </g>
   <g id="patch_5">
    <path d="M 35.304687 383.054012 
L 561.554687 383.054012 
" style="fill: none; stroke: #000000; stroke-width: 0.8; stroke-linejoin: miter; stroke-linecap: square"/>
   </g>
   <g id="patch_6">
    <path d="M 35.304687 22.318125 
L 561.554687 22.318125 
" style="fill: none; stroke: #000000; stroke-width: 0.8; stroke-linejoin: miter; stroke-linecap: square"/>
   </g>
   <g id="text_16">
    <!-- TCP Box and Test Grid Points for Edges 15/21 -->
    <g transform="translate(163.422187 16.318125) scale(0.12 -0.12)">
     <defs>
      <path id="DejaVuSans-54" d="M -19 4666 
L 3928 4666 
L 3928 4134 
L 2272 4134 
L 2272 0 
L 1638 0 
L 1638 4134 
L -19 4134 
L -19 4666 
z
" transform="scale(0.015625)"/>
      <path id="DejaVuSans-43" d="M 4122 4306 
L 4122 3641 
Q 3803 3938 3442 4084 
Q 3081 4231 2675 4231 
Q 1875 4231 1450 3742 
Q 1025 3253 1025 2328 
Q 1025 1406 1450 917 
Q 1875 428 2675 428 
Q 3081 428 3442 575 
Q 3803 722 4122 1019 
L 4122 359 
Q 3791 134 3420 21 
Q 3050 -91 2638 -91 
Q 1578 -91 968 557 
Q 359 1206 359 2328 
Q 359 3453 968 4101 
Q 1578 4750 2638 4750 
Q 3056 4750 3426 4639 
Q 3797 4528 4122 4306 
z
" transform="scale(0.015625)"/>
      <path id="DejaVuSans-50" d="M 1259 4147 
L 1259 2394 
L 2053 2394 
Q 2494 2394 2734 2622 
Q 2975 2850 2975 3272 
Q 2975 3691 2734 3919 
Q 2494 4147 2053 4147 
L 1259 4147 
z
M 628 4666 
L 2053 4666 
Q 2838 4666 3239 4311 
Q 3641 3956 3641 3272 
Q 3641 2581 3239 2228 
Q 2838 1875 2053 1875 
L 1259 1875 
L 1259 0 
L 628 0 
L 628 4666 
z
" transform="scale(0.015625)"/>
      <path id="DejaVuSans-20" transform="scale(0.015625)"/>
      <path id="DejaVuSans-42" d="M 1259 2228 
L 1259 519 
L 2272 519 
Q 2781 519 3026 730 
Q 3272 941 3272 1375 
Q 3272 1813 3026 2020 
Q 2781 2228 2272 2228 
L 1259 2228 
z
M 1259 4147 
L 1259 2741 
L 2194 2741 
Q 2656 2741 2882 2914 
Q 3109 3088 3109 3444 
Q 3109 3797 2882 3972 
Q 2656 4147 2194 4147 
L 1259 4147 
z
M 628 4666 
L 2241 4666 
Q 2963 4666 3353 4366 
Q 3744 4066 3744 3513 
Q 3744 3084 3544 2831 
Q 3344 2578 2956 2516 
Q 3422 2416 3680 2098 
Q 3938 1781 3938 1306 
Q 3938 681 3513 340 
Q 3088 0 2303 0 
L 628 0 
L 628 4666 
z
" transform="scale(0.015625)"/>
      <path id="DejaVuSans-6f" d="M 1959 3097 
Q 1497 3097 1228 2736 
Q 959 2375 959 1747 
Q 959 1119 1226 758 
Q 1494 397 1959 397 
Q 2419 397 2687 759 
Q 2956 1122 2956 1747 
Q 2956 2369 2687 2733 
Q 2419 3097 1959 3097 
z
M 1959 3584 
Q 2709 3584 3137 3096 
Q 3566 2609 3566 1747 
Q 3566 888 3137 398 
Q 2709 -91 1959 -91 
Q 1206 -91 779 398 
Q 353 888 353 1747 
Q 353 2609 779 3096 
Q 1206 3584 1959 3584 
z
" transform="scale(0.015625)"/>
      <path id="DejaVuSans-78" d="M 3513 3500 
L 2247 1797 
L 3578 0 
L 2900 0 
L 1881 1375 
L 863 0 
L 184 0 
L 1544 1831 
L 300 3500 
L 978 3500 
L 1906 2253 
L 2834 3500 
L 3513 3500 
z
" transform="scale(0.015625)"/>
      <path id="DejaVuSans-61" d="M 2194 1759 
Q 1497 1759 1228 1600 
Q 959 1441 959 1056 
Q 959 750 1161 570 
Q 1363 391 1709 391 
Q 2188 391 2477 730 
Q 2766 1069 2766 1631 
L 2766 1759 
L 2194 1759 
z
M 3341 1997 
L 3341 0 
L 2766 0 
L 2766 531 
Q 2569 213 2275 61 
Q 1981 -91 1556 -91 
Q 1019 -91 701 211 
Q 384 513 384 1019 
Q 384 1609 779 1909 
Q 1175 2209 1959 2209 
L 2766 2209 
L 2766 2266 
Q 2766 2663 2505 2880 
Q 2244 3097 1772 3097 
Q 1472 3097 1187 3025 
Q 903 2953 641 2809 
L 641 3341 
Q 956 3463 1253 3523 
Q 1550 3584 1831 3584 
Q 2591 3584 2966 3190 
Q 3341 2797 3341 1997 
z
" transform="scale(0.015625)"/>
      <path id="DejaVuSans-6e" d="M 3513 2113 
L 3513 0 
L 2938 0 
L 2938 2094 
Q 2938 2591 2744 2837 
Q 2550 3084 2163 3084 
Q 1697 3084 1428 2787 
Q 1159 2491 1159 1978 
L 1159 0 
L 581 0 
L 581 3500 
L 1159 3500 
L 1159 2956 
Q 1366 3272 1645 3428 
Q 1925 3584 2291 3584 
Q 2894 3584 3203 3211 
Q 3513 2838 3513 2113 
z
" transform="scale(0.015625)"/>
      <path id="DejaVuSans-64" d="M 2906 2969 
L 2906 4863 
L 3481 4863 
L 3481 0 
L 2906 0 
L 2906 525 
Q 2725 213 2448 61 
Q 2172 -91 1784 -91 
Q 1150 -91 751 415 
Q 353 922 353 1747 
Q 353 2572 751 3078 
Q 1150 3584 1784 3584 
Q 2172 3584 2448 3432 
Q 2725 3281 2906 2969 
z
M 947 1747 
Q 947 1113 1208 752 
Q 1469 391 1925 391 
Q 2381 391 2643 752 
Q 2906 1113 2906 1747 
Q 2906 2381 2643 2742 
Q 2381 3103 1925 3103 
Q 1469 3103 1208 2742 
Q 947 2381 947 1747 
z
" transform="scale(0.015625)"/>
      <path id="DejaVuSans-65" d="M 3597 1894 
L 3597 1613 
L 953 1613 
Q 991 1019 1311 708 
Q 1631 397 2203 397 
Q 2534 397 2845 478 
Q 3156 559 3463 722 
L 3463 178 
Q 3153 47 2828 -22 
Q 2503 -91 2169 -91 
Q 1331 -91 842 396 
Q 353 884 353 1716 
Q 353 2575 817 3079 
Q 1281 3584 2069 3584 
Q 2775 3584 3186 3129 
Q 3597 2675 3597 1894 
z
M 3022 2063 
Q 3016 2534 2758 2815 
Q 2500 3097 2075 3097 
Q 1594 3097 1305 2825 
Q 1016 2553 972 2059 
L 3022 2063 
z
" transform="scale(0.015625)"/>
      <path id="DejaVuSans-73" d="M 2834 3397 
L 2834 2853 
Q 2591 2978 2328 3040 
Q 2066 3103 1784 3103 
Q 1356 3103 1142 2972 
Q 928 2841 928 2578 
Q 928 2378 1081 2264 
Q 1234 2150 1697 2047 
L 1894 2003 
Q 2506 1872 2764 1633 
Q 3022 1394 3022 966 
Q 3022 478 2636 193 
Q 2250 -91 1575 -91 
Q 1294 -91 989 -36 
Q 684 19 347 128 
L 347 722 
Q 666 556 975 473 
Q 1284 391 1588 391 
Q 1994 391 2212 530 
Q 2431 669 2431 922 
Q 2431 1156 2273 1281 
Q 2116 1406 1581 1522 
L 1381 1569 
Q 847 1681 609 1914 
Q 372 2147 372 2553 
Q 372 3047 722 3315 
Q 1072 3584 1716 3584 
Q 2034 3584 2315 3537 
Q 2597 3491 2834 3397 
z
" transform="scale(0.015625)"/>
      <path id="DejaVuSans-74" d="M 1172 4494 
L 1172 3500 
L 2356 3500 
L 2356 3053 
L 1172 3053 
L 1172 1153 
Q 1172 725 1289 603 
Q 1406 481 1766 481 
L 2356 481 
L 2356 0 
L 1766 0 
Q 1100 0 847 248 
Q 594 497 594 1153 
L 594 3053 
L 172 3053 
L 172 3500 
L 594 3500 
L 594 4494 
L 1172 4494 
z
" transform="scale(0.015625)"/>
      <path id="DejaVuSans-47" d="M 3809 666 
L 3809 1919 
L 2778 1919 
L 2778 2438 
L 4434 2438 
L 4434 434 
Q 4069 175 3628 42 
Q 3188 -91 2688 -91 
Q 1594 -91 976 548 
Q 359 1188 359 2328 
Q 359 3472 976 4111 
Q 1594 4750 2688 4750 
Q 3144 4750 3555 4637 
Q 3966 4525 4313 4306 
L 4313 3634 
Q 3963 3931 3569 4081 
Q 3175 4231 2741 4231 
Q 1884 4231 1454 3753 
Q 1025 3275 1025 2328 
Q 1025 1384 1454 906 
Q 1884 428 2741 428 
Q 3075 428 3337 486 
Q 3600 544 3809 666 
z
" transform="scale(0.015625)"/>
      <path id="DejaVuSans-72" d="M 2631 2963 
Q 2534 3019 2420 3045 
Q 2306 3072 2169 3072 
Q 1681 3072 1420 2755 
Q 1159 2438 1159 1844 
L 1159 0 
L 581 0 
L 581 3500 
L 1159 3500 
L 1159 2956 
Q 1341 3275 1631 3429 
Q 1922 3584 2338 3584 
Q 2397 3584 2469 3576 
Q 2541 3569 2628 3553 
L 2631 2963 
z
" transform="scale(0.015625)"/>
      <path id="DejaVuSans-69" d="M 603 3500 
L 1178 3500 
L 1178 0 
L 603 0 
L 603 3500 
z
M 603 4863 
L 1178 4863 
L 1178 4134 
L 603 4134 
L 603 4863 
z
" transform="scale(0.015625)"/>
      <path id="DejaVuSans-66" d="M 2375 4863 
L 2375 4384 
L 1825 4384 
Q 1516 4384 1395 4259 
Q 1275 4134 1275 3809 
L 1275 3500 
L 2222 3500 
L 2222 3053 
L 1275 3053 
L 1275 0 
L 697 0 
L 697 3053 
L 147 3053 
L 147 3500 
L 697 3500 
L 697 3744 
Q 697 4328 969 4595 
Q 1241 4863 1831 4863 
L 2375 4863 
z
" transform="scale(0.015625)"/>
      <path id="DejaVuSans-45" d="M 628 4666 
L 3578 4666 
L 3578 4134 
L 1259 4134 
L 1259 2753 
L 3481 2753 
L 3481 2222 
L 1259 2222 
L 1259 531 
L 3634 531 
L 3634 0 
L 628 0 
L 628 4666 
z
" transform="scale(0.015625)"/>
      <path id="DejaVuSans-67" d="M 2906 1791 
Q 2906 2416 2648 2759 
Q 2391 3103 1925 3103 
Q 1463 3103 1205 2759 
Q 947 2416 947 1791 
Q 947 1169 1205 825 
Q 1463 481 1925 481 
Q 2391 481 2648 825 
Q 2906 1169 2906 1791 
z
M 3481 434 
Q 3481 -459 3084 -895 
Q 2688 -1331 1869 -1331 
Q 1566 -1331 1297 -1286 
Q 1028 -1241 775 -1147 
L 775 -588 
Q 1028 -725 1275 -790 
Q 1522 -856 1778 -856 
Q 2344 -856 2625 -561 
Q 2906 -266 2906 331 
L 2906 616 
Q 2728 306 2450 153 
Q 2172 0 1784 0 
Q 1141 0 747 490 
Q 353 981 353 1791 
Q 353 2603 747 3093 
Q 1141 3584 1784 3584 
Q 2172 3584 2450 3431 
Q 2728 3278 2906 2969 
L 2906 3500 
L 3481 3500 
L 3481 434 
z
" transform="scale(0.015625)"/>
      <path id="DejaVuSans-35" d="M 691 4666 
L 3169 4666 
L 3169 4134 
L 1269 4134 
L 1269 2991 
Q 1406 3038 1543 3061 
Q 1681 3084 1819 3084 
Q 2600 3084 3056 2656 
Q 3513 2228 3513 1497 
Q 3513 744 3044 326 
Q 2575 -91 1722 -91 
Q 1428 -91 1123 -41 
Q 819 9 494 109 
L 494 744 
Q 775 591 1075 516 
Q 1375 441 1709 441 
Q 2250 441 2565 725 
Q 2881 1009 2881 1497 
Q 2881 1984 2565 2268 
Q 2250 2553 1709 2553 
Q 1456 2553 1204 2497 
Q 953 2441 691 2322 
L 691 4666 
z
" transform="scale(0.015625)"/>
      <path id="DejaVuSans-2f" d="M 1625 4666 
L 2156 4666 
L 531 -594 
L 0 -594 
L 1625 4666 
z
" transform="scale(0.015625)"/>
     </defs>
     <use xlink:href="#DejaVuSans-54"/>
     <use xlink:href="#DejaVuSans-43" x="55.208984"/>
     <use xlink:href="#DejaVuSans-50" x="125.033203"/>
     <use xlink:href="#DejaVuSans-20" x="185.335938"/>
     <use xlink:href="#DejaVuSans-42" x="217.123047"/>
     <use xlink:href="#DejaVuSans-6f" x="285.726562"/>
     <use xlink:href="#DejaVuSans-78" x="343.783203"/>
     <use xlink:href="#DejaVuSans-20" x="402.962891"/>
     <use xlink:href="#DejaVuSans-61" x="434.75"/>
     <use xlink:href="#DejaVuSans-6e" x="496.029297"/>
     <use xlink:href="#DejaVuSans-64" x="559.408203"/>
     <use xlink:href="#DejaVuSans-20" x="622.884766"/>
     <use xlink:href="#DejaVuSans-54" x="654.671875"/>
     <use xlink:href="#DejaVuSans-65" x="698.755859"/>
     <use xlink:href="#DejaVuSans-73" x="760.279297"/>
     <use xlink:href="#DejaVuSans-74" x="812.378906"/>
     <use xlink:href="#DejaVuSans-20" x="851.587891"/>
     <use xlink:href="#DejaVuSans-47" x="883.375"/>
     <use xlink:href="#DejaVuSans-72" x="960.865234"/>
     <use xlink:href="#DejaVuSans-69" x="1001.978516"/>
     <use xlink:href="#DejaVuSans-64" x="1029.761719"/>
     <use xlink:href="#DejaVuSans-20" x="1093.238281"/>
     <use xlink:href="#DejaVuSans-50" x="1125.025391"/>
     <use xlink:href="#DejaVuSans-6f" x="1181.703125"/>
     <use xlink:href="#DejaVuSans-69" x="1242.884766"/>
     <use xlink:href="#DejaVuSans-6e" x="1270.667969"/>
     <use xlink:href="#DejaVuSans-74" x="1334.046875"/>
     <use xlink:href="#DejaVuSans-73" x="1373.255859"/>
     <use xlink:href="#DejaVuSans-20" x="1425.355469"/>
     <use xlink:href="#DejaVuSans-66" x="1457.142578"/>
     <use xlink:href="#DejaVuSans-6f" x="1492.347656"/>
     <use xlink:href="#DejaVuSans-72" x="1553.529297"/>
     <use xlink:href="#DejaVuSans-20" x="1594.642578"/>
     <use xlink:href="#DejaVuSans-45" x="1626.429688"/>
     <use xlink:href="#DejaVuSans-64" x="1689.613281"/>
     <use xlink:href="#DejaVuSans-67" x="1753.089844"/>
     <use xlink:href="#DejaVuSans-65" x="1816.566406"/>
     <use xlink:href="#DejaVuSans-73" x="1878.089844"/>
     <use xlink:href="#DejaVuSans-20" x="1930.189453"/>
     <use xlink:href="#DejaVuSans-31" x="1961.976562"/>
     <use xlink:href="#DejaVuSans-35" x="2025.599609"/>
     <use xlink:href="#DejaVuSans-2f" x="2089.222656"/>
     <use xlink:href="#DejaVuSans-32" x="2122.914062"/>
     <use xlink:href="#DejaVuSans-31" x="2186.537109"/>
    </g>
   </g>
   <g id="legend_1">
    <g id="patch_7">
     <path d="M 436.607812 89.030625 
L 554.554687 89.030625 
Q 556.554687 89.030625 556.554687 87.030625 
L 556.554687 29.318125 
Q 556.554687 27.318125 554.554687 27.318125 
L 436.607812 27.318125 
Q 434.607812 27.318125 434.607812 29.318125 
L 434.607812 87.030625 
Q 434.607812 89.030625 436.607812 89.030625 
z
" style="fill: #ffffff; opacity: 0.8; stroke: #cccccc; stroke-linejoin: miter"/>
    </g>
    <g id="line2d_58">
     <path d="M 438.607812 35.416562 
L 448.607812 35.416562 
L 458.607812 35.416562 
" style="fill: none; stroke: #0000ff; stroke-width: 3; stroke-linecap: square"/>
    </g>
    <g id="text_17">
     <!-- Edges of Plane2 -->
     <g transform="translate(466.607812 38.916562) scale(0.1 -0.1)">
      <defs>
       <path id="DejaVuSans-6c" d="M 603 4863 
L 1178 4863 
L 1178 0 
L 603 0 
L 603 4863 
z
" transform="scale(0.015625)"/>
      </defs>
      <use xlink:href="#DejaVuSans-45"/>
      <use xlink:href="#DejaVuSans-64" x="63.183594"/>
      <use xlink:href="#DejaVuSans-67" x="126.660156"/>
      <use xlink:href="#DejaVuSans-65" x="190.136719"/>
      <use xlink:href="#DejaVuSans-73" x="251.660156"/>
      <use xlink:href="#DejaVuSans-20" x="303.759766"/>
      <use xlink:href="#DejaVuSans-6f" x="335.546875"/>
      <use xlink:href="#DejaVuSans-66" x="396.728516"/>
      <use xlink:href="#DejaVuSans-20" x="431.933594"/>
      <use xlink:href="#DejaVuSans-50" x="463.720703"/>
      <use xlink:href="#DejaVuSans-6c" x="524.023438"/>
      <use xlink:href="#DejaVuSans-61" x="551.806641"/>
      <use xlink:href="#DejaVuSans-6e" x="613.085938"/>
      <use xlink:href="#DejaVuSans-65" x="676.464844"/>
      <use xlink:href="#DejaVuSans-32" x="737.988281"/>
     </g>
    </g>
    <g id="line2d_59">
     <path d="M 438.607812 50.094687 
L 448.607812 50.094687 
L 458.607812 50.094687 
" style="fill: none; stroke: #bf00bf; stroke-width: 1.5; stroke-linecap: square"/>
    </g>
    <g id="text_18">
     <!-- Gripper Direction -->
     <g transform="translate(466.607812 53.594687) scale(0.1 -0.1)">
      <defs>
       <path id="DejaVuSans-70" d="M 1159 525 
L 1159 -1331 
L 581 -1331 
L 581 3500 
L 1159 3500 
L 1159 2969 
Q 1341 3281 1617 3432 
Q 1894 3584 2278 3584 
Q 2916 3584 3314 3078 
Q 3713 2572 3713 1747 
Q 3713 922 3314 415 
Q 2916 -91 2278 -91 
Q 1894 -91 1617 61 
Q 1341 213 1159 525 
z
M 3116 1747 
Q 3116 2381 2855 2742 
Q 2594 3103 2138 3103 
Q 1681 3103 1420 2742 
Q 1159 2381 1159 1747 
Q 1159 1113 1420 752 
Q 1681 391 2138 391 
Q 2594 391 2855 752 
Q 3116 1113 3116 1747 
z
" transform="scale(0.015625)"/>
       <path id="DejaVuSans-44" d="M 1259 4147 
L 1259 519 
L 2022 519 
Q 2988 519 3436 956 
Q 3884 1394 3884 2338 
Q 3884 3275 3436 3711 
Q 2988 4147 2022 4147 
L 1259 4147 
z
M 628 4666 
L 1925 4666 
Q 3281 4666 3915 4102 
Q 4550 3538 4550 2338 
Q 4550 1131 3912 565 
Q 3275 0 1925 0 
L 628 0 
L 628 4666 
z
" transform="scale(0.015625)"/>
       <path id="DejaVuSans-63" d="M 3122 3366 
L 3122 2828 
Q 2878 2963 2633 3030 
Q 2388 3097 2138 3097 
Q 1578 3097 1268 2742 
Q 959 2388 959 1747 
Q 959 1106 1268 751 
Q 1578 397 2138 397 
Q 2388 397 2633 464 
Q 2878 531 3122 666 
L 3122 134 
Q 2881 22 2623 -34 
Q 2366 -91 2075 -91 
Q 1284 -91 818 406 
Q 353 903 353 1747 
Q 353 2603 823 3093 
Q 1294 3584 2113 3584 
Q 2378 3584 2631 3529 
Q 2884 3475 3122 3366 
z
" transform="scale(0.015625)"/>
      </defs>
      <use xlink:href="#DejaVuSans-47"/>
      <use xlink:href="#DejaVuSans-72" x="77.490234"/>
      <use xlink:href="#DejaVuSans-69" x="118.603516"/>
      <use xlink:href="#DejaVuSans-70" x="146.386719"/>
      <use xlink:href="#DejaVuSans-70" x="209.863281"/>
      <use xlink:href="#DejaVuSans-65" x="273.339844"/>
      <use xlink:href="#DejaVuSans-72" x="334.863281"/>
      <use xlink:href="#DejaVuSans-20" x="375.976562"/>
      <use xlink:href="#DejaVuSans-44" x="407.763672"/>
      <use xlink:href="#DejaVuSans-69" x="484.765625"/>
      <use xlink:href="#DejaVuSans-72" x="512.548828"/>
      <use xlink:href="#DejaVuSans-65" x="551.412109"/>
      <use xlink:href="#DejaVuSans-63" x="612.935547"/>
      <use xlink:href="#DejaVuSans-74" x="667.916016"/>
      <use xlink:href="#DejaVuSans-69" x="707.125"/>
      <use xlink:href="#DejaVuSans-6f" x="734.908203"/>
      <use xlink:href="#DejaVuSans-6e" x="796.089844"/>
     </g>
    </g>
    <g id="line2d_60">
     <path d="M 438.607812 64.772812 
L 448.607812 64.772812 
L 458.607812 64.772812 
" style="fill: none; stroke-dasharray: 1.85,0.8; stroke-dashoffset: 0; stroke: #008000; stroke-width: 0.5"/>
    </g>
    <g id="text_19">
     <!-- TCP Box -->
     <g transform="translate(466.607812 68.272812) scale(0.1 -0.1)">
      <use xlink:href="#DejaVuSans-54"/>
      <use xlink:href="#DejaVuSans-43" x="55.208984"/>
      <use xlink:href="#DejaVuSans-50" x="125.033203"/>
      <use xlink:href="#DejaVuSans-20" x="185.335938"/>
      <use xlink:href="#DejaVuSans-42" x="217.123047"/>
      <use xlink:href="#DejaVuSans-6f" x="285.726562"/>
      <use xlink:href="#DejaVuSans-78" x="343.783203"/>
     </g>
    </g>
    <g id="line2d_61">
     <g>
      <use xlink:href="#mec87bf6496" x="448.607812" y="79.450937" style="fill: #ff0000; stroke: #ff0000"/>
     </g>
    </g>
    <g id="text_20">
     <!-- Test Grid Points -->
     <g transform="translate(466.607812 82.950937) scale(0.1 -0.1)">
      <use xlink:href="#DejaVuSans-54"/>
      <use xlink:href="#DejaVuSans-65" x="44.083984"/>
      <use xlink:href="#DejaVuSans-73" x="105.607422"/>
      <use xlink:href="#DejaVuSans-74" x="157.707031"/>
      <use xlink:href="#DejaVuSans-20" x="196.916016"/>
      <use xlink:href="#DejaVuSans-47" x="228.703125"/>
      <use xlink:href="#DejaVuSans-72" x="306.193359"/>
      <use xlink:href="#DejaVuSans-69" x="347.306641"/>
      <use xlink:href="#DejaVuSans-64" x="375.089844"/>
      <use xlink:href="#DejaVuSans-20" x="438.566406"/>
      <use xlink:href="#DejaVuSans-50" x="470.353516"/>
      <use xlink:href="#DejaVuSans-6f" x="527.03125"/>
      <use xlink:href="#DejaVuSans-69" x="588.212891"/>
      <use xlink:href="#DejaVuSans-6e" x="615.996094"/>
      <use xlink:href="#DejaVuSans-74" x="679.375"/>
      <use xlink:href="#DejaVuSans-73" x="718.583984"/>
     </g>
    </g>
   </g>
  </g>
 </g>
 <defs>
  <clipPath id="p3e9cc15edd">
   <rect x="35.304688" y="22.318125" width="526.25" height="360.735887"/>
  </clipPath>
 </defs>
</svg>
