<?xml version="1.0" encoding="utf-8" standalone="no"?>
<!DOCTYPE svg PUBLIC "-//W3C//DTD SVG 1.1//EN"
  "http://www.w3.org/Graphics/SVG/1.1/DTD/svg11.dtd">
<svg xmlns:xlink="http://www.w3.org/1999/xlink" width="568.754687pt" height="397.029583pt" viewBox="0 0 568.754687 397.029583" xmlns="http://www.w3.org/2000/svg" version="1.1">
 <metadata>
  <rdf:RDF xmlns:dc="http://purl.org/dc/elements/1.1/" xmlns:cc="http://creativecommons.org/ns#" xmlns:rdf="http://www.w3.org/1999/02/22-rdf-syntax-ns#">
   <cc:Work>
    <dc:type rdf:resource="http://purl.org/dc/dcmitype/StillImage"/>
    <dc:date>2025-11-14T08:22:27.804598</dc:date>
    <dc:format>image/svg+xml</dc:format>
    <dc:creator>
     <cc:Agent>
      <dc:title>Matplotlib v3.9.4, https://matplotlib.org/</dc:title>
     </cc:Agent>
    </dc:creator>
   </cc:Work>
  </rdf:RDF>
 </metadata>
 <defs>
  <style type="text/css">*{stroke-linejoin: round; stroke-linecap: butt}</style>
 </defs>
 <g id="figure_1">
  <g id="patch_1">
   <path d="M 0 397.029583 
L 568.754687 397.029583 
L 568.754687 0 
L 0 0 
z
" style="fill: #ffffff"/>
  </g>
  <g id="axes_1">
   <g id="patch_2">
    <path d="M 35.304688 373.151458 
L 561.554687 373.151458 
L 561.554687 22.318125 
L 35.304688 22.318125 
z
" style="fill: #ffffff"/>
   </g>
   <g id="matplotlib.axis_1">
    <g id="xtick_1">
     <g id="line2d_1">
      <path d="M 108.21363 373.151458 
L 108.21363 22.318125 
" clip-path="url(#p1e096b407f)" style="fill: none; stroke: #b0b0b0; stroke-width: 0.8; stroke-linecap: square"/>
     </g>
     <g id="line2d_2">
      <defs>
       <path id="m442fdb99a4" d="M 0 0 
L 0 3.5 
" style="stroke: #000000; stroke-width: 0.8"/>
      </defs>
      <g>
       <use xlink:href="#m442fdb99a4" x="108.21363" y="373.151458" style="stroke: #000000; stroke-width: 0.8"/>
      </g>
     </g>
     <g id="text_1">
      <!-- −40 -->
      <g transform="translate(97.661286 387.749896) scale(0.1 -0.1)">
       <defs>
        <path id="DejaVuSans-2212" d="M 678 2272 
L 4684 2272 
L 4684 1741 
L 678 1741 
L 678 2272 
z
" transform="scale(0.015625)"/>
        <path id="DejaVuSans-34" d="M 2419 4116 
L 825 1625 
L 2419 1625 
L 2419 4116 
z
M 2253 4666 
L 3047 4666 
L 3047 1625 
L 3713 1625 
L 3713 1100 
L 3047 1100 
L 3047 0 
L 2419 0 
L 2419 1100 
L 313 1100 
L 313 1709 
L 2253 4666 
z
" transform="scale(0.015625)"/>
        <path id="DejaVuSans-30" d="M 2034 4250 
Q 1547 4250 1301 3770 
Q 1056 3291 1056 2328 
Q 1056 1369 1301 889 
Q 1547 409 2034 409 
Q 2525 409 2770 889 
Q 3016 1369 3016 2328 
Q 3016 3291 2770 3770 
Q 2525 4250 2034 4250 
z
M 2034 4750 
Q 2819 4750 3233 4129 
Q 3647 3509 3647 2328 
Q 3647 1150 3233 529 
Q 2819 -91 2034 -91 
Q 1250 -91 836 529 
Q 422 1150 422 2328 
Q 422 3509 836 4129 
Q 1250 4750 2034 4750 
z
" transform="scale(0.015625)"/>
       </defs>
       <use xlink:href="#DejaVuSans-2212"/>
       <use xlink:href="#DejaVuSans-34" x="83.789062"/>
       <use xlink:href="#DejaVuSans-30" x="147.412109"/>
      </g>
     </g>
    </g>
    <g id="xtick_2">
     <g id="line2d_3">
      <path d="M 193.782736 373.151458 
L 193.782736 22.318125 
" clip-path="url(#p1e096b407f)" style="fill: none; stroke: #b0b0b0; stroke-width: 0.8; stroke-linecap: square"/>
     </g>
     <g id="line2d_4">
      <g>
       <use xlink:href="#m442fdb99a4" x="193.782736" y="373.151458" style="stroke: #000000; stroke-width: 0.8"/>
      </g>
     </g>
     <g id="text_2">
      <!-- −20 -->
      <g transform="translate(183.230392 387.749896) scale(0.1 -0.1)">
       <defs>
        <path id="DejaVuSans-32" d="M 1228 531 
L 3431 531 
L 3431 0 
L 469 0 
L 469 531 
Q 828 903 1448 1529 
Q 2069 2156 2228 2338 
Q 2531 2678 2651 2914 
Q 2772 3150 2772 3378 
Q 2772 3750 2511 3984 
Q 2250 4219 1831 4219 
Q 1534 4219 1204 4116 
Q 875 4013 500 3803 
L 500 4441 
Q 881 4594 1212 4672 
Q 1544 4750 1819 4750 
Q 2544 4750 2975 4387 
Q 3406 4025 3406 3419 
Q 3406 3131 3298 2873 
Q 3191 2616 2906 2266 
Q 2828 2175 2409 1742 
Q 1991 1309 1228 531 
z
" transform="scale(0.015625)"/>
       </defs>
       <use xlink:href="#DejaVuSans-2212"/>
       <use xlink:href="#DejaVuSans-32" x="83.789062"/>
       <use xlink:href="#DejaVuSans-30" x="147.412109"/>
      </g>
     </g>
    </g>
    <g id="xtick_3">
     <g id="line2d_5">
      <path d="M 279.351842 373.151458 
L 279.351842 22.318125 
" clip-path="url(#p1e096b407f)" style="fill: none; stroke: #b0b0b0; stroke-width: 0.8; stroke-linecap: square"/>
     </g>
     <g id="line2d_6">
      <g>
       <use xlink:href="#m442fdb99a4" x="279.351842" y="373.151458" style="stroke: #000000; stroke-width: 0.8"/>
      </g>
     </g>
     <g id="text_3">
      <!-- 0 -->
      <g transform="translate(276.170592 387.749896) scale(0.1 -0.1)">
       <use xlink:href="#DejaVuSans-30"/>
      </g>
     </g>
    </g>
    <g id="xtick_4">
     <g id="line2d_7">
      <path d="M 364.920947 373.151458 
L 364.920947 22.318125 
" clip-path="url(#p1e096b407f)" style="fill: none; stroke: #b0b0b0; stroke-width: 0.8; stroke-linecap: square"/>
     </g>
     <g id="line2d_8">
      <g>
       <use xlink:href="#m442fdb99a4" x="364.920947" y="373.151458" style="stroke: #000000; stroke-width: 0.8"/>
      </g>
     </g>
     <g id="text_4">
      <!-- 20 -->
      <g transform="translate(358.558447 387.749896) scale(0.1 -0.1)">
       <use xlink:href="#DejaVuSans-32"/>
       <use xlink:href="#DejaVuSans-30" x="63.623047"/>
      </g>
     </g>
    </g>
    <g id="xtick_5">
     <g id="line2d_9">
      <path d="M 450.490053 373.151458 
L 450.490053 22.318125 
" clip-path="url(#p1e096b407f)" style="fill: none; stroke: #b0b0b0; stroke-width: 0.8; stroke-linecap: square"/>
     </g>
     <g id="line2d_10">
      <g>
       <use xlink:href="#m442fdb99a4" x="450.490053" y="373.151458" style="stroke: #000000; stroke-width: 0.8"/>
      </g>
     </g>
     <g id="text_5">
      <!-- 40 -->
      <g transform="translate(444.127553 387.749896) scale(0.1 -0.1)">
       <use xlink:href="#DejaVuSans-34"/>
       <use xlink:href="#DejaVuSans-30" x="63.623047"/>
      </g>
     </g>
    </g>
    <g id="xtick_6">
     <g id="line2d_11">
      <path d="M 536.059159 373.151458 
L 536.059159 22.318125 
" clip-path="url(#p1e096b407f)" style="fill: none; stroke: #b0b0b0; stroke-width: 0.8; stroke-linecap: square"/>
     </g>
     <g id="line2d_12">
      <g>
       <use xlink:href="#m442fdb99a4" x="536.059159" y="373.151458" style="stroke: #000000; stroke-width: 0.8"/>
      </g>
     </g>
     <g id="text_6">
      <!-- 60 -->
      <g transform="translate(529.696659 387.749896) scale(0.1 -0.1)">
       <defs>
        <path id="DejaVuSans-36" d="M 2113 2584 
Q 1688 2584 1439 2293 
Q 1191 2003 1191 1497 
Q 1191 994 1439 701 
Q 1688 409 2113 409 
Q 2538 409 2786 701 
Q 3034 994 3034 1497 
Q 3034 2003 2786 2293 
Q 2538 2584 2113 2584 
z
M 3366 4563 
L 3366 3988 
Q 3128 4100 2886 4159 
Q 2644 4219 2406 4219 
Q 1781 4219 1451 3797 
Q 1122 3375 1075 2522 
Q 1259 2794 1537 2939 
Q 1816 3084 2150 3084 
Q 2853 3084 3261 2657 
Q 3669 2231 3669 1497 
Q 3669 778 3244 343 
Q 2819 -91 2113 -91 
Q 1303 -91 875 529 
Q 447 1150 447 2328 
Q 447 3434 972 4092 
Q 1497 4750 2381 4750 
Q 2619 4750 2861 4703 
Q 3103 4656 3366 4563 
z
" transform="scale(0.015625)"/>
       </defs>
       <use xlink:href="#DejaVuSans-36"/>
       <use xlink:href="#DejaVuSans-30" x="63.623047"/>
      </g>
     </g>
    </g>
   </g>
   <g id="matplotlib.axis_2">
    <g id="ytick_1">
     <g id="line2d_13">
      <path d="M 35.304688 337.613653 
L 561.554687 337.613653 
" clip-path="url(#p1e096b407f)" style="fill: none; stroke: #b0b0b0; stroke-width: 0.8; stroke-linecap: square"/>
     </g>
     <g id="line2d_14">
      <defs>
       <path id="m27657aa64a" d="M 0 0 
L -3.5 0 
" style="stroke: #000000; stroke-width: 0.8"/>
      </defs>
      <g>
       <use xlink:href="#m27657aa64a" x="35.304688" y="337.613653" style="stroke: #000000; stroke-width: 0.8"/>
      </g>
     </g>
     <g id="text_7">
      <!-- −30 -->
      <g transform="translate(7.2 341.412872) scale(0.1 -0.1)">
       <defs>
        <path id="DejaVuSans-33" d="M 2597 2516 
Q 3050 2419 3304 2112 
Q 3559 1806 3559 1356 
Q 3559 666 3084 287 
Q 2609 -91 1734 -91 
Q 1441 -91 1130 -33 
Q 819 25 488 141 
L 488 750 
Q 750 597 1062 519 
Q 1375 441 1716 441 
Q 2309 441 2620 675 
Q 2931 909 2931 1356 
Q 2931 1769 2642 2001 
Q 2353 2234 1838 2234 
L 1294 2234 
L 1294 2753 
L 1863 2753 
Q 2328 2753 2575 2939 
Q 2822 3125 2822 3475 
Q 2822 3834 2567 4026 
Q 2313 4219 1838 4219 
Q 1578 4219 1281 4162 
Q 984 4106 628 3988 
L 628 4550 
Q 988 4650 1302 4700 
Q 1616 4750 1894 4750 
Q 2613 4750 3031 4423 
Q 3450 4097 3450 3541 
Q 3450 3153 3228 2886 
Q 3006 2619 2597 2516 
z
" transform="scale(0.015625)"/>
       </defs>
       <use xlink:href="#DejaVuSans-2212"/>
       <use xlink:href="#DejaVuSans-33" x="83.789062"/>
       <use xlink:href="#DejaVuSans-30" x="147.412109"/>
      </g>
     </g>
    </g>
    <g id="ytick_2">
     <g id="line2d_15">
      <path d="M 35.304688 294.8291 
L 561.554687 294.8291 
" clip-path="url(#p1e096b407f)" style="fill: none; stroke: #b0b0b0; stroke-width: 0.8; stroke-linecap: square"/>
     </g>
     <g id="line2d_16">
      <g>
       <use xlink:href="#m27657aa64a" x="35.304688" y="294.8291" style="stroke: #000000; stroke-width: 0.8"/>
      </g>
     </g>
     <g id="text_8">
      <!-- −20 -->
      <g transform="translate(7.2 298.628319) scale(0.1 -0.1)">
       <use xlink:href="#DejaVuSans-2212"/>
       <use xlink:href="#DejaVuSans-32" x="83.789062"/>
       <use xlink:href="#DejaVuSans-30" x="147.412109"/>
      </g>
     </g>
    </g>
    <g id="ytick_3">
     <g id="line2d_17">
      <path d="M 35.304688 252.044547 
L 561.554687 252.044547 
" clip-path="url(#p1e096b407f)" style="fill: none; stroke: #b0b0b0; stroke-width: 0.8; stroke-linecap: square"/>
     </g>
     <g id="line2d_18">
      <g>
       <use xlink:href="#m27657aa64a" x="35.304688" y="252.044547" style="stroke: #000000; stroke-width: 0.8"/>
      </g>
     </g>
     <g id="text_9">
      <!-- −10 -->
      <g transform="translate(7.2 255.843766) scale(0.1 -0.1)">
       <defs>
        <path id="DejaVuSans-31" d="M 794 531 
L 1825 531 
L 1825 4091 
L 703 3866 
L 703 4441 
L 1819 4666 
L 2450 4666 
L 2450 531 
L 3481 531 
L 3481 0 
L 794 0 
L 794 531 
z
" transform="scale(0.015625)"/>
       </defs>
       <use xlink:href="#DejaVuSans-2212"/>
       <use xlink:href="#DejaVuSans-31" x="83.789062"/>
       <use xlink:href="#DejaVuSans-30" x="147.412109"/>
      </g>
     </g>
    </g>
    <g id="ytick_4">
     <g id="line2d_19">
      <path d="M 35.304688 209.259994 
L 561.554687 209.259994 
" clip-path="url(#p1e096b407f)" style="fill: none; stroke: #b0b0b0; stroke-width: 0.8; stroke-linecap: square"/>
     </g>
     <g id="line2d_20">
      <g>
       <use xlink:href="#m27657aa64a" x="35.304688" y="209.259994" style="stroke: #000000; stroke-width: 0.8"/>
      </g>
     </g>
     <g id="text_10">
      <!-- 0 -->
      <g transform="translate(21.942187 213.059213) scale(0.1 -0.1)">
       <use xlink:href="#DejaVuSans-30"/>
      </g>
     </g>
    </g>
    <g id="ytick_5">
     <g id="line2d_21">
      <path d="M 35.304688 166.475441 
L 561.554687 166.475441 
" clip-path="url(#p1e096b407f)" style="fill: none; stroke: #b0b0b0; stroke-width: 0.8; stroke-linecap: square"/>
     </g>
     <g id="line2d_22">
      <g>
       <use xlink:href="#m27657aa64a" x="35.304688" y="166.475441" style="stroke: #000000; stroke-width: 0.8"/>
      </g>
     </g>
     <g id="text_11">
      <!-- 10 -->
      <g transform="translate(15.579687 170.27466) scale(0.1 -0.1)">
       <use xlink:href="#DejaVuSans-31"/>
       <use xlink:href="#DejaVuSans-30" x="63.623047"/>
      </g>
     </g>
    </g>
    <g id="ytick_6">
     <g id="line2d_23">
      <path d="M 35.304688 123.690889 
L 561.554687 123.690889 
" clip-path="url(#p1e096b407f)" style="fill: none; stroke: #b0b0b0; stroke-width: 0.8; stroke-linecap: square"/>
     </g>
     <g id="line2d_24">
      <g>
       <use xlink:href="#m27657aa64a" x="35.304688" y="123.690889" style="stroke: #000000; stroke-width: 0.8"/>
      </g>
     </g>
     <g id="text_12">
      <!-- 20 -->
      <g transform="translate(15.579687 127.490107) scale(0.1 -0.1)">
       <use xlink:href="#DejaVuSans-32"/>
       <use xlink:href="#DejaVuSans-30" x="63.623047"/>
      </g>
     </g>
    </g>
    <g id="ytick_7">
     <g id="line2d_25">
      <path d="M 35.304688 80.906336 
L 561.554687 80.906336 
" clip-path="url(#p1e096b407f)" style="fill: none; stroke: #b0b0b0; stroke-width: 0.8; stroke-linecap: square"/>
     </g>
     <g id="line2d_26">
      <g>
       <use xlink:href="#m27657aa64a" x="35.304688" y="80.906336" style="stroke: #000000; stroke-width: 0.8"/>
      </g>
     </g>
     <g id="text_13">
      <!-- 30 -->
      <g transform="translate(15.579687 84.705555) scale(0.1 -0.1)">
       <use xlink:href="#DejaVuSans-33"/>
       <use xlink:href="#DejaVuSans-30" x="63.623047"/>
      </g>
     </g>
    </g>
    <g id="ytick_8">
     <g id="line2d_27">
      <path d="M 35.304688 38.121783 
L 561.554687 38.121783 
" clip-path="url(#p1e096b407f)" style="fill: none; stroke: #b0b0b0; stroke-width: 0.8; stroke-linecap: square"/>
     </g>
     <g id="line2d_28">
      <g>
       <use xlink:href="#m27657aa64a" x="35.304688" y="38.121783" style="stroke: #000000; stroke-width: 0.8"/>
      </g>
     </g>
     <g id="text_14">
      <!-- 40 -->
      <g transform="translate(15.579687 41.921002) scale(0.1 -0.1)">
       <use xlink:href="#DejaVuSans-34"/>
       <use xlink:href="#DejaVuSans-30" x="63.623047"/>
      </g>
     </g>
    </g>
   </g>
   <g id="line2d_29">
    <path d="M 90.924606 326.08845 
L 95.203061 287.582353 
" clip-path="url(#p1e096b407f)" style="fill: none; stroke: #0000ff; stroke-width: 3; stroke-linecap: square"/>
   </g>
   <g id="line2d_30">
    <path d="M 130.801852 198.24357 
L 147.486126 260.213728 
" clip-path="url(#p1e096b407f)" style="fill: none; stroke: #bf00bf; stroke-width: 1.5; stroke-linecap: square"/>
   </g>
   <g id="line2d_31">
    <path d="M 162.58142 233.995584 
L 132.390831 286.431871 
" clip-path="url(#p1e096b407f)" style="fill: none; stroke: #bf00bf; stroke-width: 1.5; stroke-linecap: square"/>
   </g>
   <g id="line2d_32">
    <path d="M 162.58142 233.995584 
L 171.479699 267.046335 
" clip-path="url(#p1e096b407f)" style="fill: none; stroke: #bf00bf; stroke-width: 1.5; stroke-linecap: square"/>
   </g>
   <g id="line2d_33">
    <path d="M 132.390831 286.431871 
L 141.28911 319.482622 
" clip-path="url(#p1e096b407f)" style="fill: none; stroke: #bf00bf; stroke-width: 1.5; stroke-linecap: square"/>
   </g>
   <g id="line2d_34">
    <path d="M 95.203061 287.582353 
L 206.442899 257.633166 
" clip-path="url(#p1e096b407f)" style="fill: none; stroke: #0000ff; stroke-width: 3; stroke-linecap: square"/>
   </g>
   <g id="line2d_35">
    <path d="M 206.442899 257.633166 
L 339.075013 283.303897 
" clip-path="url(#p1e096b407f)" style="fill: none; stroke: #0000ff; stroke-width: 3; stroke-linecap: square"/>
   </g>
   <g id="line2d_36">
    <path d="M 339.075013 283.303897 
L 356.188834 240.519345 
" clip-path="url(#p1e096b407f)" style="fill: none; stroke: #0000ff; stroke-width: 3; stroke-linecap: square"/>
   </g>
   <g id="line2d_37">
    <path d="M 356.188834 240.519345 
L 223.55672 193.456336 
" clip-path="url(#p1e096b407f)" style="fill: none; stroke: #0000ff; stroke-width: 3; stroke-linecap: square"/>
   </g>
   <g id="line2d_38">
    <path d="M 223.55672 193.456336 
L 82.367696 210.570158 
" clip-path="url(#p1e096b407f)" style="fill: none; stroke: #0000ff; stroke-width: 3; stroke-linecap: square"/>
   </g>
   <g id="line2d_39">
    <path d="M 82.367696 210.570158 
L 78.08924 125.001052 
" clip-path="url(#p1e096b407f)" style="fill: none; stroke: #0000ff; stroke-width: 3; stroke-linecap: square"/>
   </g>
   <g id="line2d_40">
    <path d="M 78.08924 125.001052 
L 223.55672 107.887231 
" clip-path="url(#p1e096b407f)" style="fill: none; stroke: #0000ff; stroke-width: 3; stroke-linecap: square"/>
   </g>
   <g id="line2d_41">
    <path d="M 223.55672 107.887231 
L 262.062818 65.102678 
" clip-path="url(#p1e096b407f)" style="fill: none; stroke: #0000ff; stroke-width: 3; stroke-linecap: square"/>
   </g>
   <g id="line2d_42">
    <path d="M 262.062818 65.102678 
L 296.29046 77.938044 
" clip-path="url(#p1e096b407f)" style="fill: none; stroke: #0000ff; stroke-width: 3; stroke-linecap: square"/>
   </g>
   <g id="line2d_43">
    <path d="M 296.29046 77.938044 
L 274.898183 159.228694 
" clip-path="url(#p1e096b407f)" style="fill: none; stroke: #0000ff; stroke-width: 3; stroke-linecap: square"/>
   </g>
   <g id="line2d_44">
    <path d="M 274.898183 159.228694 
L 450.31485 197.734792 
" clip-path="url(#p1e096b407f)" style="fill: none; stroke: #0000ff; stroke-width: 3; stroke-linecap: square"/>
   </g>
   <g id="line2d_45">
    <path d="M 450.31485 197.734792 
L 463.150216 116.444141 
" clip-path="url(#p1e096b407f)" style="fill: none; stroke: #0000ff; stroke-width: 3; stroke-linecap: square"/>
   </g>
   <g id="line2d_46">
    <path d="M 463.150216 116.444141 
L 518.770135 125.001052 
" clip-path="url(#p1e096b407f)" style="fill: none; stroke: #0000ff; stroke-width: 3; stroke-linecap: square"/>
   </g>
   <g id="line2d_47">
    <path d="M 518.770135 125.001052 
L 493.099403 240.519345 
" clip-path="url(#p1e096b407f)" style="fill: none; stroke: #0000ff; stroke-width: 3; stroke-linecap: square"/>
   </g>
   <g id="line2d_48">
    <path d="M 493.099403 240.519345 
L 441.75794 240.519345 
" clip-path="url(#p1e096b407f)" style="fill: none; stroke: #0000ff; stroke-width: 3; stroke-linecap: square"/>
   </g>
   <g id="line2d_49">
    <path d="M 441.75794 240.519345 
L 373.302655 330.366905 
" clip-path="url(#p1e096b407f)" style="fill: none; stroke: #0000ff; stroke-width: 3; stroke-linecap: square"/>
   </g>
   <g id="line2d_50">
    <path d="M 373.302655 330.366905 
L 90.924606 326.08845 
" clip-path="url(#p1e096b407f)" style="fill: none; stroke: #0000ff; stroke-width: 3; stroke-linecap: square"/>
   </g>
   <g id="line2d_51">
    <path d="M 244.241934 398.029583 
L 206.442899 257.633166 
L 95.203061 287.582353 
L 124.938854 398.029583 
" clip-path="url(#p1e096b407f)" style="fill: none; stroke-dasharray: 1.85,0.8; stroke-dashoffset: 0; stroke: #008000; stroke-width: 0.5"/>
   </g>
   <g id="line2d_52">
    <defs>
     <path id="m82a3134562" d="M -2 2 
L 2 -2 
M -2 -2 
L 2 2 
" style="stroke: #ff0000"/>
    </defs>
    <g clip-path="url(#p1e096b407f)">
     <use xlink:href="#m82a3134562" x="152.602636" y="486.579591" style="fill: #ff0000; stroke: #ff0000"/>
     <use xlink:href="#m82a3134562" x="148.59841" y="471.706753" style="fill: #ff0000; stroke: #ff0000"/>
     <use xlink:href="#m82a3134562" x="144.594185" y="456.833915" style="fill: #ff0000; stroke: #ff0000"/>
     <use xlink:href="#m82a3134562" x="140.589959" y="441.961077" style="fill: #ff0000; stroke: #ff0000"/>
     <use xlink:href="#m82a3134562" x="136.585734" y="427.088239" style="fill: #ff0000; stroke: #ff0000"/>
     <use xlink:href="#m82a3134562" x="132.581508" y="412.215402" style="fill: #ff0000; stroke: #ff0000"/>
     <use xlink:href="#m82a3134562" x="128.577283" y="397.342564" style="fill: #ff0000; stroke: #ff0000"/>
     <use xlink:href="#m82a3134562" x="124.573057" y="382.469726" style="fill: #ff0000; stroke: #ff0000"/>
     <use xlink:href="#m82a3134562" x="120.568831" y="367.596888" style="fill: #ff0000; stroke: #ff0000"/>
     <use xlink:href="#m82a3134562" x="116.564606" y="352.72405" style="fill: #ff0000; stroke: #ff0000"/>
     <use xlink:href="#m82a3134562" x="112.56038" y="337.851212" style="fill: #ff0000; stroke: #ff0000"/>
     <use xlink:href="#m82a3134562" x="108.556155" y="322.978374" style="fill: #ff0000; stroke: #ff0000"/>
     <use xlink:href="#m82a3134562" x="104.551929" y="308.105537" style="fill: #ff0000; stroke: #ff0000"/>
     <use xlink:href="#m82a3134562" x="100.547704" y="293.232699" style="fill: #ff0000; stroke: #ff0000"/>
     <use xlink:href="#m82a3134562" x="167.475474" y="482.575365" style="fill: #ff0000; stroke: #ff0000"/>
     <use xlink:href="#m82a3134562" x="163.471248" y="467.702527" style="fill: #ff0000; stroke: #ff0000"/>
     <use xlink:href="#m82a3134562" x="159.467023" y="452.829689" style="fill: #ff0000; stroke: #ff0000"/>
     <use xlink:href="#m82a3134562" x="155.462797" y="437.956852" style="fill: #ff0000; stroke: #ff0000"/>
     <use xlink:href="#m82a3134562" x="151.458572" y="423.084014" style="fill: #ff0000; stroke: #ff0000"/>
     <use xlink:href="#m82a3134562" x="147.454346" y="408.211176" style="fill: #ff0000; stroke: #ff0000"/>
     <use xlink:href="#m82a3134562" x="143.45012" y="393.338338" style="fill: #ff0000; stroke: #ff0000"/>
     <use xlink:href="#m82a3134562" x="139.445895" y="378.4655" style="fill: #ff0000; stroke: #ff0000"/>
     <use xlink:href="#m82a3134562" x="135.441669" y="363.592662" style="fill: #ff0000; stroke: #ff0000"/>
     <use xlink:href="#m82a3134562" x="131.437444" y="348.719825" style="fill: #ff0000; stroke: #ff0000"/>
     <use xlink:href="#m82a3134562" x="127.433218" y="333.846987" style="fill: #ff0000; stroke: #ff0000"/>
     <use xlink:href="#m82a3134562" x="123.428993" y="318.974149" style="fill: #ff0000; stroke: #ff0000"/>
     <use xlink:href="#m82a3134562" x="119.424767" y="304.101311" style="fill: #ff0000; stroke: #ff0000"/>
     <use xlink:href="#m82a3134562" x="115.420541" y="289.228473" style="fill: #ff0000; stroke: #ff0000"/>
     <use xlink:href="#m82a3134562" x="182.348312" y="478.57114" style="fill: #ff0000; stroke: #ff0000"/>
     <use xlink:href="#m82a3134562" x="178.344086" y="463.698302" style="fill: #ff0000; stroke: #ff0000"/>
     <use xlink:href="#m82a3134562" x="174.339861" y="448.825464" style="fill: #ff0000; stroke: #ff0000"/>
     <use xlink:href="#m82a3134562" x="170.335635" y="433.952626" style="fill: #ff0000; stroke: #ff0000"/>
     <use xlink:href="#m82a3134562" x="166.331409" y="419.079788" style="fill: #ff0000; stroke: #ff0000"/>
     <use xlink:href="#m82a3134562" x="162.327184" y="404.20695" style="fill: #ff0000; stroke: #ff0000"/>
     <use xlink:href="#m82a3134562" x="158.322958" y="389.334113" style="fill: #ff0000; stroke: #ff0000"/>
     <use xlink:href="#m82a3134562" x="154.318733" y="374.461275" style="fill: #ff0000; stroke: #ff0000"/>
     <use xlink:href="#m82a3134562" x="150.314507" y="359.588437" style="fill: #ff0000; stroke: #ff0000"/>
     <use xlink:href="#m82a3134562" x="146.310282" y="344.715599" style="fill: #ff0000; stroke: #ff0000"/>
     <use xlink:href="#m82a3134562" x="142.306056" y="329.842761" style="fill: #ff0000; stroke: #ff0000"/>
     <use xlink:href="#m82a3134562" x="138.30183" y="314.969923" style="fill: #ff0000; stroke: #ff0000"/>
     <use xlink:href="#m82a3134562" x="134.297605" y="300.097085" style="fill: #ff0000; stroke: #ff0000"/>
     <use xlink:href="#m82a3134562" x="130.293379" y="285.224248" style="fill: #ff0000; stroke: #ff0000"/>
     <use xlink:href="#m82a3134562" x="197.22115" y="474.566914" style="fill: #ff0000; stroke: #ff0000"/>
     <use xlink:href="#m82a3134562" x="193.216924" y="459.694076" style="fill: #ff0000; stroke: #ff0000"/>
     <use xlink:href="#m82a3134562" x="189.212698" y="444.821238" style="fill: #ff0000; stroke: #ff0000"/>
     <use xlink:href="#m82a3134562" x="185.208473" y="429.948401" style="fill: #ff0000; stroke: #ff0000"/>
     <use xlink:href="#m82a3134562" x="181.204247" y="415.075563" style="fill: #ff0000; stroke: #ff0000"/>
     <use xlink:href="#m82a3134562" x="177.200022" y="400.202725" style="fill: #ff0000; stroke: #ff0000"/>
     <use xlink:href="#m82a3134562" x="173.195796" y="385.329887" style="fill: #ff0000; stroke: #ff0000"/>
     <use xlink:href="#m82a3134562" x="169.191571" y="370.457049" style="fill: #ff0000; stroke: #ff0000"/>
     <use xlink:href="#m82a3134562" x="165.187345" y="355.584211" style="fill: #ff0000; stroke: #ff0000"/>
     <use xlink:href="#m82a3134562" x="161.183119" y="340.711373" style="fill: #ff0000; stroke: #ff0000"/>
     <use xlink:href="#m82a3134562" x="157.178894" y="325.838536" style="fill: #ff0000; stroke: #ff0000"/>
     <use xlink:href="#m82a3134562" x="153.174668" y="310.965698" style="fill: #ff0000; stroke: #ff0000"/>
     <use xlink:href="#m82a3134562" x="149.170443" y="296.09286" style="fill: #ff0000; stroke: #ff0000"/>
     <use xlink:href="#m82a3134562" x="145.166217" y="281.220022" style="fill: #ff0000; stroke: #ff0000"/>
     <use xlink:href="#m82a3134562" x="212.093987" y="470.562688" style="fill: #ff0000; stroke: #ff0000"/>
     <use xlink:href="#m82a3134562" x="208.089762" y="455.689851" style="fill: #ff0000; stroke: #ff0000"/>
     <use xlink:href="#m82a3134562" x="204.085536" y="440.817013" style="fill: #ff0000; stroke: #ff0000"/>
     <use xlink:href="#m82a3134562" x="200.081311" y="425.944175" style="fill: #ff0000; stroke: #ff0000"/>
     <use xlink:href="#m82a3134562" x="196.077085" y="411.071337" style="fill: #ff0000; stroke: #ff0000"/>
     <use xlink:href="#m82a3134562" x="192.072859" y="396.198499" style="fill: #ff0000; stroke: #ff0000"/>
     <use xlink:href="#m82a3134562" x="188.068634" y="381.325661" style="fill: #ff0000; stroke: #ff0000"/>
     <use xlink:href="#m82a3134562" x="184.064408" y="366.452824" style="fill: #ff0000; stroke: #ff0000"/>
     <use xlink:href="#m82a3134562" x="180.060183" y="351.579986" style="fill: #ff0000; stroke: #ff0000"/>
     <use xlink:href="#m82a3134562" x="176.055957" y="336.707148" style="fill: #ff0000; stroke: #ff0000"/>
     <use xlink:href="#m82a3134562" x="172.051732" y="321.83431" style="fill: #ff0000; stroke: #ff0000"/>
     <use xlink:href="#m82a3134562" x="168.047506" y="306.961472" style="fill: #ff0000; stroke: #ff0000"/>
     <use xlink:href="#m82a3134562" x="164.04328" y="292.088634" style="fill: #ff0000; stroke: #ff0000"/>
     <use xlink:href="#m82a3134562" x="160.039055" y="277.215797" style="fill: #ff0000; stroke: #ff0000"/>
     <use xlink:href="#m82a3134562" x="226.966825" y="466.558463" style="fill: #ff0000; stroke: #ff0000"/>
     <use xlink:href="#m82a3134562" x="222.9626" y="451.685625" style="fill: #ff0000; stroke: #ff0000"/>
     <use xlink:href="#m82a3134562" x="218.958374" y="436.812787" style="fill: #ff0000; stroke: #ff0000"/>
     <use xlink:href="#m82a3134562" x="214.954148" y="421.939949" style="fill: #ff0000; stroke: #ff0000"/>
     <use xlink:href="#m82a3134562" x="210.949923" y="407.067112" style="fill: #ff0000; stroke: #ff0000"/>
     <use xlink:href="#m82a3134562" x="206.945697" y="392.194274" style="fill: #ff0000; stroke: #ff0000"/>
     <use xlink:href="#m82a3134562" x="202.941472" y="377.321436" style="fill: #ff0000; stroke: #ff0000"/>
     <use xlink:href="#m82a3134562" x="198.937246" y="362.448598" style="fill: #ff0000; stroke: #ff0000"/>
     <use xlink:href="#m82a3134562" x="194.933021" y="347.57576" style="fill: #ff0000; stroke: #ff0000"/>
     <use xlink:href="#m82a3134562" x="190.928795" y="332.702922" style="fill: #ff0000; stroke: #ff0000"/>
     <use xlink:href="#m82a3134562" x="186.924569" y="317.830084" style="fill: #ff0000; stroke: #ff0000"/>
     <use xlink:href="#m82a3134562" x="182.920344" y="302.957247" style="fill: #ff0000; stroke: #ff0000"/>
     <use xlink:href="#m82a3134562" x="178.916118" y="288.084409" style="fill: #ff0000; stroke: #ff0000"/>
     <use xlink:href="#m82a3134562" x="174.911893" y="273.211571" style="fill: #ff0000; stroke: #ff0000"/>
     <use xlink:href="#m82a3134562" x="241.839663" y="462.554237" style="fill: #ff0000; stroke: #ff0000"/>
     <use xlink:href="#m82a3134562" x="237.835437" y="447.681399" style="fill: #ff0000; stroke: #ff0000"/>
     <use xlink:href="#m82a3134562" x="233.831212" y="432.808562" style="fill: #ff0000; stroke: #ff0000"/>
     <use xlink:href="#m82a3134562" x="229.826986" y="417.935724" style="fill: #ff0000; stroke: #ff0000"/>
     <use xlink:href="#m82a3134562" x="225.822761" y="403.062886" style="fill: #ff0000; stroke: #ff0000"/>
     <use xlink:href="#m82a3134562" x="221.818535" y="388.190048" style="fill: #ff0000; stroke: #ff0000"/>
     <use xlink:href="#m82a3134562" x="217.81431" y="373.31721" style="fill: #ff0000; stroke: #ff0000"/>
     <use xlink:href="#m82a3134562" x="213.810084" y="358.444372" style="fill: #ff0000; stroke: #ff0000"/>
     <use xlink:href="#m82a3134562" x="209.805858" y="343.571535" style="fill: #ff0000; stroke: #ff0000"/>
     <use xlink:href="#m82a3134562" x="205.801633" y="328.698697" style="fill: #ff0000; stroke: #ff0000"/>
     <use xlink:href="#m82a3134562" x="201.797407" y="313.825859" style="fill: #ff0000; stroke: #ff0000"/>
     <use xlink:href="#m82a3134562" x="197.793182" y="298.953021" style="fill: #ff0000; stroke: #ff0000"/>
     <use xlink:href="#m82a3134562" x="193.788956" y="284.080183" style="fill: #ff0000; stroke: #ff0000"/>
     <use xlink:href="#m82a3134562" x="189.784731" y="269.207345" style="fill: #ff0000; stroke: #ff0000"/>
     <use xlink:href="#m82a3134562" x="256.712501" y="458.550012" style="fill: #ff0000; stroke: #ff0000"/>
     <use xlink:href="#m82a3134562" x="252.708275" y="443.677174" style="fill: #ff0000; stroke: #ff0000"/>
     <use xlink:href="#m82a3134562" x="248.70405" y="428.804336" style="fill: #ff0000; stroke: #ff0000"/>
     <use xlink:href="#m82a3134562" x="244.699824" y="413.931498" style="fill: #ff0000; stroke: #ff0000"/>
     <use xlink:href="#m82a3134562" x="240.695599" y="399.05866" style="fill: #ff0000; stroke: #ff0000"/>
     <use xlink:href="#m82a3134562" x="236.691373" y="384.185823" style="fill: #ff0000; stroke: #ff0000"/>
     <use xlink:href="#m82a3134562" x="232.687147" y="369.312985" style="fill: #ff0000; stroke: #ff0000"/>
     <use xlink:href="#m82a3134562" x="228.682922" y="354.440147" style="fill: #ff0000; stroke: #ff0000"/>
     <use xlink:href="#m82a3134562" x="224.678696" y="339.567309" style="fill: #ff0000; stroke: #ff0000"/>
     <use xlink:href="#m82a3134562" x="220.674471" y="324.694471" style="fill: #ff0000; stroke: #ff0000"/>
     <use xlink:href="#m82a3134562" x="216.670245" y="309.821633" style="fill: #ff0000; stroke: #ff0000"/>
     <use xlink:href="#m82a3134562" x="212.66602" y="294.948795" style="fill: #ff0000; stroke: #ff0000"/>
     <use xlink:href="#m82a3134562" x="208.661794" y="280.075958" style="fill: #ff0000; stroke: #ff0000"/>
     <use xlink:href="#m82a3134562" x="204.657568" y="265.20312" style="fill: #ff0000; stroke: #ff0000"/>
    </g>
   </g>
   <g id="patch_3">
    <path d="M 35.304688 373.151458 
L 35.304688 22.318125 
" style="fill: none; stroke: #000000; stroke-width: 0.8; stroke-linejoin: miter; stroke-linecap: square"/>
   </g>
   <g id="patch_4">
    <path d="M 561.554687 373.151458 
L 561.554687 22.318125 
" style="fill: none; stroke: #000000; stroke-width: 0.8; stroke-linejoin: miter; stroke-linecap: square"/>
   </g>
   <g id="patch_5">
    <path d="M 35.304687 373.151458 
L 561.554688 373.151458 
" style="fill: none; stroke: #000000; stroke-width: 0.8; stroke-linejoin: miter; stroke-linecap: square"/>
   </g>
   <g id="patch_6">
    <path d="M 35.304687 22.318125 
L 561.554688 22.318125 
" style="fill: none; stroke: #000000; stroke-width: 0.8; stroke-linejoin: miter; stroke-linecap: square"/>
   </g>
   <g id="text_15">
    <!-- TCP Box and Test Grid Points for Edges 2/18 -->
    <g transform="translate(167.239687 16.318125) scale(0.12 -0.12)">
     <defs>
      <path id="DejaVuSans-54" d="M -19 4666 
L 3928 4666 
L 3928 4134 
L 2272 4134 
L 2272 0 
L 1638 0 
L 1638 4134 
L -19 4134 
L -19 4666 
z
" transform="scale(0.015625)"/>
      <path id="DejaVuSans-43" d="M 4122 4306 
L 4122 3641 
Q 3803 3938 3442 4084 
Q 3081 4231 2675 4231 
Q 1875 4231 1450 3742 
Q 1025 3253 1025 2328 
Q 1025 1406 1450 917 
Q 1875 428 2675 428 
Q 3081 428 3442 575 
Q 3803 722 4122 1019 
L 4122 359 
Q 3791 134 3420 21 
Q 3050 -91 2638 -91 
Q 1578 -91 968 557 
Q 359 1206 359 2328 
Q 359 3453 968 4101 
Q 1578 4750 2638 4750 
Q 3056 4750 3426 4639 
Q 3797 4528 4122 4306 
z
" transform="scale(0.015625)"/>
      <path id="DejaVuSans-50" d="M 1259 4147 
L 1259 2394 
L 2053 2394 
Q 2494 2394 2734 2622 
Q 2975 2850 2975 3272 
Q 2975 3691 2734 3919 
Q 2494 4147 2053 4147 
L 1259 4147 
z
M 628 4666 
L 2053 4666 
Q 2838 4666 3239 4311 
Q 3641 3956 3641 3272 
Q 3641 2581 3239 2228 
Q 2838 1875 2053 1875 
L 1259 1875 
L 1259 0 
L 628 0 
L 628 4666 
z
" transform="scale(0.015625)"/>
      <path id="DejaVuSans-20" transform="scale(0.015625)"/>
      <path id="DejaVuSans-42" d="M 1259 2228 
L 1259 519 
L 2272 519 
Q 2781 519 3026 730 
Q 3272 941 3272 1375 
Q 3272 1813 3026 2020 
Q 2781 2228 2272 2228 
L 1259 2228 
z
M 1259 4147 
L 1259 2741 
L 2194 2741 
Q 2656 2741 2882 2914 
Q 3109 3088 3109 3444 
Q 3109 3797 2882 3972 
Q 2656 4147 2194 4147 
L 1259 4147 
z
M 628 4666 
L 2241 4666 
Q 2963 4666 3353 4366 
Q 3744 4066 3744 3513 
Q 3744 3084 3544 2831 
Q 3344 2578 2956 2516 
Q 3422 2416 3680 2098 
Q 3938 1781 3938 1306 
Q 3938 681 3513 340 
Q 3088 0 2303 0 
L 628 0 
L 628 4666 
z
" transform="scale(0.015625)"/>
      <path id="DejaVuSans-6f" d="M 1959 3097 
Q 1497 3097 1228 2736 
Q 959 2375 959 1747 
Q 959 1119 1226 758 
Q 1494 397 1959 397 
Q 2419 397 2687 759 
Q 2956 1122 2956 1747 
Q 2956 2369 2687 2733 
Q 2419 3097 1959 3097 
z
M 1959 3584 
Q 2709 3584 3137 3096 
Q 3566 2609 3566 1747 
Q 3566 888 3137 398 
Q 2709 -91 1959 -91 
Q 1206 -91 779 398 
Q 353 888 353 1747 
Q 353 2609 779 3096 
Q 1206 3584 1959 3584 
z
" transform="scale(0.015625)"/>
      <path id="DejaVuSans-78" d="M 3513 3500 
L 2247 1797 
L 3578 0 
L 2900 0 
L 1881 1375 
L 863 0 
L 184 0 
L 1544 1831 
L 300 3500 
L 978 3500 
L 1906 2253 
L 2834 3500 
L 3513 3500 
z
" transform="scale(0.015625)"/>
      <path id="DejaVuSans-61" d="M 2194 1759 
Q 1497 1759 1228 1600 
Q 959 1441 959 1056 
Q 959 750 1161 570 
Q 1363 391 1709 391 
Q 2188 391 2477 730 
Q 2766 1069 2766 1631 
L 2766 1759 
L 2194 1759 
z
M 3341 1997 
L 3341 0 
L 2766 0 
L 2766 531 
Q 2569 213 2275 61 
Q 1981 -91 1556 -91 
Q 1019 -91 701 211 
Q 384 513 384 1019 
Q 384 1609 779 1909 
Q 1175 2209 1959 2209 
L 2766 2209 
L 2766 2266 
Q 2766 2663 2505 2880 
Q 2244 3097 1772 3097 
Q 1472 3097 1187 3025 
Q 903 2953 641 2809 
L 641 3341 
Q 956 3463 1253 3523 
Q 1550 3584 1831 3584 
Q 2591 3584 2966 3190 
Q 3341 2797 3341 1997 
z
" transform="scale(0.015625)"/>
      <path id="DejaVuSans-6e" d="M 3513 2113 
L 3513 0 
L 2938 0 
L 2938 2094 
Q 2938 2591 2744 2837 
Q 2550 3084 2163 3084 
Q 1697 3084 1428 2787 
Q 1159 2491 1159 1978 
L 1159 0 
L 581 0 
L 581 3500 
L 1159 3500 
L 1159 2956 
Q 1366 3272 1645 3428 
Q 1925 3584 2291 3584 
Q 2894 3584 3203 3211 
Q 3513 2838 3513 2113 
z
" transform="scale(0.015625)"/>
      <path id="DejaVuSans-64" d="M 2906 2969 
L 2906 4863 
L 3481 4863 
L 3481 0 
L 2906 0 
L 2906 525 
Q 2725 213 2448 61 
Q 2172 -91 1784 -91 
Q 1150 -91 751 415 
Q 353 922 353 1747 
Q 353 2572 751 3078 
Q 1150 3584 1784 3584 
Q 2172 3584 2448 3432 
Q 2725 3281 2906 2969 
z
M 947 1747 
Q 947 1113 1208 752 
Q 1469 391 1925 391 
Q 2381 391 2643 752 
Q 2906 1113 2906 1747 
Q 2906 2381 2643 2742 
Q 2381 3103 1925 3103 
Q 1469 3103 1208 2742 
Q 947 2381 947 1747 
z
" transform="scale(0.015625)"/>
      <path id="DejaVuSans-65" d="M 3597 1894 
L 3597 1613 
L 953 1613 
Q 991 1019 1311 708 
Q 1631 397 2203 397 
Q 2534 397 2845 478 
Q 3156 559 3463 722 
L 3463 178 
Q 3153 47 2828 -22 
Q 2503 -91 2169 -91 
Q 1331 -91 842 396 
Q 353 884 353 1716 
Q 353 2575 817 3079 
Q 1281 3584 2069 3584 
Q 2775 3584 3186 3129 
Q 3597 2675 3597 1894 
z
M 3022 2063 
Q 3016 2534 2758 2815 
Q 2500 3097 2075 3097 
Q 1594 3097 1305 2825 
Q 1016 2553 972 2059 
L 3022 2063 
z
" transform="scale(0.015625)"/>
      <path id="DejaVuSans-73" d="M 2834 3397 
L 2834 2853 
Q 2591 2978 2328 3040 
Q 2066 3103 1784 3103 
Q 1356 3103 1142 2972 
Q 928 2841 928 2578 
Q 928 2378 1081 2264 
Q 1234 2150 1697 2047 
L 1894 2003 
Q 2506 1872 2764 1633 
Q 3022 1394 3022 966 
Q 3022 478 2636 193 
Q 2250 -91 1575 -91 
Q 1294 -91 989 -36 
Q 684 19 347 128 
L 347 722 
Q 666 556 975 473 
Q 1284 391 1588 391 
Q 1994 391 2212 530 
Q 2431 669 2431 922 
Q 2431 1156 2273 1281 
Q 2116 1406 1581 1522 
L 1381 1569 
Q 847 1681 609 1914 
Q 372 2147 372 2553 
Q 372 3047 722 3315 
Q 1072 3584 1716 3584 
Q 2034 3584 2315 3537 
Q 2597 3491 2834 3397 
z
" transform="scale(0.015625)"/>
      <path id="DejaVuSans-74" d="M 1172 4494 
L 1172 3500 
L 2356 3500 
L 2356 3053 
L 1172 3053 
L 1172 1153 
Q 1172 725 1289 603 
Q 1406 481 1766 481 
L 2356 481 
L 2356 0 
L 1766 0 
Q 1100 0 847 248 
Q 594 497 594 1153 
L 594 3053 
L 172 3053 
L 172 3500 
L 594 3500 
L 594 4494 
L 1172 4494 
z
" transform="scale(0.015625)"/>
      <path id="DejaVuSans-47" d="M 3809 666 
L 3809 1919 
L 2778 1919 
L 2778 2438 
L 4434 2438 
L 4434 434 
Q 4069 175 3628 42 
Q 3188 -91 2688 -91 
Q 1594 -91 976 548 
Q 359 1188 359 2328 
Q 359 3472 976 4111 
Q 1594 4750 2688 4750 
Q 3144 4750 3555 4637 
Q 3966 4525 4313 4306 
L 4313 3634 
Q 3963 3931 3569 4081 
Q 3175 4231 2741 4231 
Q 1884 4231 1454 3753 
Q 1025 3275 1025 2328 
Q 1025 1384 1454 906 
Q 1884 428 2741 428 
Q 3075 428 3337 486 
Q 3600 544 3809 666 
z
" transform="scale(0.015625)"/>
      <path id="DejaVuSans-72" d="M 2631 2963 
Q 2534 3019 2420 3045 
Q 2306 3072 2169 3072 
Q 1681 3072 1420 2755 
Q 1159 2438 1159 1844 
L 1159 0 
L 581 0 
L 581 3500 
L 1159 3500 
L 1159 2956 
Q 1341 3275 1631 3429 
Q 1922 3584 2338 3584 
Q 2397 3584 2469 3576 
Q 2541 3569 2628 3553 
L 2631 2963 
z
" transform="scale(0.015625)"/>
      <path id="DejaVuSans-69" d="M 603 3500 
L 1178 3500 
L 1178 0 
L 603 0 
L 603 3500 
z
M 603 4863 
L 1178 4863 
L 1178 4134 
L 603 4134 
L 603 4863 
z
" transform="scale(0.015625)"/>
      <path id="DejaVuSans-66" d="M 2375 4863 
L 2375 4384 
L 1825 4384 
Q 1516 4384 1395 4259 
Q 1275 4134 1275 3809 
L 1275 3500 
L 2222 3500 
L 2222 3053 
L 1275 3053 
L 1275 0 
L 697 0 
L 697 3053 
L 147 3053 
L 147 3500 
L 697 3500 
L 697 3744 
Q 697 4328 969 4595 
Q 1241 4863 1831 4863 
L 2375 4863 
z
" transform="scale(0.015625)"/>
      <path id="DejaVuSans-45" d="M 628 4666 
L 3578 4666 
L 3578 4134 
L 1259 4134 
L 1259 2753 
L 3481 2753 
L 3481 2222 
L 1259 2222 
L 1259 531 
L 3634 531 
L 3634 0 
L 628 0 
L 628 4666 
z
" transform="scale(0.015625)"/>
      <path id="DejaVuSans-67" d="M 2906 1791 
Q 2906 2416 2648 2759 
Q 2391 3103 1925 3103 
Q 1463 3103 1205 2759 
Q 947 2416 947 1791 
Q 947 1169 1205 825 
Q 1463 481 1925 481 
Q 2391 481 2648 825 
Q 2906 1169 2906 1791 
z
M 3481 434 
Q 3481 -459 3084 -895 
Q 2688 -1331 1869 -1331 
Q 1566 -1331 1297 -1286 
Q 1028 -1241 775 -1147 
L 775 -588 
Q 1028 -725 1275 -790 
Q 1522 -856 1778 -856 
Q 2344 -856 2625 -561 
Q 2906 -266 2906 331 
L 2906 616 
Q 2728 306 2450 153 
Q 2172 0 1784 0 
Q 1141 0 747 490 
Q 353 981 353 1791 
Q 353 2603 747 3093 
Q 1141 3584 1784 3584 
Q 2172 3584 2450 3431 
Q 2728 3278 2906 2969 
L 2906 3500 
L 3481 3500 
L 3481 434 
z
" transform="scale(0.015625)"/>
      <path id="DejaVuSans-2f" d="M 1625 4666 
L 2156 4666 
L 531 -594 
L 0 -594 
L 1625 4666 
z
" transform="scale(0.015625)"/>
      <path id="DejaVuSans-38" d="M 2034 2216 
Q 1584 2216 1326 1975 
Q 1069 1734 1069 1313 
Q 1069 891 1326 650 
Q 1584 409 2034 409 
Q 2484 409 2743 651 
Q 3003 894 3003 1313 
Q 3003 1734 2745 1975 
Q 2488 2216 2034 2216 
z
M 1403 2484 
Q 997 2584 770 2862 
Q 544 3141 544 3541 
Q 544 4100 942 4425 
Q 1341 4750 2034 4750 
Q 2731 4750 3128 4425 
Q 3525 4100 3525 3541 
Q 3525 3141 3298 2862 
Q 3072 2584 2669 2484 
Q 3125 2378 3379 2068 
Q 3634 1759 3634 1313 
Q 3634 634 3220 271 
Q 2806 -91 2034 -91 
Q 1263 -91 848 271 
Q 434 634 434 1313 
Q 434 1759 690 2068 
Q 947 2378 1403 2484 
z
M 1172 3481 
Q 1172 3119 1398 2916 
Q 1625 2713 2034 2713 
Q 2441 2713 2670 2916 
Q 2900 3119 2900 3481 
Q 2900 3844 2670 4047 
Q 2441 4250 2034 4250 
Q 1625 4250 1398 4047 
Q 1172 3844 1172 3481 
z
" transform="scale(0.015625)"/>
     </defs>
     <use xlink:href="#DejaVuSans-54"/>
     <use xlink:href="#DejaVuSans-43" x="55.208984"/>
     <use xlink:href="#DejaVuSans-50" x="125.033203"/>
     <use xlink:href="#DejaVuSans-20" x="185.335938"/>
     <use xlink:href="#DejaVuSans-42" x="217.123047"/>
     <use xlink:href="#DejaVuSans-6f" x="285.726562"/>
     <use xlink:href="#DejaVuSans-78" x="343.783203"/>
     <use xlink:href="#DejaVuSans-20" x="402.962891"/>
     <use xlink:href="#DejaVuSans-61" x="434.75"/>
     <use xlink:href="#DejaVuSans-6e" x="496.029297"/>
     <use xlink:href="#DejaVuSans-64" x="559.408203"/>
     <use xlink:href="#DejaVuSans-20" x="622.884766"/>
     <use xlink:href="#DejaVuSans-54" x="654.671875"/>
     <use xlink:href="#DejaVuSans-65" x="698.755859"/>
     <use xlink:href="#DejaVuSans-73" x="760.279297"/>
     <use xlink:href="#DejaVuSans-74" x="812.378906"/>
     <use xlink:href="#DejaVuSans-20" x="851.587891"/>
     <use xlink:href="#DejaVuSans-47" x="883.375"/>
     <use xlink:href="#DejaVuSans-72" x="960.865234"/>
     <use xlink:href="#DejaVuSans-69" x="1001.978516"/>
     <use xlink:href="#DejaVuSans-64" x="1029.761719"/>
     <use xlink:href="#DejaVuSans-20" x="1093.238281"/>
     <use xlink:href="#DejaVuSans-50" x="1125.025391"/>
     <use xlink:href="#DejaVuSans-6f" x="1181.703125"/>
     <use xlink:href="#DejaVuSans-69" x="1242.884766"/>
     <use xlink:href="#DejaVuSans-6e" x="1270.667969"/>
     <use xlink:href="#DejaVuSans-74" x="1334.046875"/>
     <use xlink:href="#DejaVuSans-73" x="1373.255859"/>
     <use xlink:href="#DejaVuSans-20" x="1425.355469"/>
     <use xlink:href="#DejaVuSans-66" x="1457.142578"/>
     <use xlink:href="#DejaVuSans-6f" x="1492.347656"/>
     <use xlink:href="#DejaVuSans-72" x="1553.529297"/>
     <use xlink:href="#DejaVuSans-20" x="1594.642578"/>
     <use xlink:href="#DejaVuSans-45" x="1626.429688"/>
     <use xlink:href="#DejaVuSans-64" x="1689.613281"/>
     <use xlink:href="#DejaVuSans-67" x="1753.089844"/>
     <use xlink:href="#DejaVuSans-65" x="1816.566406"/>
     <use xlink:href="#DejaVuSans-73" x="1878.089844"/>
     <use xlink:href="#DejaVuSans-20" x="1930.189453"/>
     <use xlink:href="#DejaVuSans-32" x="1961.976562"/>
     <use xlink:href="#DejaVuSans-2f" x="2025.599609"/>
     <use xlink:href="#DejaVuSans-31" x="2059.291016"/>
     <use xlink:href="#DejaVuSans-38" x="2122.914062"/>
    </g>
   </g>
   <g id="legend_1">
    <g id="patch_7">
     <path d="M 436.607812 89.030625 
L 554.554687 89.030625 
Q 556.554687 89.030625 556.554687 87.030625 
L 556.554687 29.318125 
Q 556.554687 27.318125 554.554687 27.318125 
L 436.607812 27.318125 
Q 434.607812 27.318125 434.607812 29.318125 
L 434.607812 87.030625 
Q 434.607812 89.030625 436.607812 89.030625 
z
" style="fill: #ffffff; opacity: 0.8; stroke: #cccccc; stroke-linejoin: miter"/>
    </g>
    <g id="line2d_53">
     <path d="M 438.607812 35.416563 
L 448.607812 35.416563 
L 458.607812 35.416563 
" style="fill: none; stroke: #0000ff; stroke-width: 3; stroke-linecap: square"/>
    </g>
    <g id="text_16">
     <!-- Edges of Plane2 -->
     <g transform="translate(466.607812 38.916563) scale(0.1 -0.1)">
      <defs>
       <path id="DejaVuSans-6c" d="M 603 4863 
L 1178 4863 
L 1178 0 
L 603 0 
L 603 4863 
z
" transform="scale(0.015625)"/>
      </defs>
      <use xlink:href="#DejaVuSans-45"/>
      <use xlink:href="#DejaVuSans-64" x="63.183594"/>
      <use xlink:href="#DejaVuSans-67" x="126.660156"/>
      <use xlink:href="#DejaVuSans-65" x="190.136719"/>
      <use xlink:href="#DejaVuSans-73" x="251.660156"/>
      <use xlink:href="#DejaVuSans-20" x="303.759766"/>
      <use xlink:href="#DejaVuSans-6f" x="335.546875"/>
      <use xlink:href="#DejaVuSans-66" x="396.728516"/>
      <use xlink:href="#DejaVuSans-20" x="431.933594"/>
      <use xlink:href="#DejaVuSans-50" x="463.720703"/>
      <use xlink:href="#DejaVuSans-6c" x="524.023438"/>
      <use xlink:href="#DejaVuSans-61" x="551.806641"/>
      <use xlink:href="#DejaVuSans-6e" x="613.085938"/>
      <use xlink:href="#DejaVuSans-65" x="676.464844"/>
      <use xlink:href="#DejaVuSans-32" x="737.988281"/>
     </g>
    </g>
    <g id="line2d_54">
     <path d="M 438.607812 50.094688 
L 448.607812 50.094688 
L 458.607812 50.094688 
" style="fill: none; stroke: #bf00bf; stroke-width: 1.5; stroke-linecap: square"/>
    </g>
    <g id="text_17">
     <!-- Gripper Direction -->
     <g transform="translate(466.607812 53.594688) scale(0.1 -0.1)">
      <defs>
       <path id="DejaVuSans-70" d="M 1159 525 
L 1159 -1331 
L 581 -1331 
L 581 3500 
L 1159 3500 
L 1159 2969 
Q 1341 3281 1617 3432 
Q 1894 3584 2278 3584 
Q 2916 3584 3314 3078 
Q 3713 2572 3713 1747 
Q 3713 922 3314 415 
Q 2916 -91 2278 -91 
Q 1894 -91 1617 61 
Q 1341 213 1159 525 
z
M 3116 1747 
Q 3116 2381 2855 2742 
Q 2594 3103 2138 3103 
Q 1681 3103 1420 2742 
Q 1159 2381 1159 1747 
Q 1159 1113 1420 752 
Q 1681 391 2138 391 
Q 2594 391 2855 752 
Q 3116 1113 3116 1747 
z
" transform="scale(0.015625)"/>
       <path id="DejaVuSans-44" d="M 1259 4147 
L 1259 519 
L 2022 519 
Q 2988 519 3436 956 
Q 3884 1394 3884 2338 
Q 3884 3275 3436 3711 
Q 2988 4147 2022 4147 
L 1259 4147 
z
M 628 4666 
L 1925 4666 
Q 3281 4666 3915 4102 
Q 4550 3538 4550 2338 
Q 4550 1131 3912 565 
Q 3275 0 1925 0 
L 628 0 
L 628 4666 
z
" transform="scale(0.015625)"/>
       <path id="DejaVuSans-63" d="M 3122 3366 
L 3122 2828 
Q 2878 2963 2633 3030 
Q 2388 3097 2138 3097 
Q 1578 3097 1268 2742 
Q 959 2388 959 1747 
Q 959 1106 1268 751 
Q 1578 397 2138 397 
Q 2388 397 2633 464 
Q 2878 531 3122 666 
L 3122 134 
Q 2881 22 2623 -34 
Q 2366 -91 2075 -91 
Q 1284 -91 818 406 
Q 353 903 353 1747 
Q 353 2603 823 3093 
Q 1294 3584 2113 3584 
Q 2378 3584 2631 3529 
Q 2884 3475 3122 3366 
z
" transform="scale(0.015625)"/>
      </defs>
      <use xlink:href="#DejaVuSans-47"/>
      <use xlink:href="#DejaVuSans-72" x="77.490234"/>
      <use xlink:href="#DejaVuSans-69" x="118.603516"/>
      <use xlink:href="#DejaVuSans-70" x="146.386719"/>
      <use xlink:href="#DejaVuSans-70" x="209.863281"/>
      <use xlink:href="#DejaVuSans-65" x="273.339844"/>
      <use xlink:href="#DejaVuSans-72" x="334.863281"/>
      <use xlink:href="#DejaVuSans-20" x="375.976562"/>
      <use xlink:href="#DejaVuSans-44" x="407.763672"/>
      <use xlink:href="#DejaVuSans-69" x="484.765625"/>
      <use xlink:href="#DejaVuSans-72" x="512.548828"/>
      <use xlink:href="#DejaVuSans-65" x="551.412109"/>
      <use xlink:href="#DejaVuSans-63" x="612.935547"/>
      <use xlink:href="#DejaVuSans-74" x="667.916016"/>
      <use xlink:href="#DejaVuSans-69" x="707.125"/>
      <use xlink:href="#DejaVuSans-6f" x="734.908203"/>
      <use xlink:href="#DejaVuSans-6e" x="796.089844"/>
     </g>
    </g>
    <g id="line2d_55">
     <path d="M 438.607812 64.772813 
L 448.607812 64.772813 
L 458.607812 64.772813 
" style="fill: none; stroke-dasharray: 1.85,0.8; stroke-dashoffset: 0; stroke: #008000; stroke-width: 0.5"/>
    </g>
    <g id="text_18">
     <!-- TCP Box -->
     <g transform="translate(466.607812 68.272813) scale(0.1 -0.1)">
      <use xlink:href="#DejaVuSans-54"/>
      <use xlink:href="#DejaVuSans-43" x="55.208984"/>
      <use xlink:href="#DejaVuSans-50" x="125.033203"/>
      <use xlink:href="#DejaVuSans-20" x="185.335938"/>
      <use xlink:href="#DejaVuSans-42" x="217.123047"/>
      <use xlink:href="#DejaVuSans-6f" x="285.726562"/>
      <use xlink:href="#DejaVuSans-78" x="343.783203"/>
     </g>
    </g>
    <g id="line2d_56">
     <g>
      <use xlink:href="#m82a3134562" x="448.607812" y="79.450938" style="fill: #ff0000; stroke: #ff0000"/>
     </g>
    </g>
    <g id="text_19">
     <!-- Test Grid Points -->
     <g transform="translate(466.607812 82.950938) scale(0.1 -0.1)">
      <use xlink:href="#DejaVuSans-54"/>
      <use xlink:href="#DejaVuSans-65" x="44.083984"/>
      <use xlink:href="#DejaVuSans-73" x="105.607422"/>
      <use xlink:href="#DejaVuSans-74" x="157.707031"/>
      <use xlink:href="#DejaVuSans-20" x="196.916016"/>
      <use xlink:href="#DejaVuSans-47" x="228.703125"/>
      <use xlink:href="#DejaVuSans-72" x="306.193359"/>
      <use xlink:href="#DejaVuSans-69" x="347.306641"/>
      <use xlink:href="#DejaVuSans-64" x="375.089844"/>
      <use xlink:href="#DejaVuSans-20" x="438.566406"/>
      <use xlink:href="#DejaVuSans-50" x="470.353516"/>
      <use xlink:href="#DejaVuSans-6f" x="527.03125"/>
      <use xlink:href="#DejaVuSans-69" x="588.212891"/>
      <use xlink:href="#DejaVuSans-6e" x="615.996094"/>
      <use xlink:href="#DejaVuSans-74" x="679.375"/>
      <use xlink:href="#DejaVuSans-73" x="718.583984"/>
     </g>
    </g>
   </g>
  </g>
 </g>
 <defs>
  <clipPath id="p1e096b407f">
   <rect x="35.304688" y="22.318125" width="526.25" height="350.833333"/>
  </clipPath>
 </defs>
</svg>
