<?xml version="1.0" encoding="utf-8" standalone="no"?>
<!DOCTYPE svg PUBLIC "-//W3C//DTD SVG 1.1//EN"
  "http://www.w3.org/Graphics/SVG/1.1/DTD/svg11.dtd">
<svg xmlns:xlink="http://www.w3.org/1999/xlink" width="568.754687pt" height="263.954871pt" viewBox="0 0 568.754687 263.954871" xmlns="http://www.w3.org/2000/svg" version="1.1">
 <metadata>
  <rdf:RDF xmlns:dc="http://purl.org/dc/elements/1.1/" xmlns:cc="http://creativecommons.org/ns#" xmlns:rdf="http://www.w3.org/1999/02/22-rdf-syntax-ns#">
   <cc:Work>
    <dc:type rdf:resource="http://purl.org/dc/dcmitype/StillImage"/>
    <dc:date>2025-11-14T08:07:46.264007</dc:date>
    <dc:format>image/svg+xml</dc:format>
    <dc:creator>
     <cc:Agent>
      <dc:title>Matplotlib v3.9.4, https://matplotlib.org/</dc:title>
     </cc:Agent>
    </dc:creator>
   </cc:Work>
  </rdf:RDF>
 </metadata>
 <defs>
  <style type="text/css">*{stroke-linejoin: round; stroke-linecap: butt}</style>
 </defs>
 <g id="figure_1">
  <g id="patch_1">
   <path d="M 0 263.954871 
L 568.754687 263.954871 
L 568.754687 0 
L 0 0 
z
" style="fill: #ffffff"/>
  </g>
  <g id="axes_1">
   <g id="patch_2">
    <path d="M 35.304688 240.076746 
L 561.554687 240.076746 
L 561.554687 22.318125 
L 35.304688 22.318125 
z
" style="fill: #ffffff"/>
   </g>
   <g id="matplotlib.axis_1">
    <g id="xtick_1">
     <g id="line2d_1">
      <path d="M 50.984246 240.076746 
L 50.984246 22.318125 
" clip-path="url(#p8dd1bd3cb6)" style="fill: none; stroke: #b0b0b0; stroke-width: 0.8; stroke-linecap: square"/>
     </g>
     <g id="line2d_2">
      <defs>
       <path id="ma745e0fb39" d="M 0 0 
L 0 3.5 
" style="stroke: #000000; stroke-width: 0.8"/>
      </defs>
      <g>
       <use xlink:href="#ma745e0fb39" x="50.984246" y="240.076746" style="stroke: #000000; stroke-width: 0.8"/>
      </g>
     </g>
     <g id="text_1">
      <!-- −60 -->
      <g transform="translate(40.431903 254.675183) scale(0.1 -0.1)">
       <defs>
        <path id="DejaVuSans-2212" d="M 678 2272 
L 4684 2272 
L 4684 1741 
L 678 1741 
L 678 2272 
z
" transform="scale(0.015625)"/>
        <path id="DejaVuSans-36" d="M 2113 2584 
Q 1688 2584 1439 2293 
Q 1191 2003 1191 1497 
Q 1191 994 1439 701 
Q 1688 409 2113 409 
Q 2538 409 2786 701 
Q 3034 994 3034 1497 
Q 3034 2003 2786 2293 
Q 2538 2584 2113 2584 
z
M 3366 4563 
L 3366 3988 
Q 3128 4100 2886 4159 
Q 2644 4219 2406 4219 
Q 1781 4219 1451 3797 
Q 1122 3375 1075 2522 
Q 1259 2794 1537 2939 
Q 1816 3084 2150 3084 
Q 2853 3084 3261 2657 
Q 3669 2231 3669 1497 
Q 3669 778 3244 343 
Q 2819 -91 2113 -91 
Q 1303 -91 875 529 
Q 447 1150 447 2328 
Q 447 3434 972 4092 
Q 1497 4750 2381 4750 
Q 2619 4750 2861 4703 
Q 3103 4656 3366 4563 
z
" transform="scale(0.015625)"/>
        <path id="DejaVuSans-30" d="M 2034 4250 
Q 1547 4250 1301 3770 
Q 1056 3291 1056 2328 
Q 1056 1369 1301 889 
Q 1547 409 2034 409 
Q 2525 409 2770 889 
Q 3016 1369 3016 2328 
Q 3016 3291 2770 3770 
Q 2525 4250 2034 4250 
z
M 2034 4750 
Q 2819 4750 3233 4129 
Q 3647 3509 3647 2328 
Q 3647 1150 3233 529 
Q 2819 -91 2034 -91 
Q 1250 -91 836 529 
Q 422 1150 422 2328 
Q 422 3509 836 4129 
Q 1250 4750 2034 4750 
z
" transform="scale(0.015625)"/>
       </defs>
       <use xlink:href="#DejaVuSans-2212"/>
       <use xlink:href="#DejaVuSans-36" x="83.789062"/>
       <use xlink:href="#DejaVuSans-30" x="147.412109"/>
      </g>
     </g>
    </g>
    <g id="xtick_2">
     <g id="line2d_3">
      <path d="M 141.717005 240.076746 
L 141.717005 22.318125 
" clip-path="url(#p8dd1bd3cb6)" style="fill: none; stroke: #b0b0b0; stroke-width: 0.8; stroke-linecap: square"/>
     </g>
     <g id="line2d_4">
      <g>
       <use xlink:href="#ma745e0fb39" x="141.717005" y="240.076746" style="stroke: #000000; stroke-width: 0.8"/>
      </g>
     </g>
     <g id="text_2">
      <!-- −40 -->
      <g transform="translate(131.164661 254.675183) scale(0.1 -0.1)">
       <defs>
        <path id="DejaVuSans-34" d="M 2419 4116 
L 825 1625 
L 2419 1625 
L 2419 4116 
z
M 2253 4666 
L 3047 4666 
L 3047 1625 
L 3713 1625 
L 3713 1100 
L 3047 1100 
L 3047 0 
L 2419 0 
L 2419 1100 
L 313 1100 
L 313 1709 
L 2253 4666 
z
" transform="scale(0.015625)"/>
       </defs>
       <use xlink:href="#DejaVuSans-2212"/>
       <use xlink:href="#DejaVuSans-34" x="83.789062"/>
       <use xlink:href="#DejaVuSans-30" x="147.412109"/>
      </g>
     </g>
    </g>
    <g id="xtick_3">
     <g id="line2d_5">
      <path d="M 232.449764 240.076746 
L 232.449764 22.318125 
" clip-path="url(#p8dd1bd3cb6)" style="fill: none; stroke: #b0b0b0; stroke-width: 0.8; stroke-linecap: square"/>
     </g>
     <g id="line2d_6">
      <g>
       <use xlink:href="#ma745e0fb39" x="232.449764" y="240.076746" style="stroke: #000000; stroke-width: 0.8"/>
      </g>
     </g>
     <g id="text_3">
      <!-- −20 -->
      <g transform="translate(221.89742 254.675183) scale(0.1 -0.1)">
       <defs>
        <path id="DejaVuSans-32" d="M 1228 531 
L 3431 531 
L 3431 0 
L 469 0 
L 469 531 
Q 828 903 1448 1529 
Q 2069 2156 2228 2338 
Q 2531 2678 2651 2914 
Q 2772 3150 2772 3378 
Q 2772 3750 2511 3984 
Q 2250 4219 1831 4219 
Q 1534 4219 1204 4116 
Q 875 4013 500 3803 
L 500 4441 
Q 881 4594 1212 4672 
Q 1544 4750 1819 4750 
Q 2544 4750 2975 4387 
Q 3406 4025 3406 3419 
Q 3406 3131 3298 2873 
Q 3191 2616 2906 2266 
Q 2828 2175 2409 1742 
Q 1991 1309 1228 531 
z
" transform="scale(0.015625)"/>
       </defs>
       <use xlink:href="#DejaVuSans-2212"/>
       <use xlink:href="#DejaVuSans-32" x="83.789062"/>
       <use xlink:href="#DejaVuSans-30" x="147.412109"/>
      </g>
     </g>
    </g>
    <g id="xtick_4">
     <g id="line2d_7">
      <path d="M 323.182522 240.076746 
L 323.182522 22.318125 
" clip-path="url(#p8dd1bd3cb6)" style="fill: none; stroke: #b0b0b0; stroke-width: 0.8; stroke-linecap: square"/>
     </g>
     <g id="line2d_8">
      <g>
       <use xlink:href="#ma745e0fb39" x="323.182522" y="240.076746" style="stroke: #000000; stroke-width: 0.8"/>
      </g>
     </g>
     <g id="text_4">
      <!-- 0 -->
      <g transform="translate(320.001272 254.675183) scale(0.1 -0.1)">
       <use xlink:href="#DejaVuSans-30"/>
      </g>
     </g>
    </g>
    <g id="xtick_5">
     <g id="line2d_9">
      <path d="M 413.915281 240.076746 
L 413.915281 22.318125 
" clip-path="url(#p8dd1bd3cb6)" style="fill: none; stroke: #b0b0b0; stroke-width: 0.8; stroke-linecap: square"/>
     </g>
     <g id="line2d_10">
      <g>
       <use xlink:href="#ma745e0fb39" x="413.915281" y="240.076746" style="stroke: #000000; stroke-width: 0.8"/>
      </g>
     </g>
     <g id="text_5">
      <!-- 20 -->
      <g transform="translate(407.552781 254.675183) scale(0.1 -0.1)">
       <use xlink:href="#DejaVuSans-32"/>
       <use xlink:href="#DejaVuSans-30" x="63.623047"/>
      </g>
     </g>
    </g>
    <g id="xtick_6">
     <g id="line2d_11">
      <path d="M 504.64804 240.076746 
L 504.64804 22.318125 
" clip-path="url(#p8dd1bd3cb6)" style="fill: none; stroke: #b0b0b0; stroke-width: 0.8; stroke-linecap: square"/>
     </g>
     <g id="line2d_12">
      <g>
       <use xlink:href="#ma745e0fb39" x="504.64804" y="240.076746" style="stroke: #000000; stroke-width: 0.8"/>
      </g>
     </g>
     <g id="text_6">
      <!-- 40 -->
      <g transform="translate(498.28554 254.675183) scale(0.1 -0.1)">
       <use xlink:href="#DejaVuSans-34"/>
       <use xlink:href="#DejaVuSans-30" x="63.623047"/>
      </g>
     </g>
    </g>
   </g>
   <g id="matplotlib.axis_2">
    <g id="ytick_1">
     <g id="line2d_13">
      <path d="M 35.304688 227.841245 
L 561.554687 227.841245 
" clip-path="url(#p8dd1bd3cb6)" style="fill: none; stroke: #b0b0b0; stroke-width: 0.8; stroke-linecap: square"/>
     </g>
     <g id="line2d_14">
      <defs>
       <path id="me6a50163c7" d="M 0 0 
L -3.5 0 
" style="stroke: #000000; stroke-width: 0.8"/>
      </defs>
      <g>
       <use xlink:href="#me6a50163c7" x="35.304688" y="227.841245" style="stroke: #000000; stroke-width: 0.8"/>
      </g>
     </g>
     <g id="text_7">
      <!-- −20 -->
      <g transform="translate(7.2 231.640464) scale(0.1 -0.1)">
       <use xlink:href="#DejaVuSans-2212"/>
       <use xlink:href="#DejaVuSans-32" x="83.789062"/>
       <use xlink:href="#DejaVuSans-30" x="147.412109"/>
      </g>
     </g>
    </g>
    <g id="ytick_2">
     <g id="line2d_15">
      <path d="M 35.304688 182.474866 
L 561.554687 182.474866 
" clip-path="url(#p8dd1bd3cb6)" style="fill: none; stroke: #b0b0b0; stroke-width: 0.8; stroke-linecap: square"/>
     </g>
     <g id="line2d_16">
      <g>
       <use xlink:href="#me6a50163c7" x="35.304688" y="182.474866" style="stroke: #000000; stroke-width: 0.8"/>
      </g>
     </g>
     <g id="text_8">
      <!-- −10 -->
      <g transform="translate(7.2 186.274085) scale(0.1 -0.1)">
       <defs>
        <path id="DejaVuSans-31" d="M 794 531 
L 1825 531 
L 1825 4091 
L 703 3866 
L 703 4441 
L 1819 4666 
L 2450 4666 
L 2450 531 
L 3481 531 
L 3481 0 
L 794 0 
L 794 531 
z
" transform="scale(0.015625)"/>
       </defs>
       <use xlink:href="#DejaVuSans-2212"/>
       <use xlink:href="#DejaVuSans-31" x="83.789062"/>
       <use xlink:href="#DejaVuSans-30" x="147.412109"/>
      </g>
     </g>
    </g>
    <g id="ytick_3">
     <g id="line2d_17">
      <path d="M 35.304688 137.108487 
L 561.554687 137.108487 
" clip-path="url(#p8dd1bd3cb6)" style="fill: none; stroke: #b0b0b0; stroke-width: 0.8; stroke-linecap: square"/>
     </g>
     <g id="line2d_18">
      <g>
       <use xlink:href="#me6a50163c7" x="35.304688" y="137.108487" style="stroke: #000000; stroke-width: 0.8"/>
      </g>
     </g>
     <g id="text_9">
      <!-- 0 -->
      <g transform="translate(21.942187 140.907705) scale(0.1 -0.1)">
       <use xlink:href="#DejaVuSans-30"/>
      </g>
     </g>
    </g>
    <g id="ytick_4">
     <g id="line2d_19">
      <path d="M 35.304688 91.742107 
L 561.554687 91.742107 
" clip-path="url(#p8dd1bd3cb6)" style="fill: none; stroke: #b0b0b0; stroke-width: 0.8; stroke-linecap: square"/>
     </g>
     <g id="line2d_20">
      <g>
       <use xlink:href="#me6a50163c7" x="35.304688" y="91.742107" style="stroke: #000000; stroke-width: 0.8"/>
      </g>
     </g>
     <g id="text_10">
      <!-- 10 -->
      <g transform="translate(15.579687 95.541326) scale(0.1 -0.1)">
       <use xlink:href="#DejaVuSans-31"/>
       <use xlink:href="#DejaVuSans-30" x="63.623047"/>
      </g>
     </g>
    </g>
    <g id="ytick_5">
     <g id="line2d_21">
      <path d="M 35.304688 46.375728 
L 561.554687 46.375728 
" clip-path="url(#p8dd1bd3cb6)" style="fill: none; stroke: #b0b0b0; stroke-width: 0.8; stroke-linecap: square"/>
     </g>
     <g id="line2d_22">
      <g>
       <use xlink:href="#me6a50163c7" x="35.304688" y="46.375728" style="stroke: #000000; stroke-width: 0.8"/>
      </g>
     </g>
     <g id="text_11">
      <!-- 20 -->
      <g transform="translate(15.579687 50.174947) scale(0.1 -0.1)">
       <use xlink:href="#DejaVuSans-32"/>
       <use xlink:href="#DejaVuSans-30" x="63.623047"/>
      </g>
     </g>
    </g>
   </g>
   <g id="line2d_23">
    <path d="M 85.207705 194.710366 
L 144.183998 172.027177 
" clip-path="url(#p8dd1bd3cb6)" style="fill: none; stroke: #0000ff; stroke-width: 3; stroke-linecap: square"/>
   </g>
   <g id="line2d_24">
    <path d="M 144.183998 172.027177 
L 162.33055 135.734073 
" clip-path="url(#p8dd1bd3cb6)" style="fill: none; stroke: #0000ff; stroke-width: 3; stroke-linecap: square"/>
   </g>
   <g id="line2d_25">
    <path d="M 162.33055 135.734073 
L 80.671067 108.514246 
" clip-path="url(#p8dd1bd3cb6)" style="fill: none; stroke: #0000ff; stroke-width: 3; stroke-linecap: square"/>
   </g>
   <g id="line2d_26">
    <path d="M 80.671067 108.514246 
L 80.671067 76.75778 
" clip-path="url(#p8dd1bd3cb6)" style="fill: none; stroke: #0000ff; stroke-width: 3; stroke-linecap: square"/>
   </g>
   <g id="line2d_27">
    <path d="M 80.671067 76.75778 
L 266.673222 72.221142 
" clip-path="url(#p8dd1bd3cb6)" style="fill: none; stroke: #0000ff; stroke-width: 3; stroke-linecap: square"/>
   </g>
   <g id="line2d_28">
    <path d="M 266.673222 72.221142 
L 284.819774 167.490539 
" clip-path="url(#p8dd1bd3cb6)" style="fill: none; stroke: #0000ff; stroke-width: 3; stroke-linecap: square"/>
   </g>
   <g id="line2d_29">
    <path d="M 369.102043 81.401583 
L 372.587185 149.361848 
" clip-path="url(#p8dd1bd3cb6)" style="fill: none; stroke: #bf00bf; stroke-width: 1.5; stroke-linecap: square"/>
   </g>
   <g id="line2d_30">
    <path d="M 394.078893 125.546712 
L 351.095477 173.176983 
" clip-path="url(#p8dd1bd3cb6)" style="fill: none; stroke: #bf00bf; stroke-width: 1.5; stroke-linecap: square"/>
   </g>
   <g id="line2d_31">
    <path d="M 394.078893 125.546712 
L 395.937635 161.792187 
" clip-path="url(#p8dd1bd3cb6)" style="fill: none; stroke: #bf00bf; stroke-width: 1.5; stroke-linecap: square"/>
   </g>
   <g id="line2d_32">
    <path d="M 351.095477 173.176983 
L 352.95422 209.422458 
" clip-path="url(#p8dd1bd3cb6)" style="fill: none; stroke: #bf00bf; stroke-width: 1.5; stroke-linecap: square"/>
   </g>
   <g id="line2d_33">
    <path d="M 284.819774 167.490539 
L 461.748653 158.417263 
" clip-path="url(#p8dd1bd3cb6)" style="fill: none; stroke: #0000ff; stroke-width: 3; stroke-linecap: square"/>
   </g>
   <g id="line2d_34">
    <path d="M 461.748653 158.417263 
L 466.285291 67.684504 
" clip-path="url(#p8dd1bd3cb6)" style="fill: none; stroke: #0000ff; stroke-width: 3; stroke-linecap: square"/>
   </g>
   <g id="line2d_35">
    <path d="M 466.285291 67.684504 
L 516.188308 72.221142 
" clip-path="url(#p8dd1bd3cb6)" style="fill: none; stroke: #0000ff; stroke-width: 3; stroke-linecap: square"/>
   </g>
   <g id="line2d_36">
    <path d="M 516.188308 72.221142 
L 511.65167 194.710366 
" clip-path="url(#p8dd1bd3cb6)" style="fill: none; stroke: #0000ff; stroke-width: 3; stroke-linecap: square"/>
   </g>
   <g id="line2d_37">
    <path d="M 511.65167 194.710366 
L 85.207705 194.710366 
" clip-path="url(#p8dd1bd3cb6)" style="fill: none; stroke: #0000ff; stroke-width: 3; stroke-linecap: square"/>
   </g>
   <g id="line2d_38">
    <path d="M 467.21212 264.954871 
L 461.748653 158.417263 
L 284.819774 167.490539 
L 289.817945 264.954871 
" clip-path="url(#p8dd1bd3cb6)" style="fill: none; stroke-dasharray: 1.85,0.8; stroke-dashoffset: 0; stroke: #008000; stroke-width: 0.5"/>
   </g>
   <g id="line2d_39">
    <defs>
     <path id="m4019efb2ac" d="M -2 2 
L 2 -2 
M -2 -2 
L 2 2 
" style="stroke: #ff0000"/>
    </defs>
    <g clip-path="url(#p8dd1bd3cb6)">
     <use xlink:href="#m4019efb2ac" x="302.977286" y="386.421193" style="fill: #ff0000; stroke: #ff0000"/>
     <use xlink:href="#m4019efb2ac" x="302.140852" y="370.110729" style="fill: #ff0000; stroke: #ff0000"/>
     <use xlink:href="#m4019efb2ac" x="301.304418" y="353.800266" style="fill: #ff0000; stroke: #ff0000"/>
     <use xlink:href="#m4019efb2ac" x="300.467984" y="337.489802" style="fill: #ff0000; stroke: #ff0000"/>
     <use xlink:href="#m4019efb2ac" x="299.63155" y="321.179338" style="fill: #ff0000; stroke: #ff0000"/>
     <use xlink:href="#m4019efb2ac" x="298.795116" y="304.868875" style="fill: #ff0000; stroke: #ff0000"/>
     <use xlink:href="#m4019efb2ac" x="297.958682" y="288.558411" style="fill: #ff0000; stroke: #ff0000"/>
     <use xlink:href="#m4019efb2ac" x="297.122248" y="272.247948" style="fill: #ff0000; stroke: #ff0000"/>
     <use xlink:href="#m4019efb2ac" x="296.285814" y="255.937484" style="fill: #ff0000; stroke: #ff0000"/>
     <use xlink:href="#m4019efb2ac" x="295.44938" y="239.62702" style="fill: #ff0000; stroke: #ff0000"/>
     <use xlink:href="#m4019efb2ac" x="294.612946" y="223.316557" style="fill: #ff0000; stroke: #ff0000"/>
     <use xlink:href="#m4019efb2ac" x="293.776512" y="207.006093" style="fill: #ff0000; stroke: #ff0000"/>
     <use xlink:href="#m4019efb2ac" x="292.940078" y="190.69563" style="fill: #ff0000; stroke: #ff0000"/>
     <use xlink:href="#m4019efb2ac" x="292.103644" y="174.385166" style="fill: #ff0000; stroke: #ff0000"/>
     <use xlink:href="#m4019efb2ac" x="319.28775" y="385.584759" style="fill: #ff0000; stroke: #ff0000"/>
     <use xlink:href="#m4019efb2ac" x="318.451316" y="369.274295" style="fill: #ff0000; stroke: #ff0000"/>
     <use xlink:href="#m4019efb2ac" x="317.614882" y="352.963832" style="fill: #ff0000; stroke: #ff0000"/>
     <use xlink:href="#m4019efb2ac" x="316.778448" y="336.653368" style="fill: #ff0000; stroke: #ff0000"/>
     <use xlink:href="#m4019efb2ac" x="315.942014" y="320.342904" style="fill: #ff0000; stroke: #ff0000"/>
     <use xlink:href="#m4019efb2ac" x="315.10558" y="304.032441" style="fill: #ff0000; stroke: #ff0000"/>
     <use xlink:href="#m4019efb2ac" x="314.269146" y="287.721977" style="fill: #ff0000; stroke: #ff0000"/>
     <use xlink:href="#m4019efb2ac" x="313.432712" y="271.411514" style="fill: #ff0000; stroke: #ff0000"/>
     <use xlink:href="#m4019efb2ac" x="312.596278" y="255.10105" style="fill: #ff0000; stroke: #ff0000"/>
     <use xlink:href="#m4019efb2ac" x="311.759844" y="238.790586" style="fill: #ff0000; stroke: #ff0000"/>
     <use xlink:href="#m4019efb2ac" x="310.923409" y="222.480123" style="fill: #ff0000; stroke: #ff0000"/>
     <use xlink:href="#m4019efb2ac" x="310.086975" y="206.169659" style="fill: #ff0000; stroke: #ff0000"/>
     <use xlink:href="#m4019efb2ac" x="309.250541" y="189.859196" style="fill: #ff0000; stroke: #ff0000"/>
     <use xlink:href="#m4019efb2ac" x="308.414107" y="173.548732" style="fill: #ff0000; stroke: #ff0000"/>
     <use xlink:href="#m4019efb2ac" x="335.598213" y="384.748325" style="fill: #ff0000; stroke: #ff0000"/>
     <use xlink:href="#m4019efb2ac" x="334.761779" y="368.437861" style="fill: #ff0000; stroke: #ff0000"/>
     <use xlink:href="#m4019efb2ac" x="333.925345" y="352.127398" style="fill: #ff0000; stroke: #ff0000"/>
     <use xlink:href="#m4019efb2ac" x="333.088911" y="335.816934" style="fill: #ff0000; stroke: #ff0000"/>
     <use xlink:href="#m4019efb2ac" x="332.252477" y="319.50647" style="fill: #ff0000; stroke: #ff0000"/>
     <use xlink:href="#m4019efb2ac" x="331.416043" y="303.196007" style="fill: #ff0000; stroke: #ff0000"/>
     <use xlink:href="#m4019efb2ac" x="330.579609" y="286.885543" style="fill: #ff0000; stroke: #ff0000"/>
     <use xlink:href="#m4019efb2ac" x="329.743175" y="270.57508" style="fill: #ff0000; stroke: #ff0000"/>
     <use xlink:href="#m4019efb2ac" x="328.906741" y="254.264616" style="fill: #ff0000; stroke: #ff0000"/>
     <use xlink:href="#m4019efb2ac" x="328.070307" y="237.954152" style="fill: #ff0000; stroke: #ff0000"/>
     <use xlink:href="#m4019efb2ac" x="327.233873" y="221.643689" style="fill: #ff0000; stroke: #ff0000"/>
     <use xlink:href="#m4019efb2ac" x="326.397439" y="205.333225" style="fill: #ff0000; stroke: #ff0000"/>
     <use xlink:href="#m4019efb2ac" x="325.561005" y="189.022761" style="fill: #ff0000; stroke: #ff0000"/>
     <use xlink:href="#m4019efb2ac" x="324.724571" y="172.712298" style="fill: #ff0000; stroke: #ff0000"/>
     <use xlink:href="#m4019efb2ac" x="351.908677" y="383.911891" style="fill: #ff0000; stroke: #ff0000"/>
     <use xlink:href="#m4019efb2ac" x="351.072243" y="367.601427" style="fill: #ff0000; stroke: #ff0000"/>
     <use xlink:href="#m4019efb2ac" x="350.235809" y="351.290964" style="fill: #ff0000; stroke: #ff0000"/>
     <use xlink:href="#m4019efb2ac" x="349.399375" y="334.9805" style="fill: #ff0000; stroke: #ff0000"/>
     <use xlink:href="#m4019efb2ac" x="348.562941" y="318.670036" style="fill: #ff0000; stroke: #ff0000"/>
     <use xlink:href="#m4019efb2ac" x="347.726507" y="302.359573" style="fill: #ff0000; stroke: #ff0000"/>
     <use xlink:href="#m4019efb2ac" x="346.890073" y="286.049109" style="fill: #ff0000; stroke: #ff0000"/>
     <use xlink:href="#m4019efb2ac" x="346.053639" y="269.738646" style="fill: #ff0000; stroke: #ff0000"/>
     <use xlink:href="#m4019efb2ac" x="345.217205" y="253.428182" style="fill: #ff0000; stroke: #ff0000"/>
     <use xlink:href="#m4019efb2ac" x="344.380771" y="237.117718" style="fill: #ff0000; stroke: #ff0000"/>
     <use xlink:href="#m4019efb2ac" x="343.544337" y="220.807255" style="fill: #ff0000; stroke: #ff0000"/>
     <use xlink:href="#m4019efb2ac" x="342.707903" y="204.496791" style="fill: #ff0000; stroke: #ff0000"/>
     <use xlink:href="#m4019efb2ac" x="341.871469" y="188.186327" style="fill: #ff0000; stroke: #ff0000"/>
     <use xlink:href="#m4019efb2ac" x="341.035035" y="171.875864" style="fill: #ff0000; stroke: #ff0000"/>
     <use xlink:href="#m4019efb2ac" x="368.219141" y="383.075457" style="fill: #ff0000; stroke: #ff0000"/>
     <use xlink:href="#m4019efb2ac" x="367.382707" y="366.764993" style="fill: #ff0000; stroke: #ff0000"/>
     <use xlink:href="#m4019efb2ac" x="366.546273" y="350.45453" style="fill: #ff0000; stroke: #ff0000"/>
     <use xlink:href="#m4019efb2ac" x="365.709839" y="334.144066" style="fill: #ff0000; stroke: #ff0000"/>
     <use xlink:href="#m4019efb2ac" x="364.873404" y="317.833602" style="fill: #ff0000; stroke: #ff0000"/>
     <use xlink:href="#m4019efb2ac" x="364.03697" y="301.523139" style="fill: #ff0000; stroke: #ff0000"/>
     <use xlink:href="#m4019efb2ac" x="363.200536" y="285.212675" style="fill: #ff0000; stroke: #ff0000"/>
     <use xlink:href="#m4019efb2ac" x="362.364102" y="268.902211" style="fill: #ff0000; stroke: #ff0000"/>
     <use xlink:href="#m4019efb2ac" x="361.527668" y="252.591748" style="fill: #ff0000; stroke: #ff0000"/>
     <use xlink:href="#m4019efb2ac" x="360.691234" y="236.281284" style="fill: #ff0000; stroke: #ff0000"/>
     <use xlink:href="#m4019efb2ac" x="359.8548" y="219.970821" style="fill: #ff0000; stroke: #ff0000"/>
     <use xlink:href="#m4019efb2ac" x="359.018366" y="203.660357" style="fill: #ff0000; stroke: #ff0000"/>
     <use xlink:href="#m4019efb2ac" x="358.181932" y="187.349893" style="fill: #ff0000; stroke: #ff0000"/>
     <use xlink:href="#m4019efb2ac" x="357.345498" y="171.03943" style="fill: #ff0000; stroke: #ff0000"/>
     <use xlink:href="#m4019efb2ac" x="384.529604" y="382.239023" style="fill: #ff0000; stroke: #ff0000"/>
     <use xlink:href="#m4019efb2ac" x="383.69317" y="365.928559" style="fill: #ff0000; stroke: #ff0000"/>
     <use xlink:href="#m4019efb2ac" x="382.856736" y="349.618095" style="fill: #ff0000; stroke: #ff0000"/>
     <use xlink:href="#m4019efb2ac" x="382.020302" y="333.307632" style="fill: #ff0000; stroke: #ff0000"/>
     <use xlink:href="#m4019efb2ac" x="381.183868" y="316.997168" style="fill: #ff0000; stroke: #ff0000"/>
     <use xlink:href="#m4019efb2ac" x="380.347434" y="300.686705" style="fill: #ff0000; stroke: #ff0000"/>
     <use xlink:href="#m4019efb2ac" x="379.511" y="284.376241" style="fill: #ff0000; stroke: #ff0000"/>
     <use xlink:href="#m4019efb2ac" x="378.674566" y="268.065777" style="fill: #ff0000; stroke: #ff0000"/>
     <use xlink:href="#m4019efb2ac" x="377.838132" y="251.755314" style="fill: #ff0000; stroke: #ff0000"/>
     <use xlink:href="#m4019efb2ac" x="377.001698" y="235.44485" style="fill: #ff0000; stroke: #ff0000"/>
     <use xlink:href="#m4019efb2ac" x="376.165264" y="219.134387" style="fill: #ff0000; stroke: #ff0000"/>
     <use xlink:href="#m4019efb2ac" x="375.32883" y="202.823923" style="fill: #ff0000; stroke: #ff0000"/>
     <use xlink:href="#m4019efb2ac" x="374.492396" y="186.513459" style="fill: #ff0000; stroke: #ff0000"/>
     <use xlink:href="#m4019efb2ac" x="373.655962" y="170.202996" style="fill: #ff0000; stroke: #ff0000"/>
     <use xlink:href="#m4019efb2ac" x="400.840068" y="381.402589" style="fill: #ff0000; stroke: #ff0000"/>
     <use xlink:href="#m4019efb2ac" x="400.003634" y="365.092125" style="fill: #ff0000; stroke: #ff0000"/>
     <use xlink:href="#m4019efb2ac" x="399.1672" y="348.781661" style="fill: #ff0000; stroke: #ff0000"/>
     <use xlink:href="#m4019efb2ac" x="398.330766" y="332.471198" style="fill: #ff0000; stroke: #ff0000"/>
     <use xlink:href="#m4019efb2ac" x="397.494332" y="316.160734" style="fill: #ff0000; stroke: #ff0000"/>
     <use xlink:href="#m4019efb2ac" x="396.657898" y="299.850271" style="fill: #ff0000; stroke: #ff0000"/>
     <use xlink:href="#m4019efb2ac" x="395.821464" y="283.539807" style="fill: #ff0000; stroke: #ff0000"/>
     <use xlink:href="#m4019efb2ac" x="394.98503" y="267.229343" style="fill: #ff0000; stroke: #ff0000"/>
     <use xlink:href="#m4019efb2ac" x="394.148596" y="250.91888" style="fill: #ff0000; stroke: #ff0000"/>
     <use xlink:href="#m4019efb2ac" x="393.312162" y="234.608416" style="fill: #ff0000; stroke: #ff0000"/>
     <use xlink:href="#m4019efb2ac" x="392.475728" y="218.297953" style="fill: #ff0000; stroke: #ff0000"/>
     <use xlink:href="#m4019efb2ac" x="391.639293" y="201.987489" style="fill: #ff0000; stroke: #ff0000"/>
     <use xlink:href="#m4019efb2ac" x="390.802859" y="185.677025" style="fill: #ff0000; stroke: #ff0000"/>
     <use xlink:href="#m4019efb2ac" x="389.966425" y="169.366562" style="fill: #ff0000; stroke: #ff0000"/>
     <use xlink:href="#m4019efb2ac" x="417.150531" y="380.566155" style="fill: #ff0000; stroke: #ff0000"/>
     <use xlink:href="#m4019efb2ac" x="416.314097" y="364.255691" style="fill: #ff0000; stroke: #ff0000"/>
     <use xlink:href="#m4019efb2ac" x="415.477663" y="347.945227" style="fill: #ff0000; stroke: #ff0000"/>
     <use xlink:href="#m4019efb2ac" x="414.641229" y="331.634764" style="fill: #ff0000; stroke: #ff0000"/>
     <use xlink:href="#m4019efb2ac" x="413.804795" y="315.3243" style="fill: #ff0000; stroke: #ff0000"/>
     <use xlink:href="#m4019efb2ac" x="412.968361" y="299.013837" style="fill: #ff0000; stroke: #ff0000"/>
     <use xlink:href="#m4019efb2ac" x="412.131927" y="282.703373" style="fill: #ff0000; stroke: #ff0000"/>
     <use xlink:href="#m4019efb2ac" x="411.295493" y="266.392909" style="fill: #ff0000; stroke: #ff0000"/>
     <use xlink:href="#m4019efb2ac" x="410.459059" y="250.082446" style="fill: #ff0000; stroke: #ff0000"/>
     <use xlink:href="#m4019efb2ac" x="409.622625" y="233.771982" style="fill: #ff0000; stroke: #ff0000"/>
     <use xlink:href="#m4019efb2ac" x="408.786191" y="217.461519" style="fill: #ff0000; stroke: #ff0000"/>
     <use xlink:href="#m4019efb2ac" x="407.949757" y="201.151055" style="fill: #ff0000; stroke: #ff0000"/>
     <use xlink:href="#m4019efb2ac" x="407.113323" y="184.840591" style="fill: #ff0000; stroke: #ff0000"/>
     <use xlink:href="#m4019efb2ac" x="406.276889" y="168.530128" style="fill: #ff0000; stroke: #ff0000"/>
     <use xlink:href="#m4019efb2ac" x="433.460995" y="379.729721" style="fill: #ff0000; stroke: #ff0000"/>
     <use xlink:href="#m4019efb2ac" x="432.624561" y="363.419257" style="fill: #ff0000; stroke: #ff0000"/>
     <use xlink:href="#m4019efb2ac" x="431.788127" y="347.108793" style="fill: #ff0000; stroke: #ff0000"/>
     <use xlink:href="#m4019efb2ac" x="430.951693" y="330.79833" style="fill: #ff0000; stroke: #ff0000"/>
     <use xlink:href="#m4019efb2ac" x="430.115259" y="314.487866" style="fill: #ff0000; stroke: #ff0000"/>
     <use xlink:href="#m4019efb2ac" x="429.278825" y="298.177403" style="fill: #ff0000; stroke: #ff0000"/>
     <use xlink:href="#m4019efb2ac" x="428.442391" y="281.866939" style="fill: #ff0000; stroke: #ff0000"/>
     <use xlink:href="#m4019efb2ac" x="427.605957" y="265.556475" style="fill: #ff0000; stroke: #ff0000"/>
     <use xlink:href="#m4019efb2ac" x="426.769523" y="249.246012" style="fill: #ff0000; stroke: #ff0000"/>
     <use xlink:href="#m4019efb2ac" x="425.933089" y="232.935548" style="fill: #ff0000; stroke: #ff0000"/>
     <use xlink:href="#m4019efb2ac" x="425.096655" y="216.625085" style="fill: #ff0000; stroke: #ff0000"/>
     <use xlink:href="#m4019efb2ac" x="424.260221" y="200.314621" style="fill: #ff0000; stroke: #ff0000"/>
     <use xlink:href="#m4019efb2ac" x="423.423787" y="184.004157" style="fill: #ff0000; stroke: #ff0000"/>
     <use xlink:href="#m4019efb2ac" x="422.587353" y="167.693694" style="fill: #ff0000; stroke: #ff0000"/>
     <use xlink:href="#m4019efb2ac" x="449.771459" y="378.893287" style="fill: #ff0000; stroke: #ff0000"/>
     <use xlink:href="#m4019efb2ac" x="448.935025" y="362.582823" style="fill: #ff0000; stroke: #ff0000"/>
     <use xlink:href="#m4019efb2ac" x="448.098591" y="346.272359" style="fill: #ff0000; stroke: #ff0000"/>
     <use xlink:href="#m4019efb2ac" x="447.262157" y="329.961896" style="fill: #ff0000; stroke: #ff0000"/>
     <use xlink:href="#m4019efb2ac" x="446.425723" y="313.651432" style="fill: #ff0000; stroke: #ff0000"/>
     <use xlink:href="#m4019efb2ac" x="445.589288" y="297.340969" style="fill: #ff0000; stroke: #ff0000"/>
     <use xlink:href="#m4019efb2ac" x="444.752854" y="281.030505" style="fill: #ff0000; stroke: #ff0000"/>
     <use xlink:href="#m4019efb2ac" x="443.91642" y="264.720041" style="fill: #ff0000; stroke: #ff0000"/>
     <use xlink:href="#m4019efb2ac" x="443.079986" y="248.409578" style="fill: #ff0000; stroke: #ff0000"/>
     <use xlink:href="#m4019efb2ac" x="442.243552" y="232.099114" style="fill: #ff0000; stroke: #ff0000"/>
     <use xlink:href="#m4019efb2ac" x="441.407118" y="215.78865" style="fill: #ff0000; stroke: #ff0000"/>
     <use xlink:href="#m4019efb2ac" x="440.570684" y="199.478187" style="fill: #ff0000; stroke: #ff0000"/>
     <use xlink:href="#m4019efb2ac" x="439.73425" y="183.167723" style="fill: #ff0000; stroke: #ff0000"/>
     <use xlink:href="#m4019efb2ac" x="438.897816" y="166.85726" style="fill: #ff0000; stroke: #ff0000"/>
     <use xlink:href="#m4019efb2ac" x="466.081922" y="378.056853" style="fill: #ff0000; stroke: #ff0000"/>
     <use xlink:href="#m4019efb2ac" x="465.245488" y="361.746389" style="fill: #ff0000; stroke: #ff0000"/>
     <use xlink:href="#m4019efb2ac" x="464.409054" y="345.435925" style="fill: #ff0000; stroke: #ff0000"/>
     <use xlink:href="#m4019efb2ac" x="463.57262" y="329.125462" style="fill: #ff0000; stroke: #ff0000"/>
     <use xlink:href="#m4019efb2ac" x="462.736186" y="312.814998" style="fill: #ff0000; stroke: #ff0000"/>
     <use xlink:href="#m4019efb2ac" x="461.899752" y="296.504535" style="fill: #ff0000; stroke: #ff0000"/>
     <use xlink:href="#m4019efb2ac" x="461.063318" y="280.194071" style="fill: #ff0000; stroke: #ff0000"/>
     <use xlink:href="#m4019efb2ac" x="460.226884" y="263.883607" style="fill: #ff0000; stroke: #ff0000"/>
     <use xlink:href="#m4019efb2ac" x="459.39045" y="247.573144" style="fill: #ff0000; stroke: #ff0000"/>
     <use xlink:href="#m4019efb2ac" x="458.554016" y="231.26268" style="fill: #ff0000; stroke: #ff0000"/>
     <use xlink:href="#m4019efb2ac" x="457.717582" y="214.952216" style="fill: #ff0000; stroke: #ff0000"/>
     <use xlink:href="#m4019efb2ac" x="456.881148" y="198.641753" style="fill: #ff0000; stroke: #ff0000"/>
     <use xlink:href="#m4019efb2ac" x="456.044714" y="182.331289" style="fill: #ff0000; stroke: #ff0000"/>
     <use xlink:href="#m4019efb2ac" x="455.20828" y="166.020826" style="fill: #ff0000; stroke: #ff0000"/>
    </g>
   </g>
   <g id="patch_3">
    <path d="M 35.304688 240.076746 
L 35.304688 22.318125 
" style="fill: none; stroke: #000000; stroke-width: 0.8; stroke-linejoin: miter; stroke-linecap: square"/>
   </g>
   <g id="patch_4">
    <path d="M 561.554687 240.076746 
L 561.554687 22.318125 
" style="fill: none; stroke: #000000; stroke-width: 0.8; stroke-linejoin: miter; stroke-linecap: square"/>
   </g>
   <g id="patch_5">
    <path d="M 35.304688 240.076746 
L 561.554687 240.076746 
" style="fill: none; stroke: #000000; stroke-width: 0.8; stroke-linejoin: miter; stroke-linecap: square"/>
   </g>
   <g id="patch_6">
    <path d="M 35.304688 22.318125 
L 561.554687 22.318125 
" style="fill: none; stroke: #000000; stroke-width: 0.8; stroke-linejoin: miter; stroke-linecap: square"/>
   </g>
   <g id="text_12">
    <!-- TCP Box and Test Grid Points for Edges 7/11 -->
    <g transform="translate(167.239687 16.318125) scale(0.12 -0.12)">
     <defs>
      <path id="DejaVuSans-54" d="M -19 4666 
L 3928 4666 
L 3928 4134 
L 2272 4134 
L 2272 0 
L 1638 0 
L 1638 4134 
L -19 4134 
L -19 4666 
z
" transform="scale(0.015625)"/>
      <path id="DejaVuSans-43" d="M 4122 4306 
L 4122 3641 
Q 3803 3938 3442 4084 
Q 3081 4231 2675 4231 
Q 1875 4231 1450 3742 
Q 1025 3253 1025 2328 
Q 1025 1406 1450 917 
Q 1875 428 2675 428 
Q 3081 428 3442 575 
Q 3803 722 4122 1019 
L 4122 359 
Q 3791 134 3420 21 
Q 3050 -91 2638 -91 
Q 1578 -91 968 557 
Q 359 1206 359 2328 
Q 359 3453 968 4101 
Q 1578 4750 2638 4750 
Q 3056 4750 3426 4639 
Q 3797 4528 4122 4306 
z
" transform="scale(0.015625)"/>
      <path id="DejaVuSans-50" d="M 1259 4147 
L 1259 2394 
L 2053 2394 
Q 2494 2394 2734 2622 
Q 2975 2850 2975 3272 
Q 2975 3691 2734 3919 
Q 2494 4147 2053 4147 
L 1259 4147 
z
M 628 4666 
L 2053 4666 
Q 2838 4666 3239 4311 
Q 3641 3956 3641 3272 
Q 3641 2581 3239 2228 
Q 2838 1875 2053 1875 
L 1259 1875 
L 1259 0 
L 628 0 
L 628 4666 
z
" transform="scale(0.015625)"/>
      <path id="DejaVuSans-20" transform="scale(0.015625)"/>
      <path id="DejaVuSans-42" d="M 1259 2228 
L 1259 519 
L 2272 519 
Q 2781 519 3026 730 
Q 3272 941 3272 1375 
Q 3272 1813 3026 2020 
Q 2781 2228 2272 2228 
L 1259 2228 
z
M 1259 4147 
L 1259 2741 
L 2194 2741 
Q 2656 2741 2882 2914 
Q 3109 3088 3109 3444 
Q 3109 3797 2882 3972 
Q 2656 4147 2194 4147 
L 1259 4147 
z
M 628 4666 
L 2241 4666 
Q 2963 4666 3353 4366 
Q 3744 4066 3744 3513 
Q 3744 3084 3544 2831 
Q 3344 2578 2956 2516 
Q 3422 2416 3680 2098 
Q 3938 1781 3938 1306 
Q 3938 681 3513 340 
Q 3088 0 2303 0 
L 628 0 
L 628 4666 
z
" transform="scale(0.015625)"/>
      <path id="DejaVuSans-6f" d="M 1959 3097 
Q 1497 3097 1228 2736 
Q 959 2375 959 1747 
Q 959 1119 1226 758 
Q 1494 397 1959 397 
Q 2419 397 2687 759 
Q 2956 1122 2956 1747 
Q 2956 2369 2687 2733 
Q 2419 3097 1959 3097 
z
M 1959 3584 
Q 2709 3584 3137 3096 
Q 3566 2609 3566 1747 
Q 3566 888 3137 398 
Q 2709 -91 1959 -91 
Q 1206 -91 779 398 
Q 353 888 353 1747 
Q 353 2609 779 3096 
Q 1206 3584 1959 3584 
z
" transform="scale(0.015625)"/>
      <path id="DejaVuSans-78" d="M 3513 3500 
L 2247 1797 
L 3578 0 
L 2900 0 
L 1881 1375 
L 863 0 
L 184 0 
L 1544 1831 
L 300 3500 
L 978 3500 
L 1906 2253 
L 2834 3500 
L 3513 3500 
z
" transform="scale(0.015625)"/>
      <path id="DejaVuSans-61" d="M 2194 1759 
Q 1497 1759 1228 1600 
Q 959 1441 959 1056 
Q 959 750 1161 570 
Q 1363 391 1709 391 
Q 2188 391 2477 730 
Q 2766 1069 2766 1631 
L 2766 1759 
L 2194 1759 
z
M 3341 1997 
L 3341 0 
L 2766 0 
L 2766 531 
Q 2569 213 2275 61 
Q 1981 -91 1556 -91 
Q 1019 -91 701 211 
Q 384 513 384 1019 
Q 384 1609 779 1909 
Q 1175 2209 1959 2209 
L 2766 2209 
L 2766 2266 
Q 2766 2663 2505 2880 
Q 2244 3097 1772 3097 
Q 1472 3097 1187 3025 
Q 903 2953 641 2809 
L 641 3341 
Q 956 3463 1253 3523 
Q 1550 3584 1831 3584 
Q 2591 3584 2966 3190 
Q 3341 2797 3341 1997 
z
" transform="scale(0.015625)"/>
      <path id="DejaVuSans-6e" d="M 3513 2113 
L 3513 0 
L 2938 0 
L 2938 2094 
Q 2938 2591 2744 2837 
Q 2550 3084 2163 3084 
Q 1697 3084 1428 2787 
Q 1159 2491 1159 1978 
L 1159 0 
L 581 0 
L 581 3500 
L 1159 3500 
L 1159 2956 
Q 1366 3272 1645 3428 
Q 1925 3584 2291 3584 
Q 2894 3584 3203 3211 
Q 3513 2838 3513 2113 
z
" transform="scale(0.015625)"/>
      <path id="DejaVuSans-64" d="M 2906 2969 
L 2906 4863 
L 3481 4863 
L 3481 0 
L 2906 0 
L 2906 525 
Q 2725 213 2448 61 
Q 2172 -91 1784 -91 
Q 1150 -91 751 415 
Q 353 922 353 1747 
Q 353 2572 751 3078 
Q 1150 3584 1784 3584 
Q 2172 3584 2448 3432 
Q 2725 3281 2906 2969 
z
M 947 1747 
Q 947 1113 1208 752 
Q 1469 391 1925 391 
Q 2381 391 2643 752 
Q 2906 1113 2906 1747 
Q 2906 2381 2643 2742 
Q 2381 3103 1925 3103 
Q 1469 3103 1208 2742 
Q 947 2381 947 1747 
z
" transform="scale(0.015625)"/>
      <path id="DejaVuSans-65" d="M 3597 1894 
L 3597 1613 
L 953 1613 
Q 991 1019 1311 708 
Q 1631 397 2203 397 
Q 2534 397 2845 478 
Q 3156 559 3463 722 
L 3463 178 
Q 3153 47 2828 -22 
Q 2503 -91 2169 -91 
Q 1331 -91 842 396 
Q 353 884 353 1716 
Q 353 2575 817 3079 
Q 1281 3584 2069 3584 
Q 2775 3584 3186 3129 
Q 3597 2675 3597 1894 
z
M 3022 2063 
Q 3016 2534 2758 2815 
Q 2500 3097 2075 3097 
Q 1594 3097 1305 2825 
Q 1016 2553 972 2059 
L 3022 2063 
z
" transform="scale(0.015625)"/>
      <path id="DejaVuSans-73" d="M 2834 3397 
L 2834 2853 
Q 2591 2978 2328 3040 
Q 2066 3103 1784 3103 
Q 1356 3103 1142 2972 
Q 928 2841 928 2578 
Q 928 2378 1081 2264 
Q 1234 2150 1697 2047 
L 1894 2003 
Q 2506 1872 2764 1633 
Q 3022 1394 3022 966 
Q 3022 478 2636 193 
Q 2250 -91 1575 -91 
Q 1294 -91 989 -36 
Q 684 19 347 128 
L 347 722 
Q 666 556 975 473 
Q 1284 391 1588 391 
Q 1994 391 2212 530 
Q 2431 669 2431 922 
Q 2431 1156 2273 1281 
Q 2116 1406 1581 1522 
L 1381 1569 
Q 847 1681 609 1914 
Q 372 2147 372 2553 
Q 372 3047 722 3315 
Q 1072 3584 1716 3584 
Q 2034 3584 2315 3537 
Q 2597 3491 2834 3397 
z
" transform="scale(0.015625)"/>
      <path id="DejaVuSans-74" d="M 1172 4494 
L 1172 3500 
L 2356 3500 
L 2356 3053 
L 1172 3053 
L 1172 1153 
Q 1172 725 1289 603 
Q 1406 481 1766 481 
L 2356 481 
L 2356 0 
L 1766 0 
Q 1100 0 847 248 
Q 594 497 594 1153 
L 594 3053 
L 172 3053 
L 172 3500 
L 594 3500 
L 594 4494 
L 1172 4494 
z
" transform="scale(0.015625)"/>
      <path id="DejaVuSans-47" d="M 3809 666 
L 3809 1919 
L 2778 1919 
L 2778 2438 
L 4434 2438 
L 4434 434 
Q 4069 175 3628 42 
Q 3188 -91 2688 -91 
Q 1594 -91 976 548 
Q 359 1188 359 2328 
Q 359 3472 976 4111 
Q 1594 4750 2688 4750 
Q 3144 4750 3555 4637 
Q 3966 4525 4313 4306 
L 4313 3634 
Q 3963 3931 3569 4081 
Q 3175 4231 2741 4231 
Q 1884 4231 1454 3753 
Q 1025 3275 1025 2328 
Q 1025 1384 1454 906 
Q 1884 428 2741 428 
Q 3075 428 3337 486 
Q 3600 544 3809 666 
z
" transform="scale(0.015625)"/>
      <path id="DejaVuSans-72" d="M 2631 2963 
Q 2534 3019 2420 3045 
Q 2306 3072 2169 3072 
Q 1681 3072 1420 2755 
Q 1159 2438 1159 1844 
L 1159 0 
L 581 0 
L 581 3500 
L 1159 3500 
L 1159 2956 
Q 1341 3275 1631 3429 
Q 1922 3584 2338 3584 
Q 2397 3584 2469 3576 
Q 2541 3569 2628 3553 
L 2631 2963 
z
" transform="scale(0.015625)"/>
      <path id="DejaVuSans-69" d="M 603 3500 
L 1178 3500 
L 1178 0 
L 603 0 
L 603 3500 
z
M 603 4863 
L 1178 4863 
L 1178 4134 
L 603 4134 
L 603 4863 
z
" transform="scale(0.015625)"/>
      <path id="DejaVuSans-66" d="M 2375 4863 
L 2375 4384 
L 1825 4384 
Q 1516 4384 1395 4259 
Q 1275 4134 1275 3809 
L 1275 3500 
L 2222 3500 
L 2222 3053 
L 1275 3053 
L 1275 0 
L 697 0 
L 697 3053 
L 147 3053 
L 147 3500 
L 697 3500 
L 697 3744 
Q 697 4328 969 4595 
Q 1241 4863 1831 4863 
L 2375 4863 
z
" transform="scale(0.015625)"/>
      <path id="DejaVuSans-45" d="M 628 4666 
L 3578 4666 
L 3578 4134 
L 1259 4134 
L 1259 2753 
L 3481 2753 
L 3481 2222 
L 1259 2222 
L 1259 531 
L 3634 531 
L 3634 0 
L 628 0 
L 628 4666 
z
" transform="scale(0.015625)"/>
      <path id="DejaVuSans-67" d="M 2906 1791 
Q 2906 2416 2648 2759 
Q 2391 3103 1925 3103 
Q 1463 3103 1205 2759 
Q 947 2416 947 1791 
Q 947 1169 1205 825 
Q 1463 481 1925 481 
Q 2391 481 2648 825 
Q 2906 1169 2906 1791 
z
M 3481 434 
Q 3481 -459 3084 -895 
Q 2688 -1331 1869 -1331 
Q 1566 -1331 1297 -1286 
Q 1028 -1241 775 -1147 
L 775 -588 
Q 1028 -725 1275 -790 
Q 1522 -856 1778 -856 
Q 2344 -856 2625 -561 
Q 2906 -266 2906 331 
L 2906 616 
Q 2728 306 2450 153 
Q 2172 0 1784 0 
Q 1141 0 747 490 
Q 353 981 353 1791 
Q 353 2603 747 3093 
Q 1141 3584 1784 3584 
Q 2172 3584 2450 3431 
Q 2728 3278 2906 2969 
L 2906 3500 
L 3481 3500 
L 3481 434 
z
" transform="scale(0.015625)"/>
      <path id="DejaVuSans-37" d="M 525 4666 
L 3525 4666 
L 3525 4397 
L 1831 0 
L 1172 0 
L 2766 4134 
L 525 4134 
L 525 4666 
z
" transform="scale(0.015625)"/>
      <path id="DejaVuSans-2f" d="M 1625 4666 
L 2156 4666 
L 531 -594 
L 0 -594 
L 1625 4666 
z
" transform="scale(0.015625)"/>
     </defs>
     <use xlink:href="#DejaVuSans-54"/>
     <use xlink:href="#DejaVuSans-43" x="55.208984"/>
     <use xlink:href="#DejaVuSans-50" x="125.033203"/>
     <use xlink:href="#DejaVuSans-20" x="185.335938"/>
     <use xlink:href="#DejaVuSans-42" x="217.123047"/>
     <use xlink:href="#DejaVuSans-6f" x="285.726562"/>
     <use xlink:href="#DejaVuSans-78" x="343.783203"/>
     <use xlink:href="#DejaVuSans-20" x="402.962891"/>
     <use xlink:href="#DejaVuSans-61" x="434.75"/>
     <use xlink:href="#DejaVuSans-6e" x="496.029297"/>
     <use xlink:href="#DejaVuSans-64" x="559.408203"/>
     <use xlink:href="#DejaVuSans-20" x="622.884766"/>
     <use xlink:href="#DejaVuSans-54" x="654.671875"/>
     <use xlink:href="#DejaVuSans-65" x="698.755859"/>
     <use xlink:href="#DejaVuSans-73" x="760.279297"/>
     <use xlink:href="#DejaVuSans-74" x="812.378906"/>
     <use xlink:href="#DejaVuSans-20" x="851.587891"/>
     <use xlink:href="#DejaVuSans-47" x="883.375"/>
     <use xlink:href="#DejaVuSans-72" x="960.865234"/>
     <use xlink:href="#DejaVuSans-69" x="1001.978516"/>
     <use xlink:href="#DejaVuSans-64" x="1029.761719"/>
     <use xlink:href="#DejaVuSans-20" x="1093.238281"/>
     <use xlink:href="#DejaVuSans-50" x="1125.025391"/>
     <use xlink:href="#DejaVuSans-6f" x="1181.703125"/>
     <use xlink:href="#DejaVuSans-69" x="1242.884766"/>
     <use xlink:href="#DejaVuSans-6e" x="1270.667969"/>
     <use xlink:href="#DejaVuSans-74" x="1334.046875"/>
     <use xlink:href="#DejaVuSans-73" x="1373.255859"/>
     <use xlink:href="#DejaVuSans-20" x="1425.355469"/>
     <use xlink:href="#DejaVuSans-66" x="1457.142578"/>
     <use xlink:href="#DejaVuSans-6f" x="1492.347656"/>
     <use xlink:href="#DejaVuSans-72" x="1553.529297"/>
     <use xlink:href="#DejaVuSans-20" x="1594.642578"/>
     <use xlink:href="#DejaVuSans-45" x="1626.429688"/>
     <use xlink:href="#DejaVuSans-64" x="1689.613281"/>
     <use xlink:href="#DejaVuSans-67" x="1753.089844"/>
     <use xlink:href="#DejaVuSans-65" x="1816.566406"/>
     <use xlink:href="#DejaVuSans-73" x="1878.089844"/>
     <use xlink:href="#DejaVuSans-20" x="1930.189453"/>
     <use xlink:href="#DejaVuSans-37" x="1961.976562"/>
     <use xlink:href="#DejaVuSans-2f" x="2025.599609"/>
     <use xlink:href="#DejaVuSans-31" x="2059.291016"/>
     <use xlink:href="#DejaVuSans-31" x="2122.914062"/>
    </g>
   </g>
   <g id="legend_1">
    <g id="patch_7">
     <path d="M 239.45625 162.053685 
L 357.403125 162.053685 
Q 359.403125 162.053685 359.403125 160.053685 
L 359.403125 102.341185 
Q 359.403125 100.341185 357.403125 100.341185 
L 239.45625 100.341185 
Q 237.45625 100.341185 237.45625 102.341185 
L 237.45625 160.053685 
Q 237.45625 162.053685 239.45625 162.053685 
z
" style="fill: #ffffff; opacity: 0.8; stroke: #cccccc; stroke-linejoin: miter"/>
    </g>
    <g id="line2d_40">
     <path d="M 241.45625 108.439623 
L 251.45625 108.439623 
L 261.45625 108.439623 
" style="fill: none; stroke: #0000ff; stroke-width: 3; stroke-linecap: square"/>
    </g>
    <g id="text_13">
     <!-- Edges of Plane2 -->
     <g transform="translate(269.45625 111.939623) scale(0.1 -0.1)">
      <defs>
       <path id="DejaVuSans-6c" d="M 603 4863 
L 1178 4863 
L 1178 0 
L 603 0 
L 603 4863 
z
" transform="scale(0.015625)"/>
      </defs>
      <use xlink:href="#DejaVuSans-45"/>
      <use xlink:href="#DejaVuSans-64" x="63.183594"/>
      <use xlink:href="#DejaVuSans-67" x="126.660156"/>
      <use xlink:href="#DejaVuSans-65" x="190.136719"/>
      <use xlink:href="#DejaVuSans-73" x="251.660156"/>
      <use xlink:href="#DejaVuSans-20" x="303.759766"/>
      <use xlink:href="#DejaVuSans-6f" x="335.546875"/>
      <use xlink:href="#DejaVuSans-66" x="396.728516"/>
      <use xlink:href="#DejaVuSans-20" x="431.933594"/>
      <use xlink:href="#DejaVuSans-50" x="463.720703"/>
      <use xlink:href="#DejaVuSans-6c" x="524.023438"/>
      <use xlink:href="#DejaVuSans-61" x="551.806641"/>
      <use xlink:href="#DejaVuSans-6e" x="613.085938"/>
      <use xlink:href="#DejaVuSans-65" x="676.464844"/>
      <use xlink:href="#DejaVuSans-32" x="737.988281"/>
     </g>
    </g>
    <g id="line2d_41">
     <path d="M 241.45625 123.117748 
L 251.45625 123.117748 
L 261.45625 123.117748 
" style="fill: none; stroke: #bf00bf; stroke-width: 1.5; stroke-linecap: square"/>
    </g>
    <g id="text_14">
     <!-- Gripper Direction -->
     <g transform="translate(269.45625 126.617748) scale(0.1 -0.1)">
      <defs>
       <path id="DejaVuSans-70" d="M 1159 525 
L 1159 -1331 
L 581 -1331 
L 581 3500 
L 1159 3500 
L 1159 2969 
Q 1341 3281 1617 3432 
Q 1894 3584 2278 3584 
Q 2916 3584 3314 3078 
Q 3713 2572 3713 1747 
Q 3713 922 3314 415 
Q 2916 -91 2278 -91 
Q 1894 -91 1617 61 
Q 1341 213 1159 525 
z
M 3116 1747 
Q 3116 2381 2855 2742 
Q 2594 3103 2138 3103 
Q 1681 3103 1420 2742 
Q 1159 2381 1159 1747 
Q 1159 1113 1420 752 
Q 1681 391 2138 391 
Q 2594 391 2855 752 
Q 3116 1113 3116 1747 
z
" transform="scale(0.015625)"/>
       <path id="DejaVuSans-44" d="M 1259 4147 
L 1259 519 
L 2022 519 
Q 2988 519 3436 956 
Q 3884 1394 3884 2338 
Q 3884 3275 3436 3711 
Q 2988 4147 2022 4147 
L 1259 4147 
z
M 628 4666 
L 1925 4666 
Q 3281 4666 3915 4102 
Q 4550 3538 4550 2338 
Q 4550 1131 3912 565 
Q 3275 0 1925 0 
L 628 0 
L 628 4666 
z
" transform="scale(0.015625)"/>
       <path id="DejaVuSans-63" d="M 3122 3366 
L 3122 2828 
Q 2878 2963 2633 3030 
Q 2388 3097 2138 3097 
Q 1578 3097 1268 2742 
Q 959 2388 959 1747 
Q 959 1106 1268 751 
Q 1578 397 2138 397 
Q 2388 397 2633 464 
Q 2878 531 3122 666 
L 3122 134 
Q 2881 22 2623 -34 
Q 2366 -91 2075 -91 
Q 1284 -91 818 406 
Q 353 903 353 1747 
Q 353 2603 823 3093 
Q 1294 3584 2113 3584 
Q 2378 3584 2631 3529 
Q 2884 3475 3122 3366 
z
" transform="scale(0.015625)"/>
      </defs>
      <use xlink:href="#DejaVuSans-47"/>
      <use xlink:href="#DejaVuSans-72" x="77.490234"/>
      <use xlink:href="#DejaVuSans-69" x="118.603516"/>
      <use xlink:href="#DejaVuSans-70" x="146.386719"/>
      <use xlink:href="#DejaVuSans-70" x="209.863281"/>
      <use xlink:href="#DejaVuSans-65" x="273.339844"/>
      <use xlink:href="#DejaVuSans-72" x="334.863281"/>
      <use xlink:href="#DejaVuSans-20" x="375.976562"/>
      <use xlink:href="#DejaVuSans-44" x="407.763672"/>
      <use xlink:href="#DejaVuSans-69" x="484.765625"/>
      <use xlink:href="#DejaVuSans-72" x="512.548828"/>
      <use xlink:href="#DejaVuSans-65" x="551.412109"/>
      <use xlink:href="#DejaVuSans-63" x="612.935547"/>
      <use xlink:href="#DejaVuSans-74" x="667.916016"/>
      <use xlink:href="#DejaVuSans-69" x="707.125"/>
      <use xlink:href="#DejaVuSans-6f" x="734.908203"/>
      <use xlink:href="#DejaVuSans-6e" x="796.089844"/>
     </g>
    </g>
    <g id="line2d_42">
     <path d="M 241.45625 137.795873 
L 251.45625 137.795873 
L 261.45625 137.795873 
" style="fill: none; stroke-dasharray: 1.85,0.8; stroke-dashoffset: 0; stroke: #008000; stroke-width: 0.5"/>
    </g>
    <g id="text_15">
     <!-- TCP Box -->
     <g transform="translate(269.45625 141.295873) scale(0.1 -0.1)">
      <use xlink:href="#DejaVuSans-54"/>
      <use xlink:href="#DejaVuSans-43" x="55.208984"/>
      <use xlink:href="#DejaVuSans-50" x="125.033203"/>
      <use xlink:href="#DejaVuSans-20" x="185.335938"/>
      <use xlink:href="#DejaVuSans-42" x="217.123047"/>
      <use xlink:href="#DejaVuSans-6f" x="285.726562"/>
      <use xlink:href="#DejaVuSans-78" x="343.783203"/>
     </g>
    </g>
    <g id="line2d_43">
     <g>
      <use xlink:href="#m4019efb2ac" x="251.45625" y="152.473998" style="fill: #ff0000; stroke: #ff0000"/>
     </g>
    </g>
    <g id="text_16">
     <!-- Test Grid Points -->
     <g transform="translate(269.45625 155.973998) scale(0.1 -0.1)">
      <use xlink:href="#DejaVuSans-54"/>
      <use xlink:href="#DejaVuSans-65" x="44.083984"/>
      <use xlink:href="#DejaVuSans-73" x="105.607422"/>
      <use xlink:href="#DejaVuSans-74" x="157.707031"/>
      <use xlink:href="#DejaVuSans-20" x="196.916016"/>
      <use xlink:href="#DejaVuSans-47" x="228.703125"/>
      <use xlink:href="#DejaVuSans-72" x="306.193359"/>
      <use xlink:href="#DejaVuSans-69" x="347.306641"/>
      <use xlink:href="#DejaVuSans-64" x="375.089844"/>
      <use xlink:href="#DejaVuSans-20" x="438.566406"/>
      <use xlink:href="#DejaVuSans-50" x="470.353516"/>
      <use xlink:href="#DejaVuSans-6f" x="527.03125"/>
      <use xlink:href="#DejaVuSans-69" x="588.212891"/>
      <use xlink:href="#DejaVuSans-6e" x="615.996094"/>
      <use xlink:href="#DejaVuSans-74" x="679.375"/>
      <use xlink:href="#DejaVuSans-73" x="718.583984"/>
     </g>
    </g>
   </g>
  </g>
 </g>
 <defs>
  <clipPath id="p8dd1bd3cb6">
   <rect x="35.304688" y="22.318125" width="526.25" height="217.758621"/>
  </clipPath>
 </defs>
</svg>
