<?xml version="1.0" encoding="utf-8" standalone="no"?>
<!DOCTYPE svg PUBLIC "-//W3C//DTD SVG 1.1//EN"
  "http://www.w3.org/Graphics/SVG/1.1/DTD/svg11.dtd">
<svg xmlns:xlink="http://www.w3.org/1999/xlink" width="568.754687pt" height="375.674511pt" viewBox="0 0 568.754687 375.674511" xmlns="http://www.w3.org/2000/svg" version="1.1">
 <metadata>
  <rdf:RDF xmlns:dc="http://purl.org/dc/elements/1.1/" xmlns:cc="http://creativecommons.org/ns#" xmlns:rdf="http://www.w3.org/1999/02/22-rdf-syntax-ns#">
   <cc:Work>
    <dc:type rdf:resource="http://purl.org/dc/dcmitype/StillImage"/>
    <dc:date>2025-11-13T12:30:24.181797</dc:date>
    <dc:format>image/svg+xml</dc:format>
    <dc:creator>
     <cc:Agent>
      <dc:title>Matplotlib v3.9.4, https://matplotlib.org/</dc:title>
     </cc:Agent>
    </dc:creator>
   </cc:Work>
  </rdf:RDF>
 </metadata>
 <defs>
  <style type="text/css">*{stroke-linejoin: round; stroke-linecap: butt}</style>
 </defs>
 <g id="figure_1">
  <g id="patch_1">
   <path d="M 0 375.674511 
L 568.754687 375.674511 
L 568.754687 0 
L 0 0 
z
" style="fill: #ffffff"/>
  </g>
  <g id="axes_1">
   <g id="patch_2">
    <path d="M 35.304688 351.796386 
L 561.554687 351.796386 
L 561.554687 22.318125 
L 35.304688 22.318125 
z
" style="fill: #ffffff"/>
   </g>
   <g id="matplotlib.axis_1">
    <g id="xtick_1">
     <g id="line2d_1">
      <path d="M 117.019677 351.796386 
L 117.019677 22.318125 
" clip-path="url(#p355e870483)" style="fill: none; stroke: #b0b0b0; stroke-width: 0.8; stroke-linecap: square"/>
     </g>
     <g id="line2d_2">
      <defs>
       <path id="mf8a63d24c7" d="M 0 0 
L 0 3.5 
" style="stroke: #000000; stroke-width: 0.8"/>
      </defs>
      <g>
       <use xlink:href="#mf8a63d24c7" x="117.019677" y="351.796386" style="stroke: #000000; stroke-width: 0.8"/>
      </g>
     </g>
     <g id="text_1">
      <!-- −40 -->
      <g transform="translate(106.467333 366.394823) scale(0.1 -0.1)">
       <defs>
        <path id="DejaVuSans-2212" d="M 678 2272 
L 4684 2272 
L 4684 1741 
L 678 1741 
L 678 2272 
z
" transform="scale(0.015625)"/>
        <path id="DejaVuSans-34" d="M 2419 4116 
L 825 1625 
L 2419 1625 
L 2419 4116 
z
M 2253 4666 
L 3047 4666 
L 3047 1625 
L 3713 1625 
L 3713 1100 
L 3047 1100 
L 3047 0 
L 2419 0 
L 2419 1100 
L 313 1100 
L 313 1709 
L 2253 4666 
z
" transform="scale(0.015625)"/>
        <path id="DejaVuSans-30" d="M 2034 4250 
Q 1547 4250 1301 3770 
Q 1056 3291 1056 2328 
Q 1056 1369 1301 889 
Q 1547 409 2034 409 
Q 2525 409 2770 889 
Q 3016 1369 3016 2328 
Q 3016 3291 2770 3770 
Q 2525 4250 2034 4250 
z
M 2034 4750 
Q 2819 4750 3233 4129 
Q 3647 3509 3647 2328 
Q 3647 1150 3233 529 
Q 2819 -91 2034 -91 
Q 1250 -91 836 529 
Q 422 1150 422 2328 
Q 422 3509 836 4129 
Q 1250 4750 2034 4750 
z
" transform="scale(0.015625)"/>
       </defs>
       <use xlink:href="#DejaVuSans-2212"/>
       <use xlink:href="#DejaVuSans-34" x="83.789062"/>
       <use xlink:href="#DejaVuSans-30" x="147.412109"/>
      </g>
     </g>
    </g>
    <g id="xtick_2">
     <g id="line2d_3">
      <path d="M 208.541416 351.796386 
L 208.541416 22.318125 
" clip-path="url(#p355e870483)" style="fill: none; stroke: #b0b0b0; stroke-width: 0.8; stroke-linecap: square"/>
     </g>
     <g id="line2d_4">
      <g>
       <use xlink:href="#mf8a63d24c7" x="208.541416" y="351.796386" style="stroke: #000000; stroke-width: 0.8"/>
      </g>
     </g>
     <g id="text_2">
      <!-- −20 -->
      <g transform="translate(197.989072 366.394823) scale(0.1 -0.1)">
       <defs>
        <path id="DejaVuSans-32" d="M 1228 531 
L 3431 531 
L 3431 0 
L 469 0 
L 469 531 
Q 828 903 1448 1529 
Q 2069 2156 2228 2338 
Q 2531 2678 2651 2914 
Q 2772 3150 2772 3378 
Q 2772 3750 2511 3984 
Q 2250 4219 1831 4219 
Q 1534 4219 1204 4116 
Q 875 4013 500 3803 
L 500 4441 
Q 881 4594 1212 4672 
Q 1544 4750 1819 4750 
Q 2544 4750 2975 4387 
Q 3406 4025 3406 3419 
Q 3406 3131 3298 2873 
Q 3191 2616 2906 2266 
Q 2828 2175 2409 1742 
Q 1991 1309 1228 531 
z
" transform="scale(0.015625)"/>
       </defs>
       <use xlink:href="#DejaVuSans-2212"/>
       <use xlink:href="#DejaVuSans-32" x="83.789062"/>
       <use xlink:href="#DejaVuSans-30" x="147.412109"/>
      </g>
     </g>
    </g>
    <g id="xtick_3">
     <g id="line2d_5">
      <path d="M 300.063155 351.796386 
L 300.063155 22.318125 
" clip-path="url(#p355e870483)" style="fill: none; stroke: #b0b0b0; stroke-width: 0.8; stroke-linecap: square"/>
     </g>
     <g id="line2d_6">
      <g>
       <use xlink:href="#mf8a63d24c7" x="300.063155" y="351.796386" style="stroke: #000000; stroke-width: 0.8"/>
      </g>
     </g>
     <g id="text_3">
      <!-- 0 -->
      <g transform="translate(296.881905 366.394823) scale(0.1 -0.1)">
       <use xlink:href="#DejaVuSans-30"/>
      </g>
     </g>
    </g>
    <g id="xtick_4">
     <g id="line2d_7">
      <path d="M 391.584894 351.796386 
L 391.584894 22.318125 
" clip-path="url(#p355e870483)" style="fill: none; stroke: #b0b0b0; stroke-width: 0.8; stroke-linecap: square"/>
     </g>
     <g id="line2d_8">
      <g>
       <use xlink:href="#mf8a63d24c7" x="391.584894" y="351.796386" style="stroke: #000000; stroke-width: 0.8"/>
      </g>
     </g>
     <g id="text_4">
      <!-- 20 -->
      <g transform="translate(385.222394 366.394823) scale(0.1 -0.1)">
       <use xlink:href="#DejaVuSans-32"/>
       <use xlink:href="#DejaVuSans-30" x="63.623047"/>
      </g>
     </g>
    </g>
    <g id="xtick_5">
     <g id="line2d_9">
      <path d="M 483.106634 351.796386 
L 483.106634 22.318125 
" clip-path="url(#p355e870483)" style="fill: none; stroke: #b0b0b0; stroke-width: 0.8; stroke-linecap: square"/>
     </g>
     <g id="line2d_10">
      <g>
       <use xlink:href="#mf8a63d24c7" x="483.106634" y="351.796386" style="stroke: #000000; stroke-width: 0.8"/>
      </g>
     </g>
     <g id="text_5">
      <!-- 40 -->
      <g transform="translate(476.744134 366.394823) scale(0.1 -0.1)">
       <use xlink:href="#DejaVuSans-34"/>
       <use xlink:href="#DejaVuSans-30" x="63.623047"/>
      </g>
     </g>
    </g>
   </g>
   <g id="matplotlib.axis_2">
    <g id="ytick_1">
     <g id="line2d_11">
      <path d="M 35.304688 323.596439 
L 561.554687 323.596439 
" clip-path="url(#p355e870483)" style="fill: none; stroke: #b0b0b0; stroke-width: 0.8; stroke-linecap: square"/>
     </g>
     <g id="line2d_12">
      <defs>
       <path id="m66374b2592" d="M 0 0 
L -3.5 0 
" style="stroke: #000000; stroke-width: 0.8"/>
      </defs>
      <g>
       <use xlink:href="#m66374b2592" x="35.304688" y="323.596439" style="stroke: #000000; stroke-width: 0.8"/>
      </g>
     </g>
     <g id="text_6">
      <!-- −30 -->
      <g transform="translate(7.2 327.395658) scale(0.1 -0.1)">
       <defs>
        <path id="DejaVuSans-33" d="M 2597 2516 
Q 3050 2419 3304 2112 
Q 3559 1806 3559 1356 
Q 3559 666 3084 287 
Q 2609 -91 1734 -91 
Q 1441 -91 1130 -33 
Q 819 25 488 141 
L 488 750 
Q 750 597 1062 519 
Q 1375 441 1716 441 
Q 2309 441 2620 675 
Q 2931 909 2931 1356 
Q 2931 1769 2642 2001 
Q 2353 2234 1838 2234 
L 1294 2234 
L 1294 2753 
L 1863 2753 
Q 2328 2753 2575 2939 
Q 2822 3125 2822 3475 
Q 2822 3834 2567 4026 
Q 2313 4219 1838 4219 
Q 1578 4219 1281 4162 
Q 984 4106 628 3988 
L 628 4550 
Q 988 4650 1302 4700 
Q 1616 4750 1894 4750 
Q 2613 4750 3031 4423 
Q 3450 4097 3450 3541 
Q 3450 3153 3228 2886 
Q 3006 2619 2597 2516 
z
" transform="scale(0.015625)"/>
       </defs>
       <use xlink:href="#DejaVuSans-2212"/>
       <use xlink:href="#DejaVuSans-33" x="83.789062"/>
       <use xlink:href="#DejaVuSans-30" x="147.412109"/>
      </g>
     </g>
    </g>
    <g id="ytick_2">
     <g id="line2d_13">
      <path d="M 35.304688 277.83557 
L 561.554687 277.83557 
" clip-path="url(#p355e870483)" style="fill: none; stroke: #b0b0b0; stroke-width: 0.8; stroke-linecap: square"/>
     </g>
     <g id="line2d_14">
      <g>
       <use xlink:href="#m66374b2592" x="35.304688" y="277.83557" style="stroke: #000000; stroke-width: 0.8"/>
      </g>
     </g>
     <g id="text_7">
      <!-- −20 -->
      <g transform="translate(7.2 281.634789) scale(0.1 -0.1)">
       <use xlink:href="#DejaVuSans-2212"/>
       <use xlink:href="#DejaVuSans-32" x="83.789062"/>
       <use xlink:href="#DejaVuSans-30" x="147.412109"/>
      </g>
     </g>
    </g>
    <g id="ytick_3">
     <g id="line2d_15">
      <path d="M 35.304688 232.0747 
L 561.554687 232.0747 
" clip-path="url(#p355e870483)" style="fill: none; stroke: #b0b0b0; stroke-width: 0.8; stroke-linecap: square"/>
     </g>
     <g id="line2d_16">
      <g>
       <use xlink:href="#m66374b2592" x="35.304688" y="232.0747" style="stroke: #000000; stroke-width: 0.8"/>
      </g>
     </g>
     <g id="text_8">
      <!-- −10 -->
      <g transform="translate(7.2 235.873919) scale(0.1 -0.1)">
       <defs>
        <path id="DejaVuSans-31" d="M 794 531 
L 1825 531 
L 1825 4091 
L 703 3866 
L 703 4441 
L 1819 4666 
L 2450 4666 
L 2450 531 
L 3481 531 
L 3481 0 
L 794 0 
L 794 531 
z
" transform="scale(0.015625)"/>
       </defs>
       <use xlink:href="#DejaVuSans-2212"/>
       <use xlink:href="#DejaVuSans-31" x="83.789062"/>
       <use xlink:href="#DejaVuSans-30" x="147.412109"/>
      </g>
     </g>
    </g>
    <g id="ytick_4">
     <g id="line2d_17">
      <path d="M 35.304688 186.313831 
L 561.554687 186.313831 
" clip-path="url(#p355e870483)" style="fill: none; stroke: #b0b0b0; stroke-width: 0.8; stroke-linecap: square"/>
     </g>
     <g id="line2d_18">
      <g>
       <use xlink:href="#m66374b2592" x="35.304688" y="186.313831" style="stroke: #000000; stroke-width: 0.8"/>
      </g>
     </g>
     <g id="text_9">
      <!-- 0 -->
      <g transform="translate(21.942187 190.113049) scale(0.1 -0.1)">
       <use xlink:href="#DejaVuSans-30"/>
      </g>
     </g>
    </g>
    <g id="ytick_5">
     <g id="line2d_19">
      <path d="M 35.304688 140.552961 
L 561.554687 140.552961 
" clip-path="url(#p355e870483)" style="fill: none; stroke: #b0b0b0; stroke-width: 0.8; stroke-linecap: square"/>
     </g>
     <g id="line2d_20">
      <g>
       <use xlink:href="#m66374b2592" x="35.304688" y="140.552961" style="stroke: #000000; stroke-width: 0.8"/>
      </g>
     </g>
     <g id="text_10">
      <!-- 10 -->
      <g transform="translate(15.579687 144.35218) scale(0.1 -0.1)">
       <use xlink:href="#DejaVuSans-31"/>
       <use xlink:href="#DejaVuSans-30" x="63.623047"/>
      </g>
     </g>
    </g>
    <g id="ytick_6">
     <g id="line2d_21">
      <path d="M 35.304688 94.792092 
L 561.554687 94.792092 
" clip-path="url(#p355e870483)" style="fill: none; stroke: #b0b0b0; stroke-width: 0.8; stroke-linecap: square"/>
     </g>
     <g id="line2d_22">
      <g>
       <use xlink:href="#m66374b2592" x="35.304688" y="94.792092" style="stroke: #000000; stroke-width: 0.8"/>
      </g>
     </g>
     <g id="text_11">
      <!-- 20 -->
      <g transform="translate(15.579687 98.59131) scale(0.1 -0.1)">
       <use xlink:href="#DejaVuSans-32"/>
       <use xlink:href="#DejaVuSans-30" x="63.623047"/>
      </g>
     </g>
    </g>
    <g id="ytick_7">
     <g id="line2d_23">
      <path d="M 35.304688 49.031222 
L 561.554687 49.031222 
" clip-path="url(#p355e870483)" style="fill: none; stroke: #b0b0b0; stroke-width: 0.8; stroke-linecap: square"/>
     </g>
     <g id="line2d_24">
      <g>
       <use xlink:href="#m66374b2592" x="35.304688" y="49.031222" style="stroke: #000000; stroke-width: 0.8"/>
      </g>
     </g>
     <g id="text_12">
      <!-- 30 -->
      <g transform="translate(15.579687 52.830441) scale(0.1 -0.1)">
       <use xlink:href="#DejaVuSans-33"/>
       <use xlink:href="#DejaVuSans-30" x="63.623047"/>
      </g>
     </g>
    </g>
   </g>
   <g id="line2d_25">
    <path d="M 1.021828 200.992375 
L 69.631638 198.91329 
" clip-path="url(#p355e870483)" style="fill: none; stroke: #bf00bf; stroke-width: 1.5; stroke-linecap: square"/>
   </g>
   <g id="line2d_26">
    <path d="M 46.068673 176.736381 
L 93.194604 221.090198 
" clip-path="url(#p355e870483)" style="fill: none; stroke: #bf00bf; stroke-width: 1.5; stroke-linecap: square"/>
   </g>
   <g id="line2d_27">
    <path d="M 46.068673 176.736381 
L 82.660572 175.627536 
" clip-path="url(#p355e870483)" style="fill: none; stroke: #bf00bf; stroke-width: 1.5; stroke-linecap: square"/>
   </g>
   <g id="line2d_28">
    <path d="M 93.194604 221.090198 
L 129.786502 219.981353 
" clip-path="url(#p355e870483)" style="fill: none; stroke: #bf00bf; stroke-width: 1.5; stroke-linecap: square"/>
   </g>
   <g id="line2d_29">
    <path d="M 85.641644 274.002908 
L 81.065557 122.992038 
" clip-path="url(#p355e870483)" style="fill: none; stroke: #0000ff; stroke-width: 3; stroke-linecap: square"/>
   </g>
   <g id="line2d_30">
    <path d="M 81.065557 122.992038 
L 126.826427 68.078995 
" clip-path="url(#p355e870483)" style="fill: none; stroke: #0000ff; stroke-width: 3; stroke-linecap: square"/>
   </g>
   <g id="line2d_31">
    <path d="M 126.826427 68.078995 
L 277.837296 95.535516 
" clip-path="url(#p355e870483)" style="fill: none; stroke: #0000ff; stroke-width: 3; stroke-linecap: square"/>
   </g>
   <g id="line2d_32">
    <path d="M 277.837296 95.535516 
L 447.152514 68.078995 
" clip-path="url(#p355e870483)" style="fill: none; stroke: #0000ff; stroke-width: 3; stroke-linecap: square"/>
   </g>
   <g id="line2d_33">
    <path d="M 447.152514 68.078995 
L 506.641644 100.111603 
" clip-path="url(#p355e870483)" style="fill: none; stroke: #0000ff; stroke-width: 3; stroke-linecap: square"/>
   </g>
   <g id="line2d_34">
    <path d="M 506.641644 100.111603 
L 515.793818 251.122473 
" clip-path="url(#p355e870483)" style="fill: none; stroke: #0000ff; stroke-width: 3; stroke-linecap: square"/>
   </g>
   <g id="line2d_35">
    <path d="M 515.793818 251.122473 
L 479.185122 301.459429 
" clip-path="url(#p355e870483)" style="fill: none; stroke: #0000ff; stroke-width: 3; stroke-linecap: square"/>
   </g>
   <g id="line2d_36">
    <path d="M 479.185122 301.459429 
L 273.261209 283.155082 
" clip-path="url(#p355e870483)" style="fill: none; stroke: #0000ff; stroke-width: 3; stroke-linecap: square"/>
   </g>
   <g id="line2d_37">
    <path d="M 273.261209 283.155082 
L 117.674253 306.035516 
" clip-path="url(#p355e870483)" style="fill: none; stroke: #0000ff; stroke-width: 3; stroke-linecap: square"/>
   </g>
   <g id="line2d_38">
    <path d="M 117.674253 306.035516 
L 85.641644 274.002908 
" clip-path="url(#p355e870483)" style="fill: none; stroke: #0000ff; stroke-width: 3; stroke-linecap: square"/>
   </g>
   <g id="line2d_39">
    <path d="M 314.341012 267.072624 
L 309.764925 116.061754 
L 81.065557 122.992038 
L 85.641644 274.002908 
L 314.341012 267.072624 
" clip-path="url(#p355e870483)" style="fill: none; stroke-dasharray: 1.85,0.8; stroke-dashoffset: 0; stroke: #008000; stroke-width: 0.5"/>
   </g>
   <g id="line2d_40">
    <defs>
     <path id="m471dac66ae" d="M -2 2 
L 2 -2 
M -2 -2 
L 2 2 
" style="stroke: #ff0000"/>
    </defs>
    <g clip-path="url(#p355e870483)">
     <use xlink:href="#m471dac66ae" x="306.98" y="265.887553" style="fill: #ff0000; stroke: #ff0000"/>
     <use xlink:href="#m471dac66ae" x="290.513646" y="266.386534" style="fill: #ff0000; stroke: #ff0000"/>
     <use xlink:href="#m471dac66ae" x="274.047291" y="266.885514" style="fill: #ff0000; stroke: #ff0000"/>
     <use xlink:href="#m471dac66ae" x="257.580937" y="267.384494" style="fill: #ff0000; stroke: #ff0000"/>
     <use xlink:href="#m471dac66ae" x="241.114582" y="267.883475" style="fill: #ff0000; stroke: #ff0000"/>
     <use xlink:href="#m471dac66ae" x="224.648228" y="268.382455" style="fill: #ff0000; stroke: #ff0000"/>
     <use xlink:href="#m471dac66ae" x="208.181874" y="268.881436" style="fill: #ff0000; stroke: #ff0000"/>
     <use xlink:href="#m471dac66ae" x="191.715519" y="269.380416" style="fill: #ff0000; stroke: #ff0000"/>
     <use xlink:href="#m471dac66ae" x="175.249165" y="269.879397" style="fill: #ff0000; stroke: #ff0000"/>
     <use xlink:href="#m471dac66ae" x="158.78281" y="270.378377" style="fill: #ff0000; stroke: #ff0000"/>
     <use xlink:href="#m471dac66ae" x="142.316456" y="270.877358" style="fill: #ff0000; stroke: #ff0000"/>
     <use xlink:href="#m471dac66ae" x="125.850101" y="271.376338" style="fill: #ff0000; stroke: #ff0000"/>
     <use xlink:href="#m471dac66ae" x="109.383747" y="271.875318" style="fill: #ff0000; stroke: #ff0000"/>
     <use xlink:href="#m471dac66ae" x="92.917392" y="272.374299" style="fill: #ff0000; stroke: #ff0000"/>
     <use xlink:href="#m471dac66ae" x="306.48102" y="249.421199" style="fill: #ff0000; stroke: #ff0000"/>
     <use xlink:href="#m471dac66ae" x="290.014665" y="249.920179" style="fill: #ff0000; stroke: #ff0000"/>
     <use xlink:href="#m471dac66ae" x="273.548311" y="250.41916" style="fill: #ff0000; stroke: #ff0000"/>
     <use xlink:href="#m471dac66ae" x="257.081957" y="250.91814" style="fill: #ff0000; stroke: #ff0000"/>
     <use xlink:href="#m471dac66ae" x="240.615602" y="251.41712" style="fill: #ff0000; stroke: #ff0000"/>
     <use xlink:href="#m471dac66ae" x="224.149248" y="251.916101" style="fill: #ff0000; stroke: #ff0000"/>
     <use xlink:href="#m471dac66ae" x="207.682893" y="252.415081" style="fill: #ff0000; stroke: #ff0000"/>
     <use xlink:href="#m471dac66ae" x="191.216539" y="252.914062" style="fill: #ff0000; stroke: #ff0000"/>
     <use xlink:href="#m471dac66ae" x="174.750184" y="253.413042" style="fill: #ff0000; stroke: #ff0000"/>
     <use xlink:href="#m471dac66ae" x="158.28383" y="253.912023" style="fill: #ff0000; stroke: #ff0000"/>
     <use xlink:href="#m471dac66ae" x="141.817475" y="254.411003" style="fill: #ff0000; stroke: #ff0000"/>
     <use xlink:href="#m471dac66ae" x="125.351121" y="254.909984" style="fill: #ff0000; stroke: #ff0000"/>
     <use xlink:href="#m471dac66ae" x="108.884766" y="255.408964" style="fill: #ff0000; stroke: #ff0000"/>
     <use xlink:href="#m471dac66ae" x="92.418412" y="255.907944" style="fill: #ff0000; stroke: #ff0000"/>
     <use xlink:href="#m471dac66ae" x="305.982039" y="232.954844" style="fill: #ff0000; stroke: #ff0000"/>
     <use xlink:href="#m471dac66ae" x="289.515685" y="233.453825" style="fill: #ff0000; stroke: #ff0000"/>
     <use xlink:href="#m471dac66ae" x="273.049331" y="233.952805" style="fill: #ff0000; stroke: #ff0000"/>
     <use xlink:href="#m471dac66ae" x="256.582976" y="234.451786" style="fill: #ff0000; stroke: #ff0000"/>
     <use xlink:href="#m471dac66ae" x="240.116622" y="234.950766" style="fill: #ff0000; stroke: #ff0000"/>
     <use xlink:href="#m471dac66ae" x="223.650267" y="235.449746" style="fill: #ff0000; stroke: #ff0000"/>
     <use xlink:href="#m471dac66ae" x="207.183913" y="235.948727" style="fill: #ff0000; stroke: #ff0000"/>
     <use xlink:href="#m471dac66ae" x="190.717558" y="236.447707" style="fill: #ff0000; stroke: #ff0000"/>
     <use xlink:href="#m471dac66ae" x="174.251204" y="236.946688" style="fill: #ff0000; stroke: #ff0000"/>
     <use xlink:href="#m471dac66ae" x="157.784849" y="237.445668" style="fill: #ff0000; stroke: #ff0000"/>
     <use xlink:href="#m471dac66ae" x="141.318495" y="237.944649" style="fill: #ff0000; stroke: #ff0000"/>
     <use xlink:href="#m471dac66ae" x="124.85214" y="238.443629" style="fill: #ff0000; stroke: #ff0000"/>
     <use xlink:href="#m471dac66ae" x="108.385786" y="238.942609" style="fill: #ff0000; stroke: #ff0000"/>
     <use xlink:href="#m471dac66ae" x="91.919431" y="239.44159" style="fill: #ff0000; stroke: #ff0000"/>
     <use xlink:href="#m471dac66ae" x="305.483059" y="216.48849" style="fill: #ff0000; stroke: #ff0000"/>
     <use xlink:href="#m471dac66ae" x="289.016705" y="216.98747" style="fill: #ff0000; stroke: #ff0000"/>
     <use xlink:href="#m471dac66ae" x="272.55035" y="217.486451" style="fill: #ff0000; stroke: #ff0000"/>
     <use xlink:href="#m471dac66ae" x="256.083996" y="217.985431" style="fill: #ff0000; stroke: #ff0000"/>
     <use xlink:href="#m471dac66ae" x="239.617641" y="218.484411" style="fill: #ff0000; stroke: #ff0000"/>
     <use xlink:href="#m471dac66ae" x="223.151287" y="218.983392" style="fill: #ff0000; stroke: #ff0000"/>
     <use xlink:href="#m471dac66ae" x="206.684932" y="219.482372" style="fill: #ff0000; stroke: #ff0000"/>
     <use xlink:href="#m471dac66ae" x="190.218578" y="219.981353" style="fill: #ff0000; stroke: #ff0000"/>
     <use xlink:href="#m471dac66ae" x="173.752223" y="220.480333" style="fill: #ff0000; stroke: #ff0000"/>
     <use xlink:href="#m471dac66ae" x="157.285869" y="220.979314" style="fill: #ff0000; stroke: #ff0000"/>
     <use xlink:href="#m471dac66ae" x="140.819514" y="221.478294" style="fill: #ff0000; stroke: #ff0000"/>
     <use xlink:href="#m471dac66ae" x="124.35316" y="221.977275" style="fill: #ff0000; stroke: #ff0000"/>
     <use xlink:href="#m471dac66ae" x="107.886805" y="222.476255" style="fill: #ff0000; stroke: #ff0000"/>
     <use xlink:href="#m471dac66ae" x="91.420451" y="222.975235" style="fill: #ff0000; stroke: #ff0000"/>
     <use xlink:href="#m471dac66ae" x="304.984079" y="200.022135" style="fill: #ff0000; stroke: #ff0000"/>
     <use xlink:href="#m471dac66ae" x="288.517724" y="200.521116" style="fill: #ff0000; stroke: #ff0000"/>
     <use xlink:href="#m471dac66ae" x="272.05137" y="201.020096" style="fill: #ff0000; stroke: #ff0000"/>
     <use xlink:href="#m471dac66ae" x="255.585015" y="201.519077" style="fill: #ff0000; stroke: #ff0000"/>
     <use xlink:href="#m471dac66ae" x="239.118661" y="202.018057" style="fill: #ff0000; stroke: #ff0000"/>
     <use xlink:href="#m471dac66ae" x="222.652306" y="202.517037" style="fill: #ff0000; stroke: #ff0000"/>
     <use xlink:href="#m471dac66ae" x="206.185952" y="203.016018" style="fill: #ff0000; stroke: #ff0000"/>
     <use xlink:href="#m471dac66ae" x="189.719597" y="203.514998" style="fill: #ff0000; stroke: #ff0000"/>
     <use xlink:href="#m471dac66ae" x="173.253243" y="204.013979" style="fill: #ff0000; stroke: #ff0000"/>
     <use xlink:href="#m471dac66ae" x="156.786888" y="204.512959" style="fill: #ff0000; stroke: #ff0000"/>
     <use xlink:href="#m471dac66ae" x="140.320534" y="205.01194" style="fill: #ff0000; stroke: #ff0000"/>
     <use xlink:href="#m471dac66ae" x="123.854179" y="205.51092" style="fill: #ff0000; stroke: #ff0000"/>
     <use xlink:href="#m471dac66ae" x="107.387825" y="206.009901" style="fill: #ff0000; stroke: #ff0000"/>
     <use xlink:href="#m471dac66ae" x="90.921471" y="206.508881" style="fill: #ff0000; stroke: #ff0000"/>
     <use xlink:href="#m471dac66ae" x="304.485098" y="183.555781" style="fill: #ff0000; stroke: #ff0000"/>
     <use xlink:href="#m471dac66ae" x="288.018744" y="184.054761" style="fill: #ff0000; stroke: #ff0000"/>
     <use xlink:href="#m471dac66ae" x="271.552389" y="184.553742" style="fill: #ff0000; stroke: #ff0000"/>
     <use xlink:href="#m471dac66ae" x="255.086035" y="185.052722" style="fill: #ff0000; stroke: #ff0000"/>
     <use xlink:href="#m471dac66ae" x="238.61968" y="185.551703" style="fill: #ff0000; stroke: #ff0000"/>
     <use xlink:href="#m471dac66ae" x="222.153326" y="186.050683" style="fill: #ff0000; stroke: #ff0000"/>
     <use xlink:href="#m471dac66ae" x="205.686971" y="186.549663" style="fill: #ff0000; stroke: #ff0000"/>
     <use xlink:href="#m471dac66ae" x="189.220617" y="187.048644" style="fill: #ff0000; stroke: #ff0000"/>
     <use xlink:href="#m471dac66ae" x="172.754262" y="187.547624" style="fill: #ff0000; stroke: #ff0000"/>
     <use xlink:href="#m471dac66ae" x="156.287908" y="188.046605" style="fill: #ff0000; stroke: #ff0000"/>
     <use xlink:href="#m471dac66ae" x="139.821553" y="188.545585" style="fill: #ff0000; stroke: #ff0000"/>
     <use xlink:href="#m471dac66ae" x="123.355199" y="189.044566" style="fill: #ff0000; stroke: #ff0000"/>
     <use xlink:href="#m471dac66ae" x="106.888845" y="189.543546" style="fill: #ff0000; stroke: #ff0000"/>
     <use xlink:href="#m471dac66ae" x="90.42249" y="190.042527" style="fill: #ff0000; stroke: #ff0000"/>
     <use xlink:href="#m471dac66ae" x="303.986118" y="167.089426" style="fill: #ff0000; stroke: #ff0000"/>
     <use xlink:href="#m471dac66ae" x="287.519763" y="167.588407" style="fill: #ff0000; stroke: #ff0000"/>
     <use xlink:href="#m471dac66ae" x="271.053409" y="168.087387" style="fill: #ff0000; stroke: #ff0000"/>
     <use xlink:href="#m471dac66ae" x="254.587054" y="168.586368" style="fill: #ff0000; stroke: #ff0000"/>
     <use xlink:href="#m471dac66ae" x="238.1207" y="169.085348" style="fill: #ff0000; stroke: #ff0000"/>
     <use xlink:href="#m471dac66ae" x="221.654345" y="169.584329" style="fill: #ff0000; stroke: #ff0000"/>
     <use xlink:href="#m471dac66ae" x="205.187991" y="170.083309" style="fill: #ff0000; stroke: #ff0000"/>
     <use xlink:href="#m471dac66ae" x="188.721636" y="170.582289" style="fill: #ff0000; stroke: #ff0000"/>
     <use xlink:href="#m471dac66ae" x="172.255282" y="171.08127" style="fill: #ff0000; stroke: #ff0000"/>
     <use xlink:href="#m471dac66ae" x="155.788928" y="171.58025" style="fill: #ff0000; stroke: #ff0000"/>
     <use xlink:href="#m471dac66ae" x="139.322573" y="172.079231" style="fill: #ff0000; stroke: #ff0000"/>
     <use xlink:href="#m471dac66ae" x="122.856219" y="172.578211" style="fill: #ff0000; stroke: #ff0000"/>
     <use xlink:href="#m471dac66ae" x="106.389864" y="173.077192" style="fill: #ff0000; stroke: #ff0000"/>
     <use xlink:href="#m471dac66ae" x="89.92351" y="173.576172" style="fill: #ff0000; stroke: #ff0000"/>
     <use xlink:href="#m471dac66ae" x="303.487137" y="150.623072" style="fill: #ff0000; stroke: #ff0000"/>
     <use xlink:href="#m471dac66ae" x="287.020783" y="151.122052" style="fill: #ff0000; stroke: #ff0000"/>
     <use xlink:href="#m471dac66ae" x="270.554428" y="151.621033" style="fill: #ff0000; stroke: #ff0000"/>
     <use xlink:href="#m471dac66ae" x="254.088074" y="152.120013" style="fill: #ff0000; stroke: #ff0000"/>
     <use xlink:href="#m471dac66ae" x="237.621719" y="152.618994" style="fill: #ff0000; stroke: #ff0000"/>
     <use xlink:href="#m471dac66ae" x="221.155365" y="153.117974" style="fill: #ff0000; stroke: #ff0000"/>
     <use xlink:href="#m471dac66ae" x="204.68901" y="153.616955" style="fill: #ff0000; stroke: #ff0000"/>
     <use xlink:href="#m471dac66ae" x="188.222656" y="154.115935" style="fill: #ff0000; stroke: #ff0000"/>
     <use xlink:href="#m471dac66ae" x="171.756302" y="154.614915" style="fill: #ff0000; stroke: #ff0000"/>
     <use xlink:href="#m471dac66ae" x="155.289947" y="155.113896" style="fill: #ff0000; stroke: #ff0000"/>
     <use xlink:href="#m471dac66ae" x="138.823593" y="155.612876" style="fill: #ff0000; stroke: #ff0000"/>
     <use xlink:href="#m471dac66ae" x="122.357238" y="156.111857" style="fill: #ff0000; stroke: #ff0000"/>
     <use xlink:href="#m471dac66ae" x="105.890884" y="156.610837" style="fill: #ff0000; stroke: #ff0000"/>
     <use xlink:href="#m471dac66ae" x="89.424529" y="157.109818" style="fill: #ff0000; stroke: #ff0000"/>
     <use xlink:href="#m471dac66ae" x="302.988157" y="134.156717" style="fill: #ff0000; stroke: #ff0000"/>
     <use xlink:href="#m471dac66ae" x="286.521802" y="134.655698" style="fill: #ff0000; stroke: #ff0000"/>
     <use xlink:href="#m471dac66ae" x="270.055448" y="135.154678" style="fill: #ff0000; stroke: #ff0000"/>
     <use xlink:href="#m471dac66ae" x="253.589093" y="135.653659" style="fill: #ff0000; stroke: #ff0000"/>
     <use xlink:href="#m471dac66ae" x="237.122739" y="136.152639" style="fill: #ff0000; stroke: #ff0000"/>
     <use xlink:href="#m471dac66ae" x="220.656385" y="136.65162" style="fill: #ff0000; stroke: #ff0000"/>
     <use xlink:href="#m471dac66ae" x="204.19003" y="137.1506" style="fill: #ff0000; stroke: #ff0000"/>
     <use xlink:href="#m471dac66ae" x="187.723676" y="137.64958" style="fill: #ff0000; stroke: #ff0000"/>
     <use xlink:href="#m471dac66ae" x="171.257321" y="138.148561" style="fill: #ff0000; stroke: #ff0000"/>
     <use xlink:href="#m471dac66ae" x="154.790967" y="138.647541" style="fill: #ff0000; stroke: #ff0000"/>
     <use xlink:href="#m471dac66ae" x="138.324612" y="139.146522" style="fill: #ff0000; stroke: #ff0000"/>
     <use xlink:href="#m471dac66ae" x="121.858258" y="139.645502" style="fill: #ff0000; stroke: #ff0000"/>
     <use xlink:href="#m471dac66ae" x="105.391903" y="140.144483" style="fill: #ff0000; stroke: #ff0000"/>
     <use xlink:href="#m471dac66ae" x="88.925549" y="140.643463" style="fill: #ff0000; stroke: #ff0000"/>
     <use xlink:href="#m471dac66ae" x="302.489176" y="117.690363" style="fill: #ff0000; stroke: #ff0000"/>
     <use xlink:href="#m471dac66ae" x="286.022822" y="118.189343" style="fill: #ff0000; stroke: #ff0000"/>
     <use xlink:href="#m471dac66ae" x="269.556467" y="118.688324" style="fill: #ff0000; stroke: #ff0000"/>
     <use xlink:href="#m471dac66ae" x="253.090113" y="119.187304" style="fill: #ff0000; stroke: #ff0000"/>
     <use xlink:href="#m471dac66ae" x="236.623759" y="119.686285" style="fill: #ff0000; stroke: #ff0000"/>
     <use xlink:href="#m471dac66ae" x="220.157404" y="120.185265" style="fill: #ff0000; stroke: #ff0000"/>
     <use xlink:href="#m471dac66ae" x="203.69105" y="120.684246" style="fill: #ff0000; stroke: #ff0000"/>
     <use xlink:href="#m471dac66ae" x="187.224695" y="121.183226" style="fill: #ff0000; stroke: #ff0000"/>
     <use xlink:href="#m471dac66ae" x="170.758341" y="121.682206" style="fill: #ff0000; stroke: #ff0000"/>
     <use xlink:href="#m471dac66ae" x="154.291986" y="122.181187" style="fill: #ff0000; stroke: #ff0000"/>
     <use xlink:href="#m471dac66ae" x="137.825632" y="122.680167" style="fill: #ff0000; stroke: #ff0000"/>
     <use xlink:href="#m471dac66ae" x="121.359277" y="123.179148" style="fill: #ff0000; stroke: #ff0000"/>
     <use xlink:href="#m471dac66ae" x="104.892923" y="123.678128" style="fill: #ff0000; stroke: #ff0000"/>
     <use xlink:href="#m471dac66ae" x="88.426568" y="124.177109" style="fill: #ff0000; stroke: #ff0000"/>
    </g>
   </g>
   <g id="patch_3">
    <path d="M 35.304688 351.796386 
L 35.304688 22.318125 
" style="fill: none; stroke: #000000; stroke-width: 0.8; stroke-linejoin: miter; stroke-linecap: square"/>
   </g>
   <g id="patch_4">
    <path d="M 561.554687 351.796386 
L 561.554687 22.318125 
" style="fill: none; stroke: #000000; stroke-width: 0.8; stroke-linejoin: miter; stroke-linecap: square"/>
   </g>
   <g id="patch_5">
    <path d="M 35.304687 351.796386 
L 561.554687 351.796386 
" style="fill: none; stroke: #000000; stroke-width: 0.8; stroke-linejoin: miter; stroke-linecap: square"/>
   </g>
   <g id="patch_6">
    <path d="M 35.304687 22.318125 
L 561.554687 22.318125 
" style="fill: none; stroke: #000000; stroke-width: 0.8; stroke-linejoin: miter; stroke-linecap: square"/>
   </g>
   <g id="text_13">
    <!-- TCP Box and Test Grid Points for Edges 1/10 -->
    <g transform="translate(167.239687 16.318125) scale(0.12 -0.12)">
     <defs>
      <path id="DejaVuSans-54" d="M -19 4666 
L 3928 4666 
L 3928 4134 
L 2272 4134 
L 2272 0 
L 1638 0 
L 1638 4134 
L -19 4134 
L -19 4666 
z
" transform="scale(0.015625)"/>
      <path id="DejaVuSans-43" d="M 4122 4306 
L 4122 3641 
Q 3803 3938 3442 4084 
Q 3081 4231 2675 4231 
Q 1875 4231 1450 3742 
Q 1025 3253 1025 2328 
Q 1025 1406 1450 917 
Q 1875 428 2675 428 
Q 3081 428 3442 575 
Q 3803 722 4122 1019 
L 4122 359 
Q 3791 134 3420 21 
Q 3050 -91 2638 -91 
Q 1578 -91 968 557 
Q 359 1206 359 2328 
Q 359 3453 968 4101 
Q 1578 4750 2638 4750 
Q 3056 4750 3426 4639 
Q 3797 4528 4122 4306 
z
" transform="scale(0.015625)"/>
      <path id="DejaVuSans-50" d="M 1259 4147 
L 1259 2394 
L 2053 2394 
Q 2494 2394 2734 2622 
Q 2975 2850 2975 3272 
Q 2975 3691 2734 3919 
Q 2494 4147 2053 4147 
L 1259 4147 
z
M 628 4666 
L 2053 4666 
Q 2838 4666 3239 4311 
Q 3641 3956 3641 3272 
Q 3641 2581 3239 2228 
Q 2838 1875 2053 1875 
L 1259 1875 
L 1259 0 
L 628 0 
L 628 4666 
z
" transform="scale(0.015625)"/>
      <path id="DejaVuSans-20" transform="scale(0.015625)"/>
      <path id="DejaVuSans-42" d="M 1259 2228 
L 1259 519 
L 2272 519 
Q 2781 519 3026 730 
Q 3272 941 3272 1375 
Q 3272 1813 3026 2020 
Q 2781 2228 2272 2228 
L 1259 2228 
z
M 1259 4147 
L 1259 2741 
L 2194 2741 
Q 2656 2741 2882 2914 
Q 3109 3088 3109 3444 
Q 3109 3797 2882 3972 
Q 2656 4147 2194 4147 
L 1259 4147 
z
M 628 4666 
L 2241 4666 
Q 2963 4666 3353 4366 
Q 3744 4066 3744 3513 
Q 3744 3084 3544 2831 
Q 3344 2578 2956 2516 
Q 3422 2416 3680 2098 
Q 3938 1781 3938 1306 
Q 3938 681 3513 340 
Q 3088 0 2303 0 
L 628 0 
L 628 4666 
z
" transform="scale(0.015625)"/>
      <path id="DejaVuSans-6f" d="M 1959 3097 
Q 1497 3097 1228 2736 
Q 959 2375 959 1747 
Q 959 1119 1226 758 
Q 1494 397 1959 397 
Q 2419 397 2687 759 
Q 2956 1122 2956 1747 
Q 2956 2369 2687 2733 
Q 2419 3097 1959 3097 
z
M 1959 3584 
Q 2709 3584 3137 3096 
Q 3566 2609 3566 1747 
Q 3566 888 3137 398 
Q 2709 -91 1959 -91 
Q 1206 -91 779 398 
Q 353 888 353 1747 
Q 353 2609 779 3096 
Q 1206 3584 1959 3584 
z
" transform="scale(0.015625)"/>
      <path id="DejaVuSans-78" d="M 3513 3500 
L 2247 1797 
L 3578 0 
L 2900 0 
L 1881 1375 
L 863 0 
L 184 0 
L 1544 1831 
L 300 3500 
L 978 3500 
L 1906 2253 
L 2834 3500 
L 3513 3500 
z
" transform="scale(0.015625)"/>
      <path id="DejaVuSans-61" d="M 2194 1759 
Q 1497 1759 1228 1600 
Q 959 1441 959 1056 
Q 959 750 1161 570 
Q 1363 391 1709 391 
Q 2188 391 2477 730 
Q 2766 1069 2766 1631 
L 2766 1759 
L 2194 1759 
z
M 3341 1997 
L 3341 0 
L 2766 0 
L 2766 531 
Q 2569 213 2275 61 
Q 1981 -91 1556 -91 
Q 1019 -91 701 211 
Q 384 513 384 1019 
Q 384 1609 779 1909 
Q 1175 2209 1959 2209 
L 2766 2209 
L 2766 2266 
Q 2766 2663 2505 2880 
Q 2244 3097 1772 3097 
Q 1472 3097 1187 3025 
Q 903 2953 641 2809 
L 641 3341 
Q 956 3463 1253 3523 
Q 1550 3584 1831 3584 
Q 2591 3584 2966 3190 
Q 3341 2797 3341 1997 
z
" transform="scale(0.015625)"/>
      <path id="DejaVuSans-6e" d="M 3513 2113 
L 3513 0 
L 2938 0 
L 2938 2094 
Q 2938 2591 2744 2837 
Q 2550 3084 2163 3084 
Q 1697 3084 1428 2787 
Q 1159 2491 1159 1978 
L 1159 0 
L 581 0 
L 581 3500 
L 1159 3500 
L 1159 2956 
Q 1366 3272 1645 3428 
Q 1925 3584 2291 3584 
Q 2894 3584 3203 3211 
Q 3513 2838 3513 2113 
z
" transform="scale(0.015625)"/>
      <path id="DejaVuSans-64" d="M 2906 2969 
L 2906 4863 
L 3481 4863 
L 3481 0 
L 2906 0 
L 2906 525 
Q 2725 213 2448 61 
Q 2172 -91 1784 -91 
Q 1150 -91 751 415 
Q 353 922 353 1747 
Q 353 2572 751 3078 
Q 1150 3584 1784 3584 
Q 2172 3584 2448 3432 
Q 2725 3281 2906 2969 
z
M 947 1747 
Q 947 1113 1208 752 
Q 1469 391 1925 391 
Q 2381 391 2643 752 
Q 2906 1113 2906 1747 
Q 2906 2381 2643 2742 
Q 2381 3103 1925 3103 
Q 1469 3103 1208 2742 
Q 947 2381 947 1747 
z
" transform="scale(0.015625)"/>
      <path id="DejaVuSans-65" d="M 3597 1894 
L 3597 1613 
L 953 1613 
Q 991 1019 1311 708 
Q 1631 397 2203 397 
Q 2534 397 2845 478 
Q 3156 559 3463 722 
L 3463 178 
Q 3153 47 2828 -22 
Q 2503 -91 2169 -91 
Q 1331 -91 842 396 
Q 353 884 353 1716 
Q 353 2575 817 3079 
Q 1281 3584 2069 3584 
Q 2775 3584 3186 3129 
Q 3597 2675 3597 1894 
z
M 3022 2063 
Q 3016 2534 2758 2815 
Q 2500 3097 2075 3097 
Q 1594 3097 1305 2825 
Q 1016 2553 972 2059 
L 3022 2063 
z
" transform="scale(0.015625)"/>
      <path id="DejaVuSans-73" d="M 2834 3397 
L 2834 2853 
Q 2591 2978 2328 3040 
Q 2066 3103 1784 3103 
Q 1356 3103 1142 2972 
Q 928 2841 928 2578 
Q 928 2378 1081 2264 
Q 1234 2150 1697 2047 
L 1894 2003 
Q 2506 1872 2764 1633 
Q 3022 1394 3022 966 
Q 3022 478 2636 193 
Q 2250 -91 1575 -91 
Q 1294 -91 989 -36 
Q 684 19 347 128 
L 347 722 
Q 666 556 975 473 
Q 1284 391 1588 391 
Q 1994 391 2212 530 
Q 2431 669 2431 922 
Q 2431 1156 2273 1281 
Q 2116 1406 1581 1522 
L 1381 1569 
Q 847 1681 609 1914 
Q 372 2147 372 2553 
Q 372 3047 722 3315 
Q 1072 3584 1716 3584 
Q 2034 3584 2315 3537 
Q 2597 3491 2834 3397 
z
" transform="scale(0.015625)"/>
      <path id="DejaVuSans-74" d="M 1172 4494 
L 1172 3500 
L 2356 3500 
L 2356 3053 
L 1172 3053 
L 1172 1153 
Q 1172 725 1289 603 
Q 1406 481 1766 481 
L 2356 481 
L 2356 0 
L 1766 0 
Q 1100 0 847 248 
Q 594 497 594 1153 
L 594 3053 
L 172 3053 
L 172 3500 
L 594 3500 
L 594 4494 
L 1172 4494 
z
" transform="scale(0.015625)"/>
      <path id="DejaVuSans-47" d="M 3809 666 
L 3809 1919 
L 2778 1919 
L 2778 2438 
L 4434 2438 
L 4434 434 
Q 4069 175 3628 42 
Q 3188 -91 2688 -91 
Q 1594 -91 976 548 
Q 359 1188 359 2328 
Q 359 3472 976 4111 
Q 1594 4750 2688 4750 
Q 3144 4750 3555 4637 
Q 3966 4525 4313 4306 
L 4313 3634 
Q 3963 3931 3569 4081 
Q 3175 4231 2741 4231 
Q 1884 4231 1454 3753 
Q 1025 3275 1025 2328 
Q 1025 1384 1454 906 
Q 1884 428 2741 428 
Q 3075 428 3337 486 
Q 3600 544 3809 666 
z
" transform="scale(0.015625)"/>
      <path id="DejaVuSans-72" d="M 2631 2963 
Q 2534 3019 2420 3045 
Q 2306 3072 2169 3072 
Q 1681 3072 1420 2755 
Q 1159 2438 1159 1844 
L 1159 0 
L 581 0 
L 581 3500 
L 1159 3500 
L 1159 2956 
Q 1341 3275 1631 3429 
Q 1922 3584 2338 3584 
Q 2397 3584 2469 3576 
Q 2541 3569 2628 3553 
L 2631 2963 
z
" transform="scale(0.015625)"/>
      <path id="DejaVuSans-69" d="M 603 3500 
L 1178 3500 
L 1178 0 
L 603 0 
L 603 3500 
z
M 603 4863 
L 1178 4863 
L 1178 4134 
L 603 4134 
L 603 4863 
z
" transform="scale(0.015625)"/>
      <path id="DejaVuSans-66" d="M 2375 4863 
L 2375 4384 
L 1825 4384 
Q 1516 4384 1395 4259 
Q 1275 4134 1275 3809 
L 1275 3500 
L 2222 3500 
L 2222 3053 
L 1275 3053 
L 1275 0 
L 697 0 
L 697 3053 
L 147 3053 
L 147 3500 
L 697 3500 
L 697 3744 
Q 697 4328 969 4595 
Q 1241 4863 1831 4863 
L 2375 4863 
z
" transform="scale(0.015625)"/>
      <path id="DejaVuSans-45" d="M 628 4666 
L 3578 4666 
L 3578 4134 
L 1259 4134 
L 1259 2753 
L 3481 2753 
L 3481 2222 
L 1259 2222 
L 1259 531 
L 3634 531 
L 3634 0 
L 628 0 
L 628 4666 
z
" transform="scale(0.015625)"/>
      <path id="DejaVuSans-67" d="M 2906 1791 
Q 2906 2416 2648 2759 
Q 2391 3103 1925 3103 
Q 1463 3103 1205 2759 
Q 947 2416 947 1791 
Q 947 1169 1205 825 
Q 1463 481 1925 481 
Q 2391 481 2648 825 
Q 2906 1169 2906 1791 
z
M 3481 434 
Q 3481 -459 3084 -895 
Q 2688 -1331 1869 -1331 
Q 1566 -1331 1297 -1286 
Q 1028 -1241 775 -1147 
L 775 -588 
Q 1028 -725 1275 -790 
Q 1522 -856 1778 -856 
Q 2344 -856 2625 -561 
Q 2906 -266 2906 331 
L 2906 616 
Q 2728 306 2450 153 
Q 2172 0 1784 0 
Q 1141 0 747 490 
Q 353 981 353 1791 
Q 353 2603 747 3093 
Q 1141 3584 1784 3584 
Q 2172 3584 2450 3431 
Q 2728 3278 2906 2969 
L 2906 3500 
L 3481 3500 
L 3481 434 
z
" transform="scale(0.015625)"/>
      <path id="DejaVuSans-2f" d="M 1625 4666 
L 2156 4666 
L 531 -594 
L 0 -594 
L 1625 4666 
z
" transform="scale(0.015625)"/>
     </defs>
     <use xlink:href="#DejaVuSans-54"/>
     <use xlink:href="#DejaVuSans-43" x="55.208984"/>
     <use xlink:href="#DejaVuSans-50" x="125.033203"/>
     <use xlink:href="#DejaVuSans-20" x="185.335938"/>
     <use xlink:href="#DejaVuSans-42" x="217.123047"/>
     <use xlink:href="#DejaVuSans-6f" x="285.726562"/>
     <use xlink:href="#DejaVuSans-78" x="343.783203"/>
     <use xlink:href="#DejaVuSans-20" x="402.962891"/>
     <use xlink:href="#DejaVuSans-61" x="434.75"/>
     <use xlink:href="#DejaVuSans-6e" x="496.029297"/>
     <use xlink:href="#DejaVuSans-64" x="559.408203"/>
     <use xlink:href="#DejaVuSans-20" x="622.884766"/>
     <use xlink:href="#DejaVuSans-54" x="654.671875"/>
     <use xlink:href="#DejaVuSans-65" x="698.755859"/>
     <use xlink:href="#DejaVuSans-73" x="760.279297"/>
     <use xlink:href="#DejaVuSans-74" x="812.378906"/>
     <use xlink:href="#DejaVuSans-20" x="851.587891"/>
     <use xlink:href="#DejaVuSans-47" x="883.375"/>
     <use xlink:href="#DejaVuSans-72" x="960.865234"/>
     <use xlink:href="#DejaVuSans-69" x="1001.978516"/>
     <use xlink:href="#DejaVuSans-64" x="1029.761719"/>
     <use xlink:href="#DejaVuSans-20" x="1093.238281"/>
     <use xlink:href="#DejaVuSans-50" x="1125.025391"/>
     <use xlink:href="#DejaVuSans-6f" x="1181.703125"/>
     <use xlink:href="#DejaVuSans-69" x="1242.884766"/>
     <use xlink:href="#DejaVuSans-6e" x="1270.667969"/>
     <use xlink:href="#DejaVuSans-74" x="1334.046875"/>
     <use xlink:href="#DejaVuSans-73" x="1373.255859"/>
     <use xlink:href="#DejaVuSans-20" x="1425.355469"/>
     <use xlink:href="#DejaVuSans-66" x="1457.142578"/>
     <use xlink:href="#DejaVuSans-6f" x="1492.347656"/>
     <use xlink:href="#DejaVuSans-72" x="1553.529297"/>
     <use xlink:href="#DejaVuSans-20" x="1594.642578"/>
     <use xlink:href="#DejaVuSans-45" x="1626.429688"/>
     <use xlink:href="#DejaVuSans-64" x="1689.613281"/>
     <use xlink:href="#DejaVuSans-67" x="1753.089844"/>
     <use xlink:href="#DejaVuSans-65" x="1816.566406"/>
     <use xlink:href="#DejaVuSans-73" x="1878.089844"/>
     <use xlink:href="#DejaVuSans-20" x="1930.189453"/>
     <use xlink:href="#DejaVuSans-31" x="1961.976562"/>
     <use xlink:href="#DejaVuSans-2f" x="2025.599609"/>
     <use xlink:href="#DejaVuSans-31" x="2059.291016"/>
     <use xlink:href="#DejaVuSans-30" x="2122.914062"/>
    </g>
   </g>
   <g id="legend_1">
    <g id="patch_7">
     <path d="M 436.607812 217.913505 
L 554.554687 217.913505 
Q 556.554687 217.913505 556.554687 215.913505 
L 556.554687 158.201005 
Q 556.554687 156.201005 554.554687 156.201005 
L 436.607812 156.201005 
Q 434.607812 156.201005 434.607812 158.201005 
L 434.607812 215.913505 
Q 434.607812 217.913505 436.607812 217.913505 
z
" style="fill: #ffffff; opacity: 0.8; stroke: #cccccc; stroke-linejoin: miter"/>
    </g>
    <g id="line2d_41">
     <path d="M 438.607812 164.299443 
L 448.607812 164.299443 
L 458.607812 164.299443 
" style="fill: none; stroke: #bf00bf; stroke-width: 1.5; stroke-linecap: square"/>
    </g>
    <g id="text_14">
     <!-- Gripper Direction -->
     <g transform="translate(466.607812 167.799443) scale(0.1 -0.1)">
      <defs>
       <path id="DejaVuSans-70" d="M 1159 525 
L 1159 -1331 
L 581 -1331 
L 581 3500 
L 1159 3500 
L 1159 2969 
Q 1341 3281 1617 3432 
Q 1894 3584 2278 3584 
Q 2916 3584 3314 3078 
Q 3713 2572 3713 1747 
Q 3713 922 3314 415 
Q 2916 -91 2278 -91 
Q 1894 -91 1617 61 
Q 1341 213 1159 525 
z
M 3116 1747 
Q 3116 2381 2855 2742 
Q 2594 3103 2138 3103 
Q 1681 3103 1420 2742 
Q 1159 2381 1159 1747 
Q 1159 1113 1420 752 
Q 1681 391 2138 391 
Q 2594 391 2855 752 
Q 3116 1113 3116 1747 
z
" transform="scale(0.015625)"/>
       <path id="DejaVuSans-44" d="M 1259 4147 
L 1259 519 
L 2022 519 
Q 2988 519 3436 956 
Q 3884 1394 3884 2338 
Q 3884 3275 3436 3711 
Q 2988 4147 2022 4147 
L 1259 4147 
z
M 628 4666 
L 1925 4666 
Q 3281 4666 3915 4102 
Q 4550 3538 4550 2338 
Q 4550 1131 3912 565 
Q 3275 0 1925 0 
L 628 0 
L 628 4666 
z
" transform="scale(0.015625)"/>
       <path id="DejaVuSans-63" d="M 3122 3366 
L 3122 2828 
Q 2878 2963 2633 3030 
Q 2388 3097 2138 3097 
Q 1578 3097 1268 2742 
Q 959 2388 959 1747 
Q 959 1106 1268 751 
Q 1578 397 2138 397 
Q 2388 397 2633 464 
Q 2878 531 3122 666 
L 3122 134 
Q 2881 22 2623 -34 
Q 2366 -91 2075 -91 
Q 1284 -91 818 406 
Q 353 903 353 1747 
Q 353 2603 823 3093 
Q 1294 3584 2113 3584 
Q 2378 3584 2631 3529 
Q 2884 3475 3122 3366 
z
" transform="scale(0.015625)"/>
      </defs>
      <use xlink:href="#DejaVuSans-47"/>
      <use xlink:href="#DejaVuSans-72" x="77.490234"/>
      <use xlink:href="#DejaVuSans-69" x="118.603516"/>
      <use xlink:href="#DejaVuSans-70" x="146.386719"/>
      <use xlink:href="#DejaVuSans-70" x="209.863281"/>
      <use xlink:href="#DejaVuSans-65" x="273.339844"/>
      <use xlink:href="#DejaVuSans-72" x="334.863281"/>
      <use xlink:href="#DejaVuSans-20" x="375.976562"/>
      <use xlink:href="#DejaVuSans-44" x="407.763672"/>
      <use xlink:href="#DejaVuSans-69" x="484.765625"/>
      <use xlink:href="#DejaVuSans-72" x="512.548828"/>
      <use xlink:href="#DejaVuSans-65" x="551.412109"/>
      <use xlink:href="#DejaVuSans-63" x="612.935547"/>
      <use xlink:href="#DejaVuSans-74" x="667.916016"/>
      <use xlink:href="#DejaVuSans-69" x="707.125"/>
      <use xlink:href="#DejaVuSans-6f" x="734.908203"/>
      <use xlink:href="#DejaVuSans-6e" x="796.089844"/>
     </g>
    </g>
    <g id="line2d_42">
     <path d="M 438.607812 178.977568 
L 448.607812 178.977568 
L 458.607812 178.977568 
" style="fill: none; stroke: #0000ff; stroke-width: 3; stroke-linecap: square"/>
    </g>
    <g id="text_15">
     <!-- Edges of Plane2 -->
     <g transform="translate(466.607812 182.477568) scale(0.1 -0.1)">
      <defs>
       <path id="DejaVuSans-6c" d="M 603 4863 
L 1178 4863 
L 1178 0 
L 603 0 
L 603 4863 
z
" transform="scale(0.015625)"/>
      </defs>
      <use xlink:href="#DejaVuSans-45"/>
      <use xlink:href="#DejaVuSans-64" x="63.183594"/>
      <use xlink:href="#DejaVuSans-67" x="126.660156"/>
      <use xlink:href="#DejaVuSans-65" x="190.136719"/>
      <use xlink:href="#DejaVuSans-73" x="251.660156"/>
      <use xlink:href="#DejaVuSans-20" x="303.759766"/>
      <use xlink:href="#DejaVuSans-6f" x="335.546875"/>
      <use xlink:href="#DejaVuSans-66" x="396.728516"/>
      <use xlink:href="#DejaVuSans-20" x="431.933594"/>
      <use xlink:href="#DejaVuSans-50" x="463.720703"/>
      <use xlink:href="#DejaVuSans-6c" x="524.023438"/>
      <use xlink:href="#DejaVuSans-61" x="551.806641"/>
      <use xlink:href="#DejaVuSans-6e" x="613.085938"/>
      <use xlink:href="#DejaVuSans-65" x="676.464844"/>
      <use xlink:href="#DejaVuSans-32" x="737.988281"/>
     </g>
    </g>
    <g id="line2d_43">
     <path d="M 438.607812 193.655693 
L 448.607812 193.655693 
L 458.607812 193.655693 
" style="fill: none; stroke-dasharray: 1.85,0.8; stroke-dashoffset: 0; stroke: #008000; stroke-width: 0.5"/>
    </g>
    <g id="text_16">
     <!-- TCP Box -->
     <g transform="translate(466.607812 197.155693) scale(0.1 -0.1)">
      <use xlink:href="#DejaVuSans-54"/>
      <use xlink:href="#DejaVuSans-43" x="55.208984"/>
      <use xlink:href="#DejaVuSans-50" x="125.033203"/>
      <use xlink:href="#DejaVuSans-20" x="185.335938"/>
      <use xlink:href="#DejaVuSans-42" x="217.123047"/>
      <use xlink:href="#DejaVuSans-6f" x="285.726562"/>
      <use xlink:href="#DejaVuSans-78" x="343.783203"/>
     </g>
    </g>
    <g id="line2d_44">
     <g>
      <use xlink:href="#m471dac66ae" x="448.607812" y="208.333818" style="fill: #ff0000; stroke: #ff0000"/>
     </g>
    </g>
    <g id="text_17">
     <!-- Test Grid Points -->
     <g transform="translate(466.607812 211.833818) scale(0.1 -0.1)">
      <use xlink:href="#DejaVuSans-54"/>
      <use xlink:href="#DejaVuSans-65" x="44.083984"/>
      <use xlink:href="#DejaVuSans-73" x="105.607422"/>
      <use xlink:href="#DejaVuSans-74" x="157.707031"/>
      <use xlink:href="#DejaVuSans-20" x="196.916016"/>
      <use xlink:href="#DejaVuSans-47" x="228.703125"/>
      <use xlink:href="#DejaVuSans-72" x="306.193359"/>
      <use xlink:href="#DejaVuSans-69" x="347.306641"/>
      <use xlink:href="#DejaVuSans-64" x="375.089844"/>
      <use xlink:href="#DejaVuSans-20" x="438.566406"/>
      <use xlink:href="#DejaVuSans-50" x="470.353516"/>
      <use xlink:href="#DejaVuSans-6f" x="527.03125"/>
      <use xlink:href="#DejaVuSans-69" x="588.212891"/>
      <use xlink:href="#DejaVuSans-6e" x="615.996094"/>
      <use xlink:href="#DejaVuSans-74" x="679.375"/>
      <use xlink:href="#DejaVuSans-73" x="718.583984"/>
     </g>
    </g>
   </g>
  </g>
 </g>
 <defs>
  <clipPath id="p355e870483">
   <rect x="35.304688" y="22.318125" width="526.25" height="329.478261"/>
  </clipPath>
 </defs>
</svg>
