<?xml version="1.0" encoding="utf-8" standalone="no"?>
<!DOCTYPE svg PUBLIC "-//W3C//DTD SVG 1.1//EN"
  "http://www.w3.org/Graphics/SVG/1.1/DTD/svg11.dtd">
<svg xmlns:xlink="http://www.w3.org/1999/xlink" width="568.754687pt" height="566.787648pt" viewBox="0 0 568.754687 566.787648" xmlns="http://www.w3.org/2000/svg" version="1.1">
 <metadata>
  <rdf:RDF xmlns:dc="http://purl.org/dc/elements/1.1/" xmlns:cc="http://creativecommons.org/ns#" xmlns:rdf="http://www.w3.org/1999/02/22-rdf-syntax-ns#">
   <cc:Work>
    <dc:type rdf:resource="http://purl.org/dc/dcmitype/StillImage"/>
    <dc:date>2025-11-14T08:59:07.487327</dc:date>
    <dc:format>image/svg+xml</dc:format>
    <dc:creator>
     <cc:Agent>
      <dc:title>Matplotlib v3.9.4, https://matplotlib.org/</dc:title>
     </cc:Agent>
    </dc:creator>
   </cc:Work>
  </rdf:RDF>
 </metadata>
 <defs>
  <style type="text/css">*{stroke-linejoin: round; stroke-linecap: butt}</style>
 </defs>
 <g id="figure_1">
  <g id="patch_1">
   <path d="M 0 566.787648 
L 568.754687 566.787648 
L 568.754687 0 
L 0 0 
z
" style="fill: #ffffff"/>
  </g>
  <g id="axes_1">
   <g id="patch_2">
    <path d="M 35.304688 542.909523 
L 561.554687 542.909523 
L 561.554687 22.318125 
L 35.304688 22.318125 
z
" style="fill: #ffffff"/>
   </g>
   <g id="matplotlib.axis_1">
    <g id="xtick_1">
     <g id="line2d_1">
      <path d="M 76.995714 542.909523 
L 76.995714 22.318125 
" clip-path="url(#pde36bb0731)" style="fill: none; stroke: #b0b0b0; stroke-width: 0.8; stroke-linecap: square"/>
     </g>
     <g id="line2d_2">
      <defs>
       <path id="m1aeec03717" d="M 0 0 
L 0 3.5 
" style="stroke: #000000; stroke-width: 0.8"/>
      </defs>
      <g>
       <use xlink:href="#m1aeec03717" x="76.995714" y="542.909523" style="stroke: #000000; stroke-width: 0.8"/>
      </g>
     </g>
     <g id="text_1">
      <!-- −40 -->
      <g transform="translate(66.44337 557.50796) scale(0.1 -0.1)">
       <defs>
        <path id="DejaVuSans-2212" d="M 678 2272 
L 4684 2272 
L 4684 1741 
L 678 1741 
L 678 2272 
z
" transform="scale(0.015625)"/>
        <path id="DejaVuSans-34" d="M 2419 4116 
L 825 1625 
L 2419 1625 
L 2419 4116 
z
M 2253 4666 
L 3047 4666 
L 3047 1625 
L 3713 1625 
L 3713 1100 
L 3047 1100 
L 3047 0 
L 2419 0 
L 2419 1100 
L 313 1100 
L 313 1709 
L 2253 4666 
z
" transform="scale(0.015625)"/>
        <path id="DejaVuSans-30" d="M 2034 4250 
Q 1547 4250 1301 3770 
Q 1056 3291 1056 2328 
Q 1056 1369 1301 889 
Q 1547 409 2034 409 
Q 2525 409 2770 889 
Q 3016 1369 3016 2328 
Q 3016 3291 2770 3770 
Q 2525 4250 2034 4250 
z
M 2034 4750 
Q 2819 4750 3233 4129 
Q 3647 3509 3647 2328 
Q 3647 1150 3233 529 
Q 2819 -91 2034 -91 
Q 1250 -91 836 529 
Q 422 1150 422 2328 
Q 422 3509 836 4129 
Q 1250 4750 2034 4750 
z
" transform="scale(0.015625)"/>
       </defs>
       <use xlink:href="#DejaVuSans-2212"/>
       <use xlink:href="#DejaVuSans-34" x="83.789062"/>
       <use xlink:href="#DejaVuSans-30" x="147.412109"/>
      </g>
     </g>
    </g>
    <g id="xtick_2">
     <g id="line2d_3">
      <path d="M 190.167757 542.909523 
L 190.167757 22.318125 
" clip-path="url(#pde36bb0731)" style="fill: none; stroke: #b0b0b0; stroke-width: 0.8; stroke-linecap: square"/>
     </g>
     <g id="line2d_4">
      <g>
       <use xlink:href="#m1aeec03717" x="190.167757" y="542.909523" style="stroke: #000000; stroke-width: 0.8"/>
      </g>
     </g>
     <g id="text_2">
      <!-- −20 -->
      <g transform="translate(179.615413 557.50796) scale(0.1 -0.1)">
       <defs>
        <path id="DejaVuSans-32" d="M 1228 531 
L 3431 531 
L 3431 0 
L 469 0 
L 469 531 
Q 828 903 1448 1529 
Q 2069 2156 2228 2338 
Q 2531 2678 2651 2914 
Q 2772 3150 2772 3378 
Q 2772 3750 2511 3984 
Q 2250 4219 1831 4219 
Q 1534 4219 1204 4116 
Q 875 4013 500 3803 
L 500 4441 
Q 881 4594 1212 4672 
Q 1544 4750 1819 4750 
Q 2544 4750 2975 4387 
Q 3406 4025 3406 3419 
Q 3406 3131 3298 2873 
Q 3191 2616 2906 2266 
Q 2828 2175 2409 1742 
Q 1991 1309 1228 531 
z
" transform="scale(0.015625)"/>
       </defs>
       <use xlink:href="#DejaVuSans-2212"/>
       <use xlink:href="#DejaVuSans-32" x="83.789062"/>
       <use xlink:href="#DejaVuSans-30" x="147.412109"/>
      </g>
     </g>
    </g>
    <g id="xtick_3">
     <g id="line2d_5">
      <path d="M 303.3398 542.909523 
L 303.3398 22.318125 
" clip-path="url(#pde36bb0731)" style="fill: none; stroke: #b0b0b0; stroke-width: 0.8; stroke-linecap: square"/>
     </g>
     <g id="line2d_6">
      <g>
       <use xlink:href="#m1aeec03717" x="303.3398" y="542.909523" style="stroke: #000000; stroke-width: 0.8"/>
      </g>
     </g>
     <g id="text_3">
      <!-- 0 -->
      <g transform="translate(300.15855 557.50796) scale(0.1 -0.1)">
       <use xlink:href="#DejaVuSans-30"/>
      </g>
     </g>
    </g>
    <g id="xtick_4">
     <g id="line2d_7">
      <path d="M 416.511843 542.909523 
L 416.511843 22.318125 
" clip-path="url(#pde36bb0731)" style="fill: none; stroke: #b0b0b0; stroke-width: 0.8; stroke-linecap: square"/>
     </g>
     <g id="line2d_8">
      <g>
       <use xlink:href="#m1aeec03717" x="416.511843" y="542.909523" style="stroke: #000000; stroke-width: 0.8"/>
      </g>
     </g>
     <g id="text_4">
      <!-- 20 -->
      <g transform="translate(410.149343 557.50796) scale(0.1 -0.1)">
       <use xlink:href="#DejaVuSans-32"/>
       <use xlink:href="#DejaVuSans-30" x="63.623047"/>
      </g>
     </g>
    </g>
    <g id="xtick_5">
     <g id="line2d_9">
      <path d="M 529.683886 542.909523 
L 529.683886 22.318125 
" clip-path="url(#pde36bb0731)" style="fill: none; stroke: #b0b0b0; stroke-width: 0.8; stroke-linecap: square"/>
     </g>
     <g id="line2d_10">
      <g>
       <use xlink:href="#m1aeec03717" x="529.683886" y="542.909523" style="stroke: #000000; stroke-width: 0.8"/>
      </g>
     </g>
     <g id="text_5">
      <!-- 40 -->
      <g transform="translate(523.321386 557.50796) scale(0.1 -0.1)">
       <use xlink:href="#DejaVuSans-34"/>
       <use xlink:href="#DejaVuSans-30" x="63.623047"/>
      </g>
     </g>
    </g>
   </g>
   <g id="matplotlib.axis_2">
    <g id="ytick_1">
     <g id="line2d_11">
      <path d="M 35.304688 504.447203 
L 561.554687 504.447203 
" clip-path="url(#pde36bb0731)" style="fill: none; stroke: #b0b0b0; stroke-width: 0.8; stroke-linecap: square"/>
     </g>
     <g id="line2d_12">
      <defs>
       <path id="m10ec5d9b08" d="M 0 0 
L -3.5 0 
" style="stroke: #000000; stroke-width: 0.8"/>
      </defs>
      <g>
       <use xlink:href="#m10ec5d9b08" x="35.304688" y="504.447203" style="stroke: #000000; stroke-width: 0.8"/>
      </g>
     </g>
     <g id="text_6">
      <!-- −40 -->
      <g transform="translate(7.2 508.246421) scale(0.1 -0.1)">
       <use xlink:href="#DejaVuSans-2212"/>
       <use xlink:href="#DejaVuSans-34" x="83.789062"/>
       <use xlink:href="#DejaVuSans-30" x="147.412109"/>
      </g>
     </g>
    </g>
    <g id="ytick_2">
     <g id="line2d_13">
      <path d="M 35.304688 391.27516 
L 561.554687 391.27516 
" clip-path="url(#pde36bb0731)" style="fill: none; stroke: #b0b0b0; stroke-width: 0.8; stroke-linecap: square"/>
     </g>
     <g id="line2d_14">
      <g>
       <use xlink:href="#m10ec5d9b08" x="35.304688" y="391.27516" style="stroke: #000000; stroke-width: 0.8"/>
      </g>
     </g>
     <g id="text_7">
      <!-- −20 -->
      <g transform="translate(7.2 395.074378) scale(0.1 -0.1)">
       <use xlink:href="#DejaVuSans-2212"/>
       <use xlink:href="#DejaVuSans-32" x="83.789062"/>
       <use xlink:href="#DejaVuSans-30" x="147.412109"/>
      </g>
     </g>
    </g>
    <g id="ytick_3">
     <g id="line2d_15">
      <path d="M 35.304688 278.103117 
L 561.554687 278.103117 
" clip-path="url(#pde36bb0731)" style="fill: none; stroke: #b0b0b0; stroke-width: 0.8; stroke-linecap: square"/>
     </g>
     <g id="line2d_16">
      <g>
       <use xlink:href="#m10ec5d9b08" x="35.304688" y="278.103117" style="stroke: #000000; stroke-width: 0.8"/>
      </g>
     </g>
     <g id="text_8">
      <!-- 0 -->
      <g transform="translate(21.942187 281.902335) scale(0.1 -0.1)">
       <use xlink:href="#DejaVuSans-30"/>
      </g>
     </g>
    </g>
    <g id="ytick_4">
     <g id="line2d_17">
      <path d="M 35.304688 164.931074 
L 561.554687 164.931074 
" clip-path="url(#pde36bb0731)" style="fill: none; stroke: #b0b0b0; stroke-width: 0.8; stroke-linecap: square"/>
     </g>
     <g id="line2d_18">
      <g>
       <use xlink:href="#m10ec5d9b08" x="35.304688" y="164.931074" style="stroke: #000000; stroke-width: 0.8"/>
      </g>
     </g>
     <g id="text_9">
      <!-- 20 -->
      <g transform="translate(15.579687 168.730292) scale(0.1 -0.1)">
       <use xlink:href="#DejaVuSans-32"/>
       <use xlink:href="#DejaVuSans-30" x="63.623047"/>
      </g>
     </g>
    </g>
    <g id="ytick_5">
     <g id="line2d_19">
      <path d="M 35.304688 51.759031 
L 561.554687 51.759031 
" clip-path="url(#pde36bb0731)" style="fill: none; stroke: #b0b0b0; stroke-width: 0.8; stroke-linecap: square"/>
     </g>
     <g id="line2d_20">
      <g>
       <use xlink:href="#m10ec5d9b08" x="35.304688" y="51.759031" style="stroke: #000000; stroke-width: 0.8"/>
      </g>
     </g>
     <g id="text_10">
      <!-- 40 -->
      <g transform="translate(15.579687 55.558249) scale(0.1 -0.1)">
       <use xlink:href="#DejaVuSans-34"/>
       <use xlink:href="#DejaVuSans-30" x="63.623047"/>
      </g>
     </g>
    </g>
   </g>
   <g id="line2d_21">
    <path d="M 255.990171 486.323501 
L 91.890709 243.003609 
" clip-path="url(#pde36bb0731)" style="fill: none; stroke: #0000ff; stroke-width: 3; stroke-linecap: square"/>
   </g>
   <g id="line2d_22">
    <path d="M 91.890709 243.003609 
L 318.234795 78.904147 
" clip-path="url(#pde36bb0731)" style="fill: none; stroke: #0000ff; stroke-width: 3; stroke-linecap: square"/>
   </g>
   <g id="line2d_23">
    <path d="M 318.234795 78.904147 
L 386.138021 146.807372 
" clip-path="url(#pde36bb0731)" style="fill: none; stroke: #0000ff; stroke-width: 3; stroke-linecap: square"/>
   </g>
   <g id="line2d_24">
    <path d="M 529.880868 177.390608 
L 459.607931 224.994856 
" clip-path="url(#pde36bb0731)" style="fill: none; stroke: #bf00bf; stroke-width: 1.5; stroke-linecap: square"/>
   </g>
   <g id="line2d_25">
    <path d="M 498.900326 232.551086 
L 420.315536 217.438626 
" clip-path="url(#pde36bb0731)" style="fill: none; stroke: #bf00bf; stroke-width: 1.5; stroke-linecap: square"/>
   </g>
   <g id="line2d_26">
    <path d="M 498.900326 232.551086 
L 461.421426 257.940018 
" clip-path="url(#pde36bb0731)" style="fill: none; stroke: #bf00bf; stroke-width: 1.5; stroke-linecap: square"/>
   </g>
   <g id="line2d_27">
    <path d="M 420.315536 217.438626 
L 382.836636 242.827558 
" clip-path="url(#pde36bb0731)" style="fill: none; stroke: #bf00bf; stroke-width: 1.5; stroke-linecap: square"/>
   </g>
   <g id="line2d_28">
    <path d="M 386.138021 146.807372 
L 504.968666 322.224039 
" clip-path="url(#pde36bb0731)" style="fill: none; stroke: #0000ff; stroke-width: 3; stroke-linecap: square"/>
   </g>
   <g id="line2d_29">
    <path d="M 504.968666 322.224039 
L 306.917591 469.347695 
" clip-path="url(#pde36bb0731)" style="fill: none; stroke: #0000ff; stroke-width: 3; stroke-linecap: square"/>
   </g>
   <g id="line2d_30">
    <path d="M 306.917591 469.347695 
L 255.990171 486.323501 
" clip-path="url(#pde36bb0731)" style="fill: none; stroke: #0000ff; stroke-width: 3; stroke-linecap: square"/>
   </g>
   <g id="line2d_31">
    <path d="M 151.894897 305.488198 
L 270.725542 480.904865 
L 504.968666 322.224039 
L 386.138021 146.807372 
L 151.894897 305.488198 
" clip-path="url(#pde36bb0731)" style="fill: none; stroke-dasharray: 1.85,0.8; stroke-dashoffset: 0; stroke: #008000; stroke-width: 0.5"/>
   </g>
   <g id="line2d_32">
    <defs>
     <path id="m5bf5d1e57d" d="M -2 2 
L 2 -2 
M -2 -2 
L 2 2 
" style="stroke: #ff0000"/>
    </defs>
    <g clip-path="url(#pde36bb0731)">
     <use xlink:href="#m5bf5d1e57d" x="161.680902" y="303.791221" style="fill: #ff0000; stroke: #ff0000"/>
     <use xlink:href="#m5bf5d1e57d" x="178.546407" y="292.366201" style="fill: #ff0000; stroke: #ff0000"/>
     <use xlink:href="#m5bf5d1e57d" x="195.411912" y="280.941182" style="fill: #ff0000; stroke: #ff0000"/>
     <use xlink:href="#m5bf5d1e57d" x="212.277417" y="269.516162" style="fill: #ff0000; stroke: #ff0000"/>
     <use xlink:href="#m5bf5d1e57d" x="229.142922" y="258.091143" style="fill: #ff0000; stroke: #ff0000"/>
     <use xlink:href="#m5bf5d1e57d" x="246.008427" y="246.666123" style="fill: #ff0000; stroke: #ff0000"/>
     <use xlink:href="#m5bf5d1e57d" x="262.873932" y="235.241104" style="fill: #ff0000; stroke: #ff0000"/>
     <use xlink:href="#m5bf5d1e57d" x="279.739436" y="223.816084" style="fill: #ff0000; stroke: #ff0000"/>
     <use xlink:href="#m5bf5d1e57d" x="296.604941" y="212.391065" style="fill: #ff0000; stroke: #ff0000"/>
     <use xlink:href="#m5bf5d1e57d" x="313.470446" y="200.966045" style="fill: #ff0000; stroke: #ff0000"/>
     <use xlink:href="#m5bf5d1e57d" x="330.335951" y="189.541026" style="fill: #ff0000; stroke: #ff0000"/>
     <use xlink:href="#m5bf5d1e57d" x="347.201456" y="178.116006" style="fill: #ff0000; stroke: #ff0000"/>
     <use xlink:href="#m5bf5d1e57d" x="364.066961" y="166.690987" style="fill: #ff0000; stroke: #ff0000"/>
     <use xlink:href="#m5bf5d1e57d" x="380.932466" y="155.265967" style="fill: #ff0000; stroke: #ff0000"/>
     <use xlink:href="#m5bf5d1e57d" x="173.105921" y="320.656725" style="fill: #ff0000; stroke: #ff0000"/>
     <use xlink:href="#m5bf5d1e57d" x="189.971426" y="309.231706" style="fill: #ff0000; stroke: #ff0000"/>
     <use xlink:href="#m5bf5d1e57d" x="206.836931" y="297.806687" style="fill: #ff0000; stroke: #ff0000"/>
     <use xlink:href="#m5bf5d1e57d" x="223.702436" y="286.381667" style="fill: #ff0000; stroke: #ff0000"/>
     <use xlink:href="#m5bf5d1e57d" x="240.567941" y="274.956648" style="fill: #ff0000; stroke: #ff0000"/>
     <use xlink:href="#m5bf5d1e57d" x="257.433446" y="263.531628" style="fill: #ff0000; stroke: #ff0000"/>
     <use xlink:href="#m5bf5d1e57d" x="274.298951" y="252.106609" style="fill: #ff0000; stroke: #ff0000"/>
     <use xlink:href="#m5bf5d1e57d" x="291.164456" y="240.681589" style="fill: #ff0000; stroke: #ff0000"/>
     <use xlink:href="#m5bf5d1e57d" x="308.029961" y="229.25657" style="fill: #ff0000; stroke: #ff0000"/>
     <use xlink:href="#m5bf5d1e57d" x="324.895466" y="217.83155" style="fill: #ff0000; stroke: #ff0000"/>
     <use xlink:href="#m5bf5d1e57d" x="341.760971" y="206.406531" style="fill: #ff0000; stroke: #ff0000"/>
     <use xlink:href="#m5bf5d1e57d" x="358.626476" y="194.981511" style="fill: #ff0000; stroke: #ff0000"/>
     <use xlink:href="#m5bf5d1e57d" x="375.491981" y="183.556492" style="fill: #ff0000; stroke: #ff0000"/>
     <use xlink:href="#m5bf5d1e57d" x="392.357486" y="172.131472" style="fill: #ff0000; stroke: #ff0000"/>
     <use xlink:href="#m5bf5d1e57d" x="184.530941" y="337.52223" style="fill: #ff0000; stroke: #ff0000"/>
     <use xlink:href="#m5bf5d1e57d" x="201.396446" y="326.097211" style="fill: #ff0000; stroke: #ff0000"/>
     <use xlink:href="#m5bf5d1e57d" x="218.261951" y="314.672191" style="fill: #ff0000; stroke: #ff0000"/>
     <use xlink:href="#m5bf5d1e57d" x="235.127456" y="303.247172" style="fill: #ff0000; stroke: #ff0000"/>
     <use xlink:href="#m5bf5d1e57d" x="251.992961" y="291.822153" style="fill: #ff0000; stroke: #ff0000"/>
     <use xlink:href="#m5bf5d1e57d" x="268.858466" y="280.397133" style="fill: #ff0000; stroke: #ff0000"/>
     <use xlink:href="#m5bf5d1e57d" x="285.72397" y="268.972114" style="fill: #ff0000; stroke: #ff0000"/>
     <use xlink:href="#m5bf5d1e57d" x="302.589475" y="257.547094" style="fill: #ff0000; stroke: #ff0000"/>
     <use xlink:href="#m5bf5d1e57d" x="319.45498" y="246.122075" style="fill: #ff0000; stroke: #ff0000"/>
     <use xlink:href="#m5bf5d1e57d" x="336.320485" y="234.697055" style="fill: #ff0000; stroke: #ff0000"/>
     <use xlink:href="#m5bf5d1e57d" x="353.18599" y="223.272036" style="fill: #ff0000; stroke: #ff0000"/>
     <use xlink:href="#m5bf5d1e57d" x="370.051495" y="211.847016" style="fill: #ff0000; stroke: #ff0000"/>
     <use xlink:href="#m5bf5d1e57d" x="386.917" y="200.421997" style="fill: #ff0000; stroke: #ff0000"/>
     <use xlink:href="#m5bf5d1e57d" x="403.782505" y="188.996977" style="fill: #ff0000; stroke: #ff0000"/>
     <use xlink:href="#m5bf5d1e57d" x="195.95596" y="354.387735" style="fill: #ff0000; stroke: #ff0000"/>
     <use xlink:href="#m5bf5d1e57d" x="212.821465" y="342.962716" style="fill: #ff0000; stroke: #ff0000"/>
     <use xlink:href="#m5bf5d1e57d" x="229.68697" y="331.537696" style="fill: #ff0000; stroke: #ff0000"/>
     <use xlink:href="#m5bf5d1e57d" x="246.552475" y="320.112677" style="fill: #ff0000; stroke: #ff0000"/>
     <use xlink:href="#m5bf5d1e57d" x="263.41798" y="308.687657" style="fill: #ff0000; stroke: #ff0000"/>
     <use xlink:href="#m5bf5d1e57d" x="280.283485" y="297.262638" style="fill: #ff0000; stroke: #ff0000"/>
     <use xlink:href="#m5bf5d1e57d" x="297.14899" y="285.837619" style="fill: #ff0000; stroke: #ff0000"/>
     <use xlink:href="#m5bf5d1e57d" x="314.014495" y="274.412599" style="fill: #ff0000; stroke: #ff0000"/>
     <use xlink:href="#m5bf5d1e57d" x="330.88" y="262.98758" style="fill: #ff0000; stroke: #ff0000"/>
     <use xlink:href="#m5bf5d1e57d" x="347.745505" y="251.56256" style="fill: #ff0000; stroke: #ff0000"/>
     <use xlink:href="#m5bf5d1e57d" x="364.61101" y="240.137541" style="fill: #ff0000; stroke: #ff0000"/>
     <use xlink:href="#m5bf5d1e57d" x="381.476515" y="228.712521" style="fill: #ff0000; stroke: #ff0000"/>
     <use xlink:href="#m5bf5d1e57d" x="398.34202" y="217.287502" style="fill: #ff0000; stroke: #ff0000"/>
     <use xlink:href="#m5bf5d1e57d" x="415.207524" y="205.862482" style="fill: #ff0000; stroke: #ff0000"/>
     <use xlink:href="#m5bf5d1e57d" x="207.38098" y="371.25324" style="fill: #ff0000; stroke: #ff0000"/>
     <use xlink:href="#m5bf5d1e57d" x="224.246485" y="359.828221" style="fill: #ff0000; stroke: #ff0000"/>
     <use xlink:href="#m5bf5d1e57d" x="241.11199" y="348.403201" style="fill: #ff0000; stroke: #ff0000"/>
     <use xlink:href="#m5bf5d1e57d" x="257.977495" y="336.978182" style="fill: #ff0000; stroke: #ff0000"/>
     <use xlink:href="#m5bf5d1e57d" x="274.843" y="325.553162" style="fill: #ff0000; stroke: #ff0000"/>
     <use xlink:href="#m5bf5d1e57d" x="291.708504" y="314.128143" style="fill: #ff0000; stroke: #ff0000"/>
     <use xlink:href="#m5bf5d1e57d" x="308.574009" y="302.703123" style="fill: #ff0000; stroke: #ff0000"/>
     <use xlink:href="#m5bf5d1e57d" x="325.439514" y="291.278104" style="fill: #ff0000; stroke: #ff0000"/>
     <use xlink:href="#m5bf5d1e57d" x="342.305019" y="279.853085" style="fill: #ff0000; stroke: #ff0000"/>
     <use xlink:href="#m5bf5d1e57d" x="359.170524" y="268.428065" style="fill: #ff0000; stroke: #ff0000"/>
     <use xlink:href="#m5bf5d1e57d" x="376.036029" y="257.003046" style="fill: #ff0000; stroke: #ff0000"/>
     <use xlink:href="#m5bf5d1e57d" x="392.901534" y="245.578026" style="fill: #ff0000; stroke: #ff0000"/>
     <use xlink:href="#m5bf5d1e57d" x="409.767039" y="234.153007" style="fill: #ff0000; stroke: #ff0000"/>
     <use xlink:href="#m5bf5d1e57d" x="426.632544" y="222.727987" style="fill: #ff0000; stroke: #ff0000"/>
     <use xlink:href="#m5bf5d1e57d" x="218.805999" y="388.118745" style="fill: #ff0000; stroke: #ff0000"/>
     <use xlink:href="#m5bf5d1e57d" x="235.671504" y="376.693726" style="fill: #ff0000; stroke: #ff0000"/>
     <use xlink:href="#m5bf5d1e57d" x="252.537009" y="365.268706" style="fill: #ff0000; stroke: #ff0000"/>
     <use xlink:href="#m5bf5d1e57d" x="269.402514" y="353.843687" style="fill: #ff0000; stroke: #ff0000"/>
     <use xlink:href="#m5bf5d1e57d" x="286.268019" y="342.418667" style="fill: #ff0000; stroke: #ff0000"/>
     <use xlink:href="#m5bf5d1e57d" x="303.133524" y="330.993648" style="fill: #ff0000; stroke: #ff0000"/>
     <use xlink:href="#m5bf5d1e57d" x="319.999029" y="319.568628" style="fill: #ff0000; stroke: #ff0000"/>
     <use xlink:href="#m5bf5d1e57d" x="336.864534" y="308.143609" style="fill: #ff0000; stroke: #ff0000"/>
     <use xlink:href="#m5bf5d1e57d" x="353.730039" y="296.718589" style="fill: #ff0000; stroke: #ff0000"/>
     <use xlink:href="#m5bf5d1e57d" x="370.595544" y="285.29357" style="fill: #ff0000; stroke: #ff0000"/>
     <use xlink:href="#m5bf5d1e57d" x="387.461049" y="273.86855" style="fill: #ff0000; stroke: #ff0000"/>
     <use xlink:href="#m5bf5d1e57d" x="404.326554" y="262.443531" style="fill: #ff0000; stroke: #ff0000"/>
     <use xlink:href="#m5bf5d1e57d" x="421.192059" y="251.018512" style="fill: #ff0000; stroke: #ff0000"/>
     <use xlink:href="#m5bf5d1e57d" x="438.057563" y="239.593492" style="fill: #ff0000; stroke: #ff0000"/>
     <use xlink:href="#m5bf5d1e57d" x="230.231019" y="404.98425" style="fill: #ff0000; stroke: #ff0000"/>
     <use xlink:href="#m5bf5d1e57d" x="247.096524" y="393.559231" style="fill: #ff0000; stroke: #ff0000"/>
     <use xlink:href="#m5bf5d1e57d" x="263.962029" y="382.134211" style="fill: #ff0000; stroke: #ff0000"/>
     <use xlink:href="#m5bf5d1e57d" x="280.827534" y="370.709192" style="fill: #ff0000; stroke: #ff0000"/>
     <use xlink:href="#m5bf5d1e57d" x="297.693038" y="359.284172" style="fill: #ff0000; stroke: #ff0000"/>
     <use xlink:href="#m5bf5d1e57d" x="314.558543" y="347.859153" style="fill: #ff0000; stroke: #ff0000"/>
     <use xlink:href="#m5bf5d1e57d" x="331.424048" y="336.434133" style="fill: #ff0000; stroke: #ff0000"/>
     <use xlink:href="#m5bf5d1e57d" x="348.289553" y="325.009114" style="fill: #ff0000; stroke: #ff0000"/>
     <use xlink:href="#m5bf5d1e57d" x="365.155058" y="313.584094" style="fill: #ff0000; stroke: #ff0000"/>
     <use xlink:href="#m5bf5d1e57d" x="382.020563" y="302.159075" style="fill: #ff0000; stroke: #ff0000"/>
     <use xlink:href="#m5bf5d1e57d" x="398.886068" y="290.734055" style="fill: #ff0000; stroke: #ff0000"/>
     <use xlink:href="#m5bf5d1e57d" x="415.751573" y="279.309036" style="fill: #ff0000; stroke: #ff0000"/>
     <use xlink:href="#m5bf5d1e57d" x="432.617078" y="267.884016" style="fill: #ff0000; stroke: #ff0000"/>
     <use xlink:href="#m5bf5d1e57d" x="449.482583" y="256.458997" style="fill: #ff0000; stroke: #ff0000"/>
     <use xlink:href="#m5bf5d1e57d" x="241.656038" y="421.849755" style="fill: #ff0000; stroke: #ff0000"/>
     <use xlink:href="#m5bf5d1e57d" x="258.521543" y="410.424736" style="fill: #ff0000; stroke: #ff0000"/>
     <use xlink:href="#m5bf5d1e57d" x="275.387048" y="398.999716" style="fill: #ff0000; stroke: #ff0000"/>
     <use xlink:href="#m5bf5d1e57d" x="292.252553" y="387.574697" style="fill: #ff0000; stroke: #ff0000"/>
     <use xlink:href="#m5bf5d1e57d" x="309.118058" y="376.149677" style="fill: #ff0000; stroke: #ff0000"/>
     <use xlink:href="#m5bf5d1e57d" x="325.983563" y="364.724658" style="fill: #ff0000; stroke: #ff0000"/>
     <use xlink:href="#m5bf5d1e57d" x="342.849068" y="353.299638" style="fill: #ff0000; stroke: #ff0000"/>
     <use xlink:href="#m5bf5d1e57d" x="359.714573" y="341.874619" style="fill: #ff0000; stroke: #ff0000"/>
     <use xlink:href="#m5bf5d1e57d" x="376.580078" y="330.449599" style="fill: #ff0000; stroke: #ff0000"/>
     <use xlink:href="#m5bf5d1e57d" x="393.445583" y="319.02458" style="fill: #ff0000; stroke: #ff0000"/>
     <use xlink:href="#m5bf5d1e57d" x="410.311088" y="307.59956" style="fill: #ff0000; stroke: #ff0000"/>
     <use xlink:href="#m5bf5d1e57d" x="427.176593" y="296.174541" style="fill: #ff0000; stroke: #ff0000"/>
     <use xlink:href="#m5bf5d1e57d" x="444.042097" y="284.749521" style="fill: #ff0000; stroke: #ff0000"/>
     <use xlink:href="#m5bf5d1e57d" x="460.907602" y="273.324502" style="fill: #ff0000; stroke: #ff0000"/>
     <use xlink:href="#m5bf5d1e57d" x="253.081058" y="438.71526" style="fill: #ff0000; stroke: #ff0000"/>
     <use xlink:href="#m5bf5d1e57d" x="269.946563" y="427.290241" style="fill: #ff0000; stroke: #ff0000"/>
     <use xlink:href="#m5bf5d1e57d" x="286.812068" y="415.865221" style="fill: #ff0000; stroke: #ff0000"/>
     <use xlink:href="#m5bf5d1e57d" x="303.677572" y="404.440202" style="fill: #ff0000; stroke: #ff0000"/>
     <use xlink:href="#m5bf5d1e57d" x="320.543077" y="393.015182" style="fill: #ff0000; stroke: #ff0000"/>
     <use xlink:href="#m5bf5d1e57d" x="337.408582" y="381.590163" style="fill: #ff0000; stroke: #ff0000"/>
     <use xlink:href="#m5bf5d1e57d" x="354.274087" y="370.165143" style="fill: #ff0000; stroke: #ff0000"/>
     <use xlink:href="#m5bf5d1e57d" x="371.139592" y="358.740124" style="fill: #ff0000; stroke: #ff0000"/>
     <use xlink:href="#m5bf5d1e57d" x="388.005097" y="347.315104" style="fill: #ff0000; stroke: #ff0000"/>
     <use xlink:href="#m5bf5d1e57d" x="404.870602" y="335.890085" style="fill: #ff0000; stroke: #ff0000"/>
     <use xlink:href="#m5bf5d1e57d" x="421.736107" y="324.465065" style="fill: #ff0000; stroke: #ff0000"/>
     <use xlink:href="#m5bf5d1e57d" x="438.601612" y="313.040046" style="fill: #ff0000; stroke: #ff0000"/>
     <use xlink:href="#m5bf5d1e57d" x="455.467117" y="301.615026" style="fill: #ff0000; stroke: #ff0000"/>
     <use xlink:href="#m5bf5d1e57d" x="472.332622" y="290.190007" style="fill: #ff0000; stroke: #ff0000"/>
     <use xlink:href="#m5bf5d1e57d" x="264.506077" y="455.580765" style="fill: #ff0000; stroke: #ff0000"/>
     <use xlink:href="#m5bf5d1e57d" x="281.371582" y="444.155746" style="fill: #ff0000; stroke: #ff0000"/>
     <use xlink:href="#m5bf5d1e57d" x="298.237087" y="432.730726" style="fill: #ff0000; stroke: #ff0000"/>
     <use xlink:href="#m5bf5d1e57d" x="315.102592" y="421.305707" style="fill: #ff0000; stroke: #ff0000"/>
     <use xlink:href="#m5bf5d1e57d" x="331.968097" y="409.880687" style="fill: #ff0000; stroke: #ff0000"/>
     <use xlink:href="#m5bf5d1e57d" x="348.833602" y="398.455668" style="fill: #ff0000; stroke: #ff0000"/>
     <use xlink:href="#m5bf5d1e57d" x="365.699107" y="387.030648" style="fill: #ff0000; stroke: #ff0000"/>
     <use xlink:href="#m5bf5d1e57d" x="382.564612" y="375.605629" style="fill: #ff0000; stroke: #ff0000"/>
     <use xlink:href="#m5bf5d1e57d" x="399.430117" y="364.180609" style="fill: #ff0000; stroke: #ff0000"/>
     <use xlink:href="#m5bf5d1e57d" x="416.295622" y="352.75559" style="fill: #ff0000; stroke: #ff0000"/>
     <use xlink:href="#m5bf5d1e57d" x="433.161127" y="341.33057" style="fill: #ff0000; stroke: #ff0000"/>
     <use xlink:href="#m5bf5d1e57d" x="450.026631" y="329.905551" style="fill: #ff0000; stroke: #ff0000"/>
     <use xlink:href="#m5bf5d1e57d" x="466.892136" y="318.480531" style="fill: #ff0000; stroke: #ff0000"/>
     <use xlink:href="#m5bf5d1e57d" x="483.757641" y="307.055512" style="fill: #ff0000; stroke: #ff0000"/>
     <use xlink:href="#m5bf5d1e57d" x="275.931097" y="472.44627" style="fill: #ff0000; stroke: #ff0000"/>
     <use xlink:href="#m5bf5d1e57d" x="292.796602" y="461.02125" style="fill: #ff0000; stroke: #ff0000"/>
     <use xlink:href="#m5bf5d1e57d" x="309.662107" y="449.596231" style="fill: #ff0000; stroke: #ff0000"/>
     <use xlink:href="#m5bf5d1e57d" x="326.527611" y="438.171211" style="fill: #ff0000; stroke: #ff0000"/>
     <use xlink:href="#m5bf5d1e57d" x="343.393116" y="426.746192" style="fill: #ff0000; stroke: #ff0000"/>
     <use xlink:href="#m5bf5d1e57d" x="360.258621" y="415.321173" style="fill: #ff0000; stroke: #ff0000"/>
     <use xlink:href="#m5bf5d1e57d" x="377.124126" y="403.896153" style="fill: #ff0000; stroke: #ff0000"/>
     <use xlink:href="#m5bf5d1e57d" x="393.989631" y="392.471134" style="fill: #ff0000; stroke: #ff0000"/>
     <use xlink:href="#m5bf5d1e57d" x="410.855136" y="381.046114" style="fill: #ff0000; stroke: #ff0000"/>
     <use xlink:href="#m5bf5d1e57d" x="427.720641" y="369.621095" style="fill: #ff0000; stroke: #ff0000"/>
     <use xlink:href="#m5bf5d1e57d" x="444.586146" y="358.196075" style="fill: #ff0000; stroke: #ff0000"/>
     <use xlink:href="#m5bf5d1e57d" x="461.451651" y="346.771056" style="fill: #ff0000; stroke: #ff0000"/>
     <use xlink:href="#m5bf5d1e57d" x="478.317156" y="335.346036" style="fill: #ff0000; stroke: #ff0000"/>
     <use xlink:href="#m5bf5d1e57d" x="495.182661" y="323.921017" style="fill: #ff0000; stroke: #ff0000"/>
    </g>
   </g>
   <g id="patch_3">
    <path d="M 35.304688 542.909523 
L 35.304688 22.318125 
" style="fill: none; stroke: #000000; stroke-width: 0.8; stroke-linejoin: miter; stroke-linecap: square"/>
   </g>
   <g id="patch_4">
    <path d="M 561.554687 542.909523 
L 561.554687 22.318125 
" style="fill: none; stroke: #000000; stroke-width: 0.8; stroke-linejoin: miter; stroke-linecap: square"/>
   </g>
   <g id="patch_5">
    <path d="M 35.304688 542.909523 
L 561.554688 542.909523 
" style="fill: none; stroke: #000000; stroke-width: 0.8; stroke-linejoin: miter; stroke-linecap: square"/>
   </g>
   <g id="patch_6">
    <path d="M 35.304688 22.318125 
L 561.554688 22.318125 
" style="fill: none; stroke: #000000; stroke-width: 0.8; stroke-linejoin: miter; stroke-linecap: square"/>
   </g>
   <g id="text_11">
    <!-- TCP Box and Test Grid Points for Edges 4/6 -->
    <g transform="translate(171.057187 16.318125) scale(0.12 -0.12)">
     <defs>
      <path id="DejaVuSans-54" d="M -19 4666 
L 3928 4666 
L 3928 4134 
L 2272 4134 
L 2272 0 
L 1638 0 
L 1638 4134 
L -19 4134 
L -19 4666 
z
" transform="scale(0.015625)"/>
      <path id="DejaVuSans-43" d="M 4122 4306 
L 4122 3641 
Q 3803 3938 3442 4084 
Q 3081 4231 2675 4231 
Q 1875 4231 1450 3742 
Q 1025 3253 1025 2328 
Q 1025 1406 1450 917 
Q 1875 428 2675 428 
Q 3081 428 3442 575 
Q 3803 722 4122 1019 
L 4122 359 
Q 3791 134 3420 21 
Q 3050 -91 2638 -91 
Q 1578 -91 968 557 
Q 359 1206 359 2328 
Q 359 3453 968 4101 
Q 1578 4750 2638 4750 
Q 3056 4750 3426 4639 
Q 3797 4528 4122 4306 
z
" transform="scale(0.015625)"/>
      <path id="DejaVuSans-50" d="M 1259 4147 
L 1259 2394 
L 2053 2394 
Q 2494 2394 2734 2622 
Q 2975 2850 2975 3272 
Q 2975 3691 2734 3919 
Q 2494 4147 2053 4147 
L 1259 4147 
z
M 628 4666 
L 2053 4666 
Q 2838 4666 3239 4311 
Q 3641 3956 3641 3272 
Q 3641 2581 3239 2228 
Q 2838 1875 2053 1875 
L 1259 1875 
L 1259 0 
L 628 0 
L 628 4666 
z
" transform="scale(0.015625)"/>
      <path id="DejaVuSans-20" transform="scale(0.015625)"/>
      <path id="DejaVuSans-42" d="M 1259 2228 
L 1259 519 
L 2272 519 
Q 2781 519 3026 730 
Q 3272 941 3272 1375 
Q 3272 1813 3026 2020 
Q 2781 2228 2272 2228 
L 1259 2228 
z
M 1259 4147 
L 1259 2741 
L 2194 2741 
Q 2656 2741 2882 2914 
Q 3109 3088 3109 3444 
Q 3109 3797 2882 3972 
Q 2656 4147 2194 4147 
L 1259 4147 
z
M 628 4666 
L 2241 4666 
Q 2963 4666 3353 4366 
Q 3744 4066 3744 3513 
Q 3744 3084 3544 2831 
Q 3344 2578 2956 2516 
Q 3422 2416 3680 2098 
Q 3938 1781 3938 1306 
Q 3938 681 3513 340 
Q 3088 0 2303 0 
L 628 0 
L 628 4666 
z
" transform="scale(0.015625)"/>
      <path id="DejaVuSans-6f" d="M 1959 3097 
Q 1497 3097 1228 2736 
Q 959 2375 959 1747 
Q 959 1119 1226 758 
Q 1494 397 1959 397 
Q 2419 397 2687 759 
Q 2956 1122 2956 1747 
Q 2956 2369 2687 2733 
Q 2419 3097 1959 3097 
z
M 1959 3584 
Q 2709 3584 3137 3096 
Q 3566 2609 3566 1747 
Q 3566 888 3137 398 
Q 2709 -91 1959 -91 
Q 1206 -91 779 398 
Q 353 888 353 1747 
Q 353 2609 779 3096 
Q 1206 3584 1959 3584 
z
" transform="scale(0.015625)"/>
      <path id="DejaVuSans-78" d="M 3513 3500 
L 2247 1797 
L 3578 0 
L 2900 0 
L 1881 1375 
L 863 0 
L 184 0 
L 1544 1831 
L 300 3500 
L 978 3500 
L 1906 2253 
L 2834 3500 
L 3513 3500 
z
" transform="scale(0.015625)"/>
      <path id="DejaVuSans-61" d="M 2194 1759 
Q 1497 1759 1228 1600 
Q 959 1441 959 1056 
Q 959 750 1161 570 
Q 1363 391 1709 391 
Q 2188 391 2477 730 
Q 2766 1069 2766 1631 
L 2766 1759 
L 2194 1759 
z
M 3341 1997 
L 3341 0 
L 2766 0 
L 2766 531 
Q 2569 213 2275 61 
Q 1981 -91 1556 -91 
Q 1019 -91 701 211 
Q 384 513 384 1019 
Q 384 1609 779 1909 
Q 1175 2209 1959 2209 
L 2766 2209 
L 2766 2266 
Q 2766 2663 2505 2880 
Q 2244 3097 1772 3097 
Q 1472 3097 1187 3025 
Q 903 2953 641 2809 
L 641 3341 
Q 956 3463 1253 3523 
Q 1550 3584 1831 3584 
Q 2591 3584 2966 3190 
Q 3341 2797 3341 1997 
z
" transform="scale(0.015625)"/>
      <path id="DejaVuSans-6e" d="M 3513 2113 
L 3513 0 
L 2938 0 
L 2938 2094 
Q 2938 2591 2744 2837 
Q 2550 3084 2163 3084 
Q 1697 3084 1428 2787 
Q 1159 2491 1159 1978 
L 1159 0 
L 581 0 
L 581 3500 
L 1159 3500 
L 1159 2956 
Q 1366 3272 1645 3428 
Q 1925 3584 2291 3584 
Q 2894 3584 3203 3211 
Q 3513 2838 3513 2113 
z
" transform="scale(0.015625)"/>
      <path id="DejaVuSans-64" d="M 2906 2969 
L 2906 4863 
L 3481 4863 
L 3481 0 
L 2906 0 
L 2906 525 
Q 2725 213 2448 61 
Q 2172 -91 1784 -91 
Q 1150 -91 751 415 
Q 353 922 353 1747 
Q 353 2572 751 3078 
Q 1150 3584 1784 3584 
Q 2172 3584 2448 3432 
Q 2725 3281 2906 2969 
z
M 947 1747 
Q 947 1113 1208 752 
Q 1469 391 1925 391 
Q 2381 391 2643 752 
Q 2906 1113 2906 1747 
Q 2906 2381 2643 2742 
Q 2381 3103 1925 3103 
Q 1469 3103 1208 2742 
Q 947 2381 947 1747 
z
" transform="scale(0.015625)"/>
      <path id="DejaVuSans-65" d="M 3597 1894 
L 3597 1613 
L 953 1613 
Q 991 1019 1311 708 
Q 1631 397 2203 397 
Q 2534 397 2845 478 
Q 3156 559 3463 722 
L 3463 178 
Q 3153 47 2828 -22 
Q 2503 -91 2169 -91 
Q 1331 -91 842 396 
Q 353 884 353 1716 
Q 353 2575 817 3079 
Q 1281 3584 2069 3584 
Q 2775 3584 3186 3129 
Q 3597 2675 3597 1894 
z
M 3022 2063 
Q 3016 2534 2758 2815 
Q 2500 3097 2075 3097 
Q 1594 3097 1305 2825 
Q 1016 2553 972 2059 
L 3022 2063 
z
" transform="scale(0.015625)"/>
      <path id="DejaVuSans-73" d="M 2834 3397 
L 2834 2853 
Q 2591 2978 2328 3040 
Q 2066 3103 1784 3103 
Q 1356 3103 1142 2972 
Q 928 2841 928 2578 
Q 928 2378 1081 2264 
Q 1234 2150 1697 2047 
L 1894 2003 
Q 2506 1872 2764 1633 
Q 3022 1394 3022 966 
Q 3022 478 2636 193 
Q 2250 -91 1575 -91 
Q 1294 -91 989 -36 
Q 684 19 347 128 
L 347 722 
Q 666 556 975 473 
Q 1284 391 1588 391 
Q 1994 391 2212 530 
Q 2431 669 2431 922 
Q 2431 1156 2273 1281 
Q 2116 1406 1581 1522 
L 1381 1569 
Q 847 1681 609 1914 
Q 372 2147 372 2553 
Q 372 3047 722 3315 
Q 1072 3584 1716 3584 
Q 2034 3584 2315 3537 
Q 2597 3491 2834 3397 
z
" transform="scale(0.015625)"/>
      <path id="DejaVuSans-74" d="M 1172 4494 
L 1172 3500 
L 2356 3500 
L 2356 3053 
L 1172 3053 
L 1172 1153 
Q 1172 725 1289 603 
Q 1406 481 1766 481 
L 2356 481 
L 2356 0 
L 1766 0 
Q 1100 0 847 248 
Q 594 497 594 1153 
L 594 3053 
L 172 3053 
L 172 3500 
L 594 3500 
L 594 4494 
L 1172 4494 
z
" transform="scale(0.015625)"/>
      <path id="DejaVuSans-47" d="M 3809 666 
L 3809 1919 
L 2778 1919 
L 2778 2438 
L 4434 2438 
L 4434 434 
Q 4069 175 3628 42 
Q 3188 -91 2688 -91 
Q 1594 -91 976 548 
Q 359 1188 359 2328 
Q 359 3472 976 4111 
Q 1594 4750 2688 4750 
Q 3144 4750 3555 4637 
Q 3966 4525 4313 4306 
L 4313 3634 
Q 3963 3931 3569 4081 
Q 3175 4231 2741 4231 
Q 1884 4231 1454 3753 
Q 1025 3275 1025 2328 
Q 1025 1384 1454 906 
Q 1884 428 2741 428 
Q 3075 428 3337 486 
Q 3600 544 3809 666 
z
" transform="scale(0.015625)"/>
      <path id="DejaVuSans-72" d="M 2631 2963 
Q 2534 3019 2420 3045 
Q 2306 3072 2169 3072 
Q 1681 3072 1420 2755 
Q 1159 2438 1159 1844 
L 1159 0 
L 581 0 
L 581 3500 
L 1159 3500 
L 1159 2956 
Q 1341 3275 1631 3429 
Q 1922 3584 2338 3584 
Q 2397 3584 2469 3576 
Q 2541 3569 2628 3553 
L 2631 2963 
z
" transform="scale(0.015625)"/>
      <path id="DejaVuSans-69" d="M 603 3500 
L 1178 3500 
L 1178 0 
L 603 0 
L 603 3500 
z
M 603 4863 
L 1178 4863 
L 1178 4134 
L 603 4134 
L 603 4863 
z
" transform="scale(0.015625)"/>
      <path id="DejaVuSans-66" d="M 2375 4863 
L 2375 4384 
L 1825 4384 
Q 1516 4384 1395 4259 
Q 1275 4134 1275 3809 
L 1275 3500 
L 2222 3500 
L 2222 3053 
L 1275 3053 
L 1275 0 
L 697 0 
L 697 3053 
L 147 3053 
L 147 3500 
L 697 3500 
L 697 3744 
Q 697 4328 969 4595 
Q 1241 4863 1831 4863 
L 2375 4863 
z
" transform="scale(0.015625)"/>
      <path id="DejaVuSans-45" d="M 628 4666 
L 3578 4666 
L 3578 4134 
L 1259 4134 
L 1259 2753 
L 3481 2753 
L 3481 2222 
L 1259 2222 
L 1259 531 
L 3634 531 
L 3634 0 
L 628 0 
L 628 4666 
z
" transform="scale(0.015625)"/>
      <path id="DejaVuSans-67" d="M 2906 1791 
Q 2906 2416 2648 2759 
Q 2391 3103 1925 3103 
Q 1463 3103 1205 2759 
Q 947 2416 947 1791 
Q 947 1169 1205 825 
Q 1463 481 1925 481 
Q 2391 481 2648 825 
Q 2906 1169 2906 1791 
z
M 3481 434 
Q 3481 -459 3084 -895 
Q 2688 -1331 1869 -1331 
Q 1566 -1331 1297 -1286 
Q 1028 -1241 775 -1147 
L 775 -588 
Q 1028 -725 1275 -790 
Q 1522 -856 1778 -856 
Q 2344 -856 2625 -561 
Q 2906 -266 2906 331 
L 2906 616 
Q 2728 306 2450 153 
Q 2172 0 1784 0 
Q 1141 0 747 490 
Q 353 981 353 1791 
Q 353 2603 747 3093 
Q 1141 3584 1784 3584 
Q 2172 3584 2450 3431 
Q 2728 3278 2906 2969 
L 2906 3500 
L 3481 3500 
L 3481 434 
z
" transform="scale(0.015625)"/>
      <path id="DejaVuSans-2f" d="M 1625 4666 
L 2156 4666 
L 531 -594 
L 0 -594 
L 1625 4666 
z
" transform="scale(0.015625)"/>
      <path id="DejaVuSans-36" d="M 2113 2584 
Q 1688 2584 1439 2293 
Q 1191 2003 1191 1497 
Q 1191 994 1439 701 
Q 1688 409 2113 409 
Q 2538 409 2786 701 
Q 3034 994 3034 1497 
Q 3034 2003 2786 2293 
Q 2538 2584 2113 2584 
z
M 3366 4563 
L 3366 3988 
Q 3128 4100 2886 4159 
Q 2644 4219 2406 4219 
Q 1781 4219 1451 3797 
Q 1122 3375 1075 2522 
Q 1259 2794 1537 2939 
Q 1816 3084 2150 3084 
Q 2853 3084 3261 2657 
Q 3669 2231 3669 1497 
Q 3669 778 3244 343 
Q 2819 -91 2113 -91 
Q 1303 -91 875 529 
Q 447 1150 447 2328 
Q 447 3434 972 4092 
Q 1497 4750 2381 4750 
Q 2619 4750 2861 4703 
Q 3103 4656 3366 4563 
z
" transform="scale(0.015625)"/>
     </defs>
     <use xlink:href="#DejaVuSans-54"/>
     <use xlink:href="#DejaVuSans-43" x="55.208984"/>
     <use xlink:href="#DejaVuSans-50" x="125.033203"/>
     <use xlink:href="#DejaVuSans-20" x="185.335938"/>
     <use xlink:href="#DejaVuSans-42" x="217.123047"/>
     <use xlink:href="#DejaVuSans-6f" x="285.726562"/>
     <use xlink:href="#DejaVuSans-78" x="343.783203"/>
     <use xlink:href="#DejaVuSans-20" x="402.962891"/>
     <use xlink:href="#DejaVuSans-61" x="434.75"/>
     <use xlink:href="#DejaVuSans-6e" x="496.029297"/>
     <use xlink:href="#DejaVuSans-64" x="559.408203"/>
     <use xlink:href="#DejaVuSans-20" x="622.884766"/>
     <use xlink:href="#DejaVuSans-54" x="654.671875"/>
     <use xlink:href="#DejaVuSans-65" x="698.755859"/>
     <use xlink:href="#DejaVuSans-73" x="760.279297"/>
     <use xlink:href="#DejaVuSans-74" x="812.378906"/>
     <use xlink:href="#DejaVuSans-20" x="851.587891"/>
     <use xlink:href="#DejaVuSans-47" x="883.375"/>
     <use xlink:href="#DejaVuSans-72" x="960.865234"/>
     <use xlink:href="#DejaVuSans-69" x="1001.978516"/>
     <use xlink:href="#DejaVuSans-64" x="1029.761719"/>
     <use xlink:href="#DejaVuSans-20" x="1093.238281"/>
     <use xlink:href="#DejaVuSans-50" x="1125.025391"/>
     <use xlink:href="#DejaVuSans-6f" x="1181.703125"/>
     <use xlink:href="#DejaVuSans-69" x="1242.884766"/>
     <use xlink:href="#DejaVuSans-6e" x="1270.667969"/>
     <use xlink:href="#DejaVuSans-74" x="1334.046875"/>
     <use xlink:href="#DejaVuSans-73" x="1373.255859"/>
     <use xlink:href="#DejaVuSans-20" x="1425.355469"/>
     <use xlink:href="#DejaVuSans-66" x="1457.142578"/>
     <use xlink:href="#DejaVuSans-6f" x="1492.347656"/>
     <use xlink:href="#DejaVuSans-72" x="1553.529297"/>
     <use xlink:href="#DejaVuSans-20" x="1594.642578"/>
     <use xlink:href="#DejaVuSans-45" x="1626.429688"/>
     <use xlink:href="#DejaVuSans-64" x="1689.613281"/>
     <use xlink:href="#DejaVuSans-67" x="1753.089844"/>
     <use xlink:href="#DejaVuSans-65" x="1816.566406"/>
     <use xlink:href="#DejaVuSans-73" x="1878.089844"/>
     <use xlink:href="#DejaVuSans-20" x="1930.189453"/>
     <use xlink:href="#DejaVuSans-34" x="1961.976562"/>
     <use xlink:href="#DejaVuSans-2f" x="2025.599609"/>
     <use xlink:href="#DejaVuSans-36" x="2059.291016"/>
    </g>
   </g>
   <g id="legend_1">
    <g id="patch_7">
     <path d="M 436.607812 89.030625 
L 554.554687 89.030625 
Q 556.554687 89.030625 556.554687 87.030625 
L 556.554687 29.318125 
Q 556.554687 27.318125 554.554687 27.318125 
L 436.607812 27.318125 
Q 434.607812 27.318125 434.607812 29.318125 
L 434.607812 87.030625 
Q 434.607812 89.030625 436.607812 89.030625 
z
" style="fill: #ffffff; opacity: 0.8; stroke: #cccccc; stroke-linejoin: miter"/>
    </g>
    <g id="line2d_33">
     <path d="M 438.607812 35.416562 
L 448.607812 35.416562 
L 458.607812 35.416562 
" style="fill: none; stroke: #0000ff; stroke-width: 3; stroke-linecap: square"/>
    </g>
    <g id="text_12">
     <!-- Edges of Plane2 -->
     <g transform="translate(466.607812 38.916562) scale(0.1 -0.1)">
      <defs>
       <path id="DejaVuSans-6c" d="M 603 4863 
L 1178 4863 
L 1178 0 
L 603 0 
L 603 4863 
z
" transform="scale(0.015625)"/>
      </defs>
      <use xlink:href="#DejaVuSans-45"/>
      <use xlink:href="#DejaVuSans-64" x="63.183594"/>
      <use xlink:href="#DejaVuSans-67" x="126.660156"/>
      <use xlink:href="#DejaVuSans-65" x="190.136719"/>
      <use xlink:href="#DejaVuSans-73" x="251.660156"/>
      <use xlink:href="#DejaVuSans-20" x="303.759766"/>
      <use xlink:href="#DejaVuSans-6f" x="335.546875"/>
      <use xlink:href="#DejaVuSans-66" x="396.728516"/>
      <use xlink:href="#DejaVuSans-20" x="431.933594"/>
      <use xlink:href="#DejaVuSans-50" x="463.720703"/>
      <use xlink:href="#DejaVuSans-6c" x="524.023438"/>
      <use xlink:href="#DejaVuSans-61" x="551.806641"/>
      <use xlink:href="#DejaVuSans-6e" x="613.085938"/>
      <use xlink:href="#DejaVuSans-65" x="676.464844"/>
      <use xlink:href="#DejaVuSans-32" x="737.988281"/>
     </g>
    </g>
    <g id="line2d_34">
     <path d="M 438.607812 50.094687 
L 448.607812 50.094687 
L 458.607812 50.094687 
" style="fill: none; stroke: #bf00bf; stroke-width: 1.5; stroke-linecap: square"/>
    </g>
    <g id="text_13">
     <!-- Gripper Direction -->
     <g transform="translate(466.607812 53.594687) scale(0.1 -0.1)">
      <defs>
       <path id="DejaVuSans-70" d="M 1159 525 
L 1159 -1331 
L 581 -1331 
L 581 3500 
L 1159 3500 
L 1159 2969 
Q 1341 3281 1617 3432 
Q 1894 3584 2278 3584 
Q 2916 3584 3314 3078 
Q 3713 2572 3713 1747 
Q 3713 922 3314 415 
Q 2916 -91 2278 -91 
Q 1894 -91 1617 61 
Q 1341 213 1159 525 
z
M 3116 1747 
Q 3116 2381 2855 2742 
Q 2594 3103 2138 3103 
Q 1681 3103 1420 2742 
Q 1159 2381 1159 1747 
Q 1159 1113 1420 752 
Q 1681 391 2138 391 
Q 2594 391 2855 752 
Q 3116 1113 3116 1747 
z
" transform="scale(0.015625)"/>
       <path id="DejaVuSans-44" d="M 1259 4147 
L 1259 519 
L 2022 519 
Q 2988 519 3436 956 
Q 3884 1394 3884 2338 
Q 3884 3275 3436 3711 
Q 2988 4147 2022 4147 
L 1259 4147 
z
M 628 4666 
L 1925 4666 
Q 3281 4666 3915 4102 
Q 4550 3538 4550 2338 
Q 4550 1131 3912 565 
Q 3275 0 1925 0 
L 628 0 
L 628 4666 
z
" transform="scale(0.015625)"/>
       <path id="DejaVuSans-63" d="M 3122 3366 
L 3122 2828 
Q 2878 2963 2633 3030 
Q 2388 3097 2138 3097 
Q 1578 3097 1268 2742 
Q 959 2388 959 1747 
Q 959 1106 1268 751 
Q 1578 397 2138 397 
Q 2388 397 2633 464 
Q 2878 531 3122 666 
L 3122 134 
Q 2881 22 2623 -34 
Q 2366 -91 2075 -91 
Q 1284 -91 818 406 
Q 353 903 353 1747 
Q 353 2603 823 3093 
Q 1294 3584 2113 3584 
Q 2378 3584 2631 3529 
Q 2884 3475 3122 3366 
z
" transform="scale(0.015625)"/>
      </defs>
      <use xlink:href="#DejaVuSans-47"/>
      <use xlink:href="#DejaVuSans-72" x="77.490234"/>
      <use xlink:href="#DejaVuSans-69" x="118.603516"/>
      <use xlink:href="#DejaVuSans-70" x="146.386719"/>
      <use xlink:href="#DejaVuSans-70" x="209.863281"/>
      <use xlink:href="#DejaVuSans-65" x="273.339844"/>
      <use xlink:href="#DejaVuSans-72" x="334.863281"/>
      <use xlink:href="#DejaVuSans-20" x="375.976562"/>
      <use xlink:href="#DejaVuSans-44" x="407.763672"/>
      <use xlink:href="#DejaVuSans-69" x="484.765625"/>
      <use xlink:href="#DejaVuSans-72" x="512.548828"/>
      <use xlink:href="#DejaVuSans-65" x="551.412109"/>
      <use xlink:href="#DejaVuSans-63" x="612.935547"/>
      <use xlink:href="#DejaVuSans-74" x="667.916016"/>
      <use xlink:href="#DejaVuSans-69" x="707.125"/>
      <use xlink:href="#DejaVuSans-6f" x="734.908203"/>
      <use xlink:href="#DejaVuSans-6e" x="796.089844"/>
     </g>
    </g>
    <g id="line2d_35">
     <path d="M 438.607812 64.772812 
L 448.607812 64.772812 
L 458.607812 64.772812 
" style="fill: none; stroke-dasharray: 1.85,0.8; stroke-dashoffset: 0; stroke: #008000; stroke-width: 0.5"/>
    </g>
    <g id="text_14">
     <!-- TCP Box -->
     <g transform="translate(466.607812 68.272812) scale(0.1 -0.1)">
      <use xlink:href="#DejaVuSans-54"/>
      <use xlink:href="#DejaVuSans-43" x="55.208984"/>
      <use xlink:href="#DejaVuSans-50" x="125.033203"/>
      <use xlink:href="#DejaVuSans-20" x="185.335938"/>
      <use xlink:href="#DejaVuSans-42" x="217.123047"/>
      <use xlink:href="#DejaVuSans-6f" x="285.726562"/>
      <use xlink:href="#DejaVuSans-78" x="343.783203"/>
     </g>
    </g>
    <g id="line2d_36">
     <g>
      <use xlink:href="#m5bf5d1e57d" x="448.607812" y="79.450937" style="fill: #ff0000; stroke: #ff0000"/>
     </g>
    </g>
    <g id="text_15">
     <!-- Test Grid Points -->
     <g transform="translate(466.607812 82.950937) scale(0.1 -0.1)">
      <use xlink:href="#DejaVuSans-54"/>
      <use xlink:href="#DejaVuSans-65" x="44.083984"/>
      <use xlink:href="#DejaVuSans-73" x="105.607422"/>
      <use xlink:href="#DejaVuSans-74" x="157.707031"/>
      <use xlink:href="#DejaVuSans-20" x="196.916016"/>
      <use xlink:href="#DejaVuSans-47" x="228.703125"/>
      <use xlink:href="#DejaVuSans-72" x="306.193359"/>
      <use xlink:href="#DejaVuSans-69" x="347.306641"/>
      <use xlink:href="#DejaVuSans-64" x="375.089844"/>
      <use xlink:href="#DejaVuSans-20" x="438.566406"/>
      <use xlink:href="#DejaVuSans-50" x="470.353516"/>
      <use xlink:href="#DejaVuSans-6f" x="527.03125"/>
      <use xlink:href="#DejaVuSans-69" x="588.212891"/>
      <use xlink:href="#DejaVuSans-6e" x="615.996094"/>
      <use xlink:href="#DejaVuSans-74" x="679.375"/>
      <use xlink:href="#DejaVuSans-73" x="718.583984"/>
     </g>
    </g>
   </g>
  </g>
 </g>
 <defs>
  <clipPath id="pde36bb0731">
   <rect x="35.304688" y="22.318125" width="526.25" height="520.591398"/>
  </clipPath>
 </defs>
</svg>
